<svg xmlns="http://www.w3.org/2000/svg" viewBox="0 0 500 500"><g id="freepik--flowers-1--inject-39"><path d="M143.42,293.41v0Z" style="fill:#37474f"></path><path d="M124.71,135.7c.93,5.92-3.2,35.31-7.5,37.6-3.37,1.8-19.09-11.9-28.09-24.25a0,0,0,0,0,0,0,42.37,42.37,0,0,1-5.51-9.56c-4.89-13.2-8.17-43.92,7.09-50.62,6.94-3,16.91,5.13,21.79,12.52,4.73,7.15,8.46,18.53,10.55,26.63C123.87,131.26,124.45,134,124.71,135.7Z" style="fill:#FF5836"></path><path d="M124.71,135.7c.93,5.92-3.2,35.31-7.5,37.6-3.37,1.8-19.09-11.9-28.09-24.25a0,0,0,0,0,0,0,42.37,42.37,0,0,1-5.51-9.56c-4.89-13.2-8.17-43.92,7.09-50.62,6.94-3,16.91,5.13,21.79,12.52,4.73,7.15,8.46,18.53,10.55,26.63C123.87,131.26,124.45,134,124.71,135.7Z" style="opacity:0.1"></path><path d="M117.21,173.3c-7.06,2-24.27-23.75-24.79-27.05s12.26,13.36,13.13,13.41-9.1-20.31-8.31-21.27,7.49,12.46,8.16,12.39-2-10.52-1-11.21,4.85,14.3,6.07,14.11-1.41-20.48-.41-20.74,4.8,21.42,5.84,21.36.77-15.17,2-15.47S122.31,171.84,117.21,173.3Z" style="opacity:0.1"></path><path d="M148.08,106c-.74,3.93-1.9,9.37-3.39,15.17-.08.35-.16.68-.25,1a0,0,0,0,1,0,0c-3.62,14-9,29.72-14.66,31.44-3.47,1-8.15-26.28-8.61-31.88a57,57,0,0,1,.09-8.28c.44-5.78,1.6-12.28,3.74-15.21,2.87-3.93,7.91-14.21,11-17.39a3.11,3.11,0,0,1,1.33-.94C140.07,79.32,150.62,92.47,148.08,106Z" style="fill:#FF5836"></path><path d="M146.5,96.52a53,53,0,0,1,.08,8.07,105.59,105.59,0,0,1-1.89,16.61c-.08.35-.16.68-.25,1a0,0,0,0,1,0,0c-1.81,6.52-2.73-11.13-8.24-10.61s-8.24,14.1-9.67,14.67,1.76-14.85-2.25-14.4a5.25,5.25,0,0,0-3,1.62c.16-2.1.42-4.3.78-6.39.64-3.65,1.6-7,3-8.82,2.87-3.93,7.91-14.21,11-17.39C138.24,80.11,145.93,92.87,146.5,96.52Z" style="opacity:0.1"></path><path d="M129.77,153.65c-3,.45-8.37-25.35-7.91-26.6s3.38,13.57,4,13.86-.74-12.35,0-12.56,1.41,8.32,2,8.23,1.9-13.05,2.65-13.17-.52,16.38.26,16.45,2.54-8.93,3.29-9-1.84,11.6-1.17,11.59,5.88-14,6.64-14S136.22,152.67,129.77,153.65Z" style="opacity:0.1"></path><path d="M106.94,169.25c-.29,1.22-7-2.38-12.43-5-.13-.05-.28-.13-.45-.21a42.58,42.58,0,0,0-4.51-1.92c-4.68-1.49-17-4.87-24.27-11.31S53,138.79,51.64,133.8,48.77,120.14,50,119.21s1.12,2.35,2.1,2.94c.74.45,16,6.79,27.16,12.85a67.59,67.59,0,0,1,9.15,5.7C99,149.19,107.38,167.38,106.94,169.25Z" style="fill:#FF5836"></path><path d="M106.94,169.25c-.29,1.22-7-2.38-12.43-5-.13-.05-.28-.13-.45-.21a42.58,42.58,0,0,0-4.51-1.92c-4.68-1.49-17-4.87-24.27-11.31S53,138.79,51.64,133.8,48.77,120.14,50,119.21s1.12,2.35,2.1,2.94c.74.45,16,6.79,27.16,12.85a67.59,67.59,0,0,1,9.15,5.7C99,149.19,107.38,167.38,106.94,169.25Z" style="opacity:0.15"></path><path d="M94.06,164.07a42.58,42.58,0,0,0-4.51-1.92c-4.68-1.49-17-4.87-24.27-11.31S53,138.79,51.64,133.8,48.77,120.14,50,119.21s1.12,2.35,2.1,2.94c0,0,1.3,13.11,13.54,24.12,3.85,3.46,11.32,7.24,18.72,11A79,79,0,0,0,94.06,164.07Z" style="fill:#FF5836"></path><path d="M106.94,169.25c.06.87-14-6.28-13.89-7s4.64,1.68,5.16,1.21-11.42-8-11.27-8.95,9.47,5.42,9.61,4.88-5.13-6.61-5-7.16,7.54,6.92,7.94,6.64-8.91-12.27-8.27-13S106.64,164.78,106.94,169.25Z" style="opacity:0.1"></path><path d="M141.4,130a60.56,60.56,0,0,1-4,15.77h0c-2.34,6-5,11.07-6,14a27.29,27.29,0,0,0-.93,3.94c-1.31,7.45-2.17,20.34-2.33,22.8-.09,1.35.39,5.65-.58,5.68-.42,0-.8-8.78-1-19.78,0-.11,0-.23,0-.34v0c-.09-4.34-.16-9-.19-13.61v0c0-2.92,0-5.81,0-8.57v-.06c0-7.58.14-14.17.41-17.66.93-11.94,5.52-25.43,6.22-28s1.77-7.32,2.37-7.19C142.61,98.64,142.58,117.46,141.4,130Z" style="fill:#FF5836"></path><path d="M129.3,126.89c-1.24,4.83-2.91,21.62-3,22.92,0-7.58.14-14.17.41-17.66.93-11.94,5.52-25.43,6.22-28s1.77-7.32,2.37-7.19C137,102.33,130.59,121.86,129.3,126.89Z" style="fill:#fff;opacity:0.2"></path><path d="M133.93,149.53c.14,0-3.12,9.82-3.47,13.82l0,.38c-1.31,7.45-2.17,20.34-2.33,22.8-.09,1.35.39,5.65-.58,5.68-.42,0-.8-8.78-1-19.78,0-.11,0-.23,0-.34v0c0-4,.52-17.09,1.15-17.29s-.21,8.23.2,8.17,1.76-14.36,2-14.41-.76,12.05-.47,11.76S133.39,149.55,133.93,149.53Z" style="opacity:0.1"></path><path d="M126.06,205c-1.55-2.5-13.36-24.59-17.75-30.05a4.88,4.88,0,0,0-1.07-1c-2.5-1.52-12.36-6.16-20-11.05a37.67,37.67,0,0,1-8-6.35c-5.6-6.55-18.07-26.6-10.33-32.84,1.91-1.53,21.35,12.23,27.29,17.88,2.73,2.59,7,10.62,11,19,1.81,3.78,3.58,7.63,5.15,11.1v0c2.54,5.63,4.54,10.26,5.3,11.93C119.93,188.59,126.06,205,126.06,205Z" style="fill:#FF5836"></path><path d="M126.06,205c-1.55-2.5-13.36-24.59-17.75-30.05-2.14-3.28-16.06-9.36-16.24-10.27s8.79,4.06,9.08,3.9-13.07-11.52-12.39-12.27,8.89,7.43,9.34,7.13-4.54-6.66-4.12-7.26,8.1,8.32,8.47,8-9.13-13.84-8.73-14.55,12.29,16,12.84,15.9-4.39-8-3.64-8.51,8,12.53,9.44,14.6v0c2.54,5.63,4.54,10.26,5.3,11.93C119.93,188.59,126.06,205,126.06,205Z" style="opacity:0.1"></path><path d="M138.06,132.46c.48,3.08-1.52,11.4-3.35,18.45-.92,3.56-1.81,6.8-2.31,8.87-4.53,18.58-2.63,45.62-1.3,58.7,0,.24.06.48.08.7.14,1.34.27,2.51.39,3.5l0,.27c.24,2,2.08,14,2.08,14l-2.46,1.42c-.79-4.37-4.6-24.55-6.82-33.18l0-.16c-2.05-8-4.17-15.24-5.39-17.33-2.35-4-9.66-11.24-11.34-16.45a7.12,7.12,0,0,1-.28-1.15c-.82-5.24-6.66-24.16-3.61-29.79s9.19-20.52,14.87-21.16S137.33,127.82,138.06,132.46Z" style="fill:#FF5836"></path><path d="M138.06,132.46c.48,3.08-1.52,11.4-3.35,18.45-.92,3.56-1.81,6.8-2.31,8.87-4.53,18.58-2.63,45.62-1.3,58.7,0,.24.06.48.08.7.14,1.34.27,2.51.39,3.5l0,.27c.24,2,2.08,14,2.08,14l-2.46,1.42c-.79-4.37-4.6-24.55-6.82-33.18l0-.16c-2.05-8-4.17-15.24-5.39-17.33-2.35-4-9.66-11.24-11.34-16.45a7.12,7.12,0,0,1-.28-1.15c-.82-5.24-6.66-24.16-3.61-29.79s9.19-20.52,14.87-21.16S137.33,127.82,138.06,132.46Z" style="fill:#fff;opacity:0.2"></path><path d="M131.1,218.48c0,.24.06.48.08.7.2,1.75.33,3,.39,3.5l0,.27c.24,2,2.08,14,2.08,14l-2.46,1.42c-.79-4.37-4.6-24.55-6.82-33.18l0-.16c-.59-2.62-8.06-36.13-9.17-38.43s2.82,4.48,4.9,4.16,2.56-9.24,3.66-9.41C124.68,161.18,129.53,204.28,131.1,218.48Z" style="fill:#fff;opacity:0.2"></path><path d="M129.46,196.84s4.18,35.37,4.43,39.12c.72,11.06,0,39.28.25,50.35,1.38,61.53,4,184,4,184H132.8s-5.36-92.23-4.2-143.28c.56-24.64,2.15-85.72.17-99.15-.62-4.22-5.6-26.41-5.6-26.41C131.84,210.75,129.46,196.84,129.46,196.84Z" style="fill:#455a64"></path><path d="M165.32,186.81c-1.17,3.68-10.7,19.79-13.13,20.09-1.9.24-4.93-11.5-5.47-20.85h0a33.69,33.69,0,0,1,.2-6.89c1.43-8.86,8.17-27.52,16.4-27.76,3.75-.11,5.8,7,5.91,12.51.11,5.3-1.32,12.82-2.58,18C166.14,184,165.66,185.76,165.32,186.81Z" style="fill:#FF5836"></path><path d="M165.32,186.81c-1.17,3.68-10.7,19.79-13.13,20.09-1.9.24-4.93-11.5-5.47-20.85h0a33.69,33.69,0,0,1,.2-6.89c1.43-8.86,8.17-27.52,16.4-27.76,3.75-.11,5.8,7,5.91,12.51.11,5.3-1.32,12.82-2.58,18C166.14,184,165.66,185.76,165.32,186.81Z" style="opacity:0.1"></path><path d="M152.19,206.9c-3.52-.52-4-19.64-3.33-21.68s1.65,10.71,2,10.95,1.52-14,2.11-14.37-.13,9,.17,9.16,1.94-6.6,2.56-6.75-1.73,9.48-1.16,9.66,4.82-12.25,5.31-12.16-3.63,13.61-3.18,13.83,4.34-8.65,4.93-8.53S154.74,207.27,152.19,206.9Z" style="opacity:0.1"></path><path d="M167.56,187.16a40.55,40.55,0,0,1-5.63,9.44h0c-2.67,3.47-5.24,6.3-6.55,7.92-2.66,3.25-3.88,1.15-3-1.83v0c.54-1.89,1.08-3.76,1.61-5.55,0,0,0,0,0,0,1.46-4.9,2.79-9.14,3.64-11.35,2.88-7.55,8.42-15.4,9.36-16.91s2.54-4.41,2.9-4.21C174.33,167.08,170.72,179.26,167.56,187.16Z" style="fill:#FF5836"></path><path d="M160.33,182.83c-1.73,2.89-6,13.44-6.35,14.25,1.46-4.9,2.79-9.14,3.64-11.35,2.88-7.55,8.42-15.4,9.36-16.91s2.54-4.41,2.9-4.21C170,168.39,162.12,179.82,160.33,182.83Z" style="fill:#fff;opacity:0.2"></path><path d="M160.75,193.61c.09,0-3.89,5.77-4.88,8.28a1.86,1.86,0,0,1-.1.25c-.52,1.06-1.08,2.3-1.65,3.62-1.08.77-1.77.37-2-.64,1.1-3.44,3.16-9.3,3.53-9.31s-1.7,5.29-1.43,5.32,3.88-9,4.06-8.93-2.79,7.65-2.55,7.52S160.39,193.54,160.75,193.61Z" style="opacity:0.1"></path><path d="M149.51,203.05c-.61-2.22-3.7-10.08-5.44-17a30.76,30.76,0,0,1-1.18-8c.27-6.91,3.7-25.71,11.25-25.7,1.86,0,5.56,18.4,6,24.92.18,3-1.6,10.15-3.7,17.44-.94,3.27-1.95,6.56-2.87,9.52h0C152,209,149.58,203.32,149.51,203.05Z" style="fill:#FF5836"></path><path d="M149.57,203.23c-.29-4-4.08-13-3.74-13.59s2.79,7,3,7-1.32-13.78-.55-13.92,1.1,9.13,1.51,9.18.92-6.45,1.46-6.61.21,9.27.56,9.28,2.08-13.24,2.66-13.48-1.43,16.18-1.07,16.4,1.69-7.2,2.38-7.15-2.06,11.83-2.3,13.87h0c0,.09,0,.18-.08.26C152.05,208.45,150,204.2,149.57,203.23Z" style="opacity:0.1"></path><path d="M156.22,203.51a14.39,14.39,0,0,0-3.35,6.63c-2,9.48-3.54,25.87-4,28.45-1.87,10.93-14.63,45.16-16.95,56l-.7-13.76s14.41-31.81,15.6-45.34c.24-2.76,2.58-18.74,3.31-26.26a12.29,12.29,0,0,0-.64-6.16C151.68,208.07,156.22,203.51,156.22,203.51Z" style="fill:#455a64"></path><path d="M135.36,421.25l1.8.61,3.8,1.29s-10.43-103.91-14.84-120.49h0c-.52-1.94-1-2.68-1.28-1.92C121.74,308,135.36,421.25,135.36,421.25Z" style="fill:#455a64"></path><path d="M126.12,302.66c.24,6,1.9,29.15,11,119.2l3.8,1.29S130.53,319.24,126.12,302.66Z" style="fill:#37474f"></path><path d="M124.84,300.73c5.61,33.89,10.43,68,12.25,102.32l.25,6.87-.37-6.86c-2.27-34.21-7.12-68.42-12.13-102.33Z" style="fill:#263238"></path><path d="M184.56,273.33c-11.73,23.57-39.41,95.19-39.41,95.19l-3.71-4.71-.85-1.08c1.53-21.2,58.31-133.3,60.63-133.3h0C203.29,230,196.31,249.78,184.56,273.33Z" style="fill:#455a64"></path><path d="M194.74,244c-14.13,28.5-44.55,95.72-53.3,119.81l-.85-1.08c1.53-21.2,58.31-133.3,60.63-133.3h0S201.43,230.5,194.74,244Z" style="fill:#37474f"></path><path d="M145.45,347.89C152.3,332,163.53,307,170.7,291c8.79-18.78,17-37.91,27-56.08l-1.87,3.41c-15.17,30.8-35.77,77.88-50.33,109.56Z" style="fill:#263238"></path><path d="M143.39,384.79l-2.54.46-5.39,1s35.33-137.66,44.66-159.06h0c1.09-2.5,1.83-3.41,2.11-2.33C184.91,235.22,143.39,384.79,143.39,384.79Z" style="fill:#455a64"></path><path d="M180.12,227.15c-1.56,8-8.53,38.82-39.27,158.1l-5.39,1S170.79,248.55,180.12,227.15Z" style="fill:#37474f"></path><path d="M178.67,230.82c-12.39,47.77-26.62,101.26-39.6,148.87,12.38-47.77,26.62-101.26,39.6-148.87Z" style="fill:#263238"></path><path d="M135.39,431.49l2,.38,4.25.79S114.57,323.59,107.32,306.6h0c-.84-2-1.42-2.71-1.65-1.85C103.48,313,135.39,431.49,135.39,431.49Z" style="fill:#455a64"></path><path d="M107.32,306.6c1.18,6.32,6.51,30.76,30.07,125.27l4.25.79S114.57,323.59,107.32,306.6Z" style="fill:#37474f"></path><path d="M105.67,304.75c9.1,28.41,17.21,57.8,23.66,86.92,1,4.18,1.94,8.37,3.11,12.49-4.77-16.49-8-33.37-12.68-49.89-3.78-14.45-9.84-35-14.09-49.52Z" style="fill:#263238"></path><path d="M151,337.06h0c-.43,4.19-.87,8.36-1.3,12.47h0c-3.77,35.41-7.6,66.28-7.6,66.28L139,390.64c-.34-17.09,5.16-62.19,10-97.2v0c3.64-26.11,6.92-46.59,7.18-45.63C158.45,256.25,155,297.54,151,337.06Z" style="fill:#455a64"></path><path d="M142.55,409.08s-1.34-37.05-14-43.68c-5.79-3,5.66,11.06,5.33,46.73-.16,16.22,0,58.17,0,58.17h8.52Z" style="fill:#455a64"></path><path d="M130.63,440.5l2.55-.26,5.39-.57S67,318.36,52.16,300.55h0c-1.73-2.08-2.68-2.74-2.65-1.63C49.82,309.56,130.63,440.5,130.63,440.5Z" style="fill:#455a64"></path><path d="M52.16,300.55c3.68,7.16,18.83,34.61,81,139.69l5.39-.57S67,318.36,52.16,300.55Z" style="fill:#37474f"></path><path d="M49.51,298.91c28.86,43.85,57.05,89,83.49,134.38C106.06,388.36,77.81,343,49.51,298.91Z" style="fill:#263238"></path><path d="M126.94,421.5l2.14-.08,4.52-.18S80.58,316,69.23,300.33h0c-1.33-1.84-2.09-2.44-2.12-1.51C66.77,307.72,126.94,421.5,126.94,421.5Z" style="fill:#455a64"></path><path d="M69.23,300.33c2.67,6.19,13.79,29.94,59.85,121.09l4.52-.18S80.58,316,69.23,300.33Z" style="fill:#37474f"></path><path d="M70.87,302.76c19.34,36.84,40.48,76,58,113.7-18-37.06-39.46-77-58-113.7Z" style="fill:#263238"></path><path d="M138.67,456.6l2.09-.47,4.43-1S74.06,361.2,60.07,347.82h0c-1.64-1.56-2.5-2-2.36-1.1C59,355.53,138.67,456.6,138.67,456.6Z" style="fill:#455a64"></path><path d="M60.07,347.82c3.74,5.6,19,26.95,80.69,108.31l4.43-1S74.06,361.2,60.07,347.82Z" style="fill:#37474f"></path><path d="M62.36,350.17c15.84,20.41,34.13,44.77,50.27,64.64,10,12.27,20.16,26.46,29.48,39.32-5.84-7.81-13.84-18.58-19.67-26.2-6.54-8.75-13.72-17-20.41-25.61-13-16.73-27-35.14-39.67-52.15Z" style="fill:#263238"></path><path d="M90.77,303c-.86.63-8.83-12.17-16.38-24.29h0C68.31,269,62.51,259.7,60.92,258.23c-3.57-3.32-4.86-11.5-5-15.4s2.73-13.47,5.49-14.39,11.69,5.14,19.84,14.11c2.1,2.31,4,7.25,5.62,13.37C91.51,273.54,93.67,300.88,90.77,303Z" style="fill:#FF5836"></path><path d="M90.77,303c-.86.63-8.83-12.17-16.38-24.29h0C68.31,269,62.51,259.7,60.92,258.23c-3.57-3.32-4.86-11.5-5-15.4s2.73-13.47,5.49-14.39,11.69,5.14,19.84,14.11c2.1,2.31,4,7.25,5.62,13.37C91.51,273.54,93.67,300.88,90.77,303Z" style="opacity:0.15"></path><path d="M90.77,303C89,304,75.86,279.16,76.36,277.6s5.37,9.92,6,9.69-6.41-20.24-5.55-21.76,5.32,15.31,6,14.92-1.67-13.44-1-13.68,5,16.39,5.62,16.37-1.42-13.78-.48-14.35S93.82,301.36,90.77,303Z" style="opacity:0.1"></path><path d="M112.28,263.25c-6.23,21.87-12.86,13.6-15.45,25.45s-.52,16.2-3.84,17.39-10.37-15-13.25-32h0a79.67,79.67,0,0,1-1.19-17.71c1.31-21,12.15-31.45,19.76-31.08,6,.3,15.06,10.1,15.63,24.91A41.91,41.91,0,0,1,112.28,263.25Z" style="fill:#FF5836"></path><path d="M112.28,263.25c-6.23,21.87-12.86,13.6-15.45,25.45s-.52,16.2-3.84,17.39-10.37-15-13.25-32h0a79.67,79.67,0,0,1-1.19-17.71c1.31-21,12.15-31.45,19.76-31.08,6,.3,15.06,10.1,15.63,24.91A41.91,41.91,0,0,1,112.28,263.25Z" style="fill:#FF5836"></path><path d="M112.28,263.25c-6.23,21.87-12.86,13.6-15.45,25.45s-.52,16.2-3.84,17.39-10.37-15-13.25-32h0a79.67,79.67,0,0,1-1.19-17.71c1.31-21,12.15-31.45,19.76-31.08,6,.3,15.06,10.1,15.63,24.91A41.91,41.91,0,0,1,112.28,263.25Z" style="opacity:0.1"></path><path d="M112.66,241.94h0c-3.62-4.92-10.33-11.86-19.17-9.85-9.71,2.21-14.07,21-15,25.72,0-.49,0-1,.06-1.45,1.31-21,12.15-31.45,19.76-31.08C103.09,225.51,109.86,231.83,112.66,241.94Z" style="fill:#fff;opacity:0.2"></path><path d="M93,306.09c-5-.41-11.95-27.81-10.84-29.42.66-1,2.24,10.58,3.49,10.7s-1.1-22.77-.2-22.59,2,15.49,2.47,15.54.64-10.2,1.63-10.46S91.15,291,91.68,291s1.93-17,2.61-17-.41,10.33,0,10.37,3.66-15.79,4.58-15.82c.47,0-.69,8.58-2.64,19.69C94.64,297.59,95.33,306.27,93,306.09Z" style="opacity:0.1"></path><path d="M127.32,267.72c-4.75,4.54-10.46,6.93-15.58,9.49h0a33.49,33.49,0,0,0-8.26,5.36l-.06.05A9.12,9.12,0,0,0,102,284.5v0a15,15,0,0,0-.79,1.5,0,0,0,0,0,0,0c-4.29,9.14-5.63,28.75-6.75,28.83l-1.4-.13s1.5-13,3-24c0-.11,0-.22,0-.33s0-.39.08-.59c0,0,0-.08,0-.11.52-3.72,1-7.13,1.48-9.63a15.45,15.45,0,0,1,1-3.26h0c2.64-6.21,9.25-12.21,15.18-17.2,2.5-2.11,4.88-4,6.8-5.72,6.82-6,15.45-10.87,16.31-12.56h0a.49.49,0,0,0,.07-.27c-.14-1.37.57-7.54,2.69.25S134.94,260.4,127.32,267.72Z" style="fill:#FF5836"></path><path d="M127.32,267.72c-4.75,4.54-10.46,6.93-15.58,9.49h0a33.49,33.49,0,0,0-8.26,5.36,46.13,46.13,0,0,1,9.4-10c6.55-4.8,11.25-11.93,15.48-16s8.83-12,8.58-15.23h0a.49.49,0,0,0,.07-.27c-.14-1.37.57-7.54,2.69.25S134.94,260.4,127.32,267.72Z" style="fill:#FF5836"></path><path d="M127.32,267.72c-4.75,4.54-10.46,6.93-15.58,9.49h0a33.49,33.49,0,0,0-8.26,5.36,46.13,46.13,0,0,1,9.4-10c6.55-4.8,11.25-11.93,15.48-16s8.83-12,8.58-15.23h0a.49.49,0,0,0,.07-.27c-.14-1.37.57-7.54,2.69.25S134.94,260.4,127.32,267.72Z" style="opacity:0.1"></path><path d="M104.44,279c.33.4,4.56-4.4,4.86-4.31s-6.16,7.46-7.33,9.79v0a15,15,0,0,0-.79,1.5,0,0,0,0,0,0,0c-4.29,9.14-5.63,28.75-6.75,28.83l-1.4-.13s1.5-13,3-24c0-.11,0-.22,0-.33s0-.4.08-.59,0-.08,0-.11c.8-6,.66-9.54,2.48-12.89h0c1.91-3.53,4.34-6.5,4.76-6.46s-2,3-1.83,3.3,6.89-8.45,7.56-8.39-3.78,5.88-3.51,6.21,8.35-8.28,8.75-8.05-9,11.57-8.61,11.75,6.88-6.28,7.34-6.06S104.11,278.63,104.44,279Z" style="opacity:0.1"></path><path d="M97.22,255.41c-.26.69-2.31.24-2.53,1.2,0,.11-.07.56-.14,1.27-.55,5.74-2.41,28.71-4.33,28.53-3.44-.32-2.11-18.48-2.16-21,0-1.31.14-3.68.13-5.71a17.52,17.52,0,0,0-.12-2h0c-.12-.87-.33-1.49-.71-1.6-1.33-.42-3.9-2-3.53-2.86s1.64-.22,2-.25,1.1-2,1.5-2.09,1.25.64,1.79.56.76-1.23,1.54-1.16,1.44.72,1.83.76,1.8-.36,2.49,0a.51.51,0,0,1,.26.28c.31.6.1,1.83.57,2.09S97.48,254.71,97.22,255.41Z" style="fill:#FF5836"></path><path d="M97.22,255.41c-.26.69-2.31.24-2.53,1.2,0,.11-.07.56-.14,1.27-.55,5.74-2.41,28.71-4.33,28.53-3.44-.32-2.11-18.48-2.16-21,0-1.31.14-3.68.13-5.71a17.52,17.52,0,0,0-.12-2h0c-.12-.87-.33-1.49-.71-1.6-1.33-.42-3.9-2-3.53-2.86s1.64-.22,2-.25,1.1-2,1.5-2.09,1.25.64,1.79.56.76-1.23,1.54-1.16,1.44.72,1.83.76,1.8-.36,2.49,0a.51.51,0,0,1,.26.28c.31.6.1,1.83.57,2.09S97.48,254.71,97.22,255.41Z" style="fill:#fff;opacity:0.30000000000000004"></path><path d="M97.22,255.41c-.26.69-2.31.24-2.53,1.2s-2.32,30-4.47,29.8c-3.44-.32-2.11-18.48-2.16-21,0-1.31.14-3.68.13-5.71.22,2.76.82,7.36,2.39,7.42,2.24.09.77-10.94,3.51-14.81a3.69,3.69,0,0,1,1.12-1c.31.6.1,1.83.57,2.09S97.48,254.71,97.22,255.41Z" style="fill:#fff;opacity:0.30000000000000004"></path><path d="M93.26,324.93c-1.42,0-8.47-25.78-11.46-32C76.9,282.69,60.94,274.17,56.55,267c-4-6.61-8.92-20.94-7.13-25.23a2.13,2.13,0,0,1,.61-.86,1.44,1.44,0,0,1,.89-.3c4.55-.05,17.86,14.81,22.27,20.31a62.82,62.82,0,0,1,4.75,7.42,188.62,188.62,0,0,1,10.62,21.77h0c2.67,6.63,4.65,13,4.85,17.51C94,320.48,94.68,324.94,93.26,324.93Z" style="fill:#FF5836"></path><path d="M93.26,324.93c-1.42,0-8.47-25.78-11.46-32C76.9,282.69,60.94,274.17,56.55,267c-4-6.61-8.92-20.94-7.13-25.23,0,0,3.19,17,23.63,33.58,7.93,6.46,6.31-1.91,4.89-7,6.25,10.89,15,29.5,15.48,39.29C94,320.48,94.68,324.94,93.26,324.93Z" style="fill:#fff;opacity:0.2"></path><path d="M119.42,263.92a21.25,21.25,0,0,1-2.18,3.68h0c-4.27,6-11.81,11.86-15.42,17.06a13.78,13.78,0,0,0-1.55,3.53c-3.13,9.82-4.33,31.56-6.5,31.42-2.37-.15-2.88-13.9-3.11-27.79,0-1.88,0-3.7.1-5.47.12-2.38.35-4.65.64-6.81a79.34,79.34,0,0,1,4.89-18.73c2.38-5.87,13.51-19,20-18.4S122.59,256.74,119.42,263.92Z" style="fill:#FF5836"></path><path d="M119.42,263.92a21.25,21.25,0,0,1-2.18,3.68h0c-4.27,6-11.81,11.86-15.42,17.06a13.78,13.78,0,0,0-1.55,3.53c-3.13,9.82-4.33,31.56-6.5,31.42-2.37-.15-2.88-13.9-3.11-27.79,0-1.88,0-3.7.1-5.47.12-2.38.35-4.65.64-6.81a79.34,79.34,0,0,1,4.89-18.73c2.38-5.87,13.51-19,20-18.4S122.59,256.74,119.42,263.92Z" style="fill:#fff;opacity:0.2"></path><path d="M100.27,288.19c-3.13,9.82-4.33,31.56-6.5,31.42-2.37-.15-2.88-13.9-3.11-27.79,0-1.88,0-3.7.1-5.47.44-3.32.73-5.7,1.06-6.06s-.7,10.58-.28,10.62,3.57-16.73,4.15-16.74-1.14,9.85-.5,9.91,4.33-14.14,5-14.08-3.89,17.2-3.4,17.24,3.42-9,3.92-8.95-3.67,14-3.39,14.09,2.89-8.76,3.25-8.73A35.66,35.66,0,0,1,100.27,288.19Z" style="fill:#fff;opacity:0.2"></path><path d="M90.91,318.1c-1.14,0-3.86-9.09-4.78-11.44-.33-.84-.7-1.73-1.11-2.64v0a86.79,86.79,0,0,0-7.74-13.74c-.5-.7-1-1.32-1.41-1.82a73.31,73.31,0,0,0-6.54-6.29C64.69,278,59.12,273.26,55.47,269c-5.77-6.78,2.91-14.43,6.71-15.12s14.24,7.58,18.74,10,9.89,18.78,10.28,23.89c.15,2,.23,6.81.19,12.09C91.34,308.4,91.84,318.1,90.91,318.1Z" style="fill:#FF5836"></path><path d="M90.91,318.1c-1.14,0-3.86-9.09-4.78-11.44-.33-.84-.7-1.73-1.11-2.64v0a86.79,86.79,0,0,0-7.74-13.74c-.5-.7-1-1.32-1.41-1.82a73.31,73.31,0,0,0-6.54-6.29C64.69,278,59.12,273.26,55.47,269c-5.77-6.78,2.91-14.43,6.71-15.12s14.24,7.58,18.74,10,9.89,18.78,10.28,23.89c.15,2,.23,6.81.19,12.09C91.34,308.4,91.84,318.1,90.91,318.1Z" style="fill:#fff;opacity:0.2"></path><path d="M90.91,318.1c-1.17,0-3.86-9.09-4.78-11.44A12.93,12.93,0,0,0,85,304v0a86.79,86.79,0,0,0-7.74-13.74c.59-.63,5.36,7.45,5.83,7.46s-5-11.56-4.58-12.1,7.89,16.75,8.56,16.6-3.46-13.74-2.85-14,3.34,9.34,4,9.19-2.55-11.84-1.91-12.23,2.63,10.44,3,10.36-.46-8.1.39-7.88c.37.1,1.1,5.64,1.62,12.1C91.34,308.4,91.84,318.1,90.91,318.1Z" style="fill:#fff;opacity:0.2"></path><path d="M147,470.3h-5.12s-17.48-42.85-28.28-73.14a721.15,721.15,0,0,1-21.12-70.41c-1.85-7.51-3.79-12.65-4.15-13.77.46,1.19,7.34,3.85,7.57-.33.16,1.92-2,7.61-.85,12.26,5.75,23.51,20.57,67.47,21.49,69.82C133.88,439,147,470.3,147,470.3Z" style="fill:#455a64"></path><path d="M150.54,470.3h-8.66s-4.81-17.63-12-37.43a166.12,166.12,0,0,1-3.16-26.08c-.13-5.46.21-10.72,1.43-14.82,4.35-14.68,9-16.58,10.87-16.58s-6.62,10.87-6.17,20.66,6.22,38.41,9.87,49.41c.12.39.26.78.4,1.18C147.92,460.81,150.54,470.3,150.54,470.3Z" style="fill:#455a64"></path></g><g id="freepik--flowers-3--inject-39"><path d="M359.07,194.39s-4.66,5.72-6.9,19.08c-13.56,80.91,6.17,197.21,26.58,256.83h-5.49s-29.36-69.74-30.64-183.77c-.24-21.79.54-45.19,2.75-70,0,0,2.54-17.44-5.64-27C339.73,189.45,358.42,188.93,359.07,194.39Z" style="fill:#455a64"></path><path d="M373.26,186.26s5.35-33.06,16.07-39.42,12.21-3.79,15-3.89,8.85,3.75,8.85,3.75-14.17.15-19.24,8.7Z" style="fill:#FF5836"></path><path d="M373.26,186.26s5.35-33.06,16.07-39.42,12.21-3.79,15-3.89,8.85,3.75,8.85,3.75-14.17.15-19.24,8.7Z" style="opacity:0.1"></path><path d="M353.8,115.41s8.89-.38,12,7.92,5.73,28.1,3.5,35.71-4.89,25.39-10.81,19.83S340,161,340.58,150.35,343.82,114.89,353.8,115.41Z" style="fill:#FF5836"></path><path d="M353.8,115.41s8.89-.38,12,7.92,5.73,28.1,3.5,35.71-4.89,25.39-10.81,19.83S340,161,340.58,150.35,343.82,114.89,353.8,115.41Z" style="opacity:0.1"></path><path d="M371.25,123.09s-6.37-2.08-9.71,5.13-25.87,45.34-22.44,58.41,6.76,8.51,11.65,10.33c5.52,2,19.57-3.54,23.08-9.8s10.09-19.26,10.7-27.37S392.55,127.93,371.25,123.09Z" style="fill:#FF5836"></path><g style="opacity:0.1"><path d="M361.21,134.37c-2.69,4.74-4.85,9.77-7.15,14.7s-4.54,9.9-5.75,15.23c-2,7.78-4.71,16.12-.91,23.75a18.74,18.74,0,0,0,4.61,6.64,18.88,18.88,0,0,1-4.94-6.48c-2.61-5-2.67-10.76-1.41-16.13a89.56,89.56,0,0,1,4.56-15.75,181.44,181.44,0,0,1,11-22Z"></path><path d="M355.57,196.41c5.61-2.52,11.28-5.84,15.07-10.76a37.5,37.5,0,0,0,3.88-7.53c3.39-8.44,6-17.27,6.75-26.37a56,56,0,0,1-1.84,13.58c-1.77,6.62-3.75,13.33-7.29,19.26a17.45,17.45,0,0,1-4.6,5.15,40.74,40.74,0,0,1-12,6.67Z"></path><path d="M377.28,145.21c-.12,10.2-1.39,20.61-5.13,30.15,2.76-9.85,4-20,5.13-30.15Z"></path><path d="M360.37,147.17c-6.77,12.76-10.09,27.73-7.79,42.09a24.94,24.94,0,0,0,.57,3.06l.68,3.05c-5.34-15.93-2.21-34.06,6.54-48.2Z"></path><path d="M375.65,131.34c-1.12,9.2-3.21,19.22-4.78,28.34.62-9.57,2.62-19,4.78-28.34Z"></path><path d="M369,165.15c-1.43,9.47-4.22,19.21-10.17,26.87,5.08-8.22,7.74-17.59,10.17-26.87Z"></path></g><path d="M333.36,111.31s-7.82,4.64-9.18,11.11-9.69,35-4.6,50.52,10.72,20.56,21.26,22.28,4.31-74.52,4.31-74.52S337.77,107.87,333.36,111.31Z" style="fill:#FF5836"></path><g style="opacity:0.1"><path d="M326.58,126.21c-1.9,11.17-4.29,22.4-4.86,33.72a68.35,68.35,0,0,0,3.07,16.66c1.2,4.08,2.48,8.18,4.92,11.69a12.18,12.18,0,0,0,2.9,3.09,12,12,0,0,1-3.07-3c-2.66-3.41-4.05-7.58-5.36-11.63A62.81,62.81,0,0,1,321,159.94c.6-11.41,3.21-22.58,5.56-33.73Z"></path><path d="M337.93,192.91c7.13-4,6.16-19.3,6.47-26.58,0-7.12,0-14.3-.54-21.4l-.73-7.11a103,103,0,0,1,1.44,10.64c.38,5.92.56,11.95.56,17.88-.28,7.37.55,23-7.2,26.57Z"></path><path d="M339.23,132.32a127.35,127.35,0,0,1,2.66,32.75c-.31-10.8-1.53-22-2.66-32.75Z"></path><path d="M328.59,139.68c-1.73,15.75-1,32,3.7,47.15.36,1,1.27,3.6,1.64,4.66-7.17-16.1-8.25-34.56-5.34-51.81Z"></path><path d="M335.4,118.53c1.28,10,1.87,20.67,2.53,30.75a229.21,229.21,0,0,1-2.53-30.75Z"></path><path d="M337.78,155.53c1.11,10.26,1.27,20.87-1.27,30.94,1.54-10.25,1.37-20.61,1.27-30.94Z"></path></g><path d="M353.18,118.73s-10.36-1.72-15.77,5.09S325.63,143.89,325,155.26s-4.08,38.85,20.24,40.7c18.36,1.4,27.44-21.83,30.88-41.94,2.52-14.7-5.93-18.89-10-25.22S355.53,118.91,353.18,118.73Z" style="fill:#FF5836"></path><path d="M353.18,118.73s-10.36-1.72-15.77,5.09S325.63,143.89,325,155.26s-4.08,38.85,20.24,40.7c18.36,1.4,27.44-21.83,30.88-41.94,2.52-14.7-5.93-18.89-10-25.22S355.53,118.91,353.18,118.73Z" style="fill:#fff;opacity:0.2"></path><g style="opacity:0.1"><path d="M336.31,133.25a162.72,162.72,0,0,0-4.37,15.84,69.55,69.55,0,0,0-2.35,16.17c-.08,8.05-.63,16.79,4,23.78a18.83,18.83,0,0,0,5.58,5.9,18.92,18.92,0,0,1-5.88-5.7c-3.3-4.55-4.19-10.27-4.38-15.75a83.42,83.42,0,0,1,.69-16.49,139.23,139.23,0,0,1,6.72-23.75Z"></path><path d="M345.24,196c5.61-2.53,11.28-5.84,15.07-10.76a37,37,0,0,0,3.88-7.53c3.39-8.44,6-17.27,6.75-26.37a56,56,0,0,1-1.84,13.58c-1.77,6.62-3.75,13.33-7.29,19.26a17.45,17.45,0,0,1-4.6,5.15,40.74,40.74,0,0,1-12,6.67Z"></path><path d="M367,144.76c-.11,10.2-1.39,20.61-5.13,30.15,2.77-9.85,4-20,5.13-30.15Z"></path><path d="M339.39,147.66c-5.14,15.44-4.86,32.71,1.68,47.68-7.53-14.59-7.83-32.54-1.68-47.68Z"></path><path d="M346.92,140.72c-1.13,9.2-3.21,19.22-4.78,28.34.62-9.57,2.62-19,4.78-28.34Z"></path><path d="M358.65,164.7c-1.43,9.47-4.22,19.21-10.17,26.87,5.09-8.22,7.74-17.59,10.17-26.87Z"></path></g><path d="M345.55,195.75s19.06,7.05,30.26-3.06S386,173.46,389.2,165.35A56.33,56.33,0,0,1,397,151.69s-5.94,1.42-13.63,16.7S358.6,197,345.55,195.75Z" style="fill:#FF5836"></path><path d="M345.55,195.75s19.06,7.05,30.26-3.06S386,173.46,389.2,165.35A56.33,56.33,0,0,1,397,151.69s-5.94,1.42-13.63,16.7S358.6,197,345.55,195.75Z" style="fill:#fff;opacity:0.2"></path><path d="M354.3,201.25c-2.44,1.11-4.62,2.24-6.38,1.73s-3.67-2.32-4.93-3.27a32.28,32.28,0,0,0-5.63-3.51c-2.21-1-7.38-3.6-7.38-3.6a34.54,34.54,0,0,1,9.29-.86c4.52.32,10.14,4.56,10.14,4.56s5.63-2,10.13-1a31.26,31.26,0,0,1,8.12,3.08s-3.81-.94-5.55-.4S356.22,200.38,354.3,201.25Z" style="fill:#455a64"></path><path d="M277.05,265.47s.13,57.21,33.18,122.33c31.65,62.36,56.89,72.49,63.28,79.76a8.48,8.48,0,0,1,.74.95c4.91,7.43-17.27-61.74-39.75-104S294.56,283.56,277.05,265.47Z" style="fill:#455a64"></path><path d="M361,443.21c-34.69-46.21-56.35-97.33-73.09-151.95-.76-2.47-1.17-7.3-.41-4.84,16.64,54.31,43.62,108.71,73,153.86C361.85,442.34,362.45,445.13,361,443.21Z" style="fill:#37474f"></path><path d="M392,286.53s3,.48,4.15,14.38c1.07,13.2-6.52,111.5-37,169.39h6.22s37.62-81.19,34.25-175.38c-.22-6.34,5.11-11.84,5.11-11.84Z" style="fill:#455a64"></path><path d="M395.9,263s-15-8.43-16.56-24.13,2.35-28.49,9-36.87,9.36-8.4,9.36-8.4,8.4-2.24,15.95,15.05,14.63,31.78,9.64,41.78C413.78,269.54,395.9,263,395.9,263Z" style="fill:#FF5836"></path><path d="M395.9,263.05s-15-8.42-16.56-24.12,2.35-28.5,9-36.88,9.36-8.4,9.36-8.4,8.4-2.24,15.95,15,14.63,31.78,9.64,41.78C413.78,269.63,395.9,263.05,395.9,263.05Z" style="opacity:0.1"></path><g style="opacity:0.1"><path d="M391.67,204.79c-1.23,5.32-2.5,10.64-3.66,16-1,5.26-2.59,10.69-2.29,16a81.9,81.9,0,0,0,4.79,15.56,14.13,14.13,0,0,0,4.76,6.38,25.71,25.71,0,0,0,7.32,3.54,25.55,25.55,0,0,1-7.54-3.23,14.71,14.71,0,0,1-5.1-6.43A71.84,71.84,0,0,1,385,236.93c-.31-5.54,1.37-10.91,2.49-16.28s2.72-10.59,4.15-15.86Z"></path><path d="M407.4,262.08c4.05-3.26,8.15-7.3,9.41-12.51A72.11,72.11,0,0,0,418,233.62c.15-3.59-.64-7.08-1.08-10.64.49,2.16.95,4.4,1.39,6.59.49,7.56.92,15.53-1.72,22.77a26.73,26.73,0,0,1-9.21,9.74Z"></path><path d="M406.19,228.7c2,8,3.09,16.32,2,24.49.07-8.09-1-16.45-2-24.49Z"></path><path d="M392.34,225.26a59.06,59.06,0,0,0,11.77,37l-1.59-1.92a48.74,48.74,0,0,1-10.18-35.1Z"></path><path d="M396.49,218.61c1.32,7.58,1.9,15.29,2.64,22.94a121.92,121.92,0,0,1-2.64-22.94Z"></path><path d="M405.68,207.26c7.17,14.87,11.29,35.64,3.19,50.86a30.05,30.05,0,0,0,2.22-6.14c3.61-15,.24-30.67-5.41-44.72Z"></path></g><path d="M365.59,246.36s-10.18-12.91-8.47-25.61,5.46-13.9,6.49-14.52,8.91-.76,14.87,9.11,8.2,17.43,7.86,22.37-6.36,10.4-6.36,10.4S373.26,251.47,365.59,246.36Z" style="fill:#FF5836"></path><path d="M365.59,246.36s-10.18-12.91-8.47-25.61,5.46-13.9,6.49-14.52,8.91-.76,14.87,9.11,8.2,17.43,7.86,22.37-6.36,10.4-6.36,10.4S373.26,251.47,365.59,246.36Z" style="opacity:0.1"></path><path d="M366.57,211s-6,2.42-6.43,13.29,3.53,23,4.47,25.21,5.57,23.83,18.14,31.06,14,1.5,14,1.5,8.52-6.69,7.66-19.71S401.15,239,396.83,230s-6.25-14.06-13.05-16.6S368.66,209.45,366.57,211Z" style="fill:#FF5836"></path><g style="opacity:0.1"><path d="M385.28,217.45c2.39,5.13,4.48,10.41,6.53,15.69s4.11,10.63,5.25,16.2a136.22,136.22,0,0,1,2.58,16.83A27.63,27.63,0,0,1,398,278.79a12.11,12.11,0,0,1-2.16,3.65,11.88,11.88,0,0,0,2-3.72,28.76,28.76,0,0,0,1.2-12.5,155.69,155.69,0,0,0-2.67-16.73c-1.07-5.55-3.21-10.82-5-16.16-1.75-4.63-4.09-11.39-6-15.88Z"></path><path d="M392.06,283.6a33.93,33.93,0,0,1-10.32-7.69c-2.87-3.31-4.53-7.38-6.31-11.31A113.42,113.42,0,0,1,367.9,240l1.66,6.22a156.41,156.41,0,0,0,6.56,18.14c1.68,3.88,3.37,7.93,6.05,11.21a37.58,37.58,0,0,0,9.89,8.08Z"></path><path d="M378.64,243.64c2.77,9.82,5.55,20,9,29.63a117.87,117.87,0,0,1-9-29.63Z"></path><path d="M387.83,235.54c6.52,14.69,9.5,31.39,6.85,47.34.08-1,.27-3.52.36-4.52.66-14.55-2.16-29.19-7.21-42.82Z"></path><path d="M381.77,228.85a206.47,206.47,0,0,1,7.83,28c-2.75-9.12-5.7-18.71-7.83-28Z"></path><path d="M369.82,218c1.52,16.17,4.87,32.27,11.4,47.19a67.9,67.9,0,0,0,8,14.1c-13-16-18.48-41-19.4-61.29Z"></path></g><path d="M402.5,283.78s-13.47,4-20-15.24-2.68-26.28-2.14-29.17-1-5.81.74-9.49,3.26-3.09,5.41-8,2.14-11.71,4.13-13.89,4.06-3.7,7.16-3.72,8.84,2.55,12.34,3.36,3.33,7.27,5.86,9.69,9.93,9.45,9.25,24.79-1.24,25.65-7.15,32.19S407,283.25,402.5,283.78Z" style="fill:#FF5836"></path><path d="M402.5,283.78s-13.47,4-20-15.24-2.68-26.28-2.14-29.17-1-5.81.74-9.49,3.26-3.09,5.41-8,2.14-11.71,4.13-13.89,4.06-3.7,7.16-3.72,8.84,2.55,12.34,3.36,3.33,7.27,5.86,9.69,9.93,9.45,9.25,24.79-1.24,25.65-7.15,32.19S407,283.25,402.5,283.78Z" style="fill:#fff;opacity:0.2"></path><g style="opacity:0.1"><path d="M391.08,218.26c-1.24,5.6-2,11.29-2.9,17s-1.78,11.32-1.33,17.05c.7,8.37.71,17.51,5.15,24.89a18.58,18.58,0,0,0,5.72,6.27,18.64,18.64,0,0,1-6-6.07c-3.29-4.85-4.15-10.78-4.85-16.46s-1.18-11.51-.42-17.24a214.47,214.47,0,0,1,4.67-25.4Z"></path><path d="M402.87,284a37.34,37.34,0,0,0,9.56-8.73c2.67-3.42,3.67-7.78,4.66-11.93a109.69,109.69,0,0,0,3-25.84c0,2.35.43,7.57.18,9.82-.7,7.58-1.74,15.26-4.2,22.5-2.12,6.27-7.54,11-13.15,14.18Z"></path><path d="M407.56,242.78c.67,10.14.33,20.51-2.25,30.38,1.57-9.9,1.91-20.35,2.25-30.38Z"></path><path d="M393.43,236.35a81.53,81.53,0,0,0,4.1,43.14c.41.93,1.4,3.23,1.81,4.18-7.81-14.24-9.65-31.59-5.91-47.32Z"></path><path d="M399,228.84c0,9.37-.77,19.23-1.3,28.59a185.86,185.86,0,0,1,1.3-28.59Z"></path><path d="M410.86,216.37c4.94,19.41,5.58,45.63-5.71,63a40.73,40.73,0,0,0,3.51-7.25c6.48-17.8,5.78-37.35,2.2-55.71Z"></path></g><path d="M385.72,285.09c-2.35.68-8,1.64-16.08-5.93-9.86-9.26-10.94-24.22-12-28s-3.67-15.89-6.46-21.29-2.7-8.69-2.12-9.17,6,.76,9.58,7.11S369,239.6,371.2,249.28s3.61,23.86,9.79,29,11.91,2.93,10.86,5.82C391.67,284.58,387.22,284.65,385.72,285.09Z" style="fill:#FF5836"></path><path d="M385.72,285.09c-2.35.68-8,1.64-16.08-5.93-9.86-9.26-10.94-24.22-12-28s-3.67-15.89-6.46-21.29-2.7-8.69-2.12-9.17,6,.76,9.58,7.11S369,239.6,371.2,249.28s3.61,23.86,9.79,29,11.91,2.93,10.86,5.82C391.67,284.58,387.22,284.65,385.72,285.09Z" style="fill:#fff;opacity:0.2"></path><g style="opacity:0.1"><path d="M352.62,228.37c3.18,11.22,7.25,22.16,9.88,33.55.94,5.82,4.92,10.37,9,14.34a45.9,45.9,0,0,0,6.63,5.61,18.8,18.8,0,0,0,8,3.22,18.75,18.75,0,0,1-8.2-2.89,49,49,0,0,1-6.85-5.48c-4.22-4-8.43-8.72-9.28-14.65-2.53-11.16-6.5-22.57-9.2-33.7Z"></path><path d="M361.75,244.6c3.65,14.38,10.53,34.89,26,40-15.91-4.08-23.4-25.45-26-40Z"></path><path d="M356.13,230.84c2.62,6.42,5.22,13.16,5.52,20.15-1.24-6.48-3.94-13.68-5.52-20.15Z"></path><path d="M369.61,257.09c2.73,7.52,5.49,15.17,10.25,21.68-5.59-5.88-8.52-13.88-10.25-21.68Z"></path></g><path d="M403.84,287c-2,.19-3.76,2.93-5.94,3.07s-5-1.13-6.83-1.69-4.34.27-7.22,0-9.72-1.09-9.72-1.09a41.42,41.42,0,0,1,10.08-4.68c5.19-1.45,13.19,1.06,13.19,1.06s5.51-4.52,11-5.22a37.09,37.09,0,0,1,10.33.2s-4.64.48-6.38,1.78S406.34,286.79,403.84,287Z" style="fill:#455a64"></path><path d="M362.13,470.3h8s25.47-42.53,30.16-57.45,31.16-75.07,36.06-83.18,4.91-11.45,4.91-11.45-25.22,3-26.47,4.57S362.13,470.3,362.13,470.3Z" style="fill:#37474f"></path><path d="M441.28,318.22s0,3.34-4.91,11.45c-1.82,3-6.61,13.19-12.15,25.57a81.64,81.64,0,0,0-4.75-10.17c-2.79-4.47-4.8-9.51-6.59-8.81s-7.14,11.39-7.48,12.05c5.35-14.89,9.08-25.11,9.41-25.52C416.07,321.23,441.28,318.22,441.28,318.22Z" style="fill:#263238"></path><path d="M362.13,470.3S409.48,324.57,414.44,321s9.09.43,15.44-2.76,7.28-4.87,9.31-3.79c7.15,3.79,15.09,55,13.73,70.27s-16.55,44.61-19.14,43.57c-1.63-.65.26-30.81-1.16-41.19s-15.09-65.33-16.85-63.46S362.13,470.3,362.13,470.3Z" style="fill:#455a64"></path><path d="M431.39,321.61c12.47,31.64,14.17,58.33,11.37,83.67-.13,1.15-1.15,2.86-1,1.71,2.79-25.19-1.87-55.55-10.79-84.22C430.54,321.46,430.87,320.29,431.39,321.61Z" style="fill:#37474f"></path></g><g id="freepik--flowers-2--inject-39"><path d="M265.13,361.26c-.92.61-1.81,1.25-2.72,1.86a.66.66,0,0,1-.46.14c-.7,0-1.32-1-.61-1.45s-8-42.31,1.58-60.87c.25-.45.48-.92.73-1.36s.6-1.11.93-1.67a103.65,103.65,0,0,1,10.06-14.36,1.9,1.9,0,0,1,.43-.5c1.52-1.91,3.11-3.74,4.75-5.56.35-.43.75-.85,1.15-1.28,5.64-6.19,11.69-12.16,17.52-18.12.37-.36.75-.76,1.12-1.16,4.2-4.3,8.3-8.66,12-13.15a1.51,1.51,0,0,1,2.64,1.06c.29,9.29,1,19,1.14,28.6,0,.52,0,1,0,1.54.05,4.74-.05,9.46-.41,14.07-.05.9-.13,1.77-.24,2.62a74.44,74.44,0,0,1-1.26,8.95c-.09.64-.2,1.25-.31,1.87A71.72,71.72,0,0,1,309.39,315c-.61,1.46-1.25,2.88-2,4.27-.46.95-1,1.89-1.46,2.8C296.48,339,280.87,350.33,265.13,361.26Z" style="fill:#37474f"></path><path d="M260.49,368.58q.69-2.71,1.46-5.32c2-7.41,4.38-14.78,6.86-22.08-2-14.23-5.44-27.53-5.16-41.6.29-.57.6-1.11.93-1.67a171.51,171.51,0,0,0,2.32,23.31c.88,5.21,2.53,10.72,3.23,16.08,3.28-9.38,6.92-18.67,10.81-27.79A97.58,97.58,0,0,1,279.56,298c-1.73-4.79-3.27-9.69-4.92-14.49a1.9,1.9,0,0,1,.43-.5,97.79,97.79,0,0,1,4.4,12.88,151,151,0,0,1,.35-18.44c.35-.43.75-.85,1.15-1.28.17,10.15.94,20.28,1.18,30.41Q287.33,294.7,293,283.1c.56-8.67,2.8-16.91,5.46-25,.37-.36.75-.76,1.12-1.16-1.8,7.59-3.13,15.27-4.95,22.83,4.69-9.39,9.64-18.63,14.76-27.66.14-.26.63,0,.49.27-8.16,16.83-15.56,33.9-22.59,51.14a162.81,162.81,0,0,1,28.1-30.07c0,.52,0,1,0,1.54a186.88,186.88,0,0,0-30.78,35c-1.75,4.37-3.41,8.81-5.13,13.21A269.94,269.94,0,0,1,315,289.05c-.05.9-.13,1.77-.24,2.62-7.62,6.3-15,12.91-22.19,19.73a143.54,143.54,0,0,1,20.93-10.78c-.09.64-.2,1.25-.31,1.87-7.31,3.2-14.63,6.27-21.71,9.9-4.37,4.2-8.66,8.49-12.79,12.92-2.44,6.27-4.84,12.6-7.24,18.93q17.86-12.6,35.94-25c-.46.95-1,1.89-1.46,2.8A274,274,0,0,1,271,345.41q-3,7.9-5.91,15.85c-1,2.64-2,5.33-3,8C261.76,370.33,260.2,369.67,260.49,368.58Z" style="fill:#455a64"></path><path d="M269.21,130.8c-9.15,4-9.36,2-13.42,1.86s-5.65-.77-7.27-2.53-6.1-4.34-7.85-7.38-2.14-7-2.7-13.45Z" style="fill:#37474f"></path><path d="M259.41,132.7c-1.34.17-11.19,2.42-15.73,4.6-3.87,1.85-7.22,86.5-3,115.33.65,4.36,44.57,217.67,44.57,217.67H277c-.29-1.37-39.55-202.81-42.07-221.91-5.11-38.82,2.45-116.72,3.6-118.69s.2-13.61.2-13.61Z" style="fill:#37474f"></path><path d="M251.39,88.82a99.58,99.58,0,0,1,3.39,11.52c.74,3.31.9,6.31-2.73,7.83-5,2.11-12.5-3.75-17-5.21-2.65-.85-5.74-1.5-8.81-2.33-4.32-1.13-8.59-2.59-11.48-5.46-7.46-7.34-4-17.11,2.41-23.77a1.28,1.28,0,0,1,.3-.56c8-8.8,21.34-9.92,26.95,1.54A159.41,159.41,0,0,1,251.39,88.82Z" style="fill:#FF5836"></path><path d="M251.39,88.82a99.58,99.58,0,0,1,3.39,11.52c.74,3.31.9,6.31-2.73,7.83-5,2.11-12.5-3.75-17-5.21-2.65-.85-5.74-1.5-8.81-2.33-4.32-1.13-8.59-2.59-11.48-5.46-7.46-7.34-4-17.11,2.41-23.77a1.28,1.28,0,0,1,.3-.56c8-8.8,21.34-9.92,26.95,1.54A159.41,159.41,0,0,1,251.39,88.82Z" style="fill:#fff;opacity:0.7000000000000001"></path><path d="M251.39,88.82a99.58,99.58,0,0,1,3.39,11.52c.74,3.31.9,6.31-2.73,7.83-5,2.11-12.5-3.75-17-5.21-2.65-.85-5.74-1.5-8.81-2.33,0-.09,0-.2.13-.18a43.34,43.34,0,0,1,13.05,3c2,.83,3.84,1.78,5.74,2.61-.29-.22-.58-.44-.89-.64a52.69,52.69,0,0,0-10-5.79c-.16-.06-.07-.3.1-.26a65.92,65.92,0,0,1,10.09,3.25c-5.09-4.32-10.41-8.33-16-12.31a.08.08,0,0,1,.1-.13,108.23,108.23,0,0,1,19.62,14.3l.59.37c-3.79-4-7.36-8.33-11.21-12.14-.29-.29.18-.75.5-.52a126.64,126.64,0,0,1,10.26,8.7,167.24,167.24,0,0,0-11-15.63c-.12-.14.07-.36.2-.24,5.67,5.1,11.08,11.07,14.77,17.87a133,133,0,0,0-6.59-15.4.28.28,0,0,1,.47-.29,68.68,68.68,0,0,1,7.88,14.12A71.76,71.76,0,0,0,249,85c-.13-.25.27-.4.39-.16C250.14,86.12,250.78,87.45,251.39,88.82Z" style="fill:#FF5836"></path><path d="M244.93,81.45c-.06-.09-.21,0-.16.09,1.58,3,3.22,6,5.06,8.91.11.16.38,0,.29-.17C248.53,87.24,246.77,84.34,244.93,81.45Z" style="fill:#FF5836"></path><path d="M236,98A31.8,31.8,0,0,0,228,95.11c-.17,0-.28.21-.1.26,2.69.82,5.19,2.07,7.84,3C236,98.42,236.15,98.14,236,98Z" style="fill:#FF5836"></path><path d="M291.39,85.32c-1.64,2.87-4.76,4.71-7.32,6.63-.09,0-.18.14-.27.2-3.71,2.82-7.38,6-11.28,8.51l-.19.12a13.82,13.82,0,0,1-5.61,2.32,9.13,9.13,0,0,1-6.19-1.48,1.54,1.54,0,0,1-.7-1.88,20.7,20.7,0,0,1-1.38-4.36l-.67-2.6a107.14,107.14,0,0,0-4.61-14C252,76,249.75,72.9,249.4,69.86c-1.22-11.13,16.82-13.32,24.22-11.19C283,61.37,297.68,74.38,291.39,85.32Z" style="fill:#FF5836"></path><path d="M291.39,85.32c-1.64,2.87-4.76,4.71-7.32,6.63-.09,0-.18.14-.27.2-3.71,2.82-7.38,6-11.28,8.51l-.19.12a13.82,13.82,0,0,1-5.61,2.32,9.13,9.13,0,0,1-6.19-1.48,1.54,1.54,0,0,1-.7-1.88,20.7,20.7,0,0,1-1.38-4.36l-.67-2.6a107.14,107.14,0,0,0-4.61-14C252,76,249.75,72.9,249.4,69.86c-1.22-11.13,16.82-13.32,24.22-11.19C283,61.37,297.68,74.38,291.39,85.32Z" style="fill:#fff;opacity:0.7000000000000001"></path><path d="M286.88,88.25a23.11,23.11,0,0,1-2.81,3.7c-.09,0-.18.14-.27.2-3.71,2.82-7.38,6-11.28,8.51a61.32,61.32,0,0,1-5.8,2.44,9.13,9.13,0,0,1-6.19-1.48,1.54,1.54,0,0,1-.7-1.88,20.7,20.7,0,0,1-1.38-4.36l-.67-2.6c-.35-3.62-.52-7.19-1-10.29a.25.25,0,0,1,.5-.09c.78,4.26,1.66,8.51,2.61,12.73.28,1.3.66,2.57,1,3.84,0-1.7.18-3.45.33-5.23a75.64,75.64,0,0,0-.34-17.34c0-.12.16-.14.19,0,1.92,8.33,0,16.8,1.22,25a30.74,30.74,0,0,1,1.9-7.24c1.44-4.23,2.81-8.39,2.92-12.92,0-.08.14-.08.15,0,.17,4-.7,7.68-1.52,11.52-.41,1.92-.66,3.87-.92,5.83a63.37,63.37,0,0,1,12-18.26c.08-.08.22,0,.15.09a72.07,72.07,0,0,0-12.15,20.8c1.78-1.4,3.77-2.59,5.63-3.87a46.75,46.75,0,0,0,11.28-10.64.12.12,0,1,1,.19.14c-3.52,5.59-8.31,9.76-13.48,13.59a19.65,19.65,0,0,0,2.27-.83A46.87,46.87,0,0,0,286.6,88.05.17.17,0,0,1,286.88,88.25Z" style="fill:#FF5836"></path><path d="M283.22,78.8c-3.82,6.14-9.46,10.84-13.14,17a.13.13,0,0,0,.21.16c4.35-5.37,10.35-10.63,13.2-17C283.56,78.79,283.31,78.65,283.22,78.8Z" style="fill:#FF5836"></path><path d="M258,74.18a.11.11,0,1,0-.21.09c1.69,4.4,1.32,9.93,1.64,14.59,0,.15.27.15.28,0C259.92,84.23,260.23,78.35,258,74.18Z" style="fill:#FF5836"></path><path d="M249.27,117.34a.94.94,0,0,1-1,1.3,4.82,4.82,0,0,1-.46,1.51c-.92,2.09-3,3.83-5.28,5.7-6.35,5.13-13,11.92-20.5,15.43-5.11,2.42-8.76,1.63-13.13-1.55-5-3.64-13.51-9.46-15.32-15.92-1.61-5.74,1.93-9.67,4.67-14.26,2.59-4.32,4.09-11.67,10.18-12.43,7.16-.9,18,6.34,24.32,9,4.92,2.09,9.88,3.61,13.44,7a1.61,1.61,0,0,1,1,.84,5.49,5.49,0,0,1,.38.77c.24.31.47.62.69.94A13.45,13.45,0,0,1,249.27,117.34Z" style="fill:#FF5836"></path><path d="M249.27,117.34a.94.94,0,0,1-1,1.3,4.82,4.82,0,0,1-.46,1.51c-.92,2.09-3,3.83-5.28,5.7-6.35,5.13-13,11.92-20.5,15.43-5.11,2.42-8.76,1.63-13.13-1.55-5-3.64-13.51-9.46-15.32-15.92-1.61-5.74,1.93-9.67,4.67-14.26,2.59-4.32,4.09-11.67,10.18-12.43,7.16-.9,18,6.34,24.32,9,4.92,2.09,9.88,3.61,13.44,7a1.61,1.61,0,0,1,1,.84,5.49,5.49,0,0,1,.38.77c.24.31.47.62.69.94A13.45,13.45,0,0,1,249.27,117.34Z" style="fill:#fff;opacity:0.7000000000000001"></path><path d="M249.27,117.34a.94.94,0,0,1-1,1.3,4.82,4.82,0,0,1-.46,1.51l-.33.08c-3.79,5.44-9.61,9.28-15.33,12.45a.12.12,0,0,1-.13-.2,85.4,85.4,0,0,0,12.67-11.2c-6.14,4-11.91,8.54-18.76,11.5-.13.06-.18-.12-.08-.18a109.6,109.6,0,0,0,14.32-10.2c.53-.44,1-.86,1.59-1.27-2.61.37-5.21.69-7.75,1.31-5.34,1.28-10.75,2.66-16.14,3.73a.07.07,0,0,1,0-.12c7.76-3,16.34-6.69,24.92-7.68-4.69.12-9.47-.41-14.06.84-.12,0-.16-.17-.06-.19a49.34,49.34,0,0,1,9.85-1.91c-5.21-.49-10.42-1.07-15.6-1.46,0,0,0,0,0,0a132.31,132.31,0,0,1,15,.25c2.37.15,4.92.15,7.41.38l-.85-.44c-.49-.09-1-.2-1.46-.28-1.65-.29-3.33-.54-5-.73-.06,0,0-.09,0-.1,1.46,0,2.94,0,4.4.1A26.1,26.1,0,0,0,231.86,112c-.05,0,0-.09,0-.09A29.26,29.26,0,0,1,243.5,114a19.8,19.8,0,0,0-3.92-2.57,93.91,93.91,0,0,0-12.13-4.87.17.17,0,0,1,.08-.32c7.66,1.93,15.12,4.08,20.8,9.48A13.45,13.45,0,0,1,249.27,117.34Z" style="fill:#FF5836"></path><path d="M231.45,126.65A32.93,32.93,0,0,0,220.56,133a.15.15,0,0,0,.18.23,117.17,117.17,0,0,1,10.82-6.34A.14.14,0,0,0,231.45,126.65Z" style="fill:#FF5836"></path><path d="M230.08,111.74a33.79,33.79,0,0,0-11-1.14c-.12,0-.12.21,0,.21a78.6,78.6,0,0,1,10.92,1.3C230.2,112.15,230.3,111.8,230.08,111.74Z" style="fill:#FF5836"></path><path d="M262.29,129.4c1.83,5.73,1.72,13.7,1.48,18.22-.32,5.9-.55,13.13-4.59,17.88-3.7,4.32-11.89,8.16-17.69,8s-7.86-4.13-10.29-8.75c-2.65-5.08-9.46-9.95-8.1-16.32,1.31-6,8.91-11.61,13.12-15.41a78.82,78.82,0,0,1,8.06-6.91.16.16,0,0,1,.09,0c2.39-1.62,4.93-2.79,7.37-2.71a9.81,9.81,0,0,1,3.29-.75h.07C258.83,122.5,261,125.4,262.29,129.4Z" style="fill:#FF5836"></path><path d="M262.29,129.4c1.83,5.73,1.72,13.7,1.48,18.22-.32,5.9-.55,13.13-4.59,17.88-3.7,4.32-11.89,8.16-17.69,8s-7.86-4.13-10.29-8.75c-2.65-5.08-9.46-9.95-8.1-16.32,1.31-6,8.91-11.61,13.12-15.41a78.82,78.82,0,0,1,8.06-6.91.16.16,0,0,1,.09,0c2.39-1.62,4.93-2.79,7.37-2.71a9.81,9.81,0,0,1,3.29-.75h.07C258.83,122.5,261,125.4,262.29,129.4Z" style="fill:#fff;opacity:0.7000000000000001"></path><path d="M246.41,134.22a118.67,118.67,0,0,1-8.19,15.89c0,.08-.17,0-.14-.07,4.39-8.77,7.08-18.4,12.74-26.15a27.39,27.39,0,0,0-2.74,2.16,83,83,0,0,0-10.49,12.28c-.06.07-.18,0-.12-.08a94.78,94.78,0,0,1,10.92-13.18A89.38,89.38,0,0,0,238,132.3c-.08,0-.19-.05-.12-.13a51.94,51.94,0,0,1,6.44-6.09.16.16,0,0,1,.09,0c2.39-1.62,4.93-2.79,7.37-2.71a9.81,9.81,0,0,1,3.29-.75,52,52,0,0,0-6.63,11.18c0,.05-.12,0-.11-.05a52.42,52.42,0,0,1,5.26-10.34A41.57,41.57,0,0,0,246.41,134.22Z" style="fill:#FF5836"></path><path d="M262.29,129.4c.56,3.06.84,6.18,1.13,9.16a.08.08,0,0,1-.16,0c-.59-3.24-1.3-6.38-2.12-9.5.45,6.9-.57,14.25-1.62,20.52,0,.14-.21.11-.22,0a110.07,110.07,0,0,0-.25-16.34c-.22-2.43-.57-4.86-.82-7.3a11.49,11.49,0,0,0-.13,1.21,76.66,76.66,0,0,1-1.21,10.14c0,.12-.24.1-.22,0,.42-3.07.11-6.75.13-10.32-.62,2.29-1.18,4.62-1.65,7-1.15,5.81-2.55,11.42-5.38,16.66-.07.14-.32,0-.24-.11,3.32-7.88,3.26-17.64,5.49-26.21-2.34,5.4-4.71,10.8-7,16.24,0,.08-.16,0-.13,0,2.25-6,4.57-12,7.16-17.93C258.83,122.5,261,125.4,262.29,129.4Z" style="fill:#FF5836"></path><path d="M257.53,141.55a53.78,53.78,0,0,0-1.63,17.54c0,.17.29.17.29,0a95.26,95.26,0,0,1,1.53-17.52C257.74,141.45,257.56,141.44,257.53,141.55Z" style="fill:#FF5836"></path><path d="M238.43,133.16a47.68,47.68,0,0,0-8.09,9.55s0,.11.08.06a79.69,79.69,0,0,1,8.1-9.5C238.58,133.21,238.5,133.1,238.43,133.16Z" style="fill:#FF5836"></path><path d="M302.11,133.94c.52,4.54,1.12,13.38-1.16,17.67-4.74,9-23.86,8-29.4.48-4.16-5.67-6.05-14.86-7.8-21.58-.64-2.45-1.41-5-1.23-7.24a1.22,1.22,0,0,1-.34-1.11,9.52,9.52,0,0,1,1.07-2.92,6.91,6.91,0,0,1,3.81-3.13,10.22,10.22,0,0,1,2.45-.51c3.61-.3,7.64,1.52,11.06,2.39,4.09,1.06,8.38,1.71,12.21,3.58C298.11,124.14,301.4,128.07,302.11,133.94Z" style="fill:#FF5836"></path><path d="M302.11,133.94c.52,4.54,1.12,13.38-1.16,17.67-4.74,9-23.86,8-29.4.48-4.16-5.67-6.05-14.86-7.8-21.58-.64-2.45-1.41-5-1.23-7.24a1.22,1.22,0,0,1-.34-1.11,9.52,9.52,0,0,1,1.07-2.92,6.91,6.91,0,0,1,3.81-3.13,10.22,10.22,0,0,1,2.45-.51c3.61-.3,7.64,1.52,11.06,2.39,4.09,1.06,8.38,1.71,12.21,3.58C298.11,124.14,301.4,128.07,302.11,133.94Z" style="fill:#fff;opacity:0.7000000000000001"></path><path d="M286.55,123c-3.79-.86-7-3-10.76-4-2.84-.74-5.8-1-8.67-1.53,3.36,1.52,6.78,3.09,10,4.9,3.88,2.19,6.8,5.67,11,7.31.23.07.08.39-.12.33a13.86,13.86,0,0,1-5-2.91,36.33,36.33,0,0,0-6.36-3.69c-1.65-.81-3.34-1.58-5-2.41,1.35,1.11,2.62,2.35,3.94,3.37,3.2,2.48,6.47,4.92,9.76,7.33,0,0,0,.09-.06.07-4.89-3.37-9.68-6.85-14.57-10.21A129.8,129.8,0,0,1,282.06,135a.22.22,0,0,1-.34.28c-4.42-4.64-8.88-9.22-13.12-14,.28.54.55,1.07.82,1.63,2.16,4.61,5,8,8.18,11.93.11.17-.11.42-.28.27a42.22,42.22,0,0,1-8.07-9.26,74,74,0,0,1-3.51-6.72,39.71,39.71,0,0,0,2,5.9c0,.1-.09.13-.14.07-.56-1-1.13-2.06-1.64-3.19a40.55,40.55,0,0,0,3.22,9.22c2.28,4.52,4.61,9,6.6,13.66.06.15-.16.29-.24.15-3.53-5.85-8-12.46-10.33-19.38a45.24,45.24,0,0,0,1.86,9.1c0,.1-.12.18-.16.07a58.75,58.75,0,0,1-3.39-9.35,21.21,21.21,0,0,1-.25-6.11,6.91,6.91,0,0,1,3.81-3.13,23.89,23.89,0,0,1,8.12,1c4.08,1.2,7.56,3.87,11.46,5.54C286.83,122.71,286.76,123,286.55,123Z" style="fill:#FF5836"></path><path d="M267.94,137.7a32.07,32.07,0,0,0,2.12,6.52c.09.18.41.12.37-.11a32.61,32.61,0,0,0-2.36-6.45C268,137.59,267.91,137.62,267.94,137.7Z" style="fill:#FF5836"></path><path d="M269.31,128.71c-.05-.09-.2,0-.15.07a73.86,73.86,0,0,0,6.78,11.68c.06.07.19,0,.15-.09C274.07,136.36,271.62,132.55,269.31,128.71Z" style="fill:#FF5836"></path><path d="M293.36,130.52c-3.42-2.27-7-4.36-10.54-6.37-.05,0-.1,0-.05.07,3.52,2.1,7,4.31,10.44,6.51C293.35,130.82,293.51,130.62,293.36,130.52Z" style="fill:#FF5836"></path><path d="M314.51,94.19c3,8.52-5.89,24.47-15,25.07-7.45.48-17.56-1.93-24.56-4.68a13.89,13.89,0,0,1-3.84-2,1.44,1.44,0,0,1-.79-.31,6.08,6.08,0,0,1-1.41-1.61c-.81-1.43-.45-2.92.8-4.7,2.21-3.15,6.56-5.55,9.51-7.94l.29-.23c3.38-2.76,6.75-5.92,10.43-8.25C296.59,85.29,311.27,85,314.51,94.19Z" style="fill:#FF5836"></path><path d="M314.51,94.19c3,8.52-5.89,24.47-15,25.07-7.45.48-17.56-1.93-24.56-4.68a13.89,13.89,0,0,1-3.84-2,1.44,1.44,0,0,1-.79-.31,6.08,6.08,0,0,1-1.41-1.61c-.81-1.43-.45-2.92.8-4.7,2.21-3.15,6.56-5.55,9.51-7.94l.29-.23c3.38-2.76,6.75-5.92,10.43-8.25C296.59,85.29,311.27,85,314.51,94.19Z" style="fill:#fff;opacity:0.7000000000000001"></path><path d="M286,104.42c-2.28,1-4.61,2-7,2.84,1.65-.15,3.3-.29,5-.57,4.12-.72,8-2.16,12.27-2.19.13,0,.12.21,0,.22-5.29,1-10.35,2.88-15.61,3.94-1.58.31-3.42.76-5.29,1.09,5.56-.47,11-1.41,16.61-1.76a.14.14,0,0,1,0,.27c-6,1-12.73,3-19,2.49,5.79,1.81,11.93,2.38,17.9,3.41a.07.07,0,1,1,0,.13c-5.46-.16-11.74-.45-17.29-2.12a14.16,14.16,0,0,0,4.24,2c3.68,1.07,7.56,1.59,11.27,2.53,0,0,0,0,0,0-4.4-.43-9-.7-13.2-2.26-2.26-.85-5.13-1.92-7-3.77-.81-1.43-.45-2.92.8-4.7,2.21-3.15,6.56-5.55,9.51-7.94l.29-.23c3.94-2.27,8.1-4.15,11.35-6.15.19-.12.44.16.24.29-6.1,4.21-12.95,7.69-18.23,12.89.43-.26.85-.5,1.27-.73a68.16,68.16,0,0,1,9.14-4.34.19.19,0,0,1,.15.35c-2.81,1.45-5.68,2.63-8.18,4.6-.35.28-.68.58-1,.85a30,30,0,0,1,6.61-2.53c.15,0,.24.21.12.28-1.75,1.15-3.56,2.19-5.34,3.26-.76.46-1.53,1-2.3,1.46l.65-.11c8.52-3.64,18.23-7.6,27.53-7.37.1,0,.08.15,0,.17C296,101.42,291.12,102.23,286,104.42Z" style="fill:#FF5836"></path><path d="M294.31,94a38.48,38.48,0,0,0-12.08,5.25c-.11.08,0,.26.12.2,3.95-2,7.91-3.65,12-5.26C294.47,94.16,294.42,94,294.31,94Z" style="fill:#FF5836"></path><path d="M284.88,101.53a0,0,0,1,0,0,.07c3.6-1.65,7.2-3.23,10.88-4.7,0,0,0-.07,0-.06A112.66,112.66,0,0,0,284.88,101.53Z" style="fill:#FF5836"></path><path d="M273.73,119.8c-5.32,9.22-18.38,13.08-26.88,5a15.73,15.73,0,0,1-3.17-18.26c2.61-7.28,11.83-11.63,19.58-10.26C274.28,98.22,278.91,110.84,273.73,119.8Z" style="fill:#FF5836"></path><path d="M214.07,333.3c1.51-7.44,1.12-24.91-1.07-29s.32-4.1-5.82-10.61-7.5-7.64-10.9-9.26-3.54-2.7-5.31-2-2,.38-3.07,1.62-.49,3.68-1.32,7.3a39.06,39.06,0,0,0-.06,15.73c1.29,5.47,5,7.49,8.28,13.4s7.36,11.17,9.12,14.21a6.33,6.33,0,0,0,7.6,2.48C213.27,336.26,214.07,333.3,214.07,333.3Z" style="fill:#FF5836"></path><g style="opacity:0.4"><path d="M214.07,333.3c1.51-7.44,1.12-24.91-1.07-29s.32-4.1-5.82-10.61-7.5-7.64-10.9-9.26-3.54-2.7-5.31-2-2,.38-3.07,1.62-.49,3.68-1.32,7.3a39.06,39.06,0,0,0-.06,15.73c1.29,5.47,5,7.49,8.28,13.4s7.36,11.17,9.12,14.21a6.33,6.33,0,0,0,7.6,2.48C213.27,336.26,214.07,333.3,214.07,333.3Z" style="fill:#fff"></path></g><path d="M218.64,323.46c1.37-11,2.13-29.87-6.89-34.28-4-1.95-7.38,1-8.59,5.5s2.66,29.13,3.4,34.14,3.26,6.94,5.66,7.87S217.73,330.72,218.64,323.46Z" style="fill:#FF5836"></path><path d="M218.64,323.46c1.37-11,2.13-29.87-6.89-34.28-4-1.95-7.38,1-8.59,5.5s2.66,29.13,3.4,34.14,3.26,6.94,5.66,7.87S217.73,330.72,218.64,323.46Z" style="fill:#fff;opacity:0.6000000000000001"></path><path d="M216.4,305.6c-.3,5.44-.91,12.27-1,17.65-.22,4.62-1.67,9.1-2.85,13.53l-.49-.4c3.4-3.05,4-8.29,4.55-12.63.52-4.65.95-9.32,1.37-14-.18,4.68-.42,9.36-.86,14-.48,4.53-1.05,10-4.74,13.18l-.73.47.23-.86a98.51,98.51,0,0,0,2.76-11.43c.41-6.54,1-13.07,1.76-19.57Z" style="fill:#FF5836"></path><path d="M207.26,299.58c1.81,12.61,2,25.42,4.46,37.93l-1-2c-1.7-3.21-3.16-6.76-3.23-10.43l-.37-3.62L205.54,307c1.16,7.11,2,14.46,3,21.56a32.36,32.36,0,0,0,2.77,6.61l-.63.23a122.25,122.25,0,0,1-2-17.91l-1.41-17.95Z" style="fill:#FF5836"></path><path d="M210.32,306.89a263.51,263.51,0,0,1,1.2,30.26c-.55-9.92-1.31-20.32-1.2-30.26Z" style="fill:#FF5836"></path><path d="M212,333a62.37,62.37,0,0,1,1.05-13.78c.42-2.64.79-5.56,1.2-8.19-.08,7.38-1.62,14.61-2.25,22Z" style="fill:#FF5836"></path><path d="M188.79,291.19c4.88-.64,15.26,12.15,18.22,17a48.12,48.12,0,0,1,5.31,14.19,81.09,81.09,0,0,1,1.39,10.22,10.63,10.63,0,0,1-2.89,7.41c-.84.66-1,2-5.39,2.15s-8.15-2.19-11.19-4.4-9-9.3-10.87-12.34-6.38-19.63-5.21-23.07S186.22,291.53,188.79,291.19Z" style="fill:#FF5836"></path><g style="opacity:0.7000000000000001"><path d="M188.79,291.19c4.88-.64,15.26,12.15,18.22,17a48.12,48.12,0,0,1,5.31,14.19,81.09,81.09,0,0,1,1.39,10.22,10.63,10.63,0,0,1-2.89,7.41c-.84.66-1,2-5.39,2.15s-8.15-2.19-11.19-4.4-9-9.3-10.87-12.34-6.38-19.63-5.21-23.07S186.22,291.53,188.79,291.19Z" style="fill:#fff"></path></g><path d="M189.67,328.51c3.49,2,6.45,5.48,9.89,7.67,2.62,1.65,5.35,2.72,8,4.13-3.08-2.74-6.22-5.55-9.17-8.59-3.57-3.69-6.22-8.71-10.11-11.8-.21-.15-.07-.51.12-.38a18.78,18.78,0,0,1,4.62,4.87,49.06,49.06,0,0,0,5.83,6.17c1.52,1.41,3.06,2.8,4.59,4.24-1.23-1.71-2.4-3.55-3.59-5.14-2.94-3.88-5.93-7.71-8.93-11.51,0,0,0-.1.05-.06,4.48,5.38,8.86,10.88,13.34,16.27-3.72-6.16-7.12-12.61-10.33-19.35-.17-.32.14-.54.31-.25,4,6.82,8.09,13.58,11.95,20.53-.25-.73-.49-1.45-.73-2.21-1.94-6.2-4.52-11.13-7.41-16.71-.1-.24.1-.48.26-.26a71.93,71.93,0,0,1,7.34,13.42c1.22,3,2.17,6.08,3.16,9.14a71.62,71.62,0,0,0-1.76-7.74c0-.13.09-.14.14,0,.5,1.34,1,2.81,1.47,4.32a73.75,73.75,0,0,0-2.86-12.12c-2.05-6.12-4.14-12.2-5.93-18.42,0-.2.15-.31.23-.12,3.19,8.07,7.21,17.31,9.3,26.38a79.08,79.08,0,0,0-1.61-11.6c0-.13.12-.19.16-.05a106.82,106.82,0,0,1,3,12.32,34.71,34.71,0,0,1,.15,7.54A4.92,4.92,0,0,1,207.6,342a21.15,21.15,0,0,1-7.5-3.3c-3.76-2.52-6.94-6.69-10.52-9.74C189.4,328.8,189.47,328.41,189.67,328.51Z" style="fill:#FF5836"></path><path d="M205.21,313a59.41,59.41,0,0,0-3.1-8.15c-.12-.24-.42-.21-.34.08a60.2,60.2,0,0,0,3.32,8.1C205.13,313.13,205.24,313.11,205.21,313Z" style="fill:#FF5836"></path><path d="M205.67,326c.05.13.19.1.15,0a134.13,134.13,0,0,0-6.13-16c-.05-.11-.17-.05-.13.07C201.37,315.41,203.58,320.7,205.67,326Z" style="fill:#FF5836"></path><path d="M220,312.72c-.3,1.43,2.21,9.48,1.31,13.66a12.77,12.77,0,0,1-2.72,5.24s2,7.29,1.44,10.65a26.74,26.74,0,0,1-2.66,7.68,6.23,6.23,0,0,1-4.14,1.95c-1.91.1-4.71-1.74-7.15-3.38s-3.69-3.61-4.42-4.17-2.65-.38-5.8-1.68-8.39-8-8.39-8l-1.93-2.1s.33-1.07,2.78.07,5.36,2.91,6.64,3.35,3,1.89,3.75,2.32,2.8,1.92,2.8,1.92-1.06-3-1.81-6.09-3.94-7.35-4.49-10.15,5.73,2.26,5.73,2.26,2.55,4.18,4.95,5c3.62,1.24,8.57.16,9.24.89a95.26,95.26,0,0,1,2.67-9.66C218.92,319.56,220,312.72,220,312.72Z" style="fill:#37474f"></path><path d="M219.09,345.53a9.1,9.1,0,0,0-1,4.28c.19,3.9,2.91,9.27,3.6,12.15,1,4.28,18.68,36.34,21.56,39.79s29.56,28,29.56,28l3.75,12.58s-31.51-30.4-35.89-35.5-19.53-38.27-21.91-43.32-4.51-10.55-6.88-11.88c-2.15-1.22-5.91-3.18-5.91-3.18Z" style="fill:#37474f"></path><path d="M256,190.58a33.64,33.64,0,0,1,2.24,7.49l.06.28c.13.66.25,1.32.38,2,.19,1.05.4,2.09.65,3.12a8.78,8.78,0,0,0,1,3s0,0,0,.05a2.67,2.67,0,0,0,.53.62c2.22,1.85,3.84-.6,4.79-2.65a27.73,27.73,0,0,0,1.08-2.76c1.23-3.62,1.94-7.5,3.37-11,1.7-4.16,3-8.47.51-13.26-3.85-7.95-14.72-8.54-17.9.34C251.22,182.15,254.33,186.79,256,190.58Z" style="fill:#FF5836"></path><path d="M256,190.58a33.64,33.64,0,0,1,2.24,7.49l.06.28c.13.66.25,1.32.38,2,.19,1.05.4,2.09.65,3.12a8.78,8.78,0,0,0,1,3s0,0,0,.05a2.67,2.67,0,0,0,.53.62c2.22,1.85,3.84-.6,4.79-2.65a27.73,27.73,0,0,0,1.08-2.76c1.23-3.62,1.94-7.5,3.37-11,1.7-4.16,3-8.47.51-13.26-3.85-7.95-14.72-8.54-17.9.34C251.22,182.15,254.33,186.79,256,190.58Z" style="fill:#fff;opacity:0.6000000000000001"></path><path d="M258.7,200.35c.19,1.05.4,2.09.65,3.12a16.17,16.17,0,0,0,1,3s0,0,0,.05a2.67,2.67,0,0,0,.53.62c2.22,1.85,3.84-.6,4.79-2.65a27.73,27.73,0,0,0,1.08-2.76A72.18,72.18,0,0,0,268.62,191c0-.17-.26-.23-.3-.06-1.24,4.79-2.53,9.36-4.15,13.9.09-4.56.37-9,.75-13.65,0-.09-.13-.12-.15,0a69.11,69.11,0,0,0-1.88,11.35,24.22,24.22,0,0,1-.73-4.79c-.06-3.31.53-6.52.15-9.84,0-.12-.23-.09-.22,0-.13,3.48-.87,6.94-.72,10.46a72,72,0,0,0,1.1,8.22c-2.07-3.51-2.42-7.93-3.48-11.87a25.86,25.86,0,0,0-4-8.78c-.1-.15-.33,0-.25.18,2,3.9,2.74,7.9,3.48,12l.06.28C258.45,199,258.56,199.69,258.7,200.35Z" style="fill:#FF5836"></path><path d="M266.77,184.84c0-.09.16-.11.17,0,.34,3,.44,6.18-.8,9-.07.15-.33.14-.31-.06C266.16,190.75,266.85,187.88,266.77,184.84Z" style="fill:#FF5836"></path><path d="M257.71,185.14a17.88,17.88,0,0,1,2.62,7.72c0,.28-.38.26-.46,0-.85-2.52-1.39-5.15-2.4-7.62A.14.14,0,0,1,257.71,185.14Z" style="fill:#FF5836"></path><path d="M260.2,194.35a.06.06,0,0,1,.11,0,20.6,20.6,0,0,1,.44,3.22c0,.12-.18.12-.21,0A19.34,19.34,0,0,1,260.2,194.35Z" style="fill:#FF5836"></path><path d="M271.69,212.72c1.44.92,3.9,1,5.5,1.23l6.16.92c1.25.21,2.49.39,3.74.58,6.09.91,11.86,1.64,17.35-1.76,3.28-2,7-5.28,7.61-9.31.79-4.83-3.43-7.75-7.22-9.69-4.24-2.24-7.17-2.75-11.44-.61-4.73,2.36-10,4.34-14.82,6.8-1.3.66-2.55,1.36-3.76,2.1a13.74,13.74,0,0,0-1.83,1.39.82.82,0,0,0-.51.32,8.47,8.47,0,0,0-.57.82c-.15.18-.29.38-.42.57C269.93,208.34,268.76,210.9,271.69,212.72Z" style="fill:#FF5836"></path><path d="M271.69,212.72c1.44.92,3.9,1,5.5,1.23l6.16.92c1.25.21,2.49.39,3.74.58,6.09.91,11.86,1.64,17.35-1.76,3.28-2,7-5.28,7.61-9.31.79-4.83-3.43-7.75-7.22-9.69-4.24-2.24-7.17-2.75-11.44-.61-4.73,2.36-10,4.34-14.82,6.8-1.3.66-2.55,1.36-3.76,2.1a13.74,13.74,0,0,0-1.83,1.39.82.82,0,0,0-.51.32,8.47,8.47,0,0,0-.57.82c-.15.18-.29.38-.42.57C269.93,208.34,268.76,210.9,271.69,212.72Z" style="fill:#fff;opacity:0.6000000000000001"></path><path d="M271.69,212.72c1.44.92,3.9,1,5.5,1.23l6.16.92c3.34.2,6.67.22,9.78.19a.13.13,0,0,0,0-.26c-4-.35-8-.75-11.94-1.36-2.7-.43-5.33-1.16-8-1.74a44.59,44.59,0,0,1,8.1-1.29,62.59,62.59,0,0,0,13.6-2.08.07.07,0,1,0,0-.14c-5.88,1-11.52.35-17.37.74a31.78,31.78,0,0,0-6.59,1.27c.15-.16.3-.34.45-.52,8.49-3.38,17.57-4.82,26.39-7.31.07,0,.05-.15,0-.14a107.23,107.23,0,0,1-16.12,3.41,36.21,36.21,0,0,0-7.92,1.69,1.52,1.52,0,0,0,.22-.22c3.84-2.89,7.87-4.3,12.46-5.57a.13.13,0,0,0-.05-.26,37.62,37.62,0,0,0-11.26,3.84c5.05-3.74,11.59-5.52,17.78-8.16a0,0,0,0,0,0,0,70,70,0,0,0-14.24,3.94c-1.3.66-2.55,1.36-3.76,2.1a13.74,13.74,0,0,0-1.83,1.39.82.82,0,0,0-.51.32,8.47,8.47,0,0,0-.57.82c-.15.18-.29.38-.42.57C269.93,208.34,268.76,210.9,271.69,212.72Z" style="fill:#FF5836"></path><path d="M275.54,211.55a37.07,37.07,0,0,1,10.2-.06,52.9,52.9,0,0,0,13.54.32c.09,0,.13.12,0,.14-8,1.63-15.69.31-23.74,0C275.36,211.92,275.32,211.58,275.54,211.55Z" style="fill:#FF5836"></path><path d="M288.62,201a11.79,11.79,0,0,1,5.29-.77c.06,0,.08.1,0,.11-1.76.19-3.45.64-5.19,1C288.56,201.37,288.44,201.1,288.62,201Z" style="fill:#FF5836"></path><path d="M280.35,207.36a43.91,43.91,0,0,0,12.13-2.19c.06,0,.11.09,0,.12a28.77,28.77,0,0,1-12.18,2.25C280.22,207.53,280.24,207.37,280.35,207.36Z" style="fill:#FF5836"></path><path d="M263.25,204.87a5.92,5.92,0,0,0,3.07,4,.35.35,0,0,0,.17.09c2.53,1.24,5.93.9,8.61-.17.33-.13.65-.29.95-.44,3.63-1.82,6.58-4.75,10.19-6.68,4.05-2.12,8.46-3.51,12.42-5.83,6-3.49,9.27-8.11,8.51-15.23-1.25-11.72-13.14-22.91-24.78-17.44A11.42,11.42,0,0,0,278,166c-4.76,5-5.46,13.32-7.67,19.6-1.66,4.69-3.78,9.09-5.86,13.6a10,10,0,0,0-1.32,4.25A3.75,3.75,0,0,0,263.25,204.87Z" style="fill:#FF5836"></path><path d="M263.25,204.87a5.92,5.92,0,0,0,3.07,4,.35.35,0,0,0,.17.09c2.53,1.24,5.93.9,8.61-.17.33-.13.65-.29.95-.44,3.63-1.82,6.58-4.75,10.19-6.68,4.05-2.12,8.46-3.51,12.42-5.83,6-3.49,9.27-8.11,8.51-15.23-1.25-11.72-13.14-22.91-24.78-17.44A11.42,11.42,0,0,0,278,166c-4.76,5-5.46,13.32-7.67,19.6-1.66,4.69-3.78,9.09-5.86,13.6a10,10,0,0,0-1.32,4.25A3.75,3.75,0,0,0,263.25,204.87Z" style="fill:#fff;opacity:0.7000000000000001"></path><path d="M266.49,208.94c2.53,1.24,5.93.9,8.61-.17l.79-.53c6-4.16,12.19-8.08,18.17-12.26.13-.09,0-.3-.11-.23-5.21,2.47-10.58,5-15.53,8-1.19.73-2.33,1.54-3.49,2.36,1-1,1.93-2.07,2.85-3.11a115.44,115.44,0,0,1,15.44-14.38.05.05,0,1,0-.06-.09c-8.6,5.53-15.11,13.55-23.37,19.28,3.39-4.89,6.61-9.9,10.11-14.71.05-.05,0-.11-.1-.06-3.62,4.71-7.42,9.29-10.91,14.09.29-.75.58-1.51.94-2.25a76.07,76.07,0,0,1,5.55-9.51c.05-.09-.07-.15-.14-.07C272.13,199.06,268.54,203.93,266.49,208.94Z" style="fill:#FF5836"></path><path d="M263.25,204.87a5.92,5.92,0,0,0,3.07,4,67.7,67.7,0,0,1,2.07-7.79c1.86-5.28,4.67-10.06,7.5-14.87.09-.14-.12-.28-.24-.15-4.3,5.69-8.25,11.6-10.43,18.18,1.75-8.62,7.45-16.71,9.14-25.36,0-.13-.15-.2-.18-.06-1.9,6.46-5.69,12-8.58,18a30.13,30.13,0,0,0-2.49,6.64A3.75,3.75,0,0,0,263.25,204.87Z" style="fill:#FF5836"></path><path d="M279.76,197.12a101,101,0,0,1,7.56-6.91.09.09,0,0,1,.12.13c-2.45,2.37-4.82,4.86-7.49,7A.14.14,0,0,1,279.76,197.12Z" style="fill:#FF5836"></path><path d="M272.45,196c2-5.16,6.43-9.79,10.36-13.56.1-.1.24.05.15.15a65.67,65.67,0,0,0-5.73,6.84c-1.59,2.17-2.86,4.57-4.51,6.7C272.62,196.26,272.38,196.18,272.45,196Z" style="fill:#FF5836"></path><path d="M242,276.36c-.06.39,3.59,6.57,3.67,6.2,2.27-10.07,17.75-65.15,19.36-66,1.22-.64,6.52-2.87,7.26-4.14,1.49-2.65-1.31-5-3.4-6-2.49-1.25-6.1-2.48-7.87.48-.69,1.16-.06,5.57.19,6.88C261.66,216.25,247.78,238.91,242,276.36Z" style="fill:#37474f"></path><path d="M243.59,413.5l2.27,1.19a.52.52,0,0,0,.36.07c.53,0,.88-.79.29-1.1s1.11-31.68-8.29-44.7c-.25-.31-.47-.64-.72-1s-.57-.77-.89-1.16a86.12,86.12,0,0,0-9.24-9.91,1.8,1.8,0,0,0-.39-.34c-1.36-1.3-2.77-2.54-4.22-3.77-.32-.3-.67-.58-1-.87-5-4.19-10.22-8.18-15.3-12.18-.32-.24-.65-.51-1-.78-3.66-2.89-7.26-5.83-10.59-8.88a1.09,1.09,0,0,0-1.86.95c.86,6.85,1.49,14,2.48,21.12.07.39.11.76.16,1.14.51,3.49,1.13,7,1.95,10.33.14.66.3,1.29.48,1.91a58.26,58.26,0,0,0,2,6.5c.15.47.3.91.46,1.36a56.58,56.58,0,0,0,4.34,8.93c.63,1,1.28,2,2,3,.46.67,1,1.33,1.42,2C217.4,399.21,230.47,406.5,243.59,413.5Z" style="fill:#455a64"></path><path d="M247.94,418.58c-.56-1.3-1.14-2.57-1.72-3.82-2.4-5.32-5-10.59-7.74-15.8-.15-10.6.88-20.62-1-31-.28-.39-.57-.77-.89-1.16a123.7,123.7,0,0,1,1,17.31c-.05,3.89-.65,8.06-.55,12.05-3.57-6.69-7.38-13.29-11.38-19.74a67.92,67.92,0,0,0-.3-8.54c.74-3.64,1.33-7.34,2-11a1.8,1.8,0,0,0-.39-.34,67.84,67.84,0,0,0-1.8,9.78,112,112,0,0,0-2.42-13.55c-.32-.3-.67-.58-1-.87,1.06,7.48,1.66,15,2.66,22.46q-5.28-8.43-10.93-16.6a78.07,78.07,0,0,0-7-18c-.32-.24-.65-.51-1-.78,2.24,5.47,4.14,11,6.39,16.48-4.62-6.61-9.43-13.08-14.34-19.39-.13-.18-.47.05-.33.23,8.1,11.85,15.66,23.93,23,36.15a135.89,135.89,0,0,0-24.66-20.28c.07.39.11.76.16,1.14A155.24,155.24,0,0,1,222.9,377c1.83,3.11,3.59,6.26,5.4,9.39a224.81,224.81,0,0,0-30.7-22.77c.14.66.3,1.29.48,1.91,6.47,4.13,12.83,8.51,19,13.06a119,119,0,0,0-17-6.56c.15.47.3.91.46,1.36,5.87,1.87,11.74,3.65,17.49,5.85,3.78,2.81,7.51,5.68,11.14,8.67,2.57,4.45,5.11,8.95,7.65,13.45q-14.91-8.1-30-16c.46.67,1,1.33,1.42,2a230.93,230.93,0,0,0,29,14.9q3.17,5.63,6.3,11.27c1.08,1.88,2.12,3.79,3.18,5.69A.66.66,0,0,0,247.94,418.58Z" style="fill:#37474f"></path><path d="M215.35,250.85c9.66,2.55,9.56.58,13.55-.23s5.46-1.64,6.79-3.63,5.35-5.23,6.61-8.51,1-7.25.59-13.71Z" style="fill:#455a64"></path><path d="M225.33,251.22c1.34-.05,11.43.65,16.25,2.1,4.1,1.24,15.08,76.38,14.14,105.5-.51,15.84-25.18,111.48-25.18,111.48h7.72c.09-1.4,25.11-92.22,24.46-111.48C261,307.62,247,246.78,245.54,245s-2.31-13.41-2.31-13.41Z" style="fill:#455a64"></path><path d="M204.69,223.41a85,85,0,0,1,9.35,4.92c2.54,1.56,4.53,3.29,3.27,6.51-1.71,4.42-10,5.59-13.68,7.52-2.17,1.15-4.46,2.7-6.87,4.14-3.36,2-6.89,3.82-10.46,3.89-9.21.21-13.24-8-13.53-16.07a1.11,1.11,0,0,1-.17-.53c-.64-10.44,6.81-19.54,17.47-16.06A140,140,0,0,1,204.69,223.41Z" style="fill:#FF5836"></path><path d="M204.69,223.41a85,85,0,0,1,9.35,4.92c2.54,1.56,4.53,3.29,3.27,6.51-1.71,4.42-10,5.59-13.68,7.52-2.17,1.15-4.46,2.7-6.87,4.14-3.36,2-6.89,3.82-10.46,3.89-9.21.21-13.24-8-13.53-16.07a1.11,1.11,0,0,1-.17-.53c-.64-10.44,6.81-19.54,17.47-16.06A140,140,0,0,1,204.69,223.41Z" style="fill:#fff;opacity:0.7000000000000001"></path><path d="M204.69,223.41a85,85,0,0,1,9.35,4.92c2.54,1.56,4.53,3.29,3.27,6.51-1.71,4.42-10,5.59-13.68,7.52-2.17,1.15-4.46,2.7-6.87,4.14-.07-.05-.11-.14,0-.2a37.73,37.73,0,0,1,9.85-6.42c1.72-.74,3.47-1.33,5.16-2-.32.05-.64.1-1,.17a46.83,46.83,0,0,0-9.78,2.77c-.13.06-.22-.14-.1-.23a59,59,0,0,1,8.23-4.37c-5.85.56-11.63,1.47-17.54,2.53a.07.07,0,0,1,0-.14,95.08,95.08,0,0,1,21-3.62l.6-.15c-4.84-.05-9.76-.45-14.52-.37-.36,0-.37-.57,0-.62a109.85,109.85,0,0,1,11.78-1.15,150.48,150.48,0,0,0-16.62-2.61.14.14,0,0,1,0-.27,61.09,61.09,0,0,1,20.32,1.62,118.56,118.56,0,0,0-13.75-5.27.24.24,0,0,1,.1-.47,60.67,60.67,0,0,1,13.74,3.67,63.22,63.22,0,0,0-13.35-6.78c-.23-.07-.09-.41.13-.35C202.22,222.55,203.46,223,204.69,223.41Z" style="fill:#FF5836"></path><path d="M196.09,223c-.09,0-.13.13,0,.16,2.89.86,5.77,1.64,8.72,2.25.17,0,.23-.24.07-.29C202,224.25,199,223.58,196.09,223Z" style="fill:#FF5836"></path><path d="M201.06,238.78a28,28,0,0,0-6.69,3.21c-.13.08,0,.3.1.23,2.17-1.2,4.49-2,6.68-3.12C201.31,239,201.24,238.73,201.06,238.78Z" style="fill:#FF5836"></path><path d="M225.87,198.35c.8,2.78.06,5.88-.3,8.67,0,.09,0,.2,0,.29-.49,4.07-.75,8.31-1.54,12.33a1.25,1.25,0,0,0,0,.19,12.16,12.16,0,0,1-2,5,8,8,0,0,1-4.72,3,1.34,1.34,0,0,1-1.61-.7,18.31,18.31,0,0,1-3.6-1.8L210,224.11a94.1,94.1,0,0,0-11.65-5.66c-2.48-1-5.8-1.45-7.94-3.08-7.77-6.05,1.9-18.77,7.78-22.13C205.59,189,222.82,187.67,225.87,198.35Z" style="fill:#FF5836"></path><path d="M225.87,198.35c.8,2.78.06,5.88-.3,8.67,0,.09,0,.2,0,.29-.49,4.07-.75,8.31-1.54,12.33a1.25,1.25,0,0,0,0,.19,12.16,12.16,0,0,1-2,5,8,8,0,0,1-4.72,3,1.34,1.34,0,0,1-1.61-.7,18.31,18.31,0,0,1-3.6-1.8L210,224.11a94.1,94.1,0,0,0-11.65-5.66c-2.48-1-5.8-1.45-7.94-3.08-7.77-6.05,1.9-18.77,7.78-22.13C205.59,189,222.82,187.67,225.87,198.35Z" style="fill:#fff;opacity:0.7000000000000001"></path><path d="M225,203a20.55,20.55,0,0,1,.61,4c0,.09,0,.2,0,.29-.49,4.07-.75,8.31-1.54,12.33a51.28,51.28,0,0,1-2,5.15,8,8,0,0,1-4.72,3,1.34,1.34,0,0,1-1.61-.7,18.31,18.31,0,0,1-3.6-1.8L210,224.11c-2.49-2-4.86-4.08-7.11-5.66-.25-.17,0-.52.26-.38,3.15,2.12,6.37,4.17,9.62,6.15,1,.62,2,1.16,3,1.7-1.06-1.06-2.06-2.22-3.1-3.4a66.63,66.63,0,0,0-11.14-10.41c-.09-.05,0-.18.1-.13,6.43,3.89,10.56,10.32,16.54,14.55a26.65,26.65,0,0,1-3.4-5.62c-1.79-3.5-3.58-6.92-6.37-9.76,0,0,0-.13.1-.09a40,40,0,0,1,6.33,8c1,1.43,2,2.78,3.12,4.15a55.78,55.78,0,0,1-4.17-18.76c0-.09.14-.13.14,0a63.34,63.34,0,0,0,5.69,20.41c.21-2,.68-4,1-5.93a41.57,41.57,0,0,0,.19-13.63.1.1,0,0,1,.2,0c1.37,5.65,1.08,11.23.32,16.83a18.36,18.36,0,0,0,.87-1.94A41.32,41.32,0,0,0,224.66,203,.15.15,0,0,1,225,203Z" style="fill:#FF5836"></path><path d="M216.75,199.5c1.54,6.17,1.05,12.6,2.67,18.69a.12.12,0,0,0,.23,0c-.72-6-.37-13-2.64-18.72A.14.14,0,0,0,216.75,199.5Z" style="fill:#FF5836"></path><path d="M198.4,212.58a.1.1,0,0,0-.07.19c3.81,1.63,7.07,5.25,10.21,7.89.1.09.26-.07.17-.17C205.92,217.53,202.4,213.73,198.4,212.58Z" style="fill:#FF5836"></path><path d="M220.47,240.25a.83.83,0,0,1,.33,1.39,4.61,4.61,0,0,1,.75,1.16c.87,1.81.86,4.18.8,6.78-.19,7.18.53,15.54-1.37,22.52-1.29,4.8-3.9,6.79-8.52,7.9-5.27,1.25-14,3.65-19.39,1.18-4.76-2.2-5.36-6.81-6.88-11.26-1.41-4.2-5.47-9.39-2.51-13.9,3.49-5.3,14.51-8.42,19.89-11.13,4.21-2.11,8.05-4.57,12.38-5a1.46,1.46,0,0,1,1.15-.22,7,7,0,0,1,.73.19l1,.08A11.6,11.6,0,0,1,220.47,240.25Z" style="fill:#FF5836"></path><path d="M220.47,240.25a.83.83,0,0,1,.33,1.39,4.61,4.61,0,0,1,.75,1.16c.87,1.81.86,4.18.8,6.78-.19,7.18.53,15.54-1.37,22.52-1.29,4.8-3.9,6.79-8.52,7.9-5.27,1.25-14,3.65-19.39,1.18-4.76-2.2-5.36-6.81-6.88-11.26-1.41-4.2-5.47-9.39-2.51-13.9,3.49-5.3,14.51-8.42,19.89-11.13,4.21-2.11,8.05-4.57,12.38-5a1.46,1.46,0,0,1,1.15-.22,7,7,0,0,1,.73.19l1,.08A11.6,11.6,0,0,1,220.47,240.25Z" style="fill:#fff;opacity:0.7000000000000001"></path><path d="M220.47,240.25a.83.83,0,0,1,.33,1.39,4.61,4.61,0,0,1,.75,1.16l-.14.27c1.48,5.63.73,11.72-.41,17.36a.11.11,0,0,1-.21,0,74.24,74.24,0,0,0-.27-14.86c-.82,6.39-1.07,12.83-3,19.11,0,.11-.18.05-.17-.06a95.77,95.77,0,0,0,1.35-15.39c0-.61,0-1.19.05-1.78a68.53,68.53,0,0,0-3.54,5.92c-2.19,4.31-4.35,8.71-6.71,12.93,0,0-.11,0-.09,0,2.38-6.93,4.84-14.75,9.07-21.05-2.6,3.2-5.68,6.1-7.46,9.88-.05.1-.21,0-.17-.07a44.43,44.43,0,0,1,4.35-7.68c-3.3,3.21-6.66,6.37-9.87,9.6,0,0,0,0,0,0a114,114,0,0,1,8.74-9.91c1.45-1.5,2.91-3.21,4.48-4.74l-.78.31-1,.83c-1.13.93-2.26,1.91-3.34,2.92,0,0-.08,0,0-.07.83-1,1.7-1.94,2.57-2.89a23.05,23.05,0,0,0-7.92,5.52s-.08,0-.05-.05a25.78,25.78,0,0,1,8-6.61,17.78,17.78,0,0,0-3.95,1.15,84.93,84.93,0,0,0-10.18,5.34c-.14.11-.31-.13-.17-.23,5.67-4,11.36-7.79,18.21-8.51A11.6,11.6,0,0,1,220.47,240.25Z" style="fill:#FF5836"></path><path d="M216.54,257.48a29.11,29.11,0,0,0-1.95,10.92.13.13,0,0,0,.26,0,101.79,101.79,0,0,1,1.93-10.85A.13.13,0,0,0,216.54,257.48Z" style="fill:#FF5836"></path><path d="M205.79,249.9a29.53,29.53,0,0,0-7,6.71c-.07.09.07.21.14.13a67.88,67.88,0,0,1,7.1-6.57C206.13,250.05,206,249.79,205.79,249.9Z" style="fill:#FF5836"></path><path d="M237,241.38c4.74,2.36,9.7,7.3,12.4,10.22,3.53,3.82,7.95,8.39,8.48,13.84.45,5-2.14,12.5-5.81,16s-7.41,2.43-11.82,1.13c-4.82-1.43-12.06-.12-15.25-4.88-3-4.52-1.88-12.73-1.69-17.71a68.75,68.75,0,0,1,.58-9.31.2.2,0,0,1,0-.09,11.49,11.49,0,0,1,2.8-6.31,8.47,8.47,0,0,1,1.55-2.53s0,0,0-.05C230.49,239.34,233.67,239.73,237,241.38Z" style="fill:#FF5836"></path><path d="M237,241.38c4.74,2.36,9.7,7.3,12.4,10.22,3.53,3.82,7.95,8.39,8.48,13.84.45,5-2.14,12.5-5.81,16s-7.41,2.43-11.82,1.13c-4.82-1.43-12.06-.12-15.25-4.88-3-4.52-1.88-12.73-1.69-17.71a68.75,68.75,0,0,1,.58-9.31.2.2,0,0,1,0-.09,11.49,11.49,0,0,1,2.8-6.31,8.47,8.47,0,0,1,1.55-2.53s0,0,0-.05C230.49,239.34,233.67,239.73,237,241.38Z" style="fill:#fff;opacity:0.7000000000000001"></path><path d="M230.28,254.35a102.58,102.58,0,0,1,5,14.89c0,.07-.09.11-.13.05-2.84-8.14-7.26-15.73-8.69-24.05a24.22,24.22,0,0,0-.31,3.06,72.87,72.87,0,0,0,1.32,14.13c0,.08-.12.1-.12,0a81.93,81.93,0,0,1-1.63-15,79.38,79.38,0,0,0-1.83,11c0,.09-.15.09-.15,0a44.22,44.22,0,0,1,.1-7.79.2.2,0,0,1,0-.09,11.49,11.49,0,0,1,2.8-6.31,8.47,8.47,0,0,1,1.55-2.53,45.85,45.85,0,0,0,3,11,0,0,0,0,1-.09,0,45.17,45.17,0,0,1-3.3-9.64A36.8,36.8,0,0,0,230.28,254.35Z" style="fill:#FF5836"></path><path d="M237,241.38c2.28,1.52,4.42,3.25,6.48,4.9a.07.07,0,1,1-.08.11c-2.41-1.61-4.82-3.08-7.3-4.47,4.63,3.93,8.65,9.08,12,13.58.07.1-.06.2-.16.11a96.41,96.41,0,0,0-10.46-9.84c-1.67-1.35-3.42-2.61-5.11-4,.22.27.43.56.68.82a65,65,0,0,1,5.66,7c.06.1-.08.22-.16.11a77.79,77.79,0,0,0-6.43-6.4c1.07,1.8,2.19,3.57,3.43,5.36,3,4.27,5.64,8.59,7.22,13.59,0,.13-.17.23-.22.08-2.93-6.91-9.13-12.85-13.18-19.51,2,4.79,3.94,9.58,6,14.33,0,.07-.08.12-.11.05-2.42-5.1-4.79-10.24-6.93-15.49C230.49,239.34,233.67,239.73,237,241.38Z" style="fill:#FF5836"></path><path d="M241.72,251.82a47.49,47.49,0,0,0,10.06,11.77c.12.09.29-.08.18-.19a83.24,83.24,0,0,1-10.11-11.68C241.79,251.63,241.66,251.73,241.72,251.82Z" style="fill:#FF5836"></path><path d="M224.73,258.73a42,42,0,0,0,1.08,10.95c0,.05.09,0,.08,0a70.19,70.19,0,0,1-1-10.92C224.85,258.67,224.74,258.65,224.73,258.73Z" style="fill:#FF5836"></path><path d="M264.21,219.05c3.18,2.44,9.12,7.47,10.43,11.54,2.75,8.48-9.58,19.92-17.69,18.84-6.13-.84-13.08-5.28-18.39-8.29a20.42,20.42,0,0,1-5.32-3.65,1.09,1.09,0,0,1-.91-.48,8.42,8.42,0,0,1-1.19-2.46,6.1,6.1,0,0,1,.36-4.31,9,9,0,0,1,1.18-1.86c2-2.47,5.64-3.89,8.28-5.51,3.18-1.94,6.21-4.24,9.73-5.51C255.58,215.57,260.07,215.9,264.21,219.05Z" style="fill:#FF5836"></path><path d="M264.21,219.05c3.18,2.44,9.12,7.47,10.43,11.54,2.75,8.48-9.58,19.92-17.69,18.84-6.13-.84-13.08-5.28-18.39-8.29a20.42,20.42,0,0,1-5.32-3.65,1.09,1.09,0,0,1-.91-.48,8.42,8.42,0,0,1-1.19-2.46,6.1,6.1,0,0,1,.36-4.31,9,9,0,0,1,1.18-1.86c2-2.47,5.64-3.89,8.28-5.51,3.18-1.94,6.21-4.24,9.73-5.51C255.58,215.57,260.07,215.9,264.21,219.05Z" style="fill:#fff;opacity:0.7000000000000001"></path><path d="M247.78,222.17c-2.86,1.86-6.18,2.59-9.1,4.34-2.21,1.33-4.18,3.05-6.28,4.52,3-1.18,6.11-2.38,9.22-3.3,3.76-1.11,7.74-.82,11.36-2.49.18-.09.3.19.14.28a12.16,12.16,0,0,1-4.93,1.4,31.94,31.94,0,0,0-6.22,1.75c-1.52.55-3,1.14-4.58,1.68,1.53-.17,3.09-.22,4.54-.42,3.53-.5,7.07-1.07,10.6-1.67,0,0,.05.06,0,.08-5.12,1-10.24,1.92-15.36,2.94a114.31,114.31,0,0,1,15.41,1,.19.19,0,1,1,0,.38c-5.63,0-11.25,0-16.86-.29l1.53.48c4.23,1.46,8.13,1.78,12.53,2.15.18,0,.2.32,0,.34A37.51,37.51,0,0,1,239,234.8a63.44,63.44,0,0,1-6.39-1.9,33.53,33.53,0,0,0,4.94,2.36c.08,0,0,.14-.05.13-1-.25-2-.54-3-.91a36.2,36.2,0,0,0,7.79,3.61c4.24,1.33,8.49,2.6,12.65,4.2.13.05.09.27-.05.24-5.85-1.36-12.74-2.6-18.55-5.34a40,40,0,0,0,6.88,4.39c.07,0,0,.18-.06.14a50.92,50.92,0,0,1-8-3.58,18.73,18.73,0,0,1-4-3.59,6.1,6.1,0,0,1,.36-4.31,21,21,0,0,1,5.59-4.53c3.25-1.84,7.07-2.4,10.5-3.84C247.77,221.8,247.94,222.06,247.78,222.17Z" style="fill:#FF5836"></path><path d="M245.66,242.9a28.54,28.54,0,0,0,5.41,2.65c.17,0,.33-.18.16-.3a29,29,0,0,0-5.51-2.46C245.65,242.77,245.6,242.87,245.66,242.9Z" style="fill:#FF5836"></path><path d="M240.83,236.53c-.09,0-.15.11-.05.14a65.14,65.14,0,0,0,11.52,2.87c.08,0,.11-.12,0-.15C248.57,238.21,244.67,237.42,240.83,236.53Z" style="fill:#FF5836"></path><path d="M256.7,222.47c-3.53.77-7,1.72-10.48,2.74-.05,0,0,.1,0,.08,3.48-.93,7-1.76,10.49-2.59C256.88,222.66,256.84,222.43,256.7,222.47Z" style="fill:#FF5836"></path><path d="M246.73,186.89c7.2,3.33,11.83,18.69,6.61,24.83-4.26,5-12,9.89-18,12.62a12,12,0,0,1-3.61,1.2,1.2,1.2,0,0,1-.67.31,5.33,5.33,0,0,1-1.88-.09c-1.41-.37-2.12-1.5-2.48-3.38-.63-3.32.52-7.54.82-10.86,0-.11,0-.22,0-.33a97.72,97.72,0,0,1,1.18-11.62C230.14,192.74,239,183.33,246.73,186.89Z" style="fill:#FF5836"></path><path d="M246.73,186.89c7.2,3.33,11.83,18.69,6.61,24.83-4.26,5-12,9.89-18,12.62a12,12,0,0,1-3.61,1.2,1.2,1.2,0,0,1-.67.31,5.33,5.33,0,0,1-1.88-.09c-1.41-.37-2.12-1.5-2.48-3.38-.63-3.32.52-7.54.82-10.86,0-.11,0-.22,0-.33a97.72,97.72,0,0,1,1.18-11.62C230.14,192.74,239,183.33,246.73,186.89Z" style="fill:#fff;opacity:0.7000000000000001"></path><path d="M235.73,211.12c-.77,2-1.53,4.15-2.48,6.15.92-1.13,1.84-2.27,2.67-3.47,2.07-3,3.55-6.39,6.13-9.09.07-.09.2.06.13.15-2.6,3.94-4.51,8.29-7.07,12.26-.77,1.19-1.61,2.61-2.55,4,3.11-3.79,5.82-7.78,9.06-11.56a.12.12,0,0,1,.19.15c-3,4.41-5.88,9.89-10.07,13.52,4.68-2.54,8.8-6.07,13.1-9.2a.06.06,0,1,1,.08.09c-3.45,3.34-7.47,7.13-11.92,9.61a12.84,12.84,0,0,0,3.84-1.47c2.92-1.67,5.63-3.8,8.49-5.57,0,0,0,0,0,0-3,2.51-6,5.25-9.5,6.94-1.92.91-4.35,2.07-6.65,2.1-1.41-.37-2.12-1.5-2.48-3.38-.63-3.32.52-7.54.82-10.86,0-.11,0-.22,0-.33,1-3.87,2.34-7.65,3.07-10.92,0-.2.37-.18.33,0-1.09,6.42-3.08,12.87-3,19.38.11-.43.21-.84.33-1.24A60,60,0,0,1,231.1,210a.17.17,0,0,1,.31.12c-.8,2.66-1.82,5.18-2.1,8,0,.39-.06.78-.09,1.17a25.79,25.79,0,0,1,2.45-5.72c.07-.13.28,0,.25.09-.35,1.8-.8,3.59-1.21,5.36-.17.76-.31,1.57-.49,2.35l.33-.48c2.92-7.6,6.37-16.15,12.2-21.87.06-.07.15,0,.11.1A48.68,48.68,0,0,0,235.73,211.12Z" style="fill:#FF5836"></path><path d="M234.24,199.52a33.66,33.66,0,0,0-4.07,10.83c0,.12.16.16.19.05,1.18-3.7,2.54-7.22,4-10.8C234.43,199.51,234.29,199.43,234.24,199.52Z" style="fill:#FF5836"></path><path d="M233.21,210.07s0,.07.06,0c1.17-3.28,2.38-6.52,3.71-9.74,0,0,0,0,0,0A100.6,100.6,0,0,0,233.21,210.07Z" style="fill:#FF5836"></path><path d="M237.92,228.28c2.55,9-3,19.61-13.32,20a13.84,13.84,0,0,1-13.45-9.18c-3-6.11-.1-14.58,5.51-18.63C224.64,214.73,235.43,219.53,237.92,228.28Z" style="fill:#FF5836"></path></g></svg>
