<svg xmlns="http://www.w3.org/2000/svg" viewBox="0 0 500 500"><g id="freepik--background-simple--inject-332"><path d="M184.69,461.88C293.67,482,402.11,391.34,452,304.44c33.15-57.74,46.36-125.52,27-180.67C464.84,83.36,429.18,44.2,376.17,42.49c-59.09-1.92-106.65,55.92-167.34,54.74S76.48,121,41.74,166.05-.1,293.37,29.45,357.17c16.85,36.38,46.67,67.53,85.44,86.44,21.31,10.39,44.33,13.34,68.47,18Z" style="fill:#DD5B48"></path><path d="M184.69,461.88C293.67,482,402.11,391.34,452,304.44c33.15-57.74,46.36-125.52,27-180.67C464.84,83.36,429.18,44.2,376.17,42.49c-59.09-1.92-106.65,55.92-167.34,54.74S76.48,121,41.74,166.05-.1,293.37,29.45,357.17c16.85,36.38,46.67,67.53,85.44,86.44,21.31,10.39,44.33,13.34,68.47,18Z" style="fill:#fff;opacity:0.8"></path></g><g id="freepik--oral-contraceptives--inject-332"><rect x="46.79" y="72.06" width="123.32" height="54.76" rx="5.33" transform="translate(-33.94 62.34) rotate(-27.91)" style="fill:#DD5B48;stroke:#263238;stroke-linecap:round;stroke-linejoin:round"></rect><path d="M59.37,108.12a3.45,3.45,0,1,0-1.43,4.66A3.45,3.45,0,0,0,59.37,108.12Z" style="fill:#fff;stroke:#263238;stroke-linecap:round;stroke-linejoin:round"></path><path d="M65,118.79a3.45,3.45,0,1,0-1.43,4.66A3.44,3.44,0,0,0,65,118.79Z" style="fill:#fff;stroke:#263238;stroke-linecap:round;stroke-linejoin:round"></path><path d="M69.28,102.87a3.45,3.45,0,1,0-1.44,4.67A3.46,3.46,0,0,0,69.28,102.87Z" style="fill:#fff;stroke:#263238;stroke-linecap:round;stroke-linejoin:round"></path><path d="M79.18,97.62a3.45,3.45,0,1,0-1.43,4.67A3.45,3.45,0,0,0,79.18,97.62Z" style="fill:#fff;stroke:#263238;stroke-linecap:round;stroke-linejoin:round"></path><path d="M89.09,92.38A3.45,3.45,0,1,0,87.66,97,3.44,3.44,0,0,0,89.09,92.38Z" style="fill:#fff;stroke:#263238;stroke-linecap:round;stroke-linejoin:round"></path><path d="M99,87.13a3.45,3.45,0,1,0-1.44,4.66A3.44,3.44,0,0,0,99,87.13Z" style="fill:#fff;stroke:#263238;stroke-linecap:round;stroke-linejoin:round"></path><path d="M108.9,81.88a3.45,3.45,0,1,0-1.43,4.66A3.45,3.45,0,0,0,108.9,81.88Z" style="fill:#fff;stroke:#263238;stroke-linecap:round;stroke-linejoin:round"></path><path d="M118.81,76.63a3.45,3.45,0,1,0-1.43,4.67A3.45,3.45,0,0,0,118.81,76.63Z" style="fill:#fff;stroke:#263238;stroke-linecap:round;stroke-linejoin:round"></path><path d="M128.72,71.38a3.45,3.45,0,1,0-1.44,4.67A3.46,3.46,0,0,0,128.72,71.38Z" style="fill:#fff;stroke:#263238;stroke-linecap:round;stroke-linejoin:round"></path><path d="M138.62,66.14a3.45,3.45,0,1,0-1.43,4.66A3.44,3.44,0,0,0,138.62,66.14Z" style="fill:#fff;stroke:#263238;stroke-linecap:round;stroke-linejoin:round"></path><path d="M148.53,60.89a3.45,3.45,0,1,0-1.43,4.66A3.44,3.44,0,0,0,148.53,60.89Z" style="fill:#fff;stroke:#263238;stroke-linecap:round;stroke-linejoin:round"></path><path d="M72.49,132.89a3.45,3.45,0,1,0-1.43,4.66A3.44,3.44,0,0,0,72.49,132.89Z" style="fill:#fff;stroke:#263238;stroke-linecap:round;stroke-linejoin:round"></path><path d="M82.4,127.64A3.45,3.45,0,1,0,81,132.3,3.45,3.45,0,0,0,82.4,127.64Z" style="fill:#fff;stroke:#263238;stroke-linecap:round;stroke-linejoin:round"></path><path d="M92.3,122.39a3.45,3.45,0,1,0-1.43,4.66A3.45,3.45,0,0,0,92.3,122.39Z" style="fill:#fff;stroke:#263238;stroke-linecap:round;stroke-linejoin:round"></path><path d="M102.21,117.14a3.45,3.45,0,1,0-1.43,4.67A3.45,3.45,0,0,0,102.21,117.14Z" style="fill:#fff;stroke:#263238;stroke-linecap:round;stroke-linejoin:round"></path><path d="M112.12,111.89a3.45,3.45,0,1,0-1.44,4.67A3.46,3.46,0,0,0,112.12,111.89Z" style="fill:#fff;stroke:#263238;stroke-linecap:round;stroke-linejoin:round"></path><path d="M122,106.65a3.45,3.45,0,1,0-1.43,4.66A3.44,3.44,0,0,0,122,106.65Z" style="fill:#fff;stroke:#263238;stroke-linecap:round;stroke-linejoin:round"></path><path d="M131.93,101.4a3.45,3.45,0,1,0-1.43,4.66A3.44,3.44,0,0,0,131.93,101.4Z" style="fill:#fff;stroke:#263238;stroke-linecap:round;stroke-linejoin:round"></path><path d="M141.84,96.15a3.45,3.45,0,1,0-1.44,4.66A3.45,3.45,0,0,0,141.84,96.15Z" style="fill:#fff;stroke:#263238;stroke-linecap:round;stroke-linejoin:round"></path><path d="M151.74,90.9a3.45,3.45,0,1,0-1.43,4.66A3.45,3.45,0,0,0,151.74,90.9Z" style="fill:#fff;stroke:#263238;stroke-linecap:round;stroke-linejoin:round"></path><path d="M161.65,85.65a3.45,3.45,0,1,0-1.43,4.67A3.45,3.45,0,0,0,161.65,85.65Z" style="fill:#fff;stroke:#263238;stroke-linecap:round;stroke-linejoin:round"></path><path d="M151,77.13l-79.26,42A2.8,2.8,0,0,1,68,118h0a2.8,2.8,0,0,1,1.16-3.78l79.26-42a2.8,2.8,0,0,1,3.78,1.16h0A2.81,2.81,0,0,1,151,77.13Z" style="fill:none;stroke:#263238;stroke-linecap:round;stroke-linejoin:round"></path><rect x="46.79" y="72.06" width="123.32" height="54.76" rx="5.33" style="fill:#DD5B48;stroke:#263238;stroke-linecap:round;stroke-linejoin:round"></rect><path d="M61,84.14a3.45,3.45,0,1,0-3.45,3.45A3.45,3.45,0,0,0,61,84.14Z" style="fill:#fff;stroke:#263238;stroke-linecap:round;stroke-linejoin:round"></path><path d="M61,96.21a3.45,3.45,0,1,0-3.45,3.45A3.45,3.45,0,0,0,61,96.21Z" style="fill:#fff;stroke:#263238;stroke-linecap:round;stroke-linejoin:round"></path><path d="M72.23,84.14a3.45,3.45,0,1,0-3.45,3.45A3.45,3.45,0,0,0,72.23,84.14Z" style="fill:#fff;stroke:#263238;stroke-linecap:round;stroke-linejoin:round"></path><path d="M83.44,84.14A3.45,3.45,0,1,0,80,87.59,3.44,3.44,0,0,0,83.44,84.14Z" style="fill:#fff;stroke:#263238;stroke-linecap:round;stroke-linejoin:round"></path><path d="M94.65,84.14a3.45,3.45,0,1,0-3.45,3.45A3.44,3.44,0,0,0,94.65,84.14Z" style="fill:#fff;stroke:#263238;stroke-linecap:round;stroke-linejoin:round"></path><path d="M105.86,84.14a3.45,3.45,0,1,0-3.45,3.45A3.44,3.44,0,0,0,105.86,84.14Z" style="fill:#fff;stroke:#263238;stroke-linecap:round;stroke-linejoin:round"></path><path d="M117.07,84.14a3.45,3.45,0,1,0-3.45,3.45A3.44,3.44,0,0,0,117.07,84.14Z" style="fill:#fff;stroke:#263238;stroke-linecap:round;stroke-linejoin:round"></path><path d="M128.28,84.14a3.45,3.45,0,1,0-3.45,3.45A3.44,3.44,0,0,0,128.28,84.14Z" style="fill:#fff;stroke:#263238;stroke-linecap:round;stroke-linejoin:round"></path><path d="M139.49,84.14A3.45,3.45,0,1,0,136,87.59,3.44,3.44,0,0,0,139.49,84.14Z" style="fill:#fff;stroke:#263238;stroke-linecap:round;stroke-linejoin:round"></path><path d="M150.7,84.14a3.45,3.45,0,1,0-3.45,3.45A3.44,3.44,0,0,0,150.7,84.14Z" style="fill:#fff;stroke:#263238;stroke-linecap:round;stroke-linejoin:round"></path><path d="M161.91,84.14a3.45,3.45,0,1,0-3.44,3.45A3.44,3.44,0,0,0,161.91,84.14Z" style="fill:#fff;stroke:#263238;stroke-linecap:round;stroke-linejoin:round"></path><path d="M61,112.16a3.45,3.45,0,1,0-3.45,3.45A3.46,3.46,0,0,0,61,112.16Z" style="fill:#fff;stroke:#263238;stroke-linecap:round;stroke-linejoin:round"></path><path d="M72.23,112.16a3.45,3.45,0,1,0-3.45,3.45A3.46,3.46,0,0,0,72.23,112.16Z" style="fill:#fff;stroke:#263238;stroke-linecap:round;stroke-linejoin:round"></path><path d="M83.44,112.16A3.45,3.45,0,1,0,80,115.61,3.45,3.45,0,0,0,83.44,112.16Z" style="fill:#fff;stroke:#263238;stroke-linecap:round;stroke-linejoin:round"></path><path d="M94.65,112.16a3.45,3.45,0,1,0-3.45,3.45A3.45,3.45,0,0,0,94.65,112.16Z" style="fill:#fff;stroke:#263238;stroke-linecap:round;stroke-linejoin:round"></path><path d="M105.86,112.16a3.45,3.45,0,1,0-3.45,3.45A3.45,3.45,0,0,0,105.86,112.16Z" style="fill:#fff;stroke:#263238;stroke-linecap:round;stroke-linejoin:round"></path><path d="M117.07,112.16a3.45,3.45,0,1,0-3.45,3.45A3.45,3.45,0,0,0,117.07,112.16Z" style="fill:#fff;stroke:#263238;stroke-linecap:round;stroke-linejoin:round"></path><path d="M128.28,112.16a3.45,3.45,0,1,0-3.45,3.45A3.45,3.45,0,0,0,128.28,112.16Z" style="fill:#fff;stroke:#263238;stroke-linecap:round;stroke-linejoin:round"></path><path d="M139.49,112.16a3.45,3.45,0,1,0-3.45,3.45A3.45,3.45,0,0,0,139.49,112.16Z" style="fill:#fff;stroke:#263238;stroke-linecap:round;stroke-linejoin:round"></path><path d="M150.7,112.16a3.45,3.45,0,1,0-3.45,3.45A3.45,3.45,0,0,0,150.7,112.16Z" style="fill:#fff;stroke:#263238;stroke-linecap:round;stroke-linejoin:round"></path><path d="M161.91,112.16a3.45,3.45,0,1,0-3.44,3.45A3.45,3.45,0,0,0,161.91,112.16Z" style="fill:#fff;stroke:#263238;stroke-linecap:round;stroke-linejoin:round"></path><rect x="64.04" y="94.05" width="95.29" height="5.61" rx="2.8" style="fill:none;stroke:#263238;stroke-linecap:round;stroke-linejoin:round"></rect></g><g id="freepik--IUD--inject-332"><path d="M436.24,175.44c-1.49-1.45-3.79-2.22-5.66-3a30.72,30.72,0,0,0-2.89-1.38c-1.73-.53-15.64-4.67-19.39-4.3-4.26.4-6.54,6.17-6.63,6.42a.5.5,0,0,0,0,.13h-.16a.5.5,0,0,0,0-.13c-.09-.25-2.37-6-6.63-6.42-3.75-.37-17.65,3.77-19.39,4.3a32,32,0,0,0-2.89,1.38c-1.87.79-4.17,1.56-5.66,3s-1.3,3.88,1.23,3.9c4.72,0,5.62-4.47,9-6.49l.28-.16c5.63-1.62,14.87-4.09,17.23-3.86a4.88,4.88,0,0,1,3.1,2c.27.74,1.82,5,1.92,5.77a18.65,18.65,0,0,1,0,2.66h3.58a12.5,12.5,0,0,1,.35-3.7c.46-1.16,1.16-3.47,1.16-3.47l.57-1.11a5.06,5.06,0,0,1,3.22-2.2c2.37-.23,11.61,2.24,17.23,3.86l.28.16c3.38,2,4.28,6.53,9,6.49C437.54,179.32,437.81,177,436.24,175.44Z" style="fill:#fff;stroke:#263238;stroke-linecap:round;stroke-linejoin:round"></path><polygon points="404.52 181.8 398.58 181.8 399.17 178.7 403.93 178.7 404.52 181.8" style="fill:#fff;stroke:#263238;stroke-linecap:round;stroke-linejoin:round"></polygon><path d="M403.3,233.36h0a3.73,3.73,0,0,1-.11-2.2l-3.3-.11a5.5,5.5,0,0,1-.11,2.31,5.33,5.33,0,0,0-1,2.34V240a2.86,2.86,0,0,0,5.71,0V235.7A2.83,2.83,0,0,0,403.3,233.36ZM401.67,240c-.79,0-1.43-1-1.43-2.14s.64-2.15,1.43-2.15,1.43,1,1.43,2.15S402.46,240,401.67,240Z" style="fill:#fff;stroke:#263238;stroke-linecap:round;stroke-linejoin:round"></path><polygon points="398.58 228.18 404.52 228.18 403.93 231.27 399.17 231.27 398.58 228.18" style="fill:#fff;stroke:#263238;stroke-linecap:round;stroke-linejoin:round"></polygon><rect x="398.1" y="181.56" width="7.14" height="46.86" rx="0.85" style="fill:#fff;stroke:#263238;stroke-linecap:round;stroke-linejoin:round"></rect><path d="M402.38,270.5a1.21,1.21,0,0,1-1.22-1.22V238.93a.52.52,0,1,1,1,0v30.35c0,.2.35.2.35,0V242.6a.53.53,0,1,1,1.05,0v26.68A1.22,1.22,0,0,1,402.38,270.5Z" style="fill:#263238"></path></g><g id="freepik--contraceptive-injection--inject-332"><rect x="99.43" y="184.55" width="6.53" height="8.53" transform="translate(-0.27 0.15) rotate(-0.08)" style="fill:#919191;stroke:#263238;stroke-linecap:round;stroke-linejoin:round"></rect><polygon points="103.65 169.87 101.69 169.87 99.42 184.56 105.95 184.55 103.65 169.87" style="fill:#919191;stroke:#263238;stroke-linecap:round;stroke-linejoin:round"></polygon><path d="M100.38,192.8h4.7a3.67,3.67,0,0,1,3.67,3.67V238.2a0,0,0,0,1,0,0h-12a0,0,0,0,1,0,0V196.47a3.67,3.67,0,0,1,3.67-3.67Z" transform="translate(-0.31 0.15) rotate(-0.08)" style="fill:#fff;stroke:#263238;stroke-linecap:round;stroke-linejoin:round"></path><rect x="99.33" y="225.48" width="6.88" height="37.14" transform="translate(-0.35 0.15) rotate(-0.08)" style="fill:#919191;stroke:#263238;stroke-linecap:round;stroke-linejoin:round"></rect><line x1="102.8" y1="261.87" x2="102.75" y2="227.76" style="fill:none;stroke:#263238;stroke-linecap:round;stroke-linejoin:round"></line><rect x="97.31" y="261.88" width="10.98" height="1.83" rx="0.85" transform="translate(-0.38 0.15) rotate(-0.08)" style="fill:#919191;stroke:#263238;stroke-linecap:round;stroke-linejoin:round"></rect><path d="M100.2,194.14h5a2.5,2.5,0,0,1,2.5,2.5v30.56a0,0,0,0,1,0,0h-10a0,0,0,0,1,0,0V196.63A2.5,2.5,0,0,1,100.2,194.14Z" transform="translate(-0.31 0.15) rotate(-0.08)" style="fill:#DD5B48;stroke:#263238;stroke-linecap:round;stroke-linejoin:round"></path><rect x="97.73" y="222.38" width="10.03" height="4.82" transform="translate(-0.33 0.15) rotate(-0.08)" style="fill:#263238;stroke:#263238;stroke-linecap:round;stroke-linejoin:round"></rect><rect x="92.18" y="237.6" width="21.17" height="1.54" rx="0.72" transform="translate(-0.34 0.15) rotate(-0.08)" style="fill:#fff;stroke:#263238;stroke-linecap:round;stroke-linejoin:round"></rect><line x1="102.67" y1="169.87" x2="102.63" y2="144.97" style="fill:none;stroke:#263238;stroke-linecap:round;stroke-linejoin:round"></line><rect x="61.66" y="212.2" width="18" height="15.48" style="fill:#fff;stroke:#263238;stroke-linecap:round;stroke-linejoin:round"></rect><path d="M58.31,199.64H83a0,0,0,0,1,0,0v12a3.51,3.51,0,0,1-3.51,3.51H61.82a3.51,3.51,0,0,1-3.51-3.51v-12A0,0,0,0,1,58.31,199.64Z" style="fill:#fff;stroke:#263238;stroke-linecap:round;stroke-linejoin:round"></path><rect x="56.64" y="198.39" width="28.04" height="5.86" style="fill:#DD5B48;stroke:#263238;stroke-linecap:round;stroke-linejoin:round"></rect><path d="M60,224.75H81.28a5.07,5.07,0,0,1,5.07,5.07v27a6,6,0,0,1-6,6H61a6,6,0,0,1-6-6v-27A5.07,5.07,0,0,1,60,224.75Z" style="fill:#fff;stroke:#263238;stroke-linecap:round;stroke-linejoin:round"></path></g><g id="freepik--female-condom--inject-332"><path d="M91.77,326.53c-3-10.14-2.55-11.23-2.82-17.75a47.92,47.92,0,0,0-2.13-12l-13.89-2.84v-.55l-1.33.27-1.33-.27v.55l-13.88,2.84a47.66,47.66,0,0,0-2.14,12c-.26,6.52.15,7.61-2.81,17.75s.59,36,.59,36H91.18S94.73,336.68,91.77,326.53Z" style="fill:#fff;stroke:#263238;stroke-linecap:round;stroke-linejoin:round"></path><ellipse cx="71.64" cy="298.88" rx="15.61" ry="12.41" style="fill:#fff;stroke:#263238;stroke-linecap:round;stroke-linejoin:round"></ellipse><ellipse cx="71.64" cy="298.87" rx="12.41" ry="9.86" style="fill:#fff;stroke:#263238;stroke-linecap:round;stroke-linejoin:round"></ellipse><ellipse cx="71.64" cy="365.51" rx="19.9" ry="13.71" style="fill:#fff;stroke:#263238;stroke-linecap:round;stroke-linejoin:round"></ellipse><ellipse cx="71.64" cy="365.51" rx="16.12" ry="11.11" style="fill:#fff;stroke:#263238;stroke-linecap:round;stroke-linejoin:round"></ellipse><path d="M84.05,345a18.2,18.2,0,0,1,1.78.87" style="fill:none;stroke:#263238;stroke-linecap:round;stroke-linejoin:round"></path><path d="M52.62,349.13s1.49-4.15,13.05-6.22a32.35,32.35,0,0,1,13.94.57" style="fill:none;stroke:#263238;stroke-linecap:round;stroke-linejoin:round"></path><path d="M69.82,323a28.15,28.15,0,0,0-3,.37" style="fill:none;stroke:#263238;stroke-linecap:round;stroke-linejoin:round"></path><path d="M88.5,327.19A34.9,34.9,0,0,0,74.86,323" style="fill:none;stroke:#263238;stroke-linecap:round;stroke-linejoin:round"></path><path d="M74.76,314.93c.9.19,1.82.42,2.77.7" style="fill:none;stroke:#263238;stroke-linecap:round;stroke-linejoin:round"></path><path d="M55.59,316.52s6.23-3.44,16.31-2.09" style="fill:none;stroke:#263238;stroke-linecap:round;stroke-linejoin:round"></path><path d="M71.32,297.45a33,33,0,0,1,14.21,1.43" style="fill:none;stroke:#263238;stroke-linecap:round;stroke-linejoin:round"></path><path d="M66,298.43s.84-.25,2.27-.53" style="fill:none;stroke:#263238;stroke-linecap:round;stroke-linejoin:round"></path></g><g id="freepik--Diaphragm--inject-332"><path d="M425.37,302.07c-4-11.31-13.14-19.23-23.82-19.23s-19.84,7.92-23.81,19.23Z" style="fill:#DD5B48;stroke:#263238;stroke-linecap:round;stroke-linejoin:round"></path><rect x="375.94" y="300.67" width="51.23" height="4.09" rx="1.5" style="fill:#DD5B48;stroke:#263238;stroke-linecap:round;stroke-linejoin:round"></rect></g><g id="freepik--Spermicide--inject-332"><polygon points="449.63 332.77 449.63 340.73 437.25 342.75 437.25 330.74 449.63 332.77" style="fill:#fff;stroke:#263238;stroke-linecap:round;stroke-linejoin:round"></polygon><path d="M437.34,329.59V343.9a4.62,4.62,0,0,1-4.46,4.62l-70.21,2.56-9.2,1.44V321l8.11,1.44,71.3,2.56A4.63,4.63,0,0,1,437.34,329.59Z" style="fill:#DD5B48;stroke:#263238;stroke-linecap:round;stroke-linejoin:round"></path><line x1="437.59" y1="332.72" x2="446.57" y2="333.6" style="fill:none;stroke:#263238;stroke-linecap:round;stroke-linejoin:round"></line><line x1="439.12" y1="334.69" x2="444.16" y2="335.13" style="fill:none;stroke:#263238;stroke-linecap:round;stroke-linejoin:round"></line><line x1="359.21" y1="348.27" x2="359.21" y2="350.24" style="fill:none;stroke:#263238;stroke-linecap:round;stroke-linejoin:round"></line><line x1="359.21" y1="323.53" x2="359.21" y2="345.2" style="fill:none;stroke:#263238;stroke-linecap:round;stroke-linejoin:round"></line><rect x="372.35" y="329.44" width="46.85" height="14.67" rx="2.14" style="fill:#fff"></rect><path d="M379.43,334.74V335h-.89v-.28c0-.76-.29-1.21-1-1.21s-1,.45-1,1.2c0,1.9,2.85,2.08,2.85,4.47,0,1.28-.62,2.12-1.92,2.12s-1.9-.84-1.9-2.12v-.49h.89v.54c0,.76.31,1.21,1,1.21s1-.45,1-1.21c0-1.89-2.83-2.07-2.83-4.46,0-1.3.6-2.12,1.87-2.12S379.43,333.46,379.43,334.74Z" style="fill:#263238"></path><path d="M382.12,332.71c1.33,0,1.9.79,1.9,2.07v1c0,1.34-.63,2-2,2h-.84v3.34h-.94v-8.47Zm-.07,4.28c.7,0,1-.32,1-1.13v-1.13c0-.77-.28-1.16-1-1.16h-.91V337Z" style="fill:#263238"></path><path d="M387.81,336.46v.85h-2.07v3h2.54v.86h-3.49v-8.47h3.49v.86h-2.54v2.89Z" style="fill:#263238"></path><path d="M391,332.71c1.33,0,1.89.68,1.89,1.94v.69a1.58,1.58,0,0,1-1.06,1.74c.78.23,1.07.86,1.07,1.76v1.32a2.09,2.09,0,0,0,.17,1h-1a2.23,2.23,0,0,1-.15-1v-1.33c0-1-.45-1.26-1.24-1.26h-.67v3.62h-.94v-8.47Zm-.24,4c.75,0,1.2-.24,1.2-1.16v-.81c0-.76-.28-1.16-1-1.16h-.92v3.13Z" style="fill:#263238"></path><path d="M397,341.17h-.91l-1.4-6.74v6.75h-.82v-8.47h1.32l1.39,6.76,1.34-6.76h1.32v8.47h-.9v-6.81Z" style="fill:#263238"></path><path d="M401.19,332.71v8.47h-.94v-8.47Z" style="fill:#263238"></path><path d="M405.9,334.75v.77H405v-.81c0-.77-.31-1.23-1-1.23s-1,.46-1,1.23v4.47c0,.77.32,1.23,1,1.23s1-.46,1-1.23v-1.1h.89v1.06c0,1.28-.6,2.13-1.91,2.13s-1.9-.85-1.9-2.13v-4.39c0-1.28.6-2.13,1.9-2.13S405.9,333.47,405.9,334.75Z" style="fill:#263238"></path><path d="M407.7,332.71v8.47h-.94v-8.47Z" style="fill:#263238"></path><path d="M410.66,332.71c1.31,0,1.92.8,1.92,2.11v4.27c0,1.29-.61,2.09-1.92,2.09h-2v-8.47Zm0,7.61c.68,0,1-.42,1-1.2v-4.35c0-.78-.33-1.2-1-1.2h-1v6.75Z" style="fill:#263238"></path><path d="M416.48,336.46v.85h-2.07v3H417v.86h-3.49v-8.47H417v.86h-2.54v2.89Z" style="fill:#263238"></path></g><g id="freepik--vaginal-ring--inject-332"><path d="M154.39,334.44a21.46,21.46,0,1,0,21.46,21.45A21.45,21.45,0,0,0,154.39,334.44Zm0,39.33a17.88,17.88,0,1,1,17.88-17.88A17.88,17.88,0,0,1,154.39,373.77Z" style="fill:#fff;stroke:#263238;stroke-linecap:round;stroke-linejoin:round"></path><circle cx="154.39" cy="355.89" r="20.2" style="fill:none;stroke:#263238;stroke-linecap:round;stroke-linejoin:round;stroke-width:0.5px"></circle></g><g id="freepik--Condom--inject-332"><path d="M445.18,141.2a41.09,41.09,0,0,1-1.17-8.8c0-4.24-1.46-10.61-.87-15.16A110.56,110.56,0,0,0,444,99.51c-.18-5.48-1.22-10.94-1-16.42.2-4.89,1.11-10.47-.1-15.28-1.47-5.76-6.14-6.67-7.6-9.1-1.29-2.13-.6-5.23-1.49-7.54a2.85,2.85,0,0,0-5-.93c-1.89,2.28-.21,6-1.77,8.47s-6.37,3.34-7.89,9.1c-1,3.94-.14,13.69-.16,20.15,0,9.91-1.47,19.34-.14,29.28.61,4.55-.91,10.92-.91,15.16a39.83,39.83,0,0,1-1.21,8.8,21,21,0,0,0,6.67,1.51c1.95,0,5.54-.12,7.84-.21,2.23.09,5.68.21,7.56.21A19.59,19.59,0,0,0,445.18,141.2Z" style="fill:#fff;stroke:#263238;stroke-linecap:round;stroke-linejoin:round"></path><rect x="415" y="140.49" width="31.36" height="3.11" rx="1.45" style="fill:#fff;stroke:#263238;stroke-linecap:round;stroke-linejoin:round"></rect><path d="M431.56,88.09c.85,0,1.73-.12,2.62-.2" style="fill:none;stroke:#263238;stroke-linecap:round;stroke-linejoin:round"></path><path d="M420.46,88.13s3.19.24,7.8.11" style="fill:none;stroke:#263238;stroke-linecap:round;stroke-linejoin:round"></path><path d="M430.87,108H429" style="fill:none;stroke:#263238;stroke-linecap:round;stroke-linejoin:round"></path><path d="M442.46,108H433" style="fill:none;stroke:#263238;stroke-linecap:round;stroke-linejoin:round"></path><path d="M433.71,124.36c-3.41.13-8.11.22-12.54,0" style="fill:none;stroke:#263238;stroke-linecap:round;stroke-linejoin:round"></path><path d="M438.68,124.09l-1.42.09" style="fill:none;stroke:#263238;stroke-linecap:round;stroke-linejoin:round"></path><line x1="442.46" y1="77.72" x2="433.95" y2="77.72" style="fill:none;stroke:#263238;stroke-linecap:round;stroke-linejoin:round"></line><polygon points="412.6 95.14 412.6 85.08 411.76 84.52 410.76 85.19 409.76 84.52 408.76 85.19 407.76 84.52 406.76 85.19 405.76 84.52 404.76 85.19 403.76 84.52 402.76 85.19 401.76 84.52 400.76 85.19 399.75 84.52 398.75 85.19 397.75 84.52 396.75 85.19 395.75 84.52 394.75 85.19 393.75 84.52 392.75 85.19 391.75 84.52 390.74 85.19 389.74 84.52 388.74 85.19 387.74 84.52 386.74 85.19 385.74 84.52 384.73 85.19 383.73 84.52 382.73 85.19 381.73 84.52 380.73 85.19 379.72 84.52 378.72 85.19 377.72 84.52 376.72 85.19 375.71 84.52 374.71 85.19 373.71 84.52 372.71 85.19 371.7 84.52 370.7 85.19 369.7 84.52 368.7 85.19 367.69 84.52 366.69 85.19 365.69 84.52 364.69 85.19 363.68 84.52 362.68 85.19 361.68 84.52 360.68 85.19 359.68 84.52 358.67 85.19 357.67 84.52 356.75 85.14 356.75 95.15 356.78 95.13 356.78 131.68 356.75 131.66 356.75 141.72 357.58 142.28 358.58 141.61 359.58 142.28 360.58 141.61 361.58 142.28 362.58 141.61 363.58 142.28 364.58 141.61 365.58 142.28 366.58 141.61 367.59 142.28 368.59 141.61 369.59 142.28 370.59 141.61 371.59 142.28 372.59 141.61 373.59 142.28 374.59 141.61 375.6 142.28 376.6 141.61 377.6 142.28 378.6 141.61 379.6 142.28 380.6 141.61 381.61 142.28 382.61 141.61 383.61 142.28 384.61 141.61 385.61 142.28 386.61 141.61 387.62 142.28 388.62 141.61 389.62 142.28 390.62 141.61 391.63 142.28 392.63 141.61 393.63 142.28 394.63 141.61 395.63 142.28 396.64 141.61 397.64 142.28 398.64 141.61 399.64 142.28 400.65 141.61 401.65 142.28 402.65 141.61 403.66 142.28 404.66 141.61 405.66 142.28 406.66 141.61 407.66 142.28 408.67 141.61 409.67 142.28 410.67 141.61 411.68 142.28 412.6 141.66 412.6 131.64 412.56 131.66 412.56 95.12 412.6 95.14" style="fill:#DD5B48;stroke:#263238;stroke-linecap:round;stroke-linejoin:round"></polygon><rect x="362.94" y="91.55" width="43.47" height="44.2" style="fill:none;stroke:#263238;stroke-linecap:round;stroke-linejoin:round"></rect><path d="M369.84,109.49a15.4,15.4,0,0,1,2.52-5.1" style="fill:none;stroke:#263238;stroke-linecap:round;stroke-linejoin:round"></path><path d="M381.91,128.81a15.39,15.39,0,0,1-10.4-7.16" style="fill:none;stroke:#263238;stroke-linecap:round;stroke-linejoin:round"></path><path d="M399.16,118.91a15.46,15.46,0,0,1-9.23,9.23" style="fill:none;stroke:#263238;stroke-linecap:round;stroke-linejoin:round"></path><path d="M380.62,98.78a15.42,15.42,0,0,1,18.54,20.13" style="fill:none;stroke:#263238;stroke-linecap:round;stroke-linejoin:round"></path><path d="M367,91.55s1.24,2.06,2.06,3.71" style="fill:none;stroke:#263238;stroke-linecap:round;stroke-linejoin:round"></path><path d="M371.54,94l2.68,3.51" style="fill:none;stroke:#263238;stroke-linecap:round;stroke-linejoin:round"></path><line x1="399.81" y1="131.37" x2="403.31" y2="135.91" style="fill:none;stroke:#263238;stroke-linecap:round;stroke-linejoin:round"></line><path d="M393,129.31a31.71,31.71,0,0,0,2.27,3.71" style="fill:none;stroke:#263238;stroke-linecap:round;stroke-linejoin:round"></path><path d="M365.55,135.5s2.48-2.48,3.72-3.92" style="fill:none;stroke:#263238;stroke-linecap:round;stroke-linejoin:round"></path><path d="M401.66,91.75s-2.47,3.72-3.71,5.37" style="fill:none;stroke:#263238;stroke-linecap:round;stroke-linejoin:round"></path><path d="M397.74,93.82s-2.06,3.3-2.68,4.54" style="fill:none;stroke:#263238;stroke-linecap:round;stroke-linejoin:round"></path></g><g id="freepik--Characters--inject-332"><ellipse cx="254.58" cy="456.46" rx="75.53" ry="9.95" style="fill:#263238"></ellipse><path d="M286,97.81c-3.9-6.44-13-17-25.41-16S242.82,88.9,239.3,98c0,0-3.89,6.09-10.63,7.37s-30.83,5.78-37.57,19.27,6.74,15.73,6.74,15.73-7.7,11.24.65,18.3,15.73,3.53,15.73,3.53-5.17,8.36,3.85,10.92,16.7-2.25,19-5.14,9.95-18.62,9.31-24.08a35.16,35.16,0,0,1-.2-3.7c1-5.72,2.19-10.73,2.19-10.73s2.54-13.13,13.59-12.68a40.22,40.22,0,0,0,19.72-4.57s7.81,7.29,11.32-.39S289.89,104.25,286,97.81Z" style="fill:#263238;stroke:#263238;stroke-miterlimit:10"></path><polygon points="250.94 126.97 244.6 138.71 259.21 140.63 262.49 131.78 250.94 126.97" style="fill:#fff;stroke:#263238;stroke-linecap:round;stroke-linejoin:round"></polygon><path d="M281.94,109.18s-.31,6.38-2.09,9.85-3.42,6-3.6,7.1,1.33,3.29-.32,4a13.76,13.76,0,0,1-3.71.78s-5.24,5.34-7.74,7.34a9.33,9.33,0,0,1-8.94,1.25c-3.1-1-9.22-13-9.22-13L259,114.66S276.34,113.18,281.94,109.18Z" style="fill:#fff;stroke:#263238;stroke-linecap:round;stroke-linejoin:round"></path><path d="M261.46,111.7s-6.11,6.86-4.44,11.68,1.29,10.38-1.12,13.71-8.89,5.19-14.08,2.78a10.9,10.9,0,0,1-4.08-16.49" style="fill:#263238;stroke:#263238;stroke-miterlimit:10"></path><path d="M274.8,122l-1.22,2.43s-1.71-.37-2.07-1.7" style="fill:none;stroke:#263238;stroke-linecap:round;stroke-linejoin:round"></path><path d="M266.56,131.4a5.58,5.58,0,0,1-2.54-3.9" style="fill:none;stroke:#263238;stroke-linecap:round;stroke-linejoin:round"></path><path d="M272.56,118.4s2.62-2.37,4.07-.66" style="fill:none;stroke:#263238;stroke-linecap:round;stroke-linejoin:round"></path><path d="M233.83,173.33s-5.58,1.92-10,10.19,2.7,12.12,7.51,10.39S244.21,177.94,233.83,173.33Z" style="fill:#fff;stroke:#263238;stroke-linecap:round;stroke-linejoin:round"></path><path d="M225.76,253.23s1.59,22.52,2.54,32.68,2.22,19,2.54,25.38a46.86,46.86,0,0,1-5.4,22.84c-4.12,7.93-6.66,19-4.76,28.87s2.54,22.21,1.27,26.33a9.78,9.78,0,0,1-1.82,3h0c-1.6,2-3.87,4.2-5.55,6.4l-.06.07c-.22.29-.42.58-.62.86l-.12.18c-.19.29-.37.58-.53.86l-.05.09c-.17.31-.32.62-.45.92l-.06.18a6.43,6.43,0,0,0-.22.71l-.06.27a4.36,4.36,0,0,0-.07.62c0,.08,0,.17,0,.26a2.91,2.91,0,0,0,.11.83c1.26,4.76,6.34,4.76,8.88,10.47s12.37,14.59,14.91,12.69-1.59-8.25-3.17-16.18c-.1-.47-.19-1-.27-1.5l-.09-.58-.15-1.06c0-.25-.07-.52-.1-.78s-.08-.64-.11-1-.07-.61-.1-.92-.06-.61-.08-.92-.07-.7-.09-1.05,0-.56-.07-.84-.05-.78-.08-1.17,0-.49,0-.74c0-.44,0-.87-.07-1.32l0-.54-.06-1.51c-.22-6.44,0-12.9.7-16.24,1.27-6,11.42-43.78,13.33-50.44s8.25-20.31,8.88-42.52.63-34.26.63-34.26Z" style="fill:#fff;stroke:#263238;stroke-linecap:round;stroke-linejoin:round"></path><path d="M259.77,318.46c-.4-5.4-1.6-61.17-1.4-63s-34.18-2.79-34.18-2.79,2,20.58,5.2,33.58a170.45,170.45,0,0,0,6.94,22S219,302,203.21,299.67c-12.77-1.87-33-11.19-35.18-11.59-.51-.1-1.05-.71-1.62-1.61-1.43-2.27-3-6.4-4.25-8.68l0,0c-.12-.2-.23-.39-.34-.56a1.3,1.3,0,0,0-.1-.15c-.08-.12-.17-.24-.25-.34l-.1-.12a2.16,2.16,0,0,0-.32-.3,5.76,5.76,0,0,0-2.37-.63,33.5,33.5,0,0,0-6.37.07c-.83.08-1.69.18-2.56.31a50,50,0,0,0-5.29,1.05c-3.5.9-7.45,1.75-10.84,2.6s-6.25,1.7-7.55,2.6c-1,.67-1.42,1.32-1.45,1.89a1.22,1.22,0,0,0,.1.53,3.21,3.21,0,0,0,2.55,1.38A83.21,83.21,0,0,1,145,290.87l.73.31.24.09.61.25.15.06.76.3.31.12.69.27.28.11.8.31.34.13.78.3.37.14.87.33.29.11.92.35.11,0h0c9.93,3.77,24,8.89,27.53,10.38,4.8,2,34.38,16,43.37,20.18s21.79,11.6,27.39,10.6S260.17,323.86,259.77,318.46Z" style="fill:#fff;stroke:#263238;stroke-linecap:round;stroke-linejoin:round"></path><path d="M236.33,308.32s6.35,1.7,8,7.62" style="fill:none;stroke:#263238;stroke-linecap:round;stroke-linejoin:round"></path><path d="M237.1,139.86s-5.2,9.81-4.62,19.81,1.73,29,.38,36.16c-1,5.34-5.84,8.81-9.54,12.28-5.42,5.08-9.57,11.82-9.88,19.39-.38,9.43,7.88,23.72,7.88,23.72v4.43a61.73,61.73,0,0,0,17.7,2.5,100.47,100.47,0,0,0,18.46-1.73l6.74-44.63,3.46-27.69s7.5-18.47,6.54-24.81-4.62-16-10.2-19.43S243.64,131.78,237.1,139.86Z" style="fill:#fff;stroke:#263238;stroke-linecap:round;stroke-linejoin:round"></path><path d="M264,213c-21,1.79-33.19-4.4-37.81-7.47-1,.9-2,1.77-2.91,2.63-5.42,5.08-9.57,11.82-9.88,19.39-.38,9.43,7.88,23.72,7.88,23.72v4.43a61.73,61.73,0,0,0,17.7,2.5,100.47,100.47,0,0,0,18.46-1.73Z" style="fill:#263238;stroke:#263238;stroke-linecap:round;stroke-linejoin:round"></path><path d="M319,138.51s4.81,0,7.5,3.85S329,152.55,325,153.9s-7.11,1.54-11.15-2.31-1.23-10.85,1-12.11A7.12,7.12,0,0,1,319,138.51Z" style="fill:#fff;stroke:#263238;stroke-linecap:round;stroke-linejoin:round"></path><path d="M319.82,106.44c-3.47-4.41-9.26-7-14.69-8.39a9.75,9.75,0,0,0-1-.49c-2.61-1.17-1.92-3.8-4.2-5.81s-3.36,2.89-6.64,1.79-5-5.46-9.31-2.15-1.54,6.49-2.08,7.89-5.91,2.39-3,6.23a14.24,14.24,0,0,0,6.14,4.94s.13-.31.37-.79a9.18,9.18,0,0,0,1,.65,3.13,3.13,0,0,1,1.5,2.91c-.18,2,2.63,2.62,5.05,4.28s.41,4.24-.18,5.76,2.85,7.37,6.16,10.11,10,3.56,10.53,3.33a131.87,131.87,0,0,0,10.24-11.07C323.26,121.32,326.57,115,319.82,106.44Z" style="fill:#263238;stroke:#263238;stroke-linecap:round;stroke-linejoin:round"></path><path d="M288.59,105.76s-7.12,8.63-7.84,11.26-.32,5-1.9,7.58-4.6,4.35-3.35,5.27a25.78,25.78,0,0,0,4.73,2.11s1,8.4,1,11.76,1.38,5.49,3.47,5S295.25,144,295.25,144l3.58,13.78,14-11.67-3.37-10.92-8.22-4.77s4.83-3.82,4.79-6.75a2.88,2.88,0,0,0-4.53-2.63c-1.77,1.21-4.8,5.29-5,4.76s1.28-7.08.65-8.49-6.32-2.88-5.58-4,5.22-4.84,4.38-7.2S288.59,105.76,288.59,105.76Z" style="fill:#fff;stroke:#263238;stroke-linecap:round;stroke-linejoin:round"></path><path d="M283.52,122.08l-.56,2s.74.93,2.78.74" style="fill:none;stroke:#263238;stroke-linecap:round;stroke-linejoin:round"></path><path d="M282.66,116.59s1.69-2.85,4,.53" style="fill:none;stroke:#263238;stroke-linecap:round;stroke-linejoin:round"></path><path d="M283.45,135a5.94,5.94,0,0,0,5.27-2.34" style="fill:none;stroke:#263238;stroke-linecap:round;stroke-linejoin:round"></path><path d="M295.69,386.5s3.14,44,4.94,49.39,4,9.87,3.59,13.47-6.43,4.32-10.74,5.08-14.41.75-14.41.75,6.29-2.69,6.29-14.81-1.8-41.76.45-51.64S295.69,386.5,295.69,386.5Z" style="fill:#fff;stroke:#263238;stroke-linecap:round;stroke-linejoin:round"></path><path d="M302.94,263.78c1.11-6.55.55-15.59.55-15.59s-11.84-5.77-23.38-10.58-18.37-3.9-20.89,6.3c0,0-2.51,43.28-1.74,54a63.35,63.35,0,0,0,2.41,14.58s7.52,29.59,9.64,37.86c.4,1.59,2,10.82,2.4,13.76.21,1.63,3.25,9.48,3.45,11.36,1.27,12.39,1.13,23.38,1.53,29.57.58,8.85-.58,26.74-1.35,29.43a2.23,2.23,0,0,1-.36.67,22.92,22.92,0,0,1-4.56,3.94c-.42.3-.85.61-1.3.91l0,0-1.39.93c-1.41.93-2.89,1.86-4.33,2.72l0,0-1.34.79-.12.07c-.42.25-.84.48-1.24.7l-.17.1c-.39.22-.77.43-1.14.62l-.16.09c-.37.19-.71.38-1,.54l-.15.08-.94.46-.08,0c-.3.14-.59.27-.84.37l-1.66.71a24.94,24.94,0,0,0-4.11,2.11c-.24.17-.47.34-.67.51a5.42,5.42,0,0,0-.42.4,2.14,2.14,0,0,0-.64,1.85c.06.33.49.69,1.2,1.06a13.93,13.93,0,0,0,1.57.67c1,.37,2.29.74,3.71,1.1,1.7.42,3.63.81,5.64,1.15a72.51,72.51,0,0,0,11.08,1c.62,0,1.23,0,1.8,0a46.76,46.76,0,0,0,6.22-.68,71.83,71.83,0,0,0,7.16-1.75l2-.55a21.6,21.6,0,0,1,3.51-.68l.8-.08c3.81-.48,5.16-2,5.16-7,0-.33,0-.64,0-1,0-.1,0-.21,0-.31s-.05-.41-.08-.62-.05-.24-.07-.36l-.12-.56-.09-.36c-.05-.2-.11-.39-.17-.59l-.09-.32c-.07-.23-.14-.46-.22-.69,0-.06-.05-.13-.07-.2-.25-.75-.53-1.52-.82-2.37a45.29,45.29,0,0,1-2.61-14.59c-.38-13.08.81-17.09,1.58-24.39.47-4.49,2.41-8.7,3.26-13.11,1.11-5.76,1.62-12,.41-17.74-1-5-4.35-9.27-5.15-14.34-3.23-20.55-1.74-43.18-.29-63.17.13-1.75.69-10.4,1.67-11.69A42.19,42.19,0,0,0,302.94,263.78Z" style="fill:#fff;stroke:#263238;stroke-linecap:round;stroke-linejoin:round"></path><path d="M260.17,449.21s-5.69,2.28-6.83,3.42,2,3.38,2,3.38" style="fill:none;stroke:#263238;stroke-linecap:round;stroke-linejoin:round"></path><path d="M264.16,450.92s-6.55,2-6.55,3.7,3.34,2.54,3.34,2.54" style="fill:none;stroke:#263238;stroke-linecap:round;stroke-linejoin:round"></path><path d="M268.71,452.63s-4.27,2.56-4.27,3.41,3.42,2,3.42,2" style="fill:none;stroke:#263238;stroke-linecap:round;stroke-linejoin:round"></path><path d="M273.55,454.05s-4.12,1.43-3.83,2.57,4.11,1.56,4.11,1.56" style="fill:none;stroke:#263238;stroke-linecap:round;stroke-linejoin:round"></path><path d="M280.11,237.61c-11.54-4.81-16.68-9.85-19.2.35,0,0-5.17,15.27-3.43,60,0,.82.14,1.67.24,2.52,5.94,3.16,16.75,6,35.49,3.19.27-3.6.55-7.23.82-10.94.13-1.75.69-10.4,1.67-11.69a42.19,42.19,0,0,0,7.24-17.26c1.11-6.55,1.82-18.92,1.82-18.92A141,141,0,0,1,280.11,237.61Z" style="fill:#263238;stroke:#263238;stroke-linecap:round;stroke-linejoin:round"></path><path d="M234.6,204.49c6-1.35,20.58-9.81,26.73-11.74a37.75,37.75,0,0,0,4-1.4c-.23,1.67-.16,22.13-1.37,31.78-1.54,12.37-2.74,8.88-3,14.83,0,0,26.57,5.95,43.85,6.9,1.91-7.15,12.66-37.78,14.27-43.34,11-37.83-2.11-48.2-2.11-48.2a5.39,5.39,0,0,0-3.66-2.5c-2.5-.38-31.54,3.66-34.43,5.77,0,0-43.27,20.2-49.43,25.78s-9.81,16.73-7.31,20.58S228.63,205.83,234.6,204.49Z" style="fill:#fff;stroke:#263238;stroke-linecap:round;stroke-linejoin:round"></path><line x1="265.37" y1="191.02" x2="304.03" y2="176.79" style="fill:none;stroke:#263238;stroke-linecap:round;stroke-linejoin:round"></line><path d="M233.34,154.56s-.67-16.43,8.18-19.51,22.68,3.87,40.37,3.87c14.19,0,19.64-.41,25.41-.21s14.42,1.73,14.42,5.77-3.27,7.31-4.23,7.88-3.46-1.54-3.46-1.54-25.31,3.64-39,6.54c-12,2.55-17.38,4.19-25.61,3.78" style="fill:#fff;stroke:#263238;stroke-linecap:round;stroke-linejoin:round"></path><path d="M306,133.13s-4.61,6-4.61,8.08,2.11,1.15,3.27.38,6-6.73,5.19-7.88S307.68,131.4,306,133.13Z" style="fill:#fff;stroke:#263238;stroke-linecap:round;stroke-linejoin:round"></path><path d="M313.45,135.44s-4.61,6-4.61,8.07,2.11,1.16,3.27.39,6-6.73,5.19-7.89S315.19,133.71,313.45,135.44Z" style="fill:#fff;stroke:#263238;stroke-linecap:round;stroke-linejoin:round"></path><path d="M317,138.21s-3.54,4.56-3.54,6.18,1.62.89,2.51.3,4.56-5.15,4-6S318.31,136.89,317,138.21Z" style="fill:#fff;stroke:#263238;stroke-linecap:round;stroke-linejoin:round"></path><path d="M309.8,133.71s-5.58,8.27-5.19,9.61,2.88-.38,6-3.46S314.42,130.63,309.8,133.71Z" style="fill:#fff;stroke:#263238;stroke-linecap:round;stroke-linejoin:round"></path><path d="M237.78,170.87s5.57,5.08,5.94,7.17-1.89,1.5-3.16.94-7-5.61-6.47-6.88S235.78,169.46,237.78,170.87Z" style="fill:#fff;stroke:#263238;stroke-linecap:round;stroke-linejoin:round"></path><path d="M230.79,174.43s5.57,5.08,5.93,7.17-1.88,1.5-3.15.94-7-5.61-6.47-6.88S228.79,173,230.79,174.43Z" style="fill:#fff;stroke:#263238;stroke-linecap:round;stroke-linejoin:round"></path><path d="M227.78,177.77s4.27,3.89,4.55,5.49-1.45,1.14-2.42.72-5.38-4.3-4.95-5.27S226.25,176.7,227.78,177.77Z" style="fill:#fff;stroke:#263238;stroke-linecap:round;stroke-linejoin:round"></path><path d="M234.09,172.1s6.92,7.19,6.77,8.58-2.91.12-6.47-2.38S229,169.86,234.09,172.1Z" style="fill:#fff;stroke:#263238;stroke-linecap:round;stroke-linejoin:round"></path></g></svg>