<svg xmlns="http://www.w3.org/2000/svg" viewBox="0 0 500 500"><g id="freepik--female-reproductive-system--inject-54"><path d="M135.65,210.1A44.82,44.82,0,0,0,192.08,194a220.88,220.88,0,0,1-2.38,27.66c-22.92-.38-45.92,4.72-64.76,17.78Z" style="fill:#EF5E49"></path><g style="opacity:0.7000000000000001"><path d="M135.65,210.1A44.82,44.82,0,0,0,192.08,194a220.88,220.88,0,0,1-2.38,27.66c-22.92-.38-45.92,4.72-64.76,17.78Z" style="fill:#fff"></path></g><path d="M365,211.23a44.83,44.83,0,0,1-56.43-16.09,220.7,220.7,0,0,0,2.37,27.65c22.93-.38,45.92,4.72,64.77,17.78Z" style="fill:#EF5E49"></path><g style="opacity:0.7000000000000001"><path d="M365,211.23a44.83,44.83,0,0,1-56.43-16.09,220.7,220.7,0,0,0,2.37,27.65c22.93-.38,45.92,4.72,64.77,17.78Z" style="fill:#fff"></path></g><path d="M450.46,152.76c-2.58-11.06-7.11-24.64-27.22-31.18a34.44,34.44,0,0,0-19.61-17c-14.08-4.61-19.61-1.09-25.15,4.94s-5,9.56-17.09,12.07-22.13-.5-28.66,5.53-6,19.11-12.07,27.66S309.59,170.36,295,168.35,264.1,162,252.16,160.8a24.84,24.84,0,0,0-4,0c-12,1-28.27,5.54-42.85,7.55s-19.61-5-25.64-13.58-5.54-21.62-12.07-27.66-16.6-3-28.67-5.53-11.56-6-17.09-12.07-11.06-9.55-25.14-4.94a34.49,34.49,0,0,0-19.62,17c-20.11,6.54-24.63,20.12-27.21,31.18S58.43,183.43,67,195s9.44,31.49,9.44,31.49l44.64-37.7s-51.57,1.18-48.55-30,30.67-39.22,40.73-32.18,8.05,10.06,16.09,10.06,19.61-6,27.66.5,6.53,14.08,7.54,21.62,0,13.08,8.55,18.61,18.1,5.53,18.6,19.11-11.06,41.23-3,62.35,25.14,26.15,25.14,45.26-5.53,29.66,0,50.78,16.59,31.18,16.09,55.32l-.5,24.13a44,44,0,0,1,18.71-5.93h4a44.13,44.13,0,0,1,18.72,5.93l-.51-24.13c-.5-24.14,10.56-34.2,16.09-55.32s0-31.68,0-50.78,17.1-24.14,25.15-45.26-3.52-48.78-3-62.35,10.06-13.58,18.6-19.11,7.55-11.06,8.55-18.61-.5-15.08,7.55-21.62,19.61-.5,27.65-.5,6-3,16.09-10.06,37.72,1,40.73,32.18-46.59,29.34-46.59,29.34L426.53,225s-.71-16.66,6.76-30C440.34,182.46,453,163.82,450.46,152.76Z" style="fill:#EF5E49"></path><path d="M450.46,152.76c-2.58-11.06-7.11-24.64-27.22-31.18a34.44,34.44,0,0,0-19.61-17c-14.08-4.61-19.61-1.09-25.15,4.94s-5,9.56-17.09,12.07-22.13-.5-28.66,5.53-6,19.11-12.07,27.66S309.59,170.36,295,168.35,264.1,162,252.16,160.8a24.84,24.84,0,0,0-4,0c-12,1-28.27,5.54-42.85,7.55s-19.61-5-25.64-13.58-5.54-21.62-12.07-27.66-16.6-3-28.67-5.53-11.56-6-17.09-12.07-11.06-9.55-25.14-4.94a34.49,34.49,0,0,0-19.62,17c-20.11,6.54-24.63,20.12-27.21,31.18S58.43,183.43,67,195s9.44,31.49,9.44,31.49l44.64-37.7s-51.57,1.18-48.55-30,30.67-39.22,40.73-32.18,8.05,10.06,16.09,10.06,19.61-6,27.66.5,6.53,14.08,7.54,21.62,0,13.08,8.55,18.61,18.1,5.53,18.6,19.11-11.06,41.23-3,62.35,25.14,26.15,25.14,45.26-5.53,29.66,0,50.78,16.59,31.18,16.09,55.32l-.5,24.13a44,44,0,0,1,18.71-5.93h4a44.13,44.13,0,0,1,18.72,5.93l-.51-24.13c-.5-24.14,10.56-34.2,16.09-55.32s0-31.68,0-50.78,17.1-24.14,25.15-45.26-3.52-48.78-3-62.35,10.06-13.58,18.6-19.11,7.55-11.06,8.55-18.61-.5-15.08,7.55-21.62,19.61-.5,27.65-.5,6-3,16.09-10.06,37.72,1,40.73,32.18-46.59,29.34-46.59,29.34L426.53,225s-.71-16.66,6.76-30C440.34,182.46,453,163.82,450.46,152.76Z" style="fill:#fff;opacity:0.4"></path><path d="M199.64,193a2.49,2.49,0,0,1,.35.2c.23.15.56.37,1,.69a27.72,27.72,0,0,1,3.44,3.08,31,31,0,0,1,4.34,5.89,31.83,31.83,0,0,1,3.42,9.06c.81,3.53.76,7.5,1,11.69s.32,8.71.69,13.43a81.13,81.13,0,0,0,2.26,14.62,28,28,0,0,0,3,7.18,41.38,41.38,0,0,0,4.77,6.46,125.41,125.41,0,0,0,11.62,10.88,17.33,17.33,0,0,1,2.71,2.77,6.38,6.38,0,0,1,1.26,3.63c.06,1.28-.11,2.5-.12,3.7a5.35,5.35,0,0,0,.79,3.29c.64.92,1.68,1.57,2.32,2.64a4,4,0,0,1,.17,3.49c-.37,1.09-.92,2.06-1.35,3a6.74,6.74,0,0,0-.74,3c.11,2.05,1.49,3.72,2.16,5.58a6,6,0,0,1,.38,2.91,12.29,12.29,0,0,1-.69,2.7c-.59,1.69-1.33,3.27-1.3,4.85a3.91,3.91,0,0,0,.71,2.1c.44.6,1,1.1,1.43,1.68a2.63,2.63,0,0,1,.65,2,8.45,8.45,0,0,1-.6,1.84,2.84,2.84,0,0,0-.24,1.64,3.6,3.6,0,0,0,.76,1.33,2.59,2.59,0,0,1,.61,1.31,3.43,3.43,0,0,1-.11,1.26c-.2.75-.44,1.36-.52,1.87a1.37,1.37,0,0,0,.18,1.12,2.16,2.16,0,0,0,.29.28.83.83,0,0,1-.33-.25,1.36,1.36,0,0,1-.24-1.16c.07-.53.29-1.15.47-1.9a3.39,3.39,0,0,0,.09-1.2,2.49,2.49,0,0,0-.61-1.21,3.91,3.91,0,0,1-.81-1.4,3,3,0,0,1,.23-1.77,8.46,8.46,0,0,0,.56-1.79,2.37,2.37,0,0,0-.61-1.8c-.42-.54-1-1-1.45-1.66a4.2,4.2,0,0,1-.79-2.28,14.84,14.84,0,0,1,1.28-5,7.21,7.21,0,0,0,.29-5.35c-.34-.89-.84-1.75-1.29-2.67a7.72,7.72,0,0,1-.93-3c-.08-2.28,1.4-4.16,2.09-6.21a3.61,3.61,0,0,0-.14-3.1c-.56-.94-1.59-1.59-2.31-2.61a5.86,5.86,0,0,1-.89-3.57c0-1.23.18-2.45.11-3.66a5.89,5.89,0,0,0-1.17-3.36,16.35,16.35,0,0,0-2.64-2.69,122.18,122.18,0,0,1-11.67-10.92,42.11,42.11,0,0,1-4.83-6.54,28.22,28.22,0,0,1-3-7.31,79.88,79.88,0,0,1-2.24-14.72c-.37-4.73-.5-9.23-.65-13.44s-.11-8.15-.89-11.64a31.15,31.15,0,0,0-7.55-14.88,28.25,28.25,0,0,0-3.36-3.14c-.41-.33-.73-.56-.95-.72A2.6,2.6,0,0,1,199.64,193Z" style="fill:#263238"></path><path d="M268.71,353.39a1.84,1.84,0,0,1-.33.26,9.52,9.52,0,0,1-1,.67,20.17,20.17,0,0,1-4.06,1.85c-3.58,1.28-8.83,1.83-14.55,1.93a71.87,71.87,0,0,1-8.1-.09,23.08,23.08,0,0,1-6.48-1.44,15,15,0,0,1-3.9-2.18,8.65,8.65,0,0,1-.91-.81,1.82,1.82,0,0,1-.28-.32s.46.37,1.31,1a16.92,16.92,0,0,0,3.91,2,24.32,24.32,0,0,0,6.39,1.3,76.23,76.23,0,0,0,8,.05c5.72-.1,10.9-.58,14.45-1.76A32.1,32.1,0,0,0,268.71,353.39Z"></path><path d="M446.73,153c-1.81-10.56-2.58-22.15-23.19-28.34,0,0-4.87-1.54-5.78-3.6s-7.84-15.07-22.19-14.69-16.33,6.44-22,12.11-10.3,6.18-15.46,6.44-18-1.29-22.66,3.87-10.05,14.94-11.34,23.44-4.38,19.83-11.85,24.21-27.82,16.74-48.43,18c-7.38.46-11.25.69-13.19.8l-.29,0v0l-.21,0-.22,0v0l-.29,0c-1.94-.11-5.8-.34-13.19-.8-20.61-1.29-41-13.65-48.43-18s-10.56-15.71-11.85-24.21-6.7-18.29-11.33-23.44-17.52-3.61-22.67-3.87-9.79-.77-15.46-6.44-7.65-11.72-22-12.11S83.43,119,82.51,121.1s-5.78,3.6-5.78,3.6C56.12,130.89,55.35,142.48,53.54,153s.38,13.82,4.38,22.41c3.89,8.34,12.37,14.43,15,24.69s4.64,19.59,4.64,19.59l41.39-30s-15.64-2.22-21.92-2.1-8.86-3.32-14.57-5.79-11.65-11.57-12.27-16.74a48,48,0,0,1,4.07-23C78,134.4,89.08,125.54,95.85,123s16.25-.12,19.21,1.11,8.13,8,9.85,9,5.54,1.35,9.11,1,8.13-3.08,14.76-2.83,11.84,5.17,13.68,7.39,3,8.37,4.68,18,3.2,11.08,4.68,13.79S179,180.55,191,184.51,211,198.8,215.41,202.74,220,214.56,221.19,219s1.6,13.42,3.2,22,10.22,15.76,13.55,19a37.45,37.45,0,0,1,8.12,11.94,11.27,11.27,0,0,1,.74,6.65c-.24,1.85-2,2.83-3.2,4.56s-.37,1-.24,3.81,2.21,4.31,3.32,5.42a3.8,3.8,0,0,1,.49,4.06c-.49,1.11-2.83,5.67-2.83,5.67a11.3,11.3,0,0,0,.49,3.81c.62,1.73,1.73,2.1,2,4.44a6.23,6.23,0,0,1-1.84,5.17c-1.11,1.11-.25,1.23.36,3.81s2,3.45,1.61,4.68-1.36,1-1.11,2.83,1.48,2.84,1.48,4.44-.62,1.84-.74,2.46.61,10.1.12,12.44a6.47,6.47,0,0,1-6,5.29c-3.94.49-5.42,0-9.61-3.69s-5.91-12.19-6.52-14.9-.74-5.3-3.08-4.93S219,335.09,218.73,339s.86,5.42,1.85,9.36,4.68,5.05,6.28,6.9,1.23,3.94-.37,6.52-1.23,1.85-1.11,4.68,3,2.71,4.55,5.42.25,3.82-.12,7.14,1.85,2.46,4.19,4.68,2.34,2.71,2.46,5.66-1.23,6.16-.12,9.61,2.83,2.83,2.95,5.54-2.95,2.46-3.69,4.55,3.57,3.45,3.94,6.53-.86,1.6-2.34,3.2-1.23,2,0,2.95.61,1.73.12,3.33-2.71.86-1.84,2.09-.34,4.33-.34,4.33a52.49,52.49,0,0,1,14.88-3.1,40.52,40.52,0,0,1,14.25,2.76s-.33-2.76.53-4-1.36-.49-1.85-2.09-1.11-2.34.12-3.33,1.48-1.35,0-2.95-2.71-.12-2.34-3.2,4.68-4.43,3.94-6.53-3.81-1.84-3.69-4.55,1.85-2.1,3-5.54-.25-6.65-.13-9.61.13-3.45,2.47-5.66,4.55-1.36,4.18-4.68-1.72-4.43-.12-7.14,4.43-2.59,4.55-5.42.5-2.09-1.1-4.68-2-4.68-.37-6.52,5.29-3,6.28-6.9,2.09-5.42,1.84-9.36-.37-10.71-2.71-11.08-2.46,2.22-3.07,4.93-2.34,11.2-6.53,14.9-5.66,4.18-9.6,3.69a6.49,6.49,0,0,1-6-5.29c-.49-2.34.25-11.82.13-12.44s-.74-.86-.74-2.46,1.23-2.59,1.47-4.44-.73-1.6-1.1-2.83,1-2.09,1.6-4.68,1.48-2.7.37-3.81a6.2,6.2,0,0,1-1.85-5.17c.25-2.34,1.35-2.71,2-4.44a11,11,0,0,0,.49-3.81s-2.34-4.56-2.83-5.67a3.8,3.8,0,0,1,.49-4.06c1.11-1.11,3.2-2.59,3.33-5.42s1-2.09-.25-3.81-3-2.71-3.2-4.56a11.35,11.35,0,0,1,.74-6.65A37.32,37.32,0,0,1,262.34,260c3.32-3.2,11.94-10.34,13.54-19s2-17.61,3.2-22,1.35-12.31,5.79-16.25,12.32-14.26,24.38-18.23,17.73-11.45,19.2-14.16,3-4.18,4.68-13.79,2.83-15.76,4.68-18,7.06-7.14,13.69-7.39,11.18,2.46,14.75,2.83,7.39,0,9.11-1,6.9-7.76,9.85-9,12.44-3.7,19.21-1.11S422.27,134.4,426,142a48,48,0,0,1,4.06,23c-.62,5.17-6.56,14.28-12.27,16.74s-8.29,5.91-14.57,5.79-21.92,2.1-21.92,2.1l44.11,32.22s-.77-11.51,1.92-21.77,11.16-16.35,15.05-24.69C446.35,166.86,448.53,163.6,446.73,153Z" style="fill:#EF5E49"></path><path d="M300.64,193l-.33.25c-.21.16-.54.39-.95.72a29.05,29.05,0,0,0-3.36,3.14,31.23,31.23,0,0,0-4.23,5.89,32,32,0,0,0-3.32,9c-.78,3.49-.71,7.43-.89,11.64s-.28,8.71-.64,13.44a80.74,80.74,0,0,1-2.24,14.72,28.6,28.6,0,0,1-3,7.31,41.47,41.47,0,0,1-4.83,6.54,122.18,122.18,0,0,1-11.67,10.92,16.76,16.76,0,0,0-2.64,2.69,5.89,5.89,0,0,0-1.17,3.36c-.06,1.21.1,2.43.12,3.66a5.92,5.92,0,0,1-.89,3.57c-.73,1-1.76,1.67-2.31,2.61a3.62,3.62,0,0,0-.15,3.1c.69,2.05,2.17,3.93,2.09,6.21a7.56,7.56,0,0,1-.93,3c-.45.92-.95,1.78-1.28,2.67a7.21,7.21,0,0,0,.28,5.35,14.84,14.84,0,0,1,1.28,5,4.12,4.12,0,0,1-.79,2.28c-.47.63-1,1.12-1.45,1.66a2.37,2.37,0,0,0-.61,1.8,8.49,8.49,0,0,0,.57,1.79,3.11,3.11,0,0,1,.22,1.77,3.77,3.77,0,0,1-.81,1.4,2.39,2.39,0,0,0-.6,1.21,3.39,3.39,0,0,0,.09,1.2c.17.75.4,1.37.47,1.9a1.39,1.39,0,0,1-.25,1.16.83.83,0,0,1-.33.25,1.61,1.61,0,0,0,.29-.28,1.33,1.33,0,0,0,.18-1.12c-.08-.51-.32-1.12-.51-1.87a3.43,3.43,0,0,1-.12-1.26,2.61,2.61,0,0,1,.62-1.31,3.73,3.73,0,0,0,.75-1.33,2.84,2.84,0,0,0-.24-1.64,7.94,7.94,0,0,1-.59-1.84,2.58,2.58,0,0,1,.64-2c.44-.58,1-1.08,1.43-1.68a3.83,3.83,0,0,0,.71-2.1c0-1.58-.71-3.16-1.3-4.85a12.87,12.87,0,0,1-.69-2.7,6,6,0,0,1,.38-2.91c.68-1.86,2.05-3.53,2.16-5.58a6.72,6.72,0,0,0-.73-3c-.44-1-1-2-1.36-3a4.08,4.08,0,0,1,.17-3.49c.64-1.07,1.68-1.72,2.32-2.64a5.42,5.42,0,0,0,.8-3.29c0-1.2-.19-2.42-.13-3.7a6.53,6.53,0,0,1,1.26-3.63,17,17,0,0,1,2.72-2.77,125.32,125.32,0,0,0,11.61-10.88,42.09,42.09,0,0,0,4.78-6.46,28.68,28.68,0,0,0,3-7.18,81.09,81.09,0,0,0,2.25-14.62c.37-4.72.52-9.22.69-13.43s.15-8.16,1-11.69a32.13,32.13,0,0,1,3.42-9.06,31.46,31.46,0,0,1,4.34-5.89,28.47,28.47,0,0,1,3.44-3.08c.43-.32.76-.54,1-.69A1.79,1.79,0,0,1,300.64,193Z" style="fill:#263238"></path><path d="M421.88,214.11a17.63,17.63,0,0,0-12.54-23.19c-3.77-.88-7.76-.51-11.48-1.6-2.32-.67-4.47-1.91-6.83-2.45-6.38-1.45-13.17,2.77-15.91,8.71-3-.3-5.58,2.33-6.86,5.08s-1.83,5.86-3.52,8.39c-1,1.48-2.36,2.71-3.28,4.25a11.85,11.85,0,0,0-.91,8.8c.71,2.94,5.39,6.08,5.39,6.08s1.74,8.61,4.52,10.9,6.84,3.39,10.05,1.76a9.35,9.35,0,0,0,14.53.72,11.77,11.77,0,0,0,19.88-4.47A15.31,15.31,0,0,0,425,227.44C426.52,222.85,424.77,218,421.88,214.11Z" style="fill:#EF5E49"></path><g style="opacity:0.7000000000000001"><path d="M421.88,214.11a17.63,17.63,0,0,0-12.54-23.19c-3.77-.88-7.76-.51-11.48-1.6-2.32-.67-4.47-1.91-6.83-2.45-6.38-1.45-13.17,2.77-15.91,8.71-3-.3-5.58,2.33-6.86,5.08s-1.83,5.86-3.52,8.39c-1,1.48-2.36,2.71-3.28,4.25a11.85,11.85,0,0,0-.91,8.8c.71,2.94,5.39,6.08,5.39,6.08s1.74,8.61,4.52,10.9,6.84,3.39,10.05,1.76a9.35,9.35,0,0,0,14.53.72,11.77,11.77,0,0,0,19.88-4.47A15.31,15.31,0,0,0,425,227.44C426.52,222.85,424.77,218,421.88,214.11Z" style="fill:#fff"></path></g><path d="M381.17,235c.05,0,.18.48.58,1.28a8.72,8.72,0,0,0,2.39,2.89,7.89,7.89,0,0,0,5.16,1.72,8.33,8.33,0,0,0,5.95-2.86,8.93,8.93,0,0,0,1-1.48,4,4,0,0,1,1.23-1.43,5.47,5.47,0,0,1,1.67-.64,8.48,8.48,0,0,0,1.52-.52,8,8,0,0,0,3.78-3.91,8.1,8.1,0,0,0,.74-3.67c-.05-.9-.2-1.38-.15-1.39s.07.11.14.34a5.63,5.63,0,0,1,.21,1,7.75,7.75,0,0,1-.6,3.83,8.15,8.15,0,0,1-3.92,4.19c-1,.53-2.22.58-3.11,1.16s-1.24,1.87-2.12,2.82a8.69,8.69,0,0,1-6.32,3,8.37,8.37,0,0,1-7.75-5,5.91,5.91,0,0,1-.34-1A1.09,1.09,0,0,1,381.17,235Z" style="fill:#263238"></path><path d="M413.3,226.2a29.27,29.27,0,0,0,2.2-2.24,12.22,12.22,0,0,0,1.12-14c-1-1.67-1.89-2.49-1.81-2.56a2.72,2.72,0,0,1,.66.54,10.12,10.12,0,0,1,1.46,1.83,11.93,11.93,0,0,1-1.15,14.45,10.08,10.08,0,0,1-1.74,1.57C413.59,226.09,413.32,226.23,413.3,226.2Z" style="fill:#263238"></path><path d="M377.2,202.25s0-.11,0-.32a5.74,5.74,0,0,1,.2-.91,8.68,8.68,0,0,1,1.64-3,8.89,8.89,0,0,1,4.17-2.86,9.2,9.2,0,0,1,9.78,2.94l-.27-.08a7.05,7.05,0,0,1,4.6.1,7.56,7.56,0,0,1,3.06,2,6.56,6.56,0,0,1,1.3,2,2.7,2.7,0,0,1,.22.82,8.82,8.82,0,0,0-1.75-2.6,7.53,7.53,0,0,0-3-1.8,6.81,6.81,0,0,0-4.31,0l-.16.05-.11-.13a9,9,0,0,0-3.43-2.49,8.58,8.58,0,0,0-9.86,2.34A10.82,10.82,0,0,0,377.2,202.25Z" style="fill:#263238"></path><path d="M380,240.34s-.09.13-.3.36a4.2,4.2,0,0,1-1.13.74,4.74,4.74,0,0,1-2.11.32,10.87,10.87,0,0,1-2.74-.6,9.81,9.81,0,0,1-3-1.57,8,8,0,0,1-2.39-3.12,41.86,41.86,0,0,1-1.52-4,11.15,11.15,0,0,1-.43-2.26,9.43,9.43,0,0,1,0-1.19c0-.4.12-.83,0-.94a4.16,4.16,0,0,0-1-.39,8.08,8.08,0,0,1-1.07-.51,8.56,8.56,0,0,1-1.86-1.38,10.06,10.06,0,0,1-2.39-3.63,9.78,9.78,0,0,1,.19-7.21,11,11,0,0,1,2.82-4,8.42,8.42,0,0,1,1.05-.82,1.5,1.5,0,0,1,.4-.23s-.5.4-1.31,1.2a11.38,11.38,0,0,0-2.62,4,9.36,9.36,0,0,0,2.21,10.34,8.19,8.19,0,0,0,1.76,1.3,7.14,7.14,0,0,0,1,.47l.53.19a1.33,1.33,0,0,1,.63.33.94.94,0,0,1,.22.75l-.05.58a8.37,8.37,0,0,0,0,1.12,11.12,11.12,0,0,0,.4,2.16,40,40,0,0,0,1.47,4,7.82,7.82,0,0,0,2.22,3,9.82,9.82,0,0,0,2.89,1.55,10.67,10.67,0,0,0,2.65.66,4.77,4.77,0,0,0,2-.22A6.56,6.56,0,0,0,380,240.34Z" style="fill:#263238"></path><path d="M78.75,213a17.61,17.61,0,0,1,12.53-23.19c3.77-.88,7.77-.52,11.48-1.6,2.33-.68,4.48-1.91,6.84-2.45,6.38-1.46,13.17,2.77,15.91,8.71,3-.3,5.57,2.32,6.86,5.08s1.82,5.86,3.52,8.38c1,1.49,2.36,2.72,3.27,4.26a11.86,11.86,0,0,1,.92,8.8c-.72,2.93-5.39,6.07-5.39,6.07s-1.74,8.62-4.52,10.9-6.84,3.4-10,1.77a9.35,9.35,0,0,1-14.53.72A11.77,11.77,0,0,1,85.71,236a15.32,15.32,0,0,1-10.06-9.66C74.11,221.72,75.86,216.85,78.75,213Z" style="fill:#EF5E49"></path><g style="opacity:0.7000000000000001"><path d="M78.75,213a17.61,17.61,0,0,1,12.53-23.19c3.77-.88,7.77-.52,11.48-1.6,2.33-.68,4.48-1.91,6.84-2.45,6.38-1.46,13.17,2.77,15.91,8.71,3-.3,5.57,2.32,6.86,5.08s1.82,5.86,3.52,8.38c1,1.49,2.36,2.72,3.27,4.26a11.86,11.86,0,0,1,.92,8.8c-.72,2.93-5.39,6.07-5.39,6.07s-1.74,8.62-4.52,10.9-6.84,3.4-10,1.77a9.35,9.35,0,0,1-14.53.72A11.77,11.77,0,0,1,85.71,236a15.32,15.32,0,0,1-10.06-9.66C74.11,221.72,75.86,216.85,78.75,213Z" style="fill:#fff"></path></g><path d="M119.45,233.85s0,.13,0,.36a5.59,5.59,0,0,1-.34,1,8.39,8.39,0,0,1-2.34,3.1,8.18,8.18,0,0,1-5.41,1.91,8.73,8.73,0,0,1-6.33-3c-.87-1-1.23-2.25-2.11-2.83s-2.12-.62-3.12-1.15a8.23,8.23,0,0,1-3.92-4.19,7.77,7.77,0,0,1-.59-3.84,5.32,5.32,0,0,1,.21-1,1.29,1.29,0,0,1,.13-.35c.06,0-.1.5-.14,1.4a8.13,8.13,0,0,0,4.52,7.58,8.47,8.47,0,0,0,1.52.51,5.77,5.77,0,0,1,1.67.65,4,4,0,0,1,1.22,1.43,9.43,9.43,0,0,0,1,1.48,8.37,8.37,0,0,0,5.94,2.86,7.85,7.85,0,0,0,5.16-1.72,8.64,8.64,0,0,0,2.4-2.89C119.28,234.32,119.41,233.83,119.45,233.85Z" style="fill:#263238"></path><path d="M123.43,201.12a11,11,0,0,0-2.14-4,9,9,0,0,0-4-2.64,8.9,8.9,0,0,0-9.26,2.8l-.11.13-.17-.05a6.71,6.71,0,0,0-4.3,0,7.56,7.56,0,0,0-3,1.79,9.4,9.4,0,0,0-1.76,2.61,3,3,0,0,1,.23-.83,6.6,6.6,0,0,1,1.3-2,7.8,7.8,0,0,1,3-2,7.15,7.15,0,0,1,4.61-.1l-.28.08a9.2,9.2,0,0,1,3.62-2.65,8.86,8.86,0,0,1,10.34,2.57,8.82,8.82,0,0,1,1.63,3,6,6,0,0,1,.21.9C123.44,201,123.45,201.11,123.43,201.12Z" style="fill:#263238"></path><path d="M120.59,239.21a6.75,6.75,0,0,0,1.51.9,4.57,4.57,0,0,0,2,.23,11.13,11.13,0,0,0,2.65-.66,9.87,9.87,0,0,0,2.89-1.56,7.59,7.59,0,0,0,2.21-3,41,41,0,0,0,1.48-4,12,12,0,0,0,.4-2.17,8.22,8.22,0,0,0,0-1.11l-.05-.58a1,1,0,0,1,.21-.75,1.43,1.43,0,0,1,.63-.33l.54-.19a7.77,7.77,0,0,0,1-.48,8.67,8.67,0,0,0,1.76-1.29,9.74,9.74,0,0,0,2.29-3.44,9.48,9.48,0,0,0-.08-6.9,11.53,11.53,0,0,0-2.62-4c-.81-.8-1.35-1.15-1.32-1.19s.15.06.41.23a8.19,8.19,0,0,1,1.05.82,11,11,0,0,1,2.82,4,9.78,9.78,0,0,1,.19,7.21,9.89,9.89,0,0,1-2.39,3.63,8.6,8.6,0,0,1-1.86,1.39,8.15,8.15,0,0,1-1.08.5,4.51,4.51,0,0,0-1,.4c-.14.1,0,.53,0,.93a7.86,7.86,0,0,1,0,1.19,11.84,11.84,0,0,1-.42,2.27,38.3,38.3,0,0,1-1.53,4,8.05,8.05,0,0,1-2.38,3.13,10,10,0,0,1-3,1.56,10.48,10.48,0,0,1-2.75.61,4.76,4.76,0,0,1-2.11-.33,3.9,3.9,0,0,1-1.12-.74A1.68,1.68,0,0,1,120.59,239.21Z" style="fill:#263238"></path><g style="opacity:0.30000000000000004"><path d="M327.46,167.23c-3.34,6.15-5.31,5.55-12.86,11.07s-12.91,6.91-17.55,9.46a59.19,59.19,0,0,0-18.75,15.51c-6.15,7.84-6.05,22.66-8.37,28.64s-6.69,15.82-11.05,17.85-14.23,1.74-22.08-5.56S226.63,214.89,222,204.43s-8.42-12.21-17.13-16-24.36-13.8-28.23-18.62c-3.59-4.48-2.87-3.18-6.35-16s-1.46-13.37-8.14-19.18-13.34-3.49-13.34-3.49c6.63.25,11.84,5.17,13.68,7.39s3,8.37,4.68,18,3.2,11.08,4.68,13.79S179,180.55,191,184.51,211,198.8,215.41,202.74,220,214.56,221.19,219s1.6,13.42,3.2,22,10.22,15.76,13.55,19a37.45,37.45,0,0,1,8.12,11.94,11.27,11.27,0,0,1,.74,6.65c-.24,1.85-2,2.83-3.2,4.56s-.37,1-.24,3.81,2.21,4.31,3.32,5.42a3.8,3.8,0,0,1,.49,4.06c-.49,1.11-2.83,5.67-2.83,5.67a11.3,11.3,0,0,0,.49,3.81c.62,1.73,1.73,2.1,2,4.44a6.23,6.23,0,0,1-1.84,5.17c-1.11,1.11-.25,1.23.36,3.81s2,3.45,1.61,4.68-1.36,1-1.11,2.83,1.48,2.84,1.48,4.44-.62,1.84-.74,2.46.61,10.1.12,12.44a6.47,6.47,0,0,1-6,5.29c-3.94.49-5.42,0-9.61-3.69s-5.91-12.19-6.52-14.9-.74-5.3-3.08-4.93S219,335.09,218.73,339s.86,5.42,1.85,9.36,4.68,5.05,6.28,6.9,1.23,3.94-.37,6.52-1.23,1.85-1.11,4.68,3,2.71,4.55,5.42.25,3.82-.12,7.14,1.85,2.46,4.19,4.68,2.34,2.71,2.46,5.66-1.23,6.16-.12,9.61,2.83,2.83,2.95,5.54-2.95,2.46-3.69,4.55,3.57,3.45,3.94,6.53-.86,1.6-2.34,3.2-1.23,2,0,2.95.61,1.73.12,3.33-2.71.86-1.84,2.09-.34,4.33-.34,4.33a52.49,52.49,0,0,1,14.88-3.1,40.52,40.52,0,0,1,14.25,2.76s-.33-2.76.53-4-1.36-.49-1.85-2.09-1.11-2.34.12-3.33,1.48-1.35,0-2.95-2.71-.12-2.34-3.2,4.68-4.43,3.94-6.53-3.81-1.84-3.69-4.55,1.85-2.1,3-5.54-.25-6.65-.13-9.61.13-3.45,2.47-5.66,4.55-1.36,4.18-4.68-1.72-4.43-.12-7.14,4.43-2.59,4.55-5.42.5-2.09-1.1-4.68-2-4.68-.37-6.52,5.29-3,6.28-6.9,2.09-5.42,1.84-9.36-.37-10.71-2.71-11.08-2.46,2.22-3.07,4.93-2.34,11.2-6.53,14.9-5.66,4.18-9.6,3.69a6.49,6.49,0,0,1-6-5.29c-.49-2.34.25-11.82.13-12.44s-.74-.86-.74-2.46,1.23-2.59,1.47-4.44-.73-1.6-1.1-2.83,1-2.09,1.6-4.68,1.48-2.7.37-3.81a6.2,6.2,0,0,1-1.85-5.17c.25-2.34,1.35-2.71,2-4.44a11,11,0,0,0,.49-3.81s-2.34-4.56-2.83-5.67a3.8,3.8,0,0,1,.49-4.06c1.11-1.11,3.2-2.59,3.33-5.42s1-2.09-.25-3.81-3-2.71-3.2-4.56a11.35,11.35,0,0,1,.74-6.65A37.32,37.32,0,0,1,262.34,260c3.32-3.2,11.94-10.34,13.54-19s2-17.61,3.2-22,1.35-12.31,5.79-16.25,12.32-14.26,24.38-18.23,17.73-11.45,19.2-14.16,3-4.18,4.68-13.79Z"></path></g><path d="M383.76,124.94s-.33.17-.88.6a14.85,14.85,0,0,0-2.16,2.16c-.87,1-1.82,2.34-3.15,3.73a9.76,9.76,0,0,1-5.72,2.93,26.28,26.28,0,0,1-7.83-.52,28.68,28.68,0,0,1-4.18-1.29,18.92,18.92,0,0,0-4.45-.94c-3.1-.2-6.52-.39-9.63,1a16.62,16.62,0,0,0-7.72,6.82c-1.92,3.07-2.43,6.66-3.25,10s-1.44,6.59-2,9.69a27.71,27.71,0,0,1-2.47,8.65,32.45,32.45,0,0,1-4.5,6.43,34.43,34.43,0,0,1-8.8,7.1c-1.17.66-2.11,1.1-2.75,1.39l-.75.3a.84.84,0,0,1-.25.09s.07-.06.23-.14l.72-.35c.63-.31,1.55-.78,2.7-1.46a35.59,35.59,0,0,0,8.62-7.18,32.59,32.59,0,0,0,4.4-6.37,27.58,27.58,0,0,0,2.37-8.54c.54-3.12,1.22-6.36,2-9.72.38-1.68.77-3.39,1.21-5.11a18.9,18.9,0,0,1,2.1-5,17.09,17.09,0,0,1,8-7,14,14,0,0,1,5-1.13,37.56,37.56,0,0,1,4.88.12,18.9,18.9,0,0,1,4.55,1,30.48,30.48,0,0,0,4.12,1.3,26.28,26.28,0,0,0,7.69.58,9.55,9.55,0,0,0,5.57-2.78c1.32-1.34,2.3-2.66,3.2-3.65a13,13,0,0,1,2.25-2.11,4.61,4.61,0,0,1,.69-.41Z" style="fill:#263238"></path><path d="M139.53,132.6l.29-.12.86-.29,1.42-.45c.56-.15,1.23-.28,2-.45a21.54,21.54,0,0,1,5.53-.37,16.48,16.48,0,0,1,7.05,2,15.86,15.86,0,0,1,3.47,2.55,17.84,17.84,0,0,1,2.93,3.62c1.6,2.85,2.32,6.26,3,9.78s1.19,7.27,2.1,11a44.48,44.48,0,0,0,1.81,5.64,41.67,41.67,0,0,0,2.45,5.57,25,25,0,0,0,8.32,8.45,33.37,33.37,0,0,0,5.06,2.63c1.73.68,3.49,1.29,5.13,2a64.33,64.33,0,0,1,16.28,9.93,54.72,54.72,0,0,1,8.82,9.37c.9,1.23,1.53,2.23,1.94,2.92.21.34.36.61.45.79a1,1,0,0,1,.13.28s-.06-.08-.17-.26-.29-.44-.49-.76c-.44-.67-1.1-1.64-2-2.85a57.15,57.15,0,0,0-8.89-9.2,65.21,65.21,0,0,0-16.23-9.78c-1.65-.71-3.37-1.3-5.14-2a34,34,0,0,1-5.15-2.66,25.48,25.48,0,0,1-8.49-8.62,43.05,43.05,0,0,1-2.49-5.64,45.45,45.45,0,0,1-1.81-5.71c-.92-3.82-1.45-7.56-2.08-11.08s-1.36-6.89-2.89-9.65a17,17,0,0,0-6.21-6.06,16.28,16.28,0,0,0-6.89-2.07,22,22,0,0,0-5.47.28l-2,.4-1.41.4-.88.24A1.58,1.58,0,0,1,139.53,132.6Z" style="fill:#263238"></path><path d="M287.06,189.73a3,3,0,0,1-.66.29l-1.95.72c-.84.32-1.89.69-3.11,1.06s-2.62.84-4.19,1.22l-2.45.64c-.85.21-1.75.38-2.68.59-1.85.43-3.86.74-6,1.09a103.69,103.69,0,0,1-27.71.48c-2.12-.28-4.13-.52-6-.89-.93-.17-1.84-.31-2.7-.5l-2.47-.55c-1.58-.32-3-.75-4.22-1.07s-2.3-.66-3.15-.95l-2-.66a3.47,3.47,0,0,1-.68-.26,3.6,3.6,0,0,1,.71.16l2,.57c.86.26,1.92.56,3.16.85s2.65.7,4.23,1l2.47.52c.86.18,1.76.3,2.69.47,1.86.34,3.87.57,6,.83a119.84,119.84,0,0,0,13.81.65A119,119,0,0,0,266,194.87c2.09-.34,4.1-.63,5.94-1.05.93-.19,1.83-.35,2.68-.56l2.45-.6c1.57-.35,3-.8,4.19-1.14s2.28-.68,3.13-1l2-.63A3.65,3.65,0,0,1,287.06,189.73Z" style="fill:#263238"></path><path d="M254.16,316.75c0,.15-1.87-.29-4.16-.38s-4.15.18-4.18,0a12.37,12.37,0,0,1,8.34.35Z" style="fill:#263238"></path><path d="M251.65,311.26c-.08.13-.81-.26-1.79-.29s-1.74.24-1.81.11.69-.7,1.84-.63S251.75,311.16,251.65,311.26Z" style="fill:#263238"></path><path d="M255.35,302.6s-.12-.08-.35-.11-.61,0-1.06,0c-.9,0-2.15-.07-3.52-.06-2.75,0-5,.23-5,.08a15.17,15.17,0,0,1,5-.6,24.58,24.58,0,0,1,3.55.22,6.06,6.06,0,0,1,1.08.21C255.32,302.4,255.39,302.58,255.35,302.6Z" style="fill:#263238"></path><path d="M251.43,293.51c0,.14-.75.12-1.62.13s-1.59,0-1.62-.1.68-.42,1.61-.42S251.46,293.37,251.43,293.51Z" style="fill:#263238"></path><path d="M255.7,284.22a4.34,4.34,0,0,1-1.6.9,12.43,12.43,0,0,1-4.36.89,12.76,12.76,0,0,1-4.4-.67,4.53,4.53,0,0,1-1.64-.82,21.52,21.52,0,0,0,6,1A21.3,21.3,0,0,0,255.7,284.22Z" style="fill:#263238"></path><path d="M251.82,279.35c.08.12-.88.73-2.24.74a2.93,2.93,0,0,1-2.27-.68c.06-.14,1,.19,2.26.16S251.76,279.21,251.82,279.35Z" style="fill:#263238"></path><path d="M253.26,270.76c.07,0-.08.45-.62.76a4.81,4.81,0,0,1-2.26.62,4.16,4.16,0,0,1-3.07-1.07,20.53,20.53,0,0,0,3.05.55,6.88,6.88,0,0,0,2.11-.42C253,271,253.19,270.73,253.26,270.76Z" style="fill:#263238"></path><path d="M258.12,259.06a2.59,2.59,0,0,1-.38.67,18.15,18.15,0,0,1-1.25,1.67,8.59,8.59,0,0,1-2.36,2.06,9.84,9.84,0,0,1-3.66,1.14,4.34,4.34,0,0,1-2-.26,9.93,9.93,0,0,1-1.62-.91c-.48-.32-.94-.61-1.38-.86a5.58,5.58,0,0,1-1.23-.81,9.3,9.3,0,0,1-1.28-1.65c-.28-.4-.44-.62-.41-.65s.24.15.57.52a13.39,13.39,0,0,0,1.37,1.51,5.5,5.5,0,0,0,1.19.7c.46.24.94.53,1.43.83a9.64,9.64,0,0,0,1.55.84,3.85,3.85,0,0,0,1.8.22,10,10,0,0,0,3.48-1.05,8.92,8.92,0,0,0,2.31-1.88A26,26,0,0,1,258.12,259.06Z" style="fill:#263238"></path><path d="M265.76,369a6.61,6.61,0,0,1-1.2.58,15.52,15.52,0,0,1-1.45.58c-.57.2-1.22.46-2,.66a39,39,0,0,1-5.25,1.2,43.51,43.51,0,0,1-6.58.49,44,44,0,0,1-6.58-.6,39.1,39.1,0,0,1-5.23-1.3c-.74-.21-1.38-.48-1.95-.69s-1.05-.42-1.44-.6a5.44,5.44,0,0,1-1.18-.61c0-.09,1.76.7,4.68,1.55a42.6,42.6,0,0,0,5.2,1.17,46.3,46.3,0,0,0,6.5.56,47,47,0,0,0,6.51-.44,44.28,44.28,0,0,0,5.22-1.08C264,369.7,265.72,369,265.76,369Z" style="fill:#263238"></path><path d="M262.81,382.33a3.34,3.34,0,0,1-.86.61,11.31,11.31,0,0,1-2.64,1.11,30.07,30.07,0,0,1-9.39.73,32,32,0,0,1-9.29-1.62A20.1,20.1,0,0,1,238,382a4.62,4.62,0,0,1-.89-.57c0-.08,1.35.65,3.63,1.36a35.94,35.94,0,0,0,9.19,1.45,33.61,33.61,0,0,0,9.27-.56A21.59,21.59,0,0,0,262.81,382.33Z" style="fill:#263238"></path><path d="M259.32,396.38s-.18.24-.6.56a10.2,10.2,0,0,1-1.9,1.14,15.31,15.31,0,0,1-7.16,1.33,23.78,23.78,0,0,1-7.12-1.55,12.33,12.33,0,0,1-2.74-1.25,25.91,25.91,0,0,1,2.86.9,28.14,28.14,0,0,0,7,1.38,16.44,16.44,0,0,0,7-1.15C258.36,397,259.26,396.3,259.32,396.38Z" style="fill:#263238"></path><path d="M260.77,410.65s-.23.21-.7.51a14.56,14.56,0,0,1-2.07,1.07,18.38,18.38,0,0,1-3.31,1.08,21.84,21.84,0,0,1-4.22.52,22.54,22.54,0,0,1-4.25-.38,19.52,19.52,0,0,1-3.34-1,15.21,15.21,0,0,1-2.11-1c-.47-.29-.72-.46-.7-.49s1.1.52,2.94,1.15a22.44,22.44,0,0,0,3.3.85,24.41,24.41,0,0,0,4.15.33,25.68,25.68,0,0,0,4.13-.46,22.37,22.37,0,0,0,3.27-1C259.68,411.2,260.72,410.57,260.77,410.65Z" style="fill:#263238"></path><path d="M256.65,418.54a5,5,0,0,1-1.8,1.13,10.41,10.41,0,0,1-2.22.69,14.29,14.29,0,0,1-2.84.2,17.44,17.44,0,0,1-5-1,6.25,6.25,0,0,1-1.93-.88c.05-.18,3.06,1.16,7,1.33a15,15,0,0,0,2.74-.16,11.6,11.6,0,0,0,2.17-.55C255.92,418.9,256.6,418.46,256.65,418.54Z" style="fill:#263238"></path><path d="M258.48,425.39a17.41,17.41,0,0,1-2.79,0c-1.71-.06-4.08-.11-6.69-.07s-5,.17-6.7.29a16.62,16.62,0,0,1-2.78.11,13.85,13.85,0,0,1,2.75-.48,68.7,68.7,0,0,1,13.45-.22A12.68,12.68,0,0,1,258.48,425.39Z" style="fill:#263238"></path><path d="M256.71,404.22a4,4,0,0,1-1.61,1,11.26,11.26,0,0,1-4.54.9,21.79,21.79,0,0,1-4.59-.52,6.28,6.28,0,0,1-1.83-.53,7.77,7.77,0,0,1,1.89.16,32.63,32.63,0,0,0,4.52.37,13.75,13.75,0,0,0,4.42-.72C256.05,404.54,256.66,404.15,256.71,404.22Z" style="fill:#263238"></path><path d="M264.08,358.75s0,.1-.06.27a1.19,1.19,0,0,1-.61.51,27.2,27.2,0,0,1-2.69.91,39.6,39.6,0,0,1-18.53.72,25.81,25.81,0,0,1-2.74-.68,3.81,3.81,0,0,1-1-.36c0-.08,1.45.3,3.79.68a45.32,45.32,0,0,0,18.36-.72c1.15-.27,2.08-.55,2.71-.73A1.23,1.23,0,0,0,264.08,358.75Z" style="fill:#263238"></path></g><g id="freepik--Plants--inject-54"><path d="M80,138.45a5.68,5.68,0,0,1,.38.77,18.08,18.08,0,0,1,.93,2.28,28.54,28.54,0,0,1,1.61,8.88c.06,1,0,2,0,3a31.8,31.8,0,0,1-.42,3.23,30,30,0,0,1-6.13,13.7,64.26,64.26,0,0,1-6,6.06,42.21,42.21,0,0,0-2.87,3.16c-.41.57-.81,1.14-1.22,1.7s-.72,1.17-1.08,1.75a31,31,0,0,0-3.81,20.36,24.13,24.13,0,0,0,3.06,8.37l.36.66c.14.19.27.37.38.54l.6.84a6.21,6.21,0,0,1,.47.72,4,4,0,0,1-.55-.65l-.64-.82-.4-.53-.4-.65A23.64,23.64,0,0,1,61,203.41a30.32,30.32,0,0,1,.68-13.35,30.87,30.87,0,0,1,3.06-7.33c.36-.58.68-1.21,1.1-1.78l1.23-1.73A39.91,39.91,0,0,1,70,176a65.67,65.67,0,0,0,5.93-6,29.9,29.9,0,0,0,6.11-13.45,31.53,31.53,0,0,0,.43-3.19c0-1,.14-2,.09-3a29.94,29.94,0,0,0-1.43-8.83c-.3-1-.63-1.78-.83-2.3A4.24,4.24,0,0,1,80,138.45Z" style="fill:#263238"></path><path d="M160,140.65s-.07.07-.23.17l-.7.48a22.34,22.34,0,0,1-2.9,1.49,24.38,24.38,0,0,1-11.78,1.75,27.28,27.28,0,0,1-15.91-7.43,29.54,29.54,0,0,1-3.45-3.83c-1.07-1.41-2-2.92-3-4.47s-1.93-3.11-3-4.64-2.26-3-3.52-4.45A43.05,43.05,0,0,0,98,107.52a25.47,25.47,0,0,0-9.2-1.62A16.55,16.55,0,0,0,81,108a12.29,12.29,0,0,0-4.71,4.68,11.24,11.24,0,0,0-1.39,4.85,10.7,10.7,0,0,0,.71,4.26,4.6,4.6,0,0,1-.45-1,9.46,9.46,0,0,1-.46-3.23,11.4,11.4,0,0,1,1.33-5,12.63,12.63,0,0,1,4.79-4.86,16.84,16.84,0,0,1,8-2.22,25.66,25.66,0,0,1,9.38,1.6A43.1,43.1,0,0,1,116,119.38c5.32,5.69,7.87,13,12.89,17.39a27.13,27.13,0,0,0,15.62,7.4,24.42,24.42,0,0,0,11.66-1.57,25.58,25.58,0,0,0,2.93-1.39l.72-.43A1.56,1.56,0,0,1,160,140.65Z" style="fill:#263238"></path><path d="M248.11,160.8s-.07,0-.19-.13l-.51-.43c-.46-.39-1.11-1-1.94-1.73a88.94,88.94,0,0,1-6.64-6.88,96,96,0,0,0-10.12-9.84,83.78,83.78,0,0,0-14.33-9.62,44,44,0,0,0-8.21-3.48,38.24,38.24,0,0,0-8.16-1.43,38.2,38.2,0,0,0-13.9,1.72,35.75,35.75,0,0,0-8.61,4c-1,.57-1.65,1.12-2.15,1.45l-.55.38-.2.12s.05-.06.16-.16l.53-.43c.48-.35,1.14-.93,2.1-1.53a34,34,0,0,1,8.61-4.15,38.08,38.08,0,0,1,6.44-1.52,40,40,0,0,1,7.6-.33,38.23,38.23,0,0,1,8.28,1.42,43.45,43.45,0,0,1,8.3,3.51,82.41,82.41,0,0,1,14.4,9.71,90,90,0,0,1,10.08,10c2.63,3.06,4.88,5.41,6.51,7l1.87,1.8.48.47C248.07,160.74,248.12,160.8,248.11,160.8Z" style="fill:#263238"></path><path d="M60.63,198.31c-.63-3.16-4.65-6.23-8.38-7.23a15.53,15.53,0,0,0-10.6.63c1.42,5.59,11.74,8.65,19,6.6" style="fill:#455a64"></path><path d="M61,198.21a44,44,0,0,1-6.31-2.12,43.65,43.65,0,0,1-6.13-2.61,41.18,41.18,0,0,1,6.31,2.12A41.6,41.6,0,0,1,61,198.21Z" style="fill:#263238"></path><path d="M62.05,191.72c2.22,1.27,6.75.06,9.9-2.07a19.68,19.68,0,0,0,7-8c-4.15-2-13,3.71-16.93,10" style="fill:#455a64"></path><path d="M61.84,192.05c-.14-.13,2.37-1.85,5.5-3.81a40.45,40.45,0,0,1,5.82-3.33,43.39,43.39,0,0,1-5.55,3.77c-1.57,1-3,1.85-4,2.46A8.86,8.86,0,0,1,61.84,192.05Z" style="fill:#263238"></path><path d="M78.66,166.42c1.91,1.7,6.59,1.44,10.12,0a19.7,19.7,0,0,0,8.51-6.34c-3.64-2.84-13.53.95-18.63,6.34" style="fill:#455a64"></path><path d="M78.39,166.7c-.12-.15,2.7-1.32,6.16-2.6A42.22,42.22,0,0,1,90.93,162a44.44,44.44,0,0,1-6.2,2.56c-1.74.64-3.32,1.19-4.47,1.58A10.27,10.27,0,0,1,78.39,166.7Z" style="fill:#263238"></path><path d="M82.91,146.56c2.46.68,6.55-1.63,9.07-4.49s4.8-5.45,4.8-9.46c-5.89,1-11.7,6.86-13.87,13.95" style="fill:#455a64"></path><path d="M82.79,146.94c-.17-.09,1.83-2.39,4.36-5.07a44,44,0,0,1,4.8-4.69,42.15,42.15,0,0,1-4.42,5c-1.27,1.34-2.44,2.54-3.3,3.4A11.22,11.22,0,0,1,82.79,146.94Z" style="fill:#263238"></path><path d="M75,117.25c2.46.67,6.54-1.64,9.07-4.49s4.8-5.46,4.8-9.47c-5.89,1-11.7,6.87-13.87,14" style="fill:#455a64"></path><path d="M74.85,117.62c-.17-.08,1.83-2.38,4.36-5.06a42.87,42.87,0,0,1,4.8-4.69,43.71,43.71,0,0,1-4.42,5c-1.27,1.35-2.44,2.55-3.3,3.4A9.54,9.54,0,0,1,74.85,117.62Z" style="fill:#263238"></path><path d="M102,108.67c-1.58,2-1,6.67.64,10.1s3.18,6.54,6.88,8.08c1.37-5.81-1.82-13.44-7.52-18.18" style="fill:#455a64"></path><path d="M101.68,108.42c.14-.13,1.49,2.6,3,6a42.52,42.52,0,0,1,2.47,6.24,46.66,46.66,0,0,1-3-6c-.75-1.69-1.4-3.24-1.86-4.36A9.79,9.79,0,0,1,101.68,108.42Z" style="fill:#263238"></path><path d="M121.47,127.54c-1.87,1.74-2,6.43-1,10.08s2.12,6.95,5.53,9.06c2.26-5.52.32-13.56-4.57-19.14" style="fill:#455a64"></path><path d="M121.22,127.24c.16-.1,1.06,2.81,2,6.38a42.48,42.48,0,0,1,1.46,6.55,43.43,43.43,0,0,1-2-6.42c-.47-1.78-.88-3.41-1.15-4.59A9.11,9.11,0,0,1,121.22,127.24Z" style="fill:#263238"></path><path d="M142.24,144.18c.06,2.55,3.45,5.79,6.91,7.38s6.61,3,10.45,1.87c-2.63-5.35-9.95-9.22-17.36-9.25" style="fill:#455a64"></path><path d="M141.84,144.17c0-.19,2.81,1.07,6.11,2.72a42.87,42.87,0,0,1,5.88,3.24,44,44,0,0,1-6.11-2.78c-1.65-.83-3.14-1.6-4.21-2.18A8.74,8.74,0,0,1,141.84,144.17Z" style="fill:#263238"></path><path d="M183.71,129c.06,2.55,3.45,5.79,6.91,7.38s6.61,3,10.45,1.87c-2.64-5.36-9.95-9.22-17.36-9.25" style="fill:#455a64"></path><path d="M183.31,129c0-.19,2.81,1.06,6.11,2.72a41.64,41.64,0,0,1,5.88,3.24,43.44,43.44,0,0,1-6.11-2.78c-1.66-.83-3.14-1.6-4.21-2.18A9.43,9.43,0,0,1,183.31,129Z" style="fill:#263238"></path><path d="M212.66,131c-1.34,2.17-.26,6.74,1.77,10s3.9,6.13,7.75,7.25c.71-5.92-3.32-13.14-9.52-17.21" style="fill:#455a64"></path><path d="M212.33,130.81c.13-.13,1.78,2.43,3.65,5.61a44.27,44.27,0,0,1,3.16,5.92,42.86,42.86,0,0,1-3.61-5.66c-.94-1.59-1.76-3.05-2.34-4.12A9.57,9.57,0,0,1,212.33,130.81Z" style="fill:#263238"></path><path d="M234.09,146.1c-2,1.54-2.69,6.19-2,9.92s1.4,7.14,4.58,9.58c2.81-5.26,1.68-13.46-2.62-19.5" style="fill:#455a64"></path><path d="M233.87,145.78c.17-.09.77,2.9,1.36,6.54A43.42,43.42,0,0,1,236,159a45.32,45.32,0,0,1-1.31-6.58c-.29-1.83-.53-3.49-.68-4.7A9,9,0,0,1,233.87,145.78Z" style="fill:#263238"></path><path d="M69.5,176.55c-2.39-.88-4.37-5.14-4.76-8.93a19.69,19.69,0,0,1,1.61-10.49c4.22,1.88,5.51,12.39,3.15,19.42" style="fill:#455a64"></path><path d="M69.38,176.93A10.05,10.05,0,0,1,69,175c-.21-1.19-.46-2.85-.71-4.68a44.89,44.89,0,0,1-.66-6.68,43.24,43.24,0,0,1,1.17,6.61C69.28,173.92,69.57,177,69.38,176.93Z" style="fill:#263238"></path><path d="M82.29,156.08c-2.52.4-6.32-2.36-8.51-5.48a19.7,19.7,0,0,1-3.71-9.94c4.6-.41,10.85,8.13,12.22,15.42" style="fill:#455a64"></path><path d="M82.37,156.47A10,10,0,0,1,81.09,155c-.77-.94-1.79-2.26-2.91-3.74a45,45,0,0,1-3.83-5.52,43.11,43.11,0,0,1,4.25,5.2C80.82,153.89,82.55,156.4,82.37,156.47Z" style="fill:#263238"></path><path d="M92.72,105.73c-.84-2.23,1-6.22,3.39-8.81a18.39,18.39,0,0,1,8.38-5.29c-.69,5.92-5.36,11.47-11.77,14.1" style="fill:#455a64"></path><path d="M92.39,105.88a7.74,7.74,0,0,1,1.08-1.46c.72-.88,1.73-2.07,2.87-3.37a38.57,38.57,0,0,1,4.32-4.54,36.35,36.35,0,0,1-3.93,4.88C94.46,104,92.49,106,92.39,105.88Z" style="fill:#263238"></path><path d="M113.84,116.93c1.15-2.63,6.12-4.4,10.39-4.59s7.93,1.54,11.66,3.48c-5.57,4.51-14.35,4.23-22.08,1.12" style="fill:#455a64"></path><path d="M113.49,116.93a12.5,12.5,0,0,1,2.17-.31c1.35-.14,3.23-.31,5.3-.47s4-.28,5.32-.34a9.49,9.49,0,0,1,2.21,0,9.72,9.72,0,0,1-2.19.36c-1.35.15-3.23.33-5.3.49C116.87,117,113.45,117.12,113.49,116.93Z" style="fill:#263238"></path><path d="M131.32,138.8c.72-2.38,5.34-4.56,9.53-5.29s8.07.23,12.07,1.36c-4.78,4.58-13.5,5.53-21.62,3.94" style="fill:#455a64"></path><path d="M131,138.85a11.38,11.38,0,0,1,2.09-.58c1.32-.31,3.14-.72,5.16-1.13s3.86-.77,5.2-1a9,9,0,0,1,2.18-.26,9.46,9.46,0,0,1-2.11.62c-1.31.32-3.14.73-5.16,1.15C134.31,138.48,131,139,131,138.85Z" style="fill:#263238"></path><path d="M175.09,132.8c-1-2.27,1.1-6.93,3.8-10.21s6.29-5.06,10.06-6.8c-.66,6.58-6.66,13-13.87,17" style="fill:#455a64"></path><path d="M174.86,133.06a12.07,12.07,0,0,1,1.21-1.8c.8-1.09,1.92-2.58,3.19-4.21s2.44-3.09,3.3-4.13a9,9,0,0,1,1.49-1.62,10.22,10.22,0,0,1-1.2,1.84c-.79,1.1-1.91,2.6-3.18,4.23C177.15,130.62,175,133.22,174.86,133.06Z" style="fill:#263238"></path><path d="M198.46,127c-.19-2.48,3.33-6.18,7-8.38s7.61-2.71,11.74-3.11c-2.79,6-10.57,10.05-18.72,11.51" style="fill:#455a64"></path><path d="M198.16,127.12a11.49,11.49,0,0,1,1.74-1.3c1.11-.77,2.67-1.8,4.4-2.92s3.32-2.12,4.48-2.81a9.11,9.11,0,0,1,1.94-1,9.6,9.6,0,0,1-1.74,1.34c-1.11.78-2.66,1.82-4.4,2.94C201.13,125.57,198.21,127.31,198.16,127.12Z" style="fill:#263238"></path><path d="M226.13,139.2c1-2.3,5.77-4,10-4.32s8,1,11.87,2.56c-5.22,4.08-14,4.16-21.91,1.77" style="fill:#455a64"></path><path d="M225.78,139.22a10.43,10.43,0,0,1,2.14-.37c1.34-.18,3.2-.4,5.25-.62s3.92-.37,5.27-.47a9.76,9.76,0,0,1,2.19,0,8.42,8.42,0,0,1-2.16.42c-1.34.19-3.19.41-5.25.62C229.13,139.18,225.74,139.4,225.78,139.22Z" style="fill:#263238"></path><path d="M75.4,105.27a8.57,8.57,0,0,0,5.47-6.91c.07-.61,0-1.36-.54-1.65s-1.27.12-1.74.57a10,10,0,0,0-3.09,7.38,11.54,11.54,0,0,0-1.3-6.57c-.4-.76-1.09-1.56-1.94-1.43S71,97.72,70.89,98.54a6.77,6.77,0,0,0,3.94,7,6.37,6.37,0,0,0-7.26.36c-.77.62-1.42,1.75-.85,2.57a2.12,2.12,0,0,0,1.61.7,8.1,8.1,0,0,0,6.36-2.36,7.13,7.13,0,0,0-2.45,7.43,2.48,2.48,0,0,0,1.63,1.92c1.1.23,2-.8,2.54-1.8a9.32,9.32,0,0,0,0-8.07A5.33,5.33,0,0,0,80.58,109c1.13.09,2.51-.46,2.58-1.59s-1.09-1.79-2.12-2.11a13.19,13.19,0,0,0-5.79-.46" style="fill:#EF5E49"></path><path d="M78.72,100.13a30.5,30.5,0,0,0-2,2.69,31.06,31.06,0,0,0-1.44,3.06,9,9,0,0,1,3.48-5.75Z" style="fill:#263238"></path><path d="M73.79,100.25a12.89,12.89,0,0,0,.46,2.7c.49,1.43,1.23,2.46,1.14,2.51A5.92,5.92,0,0,1,74,103,4.5,4.5,0,0,1,73.79,100.25Z" style="fill:#263238"></path><path d="M70.45,107a4.9,4.9,0,0,1,2.28-1.42,4.24,4.24,0,0,1,2.69-.17,12,12,0,0,0-2.59.45A26.15,26.15,0,0,0,70.45,107Z" style="fill:#263238"></path><path d="M74.76,106.57a1,1,0,0,1,0-1.93,2.91,2.91,0,0,0,.53.81,4.23,4.23,0,0,0-.57,1.12" style="fill:#fafafa"></path><path d="M74.6,113.39a3.56,3.56,0,0,1-.3-1.18,10.71,10.71,0,0,1,.73-5.74,3.55,3.55,0,0,1,.59-1.06,20.41,20.41,0,0,0-1.05,3.92A21.23,21.23,0,0,0,74.6,113.39Z" style="fill:#263238"></path><path d="M141.16,148A8.55,8.55,0,0,0,135,154.3a1.61,1.61,0,0,0,.36,1.69c.55.37,1.28,0,1.8-.38a10.08,10.08,0,0,0,3.83-7,11.57,11.57,0,0,0,.61,6.66c.33.8.93,1.67,1.79,1.63s1.35-.92,1.55-1.73a6.76,6.76,0,0,0-3.2-7.37,6.39,6.39,0,0,0,7.26.38c.84-.54,1.59-1.6,1.11-2.47a2.08,2.08,0,0,0-1.53-.86,8.11,8.11,0,0,0-6.57,1.69,7.12,7.12,0,0,0,3.2-7.14,2.5,2.5,0,0,0-1.42-2.08c-1.07-.34-2.12.59-2.71,1.54a9.33,9.33,0,0,0-.86,8,5.29,5.29,0,0,0-3.85-3.09c-1.11-.2-2.54.2-2.73,1.31s.91,1.9,1.9,2.32a13.16,13.16,0,0,0,5.71,1.06" style="fill:#EF5E49"></path><path d="M137.33,152.75a26.75,26.75,0,0,0,2.3-2.47,27.38,27.38,0,0,0,1.75-2.89,9.06,9.06,0,0,1-4,5.36Z" style="fill:#263238"></path><path d="M142.25,153.15a14.24,14.24,0,0,0-.19-2.74c-.34-1.48-1-2.57-.88-2.62a5.84,5.84,0,0,1,1.17,2.55A4.59,4.59,0,0,1,142.25,153.15Z" style="fill:#263238"></path><path d="M146.26,146.76a4.91,4.91,0,0,1-2.42,1.18,4.13,4.13,0,0,1-2.68-.11,12.6,12.6,0,0,0,2.62-.18A23.41,23.41,0,0,0,146.26,146.76Z" style="fill:#263238"></path><path d="M141.93,146.76a1.07,1.07,0,0,1,.51,1,1.08,1.08,0,0,1-.75.88,3,3,0,0,0-.44-.86,4.39,4.39,0,0,0,.68-1.05" style="fill:#fafafa"></path><path d="M142.78,140a3.35,3.35,0,0,1,.19,1.2,11.15,11.15,0,0,1-.27,2.91,10.82,10.82,0,0,1-1,2.73,3.74,3.74,0,0,1-.69,1A21.15,21.15,0,0,0,142.4,144,19.65,19.65,0,0,0,142.78,140Z" style="fill:#263238"></path><path d="M223.65,131.26a8.57,8.57,0,0,0-6.15,6.31c-.13.6-.14,1.35.37,1.69s1.27,0,1.79-.38a10,10,0,0,0,3.83-7,11.51,11.51,0,0,0,.62,6.66c.32.8.93,1.67,1.79,1.63s1.34-.93,1.55-1.73a6.78,6.78,0,0,0-3.2-7.38,6.36,6.36,0,0,0,7.26.38c.83-.54,1.59-1.59,1.1-2.46a2.12,2.12,0,0,0-1.52-.87,8.14,8.14,0,0,0-6.58,1.7,7.14,7.14,0,0,0,3.21-7.14,2.53,2.53,0,0,0-1.43-2.08c-1.07-.34-2.11.59-2.71,1.53a9.35,9.35,0,0,0-.85,8,5.31,5.31,0,0,0-3.85-3.09c-1.11-.21-2.55.2-2.73,1.31s.9,1.89,1.89,2.32a13.2,13.2,0,0,0,5.72,1.05" style="fill:#EF5E49"></path><path d="M219.82,136a31.43,31.43,0,0,0,2.31-2.47,29.57,29.57,0,0,0,1.74-2.89,7.45,7.45,0,0,1-1.5,3.07A7.54,7.54,0,0,1,219.82,136Z" style="fill:#263238"></path><path d="M224.74,136.42a13.28,13.28,0,0,0-.19-2.73c-.34-1.48-1-2.58-.87-2.62a5.84,5.84,0,0,1,1.17,2.55A4.49,4.49,0,0,1,224.74,136.42Z" style="fill:#263238"></path><path d="M228.75,130a4.91,4.91,0,0,1-2.41,1.18,4.21,4.21,0,0,1-2.69-.12,11.81,11.81,0,0,0,2.62-.18A25.6,25.6,0,0,0,228.75,130Z" style="fill:#263238"></path><path d="M224.42,130a1.09,1.09,0,0,1,.52,1,1.07,1.07,0,0,1-.75.87,2.9,2.9,0,0,0-.45-.85,4.33,4.33,0,0,0,.68-1.06" style="fill:#fafafa"></path><path d="M225.28,123.27a3.66,3.66,0,0,1,.18,1.19,10.77,10.77,0,0,1-.27,2.92,10.59,10.59,0,0,1-1.05,2.73,3.44,3.44,0,0,1-.69,1,21.46,21.46,0,0,0,1.45-3.79A21.48,21.48,0,0,0,225.28,123.27Z" style="fill:#263238"></path><path d="M420.4,139.1a4.55,4.55,0,0,1-.28.81,22.45,22.45,0,0,0-.84,2.3,30.27,30.27,0,0,0-1.43,8.83c-.05.94,0,1.93.09,3s.2,2.1.44,3.18a28.64,28.64,0,0,0,2.06,6.78,29.11,29.11,0,0,0,4,6.68,64.54,64.54,0,0,0,5.94,6,41.73,41.73,0,0,1,2.91,3.21l1.24,1.73c.41.57.73,1.2,1.09,1.78a31.11,31.11,0,0,1,3.74,20.68,23.64,23.64,0,0,1-3.25,8.42l-.39.65c-.14.18-.28.36-.4.53s-.46.58-.64.82a5.86,5.86,0,0,1-.55.65,4.17,4.17,0,0,1,.46-.72l.6-.84.38-.54c.11-.21.24-.43.37-.66A24.33,24.33,0,0,0,439,204a31,31,0,0,0-3.82-20.36c-.36-.58-.67-1.19-1.08-1.75l-1.22-1.7a40.15,40.15,0,0,0-2.87-3.16,65.5,65.5,0,0,1-6-6.06,30.26,30.26,0,0,1-6.13-13.7c-.23-1.1-.29-2.2-.41-3.23s-.12-2-.05-3a29,29,0,0,1,1.6-8.89,20.21,20.21,0,0,1,.93-2.27A7.77,7.77,0,0,1,420.4,139.1Z" style="fill:#263238"></path><path d="M340.39,141.3s.09,0,.26.13l.73.43a24.35,24.35,0,0,0,14.58,3,27.11,27.11,0,0,0,15.63-7.41c5-4.43,7.56-11.69,12.89-17.38a43.16,43.16,0,0,1,17.77-12.32,25.8,25.8,0,0,1,9.37-1.59,16.88,16.88,0,0,1,8,2.22,12.53,12.53,0,0,1,4.78,4.86,11.29,11.29,0,0,1,1.34,5,9.42,9.42,0,0,1-.47,3.23,5,5,0,0,1-.44,1,10.61,10.61,0,0,0,.7-4.26,11.2,11.2,0,0,0-1.39-4.85,12.22,12.22,0,0,0-4.71-4.68,16.54,16.54,0,0,0-7.79-2.11,25.47,25.47,0,0,0-9.2,1.62,43,43,0,0,0-17.54,12.2,54.05,54.05,0,0,0-3.52,4.45c-1.08,1.53-2.05,3.09-3,4.64s-1.92,3.06-3,4.47a29.61,29.61,0,0,1-3.46,3.83A27.25,27.25,0,0,1,356,145.19a24.38,24.38,0,0,1-11.78-1.75,22.34,22.34,0,0,1-2.9-1.49l-.7-.48Z" style="fill:#263238"></path><path d="M252.31,161.45a1.3,1.3,0,0,1,.15-.17l.49-.47,1.87-1.8c1.62-1.56,3.87-3.92,6.5-7a90.83,90.83,0,0,1,10.08-10,82.79,82.79,0,0,1,14.4-9.71,43.27,43.27,0,0,1,8.31-3.51,38,38,0,0,1,8.28-1.42,39.85,39.85,0,0,1,7.59.33,38.44,38.44,0,0,1,6.45,1.52,33.92,33.92,0,0,1,8.6,4.15,25.4,25.4,0,0,1,2.1,1.53l.53.43a.61.61,0,0,1,.17.16l-.2-.12-.56-.38c-.49-.33-1.18-.88-2.15-1.45a35.75,35.75,0,0,0-8.61-4,38.2,38.2,0,0,0-13.9-1.72,37.62,37.62,0,0,0-8.16,1.43,44.31,44.31,0,0,0-8.21,3.48,84.74,84.74,0,0,0-14.33,9.61,94.91,94.91,0,0,0-10.11,9.85,90.87,90.87,0,0,1-6.64,6.88c-.83.76-1.49,1.34-1.94,1.72l-.52.44C252.38,161.41,252.32,161.46,252.31,161.45Z" style="fill:#263238"></path><path d="M439.79,199c.63-3.16,4.66-6.23,8.38-7.23a15.53,15.53,0,0,1,10.6.63c-1.42,5.59-11.74,8.65-19,6.6" style="fill:#455a64"></path><path d="M439.41,198.86a41.16,41.16,0,0,1,6.12-2.61,43.82,43.82,0,0,1,6.31-2.13,40.59,40.59,0,0,1-6.12,2.61A43.82,43.82,0,0,1,439.41,198.86Z" style="fill:#263238"></path><path d="M438.37,192.37c-2.21,1.27-6.75.06-9.9-2.07a19.66,19.66,0,0,1-7-8c4.14-2,13,3.71,16.92,10" style="fill:#455a64"></path><path d="M438.58,192.7a9.21,9.21,0,0,1-1.72-.91c-1.05-.61-2.48-1.47-4.05-2.46a45.6,45.6,0,0,1-5.55-3.77,40.83,40.83,0,0,1,5.83,3.33C436.21,190.85,438.73,192.57,438.58,192.7Z" style="fill:#263238"></path><path d="M421.76,167.07c-1.9,1.7-6.59,1.44-10.12,0a19.55,19.55,0,0,1-8.5-6.35c3.64-2.83,13.52,1,18.62,6.35" style="fill:#455a64"></path><path d="M422,167.35a9.7,9.7,0,0,1-1.87-.54c-1.16-.38-2.74-.93-4.47-1.57a45.74,45.74,0,0,1-6.21-2.56,42.52,42.52,0,0,1,6.39,2.07C419.34,166,422.15,167.2,422,167.35Z" style="fill:#263238"></path><path d="M417.51,147.21c-2.46.68-6.54-1.63-9.06-4.49s-4.81-5.45-4.81-9.46c5.89,1,11.7,6.86,13.87,14" style="fill:#455a64"></path><path d="M417.63,147.59a10.84,10.84,0,0,1-1.43-1.31c-.87-.86-2-2.06-3.31-3.4a43.28,43.28,0,0,1-4.42-5,43,43,0,0,1,4.8,4.69C415.8,145.2,417.8,147.5,417.63,147.59Z" style="fill:#263238"></path><path d="M425.45,117.9c-2.46.67-6.54-1.64-9.06-4.49s-4.8-5.46-4.8-9.47c5.88,1,11.69,6.87,13.86,14" style="fill:#455a64"></path><path d="M425.58,118.27a8.49,8.49,0,0,1-1.44-1.31c-.86-.85-2-2-3.31-3.4a44.92,44.92,0,0,1-4.42-5,41.9,41.9,0,0,1,4.8,4.69C423.75,115.89,425.75,118.18,425.58,118.27Z" style="fill:#263238"></path><path d="M398.45,109.32c1.57,2,1,6.67-.65,10.1s-3.18,6.54-6.88,8.08c-1.37-5.81,1.82-13.44,7.53-18.18" style="fill:#455a64"></path><path d="M398.74,109.07a8.93,8.93,0,0,1-.65,1.83c-.45,1.12-1.11,2.67-1.86,4.36a45.17,45.17,0,0,1-3,6,42.52,42.52,0,0,1,2.47-6.24C397.25,111.67,398.6,108.94,398.74,109.07Z" style="fill:#263238"></path><path d="M379,128.19c1.87,1.74,2.06,6.43,1,10.07s-2.11,7-5.52,9.07c-2.27-5.52-.32-13.56,4.56-19.14" style="fill:#455a64"></path><path d="M379.21,127.89a9.69,9.69,0,0,1-.36,1.92c-.27,1.18-.68,2.8-1.15,4.59a44.19,44.19,0,0,1-2,6.42,42.48,42.48,0,0,1,1.46-6.55C378.14,130.7,379,127.79,379.21,127.89Z" style="fill:#263238"></path><path d="M358.19,144.83c-.07,2.55-3.46,5.79-6.92,7.38s-6.61,3-10.45,1.87c2.64-5.36,9.95-9.22,17.37-9.25" style="fill:#455a64"></path><path d="M358.58,144.82a9.43,9.43,0,0,1-1.67,1c-1.07.58-2.55,1.35-4.21,2.18a43.44,43.44,0,0,1-6.11,2.78,42.36,42.36,0,0,1,5.88-3.24C355.77,145.88,358.55,144.63,358.58,144.82Z" style="fill:#263238"></path><path d="M316.72,129.63c-.07,2.55-3.46,5.79-6.92,7.38s-6.61,3-10.45,1.87c2.64-5.36,9.95-9.22,17.37-9.25" style="fill:#455a64"></path><path d="M317.11,129.62a9.43,9.43,0,0,1-1.67,1c-1.07.58-2.55,1.35-4.21,2.18a43.44,43.44,0,0,1-6.11,2.78,42.36,42.36,0,0,1,5.88-3.24C314.3,130.68,317.08,129.43,317.11,129.62Z" style="fill:#263238"></path><path d="M287.76,131.69c1.34,2.17.26,6.74-1.77,10s-3.9,6.13-7.75,7.25c-.7-5.92,3.32-13.15,9.52-17.21" style="fill:#455a64"></path><path d="M288.09,131.46a9.57,9.57,0,0,1-.86,1.75c-.57,1.07-1.4,2.53-2.34,4.12a44.75,44.75,0,0,1-3.6,5.66,41.62,41.62,0,0,1,3.16-5.92C286.31,133.89,288,131.33,288.09,131.46Z" style="fill:#263238"></path><path d="M266.33,146.75c2,1.54,2.69,6.19,2,9.92s-1.4,7.14-4.58,9.58c-2.81-5.27-1.68-13.46,2.62-19.5" style="fill:#455a64"></path><path d="M266.55,146.42a9,9,0,0,1-.16,1.94c-.15,1.21-.39,2.87-.68,4.69a45.29,45.29,0,0,1-1.31,6.59,43.42,43.42,0,0,1,.79-6.67C265.78,149.33,266.38,146.34,266.55,146.42Z" style="fill:#263238"></path><path d="M430.92,177.2c2.4-.88,4.37-5.14,4.76-8.93a19.6,19.6,0,0,0-1.61-10.49c-4.21,1.88-5.51,12.39-3.15,19.42" style="fill:#455a64"></path><path d="M431,177.58c-.19,0,.1-3,.6-6.66a42.93,42.93,0,0,1,1.17-6.61,44,44,0,0,1-.65,6.68c-.26,1.83-.51,3.49-.71,4.68A9.48,9.48,0,0,1,431,177.58Z" style="fill:#263238"></path><path d="M418.14,156.73c2.52.4,6.32-2.36,8.5-5.48a19.61,19.61,0,0,0,3.71-9.94c-4.6-.42-10.85,8.13-12.21,15.42" style="fill:#455a64"></path><path d="M418.06,157.12c-.18-.07,1.55-2.58,3.76-5.53a43.11,43.11,0,0,1,4.25-5.2,43.2,43.2,0,0,1-3.83,5.51c-1.11,1.48-2.14,2.81-2.9,3.75A10.73,10.73,0,0,1,418.06,157.12Z" style="fill:#263238"></path><path d="M407.7,106.38c.84-2.23-1-6.22-3.39-8.81a18.34,18.34,0,0,0-8.38-5.29c.7,5.92,5.37,11.47,11.77,14.1" style="fill:#455a64"></path><path d="M408,106.53c-.11.15-2.07-1.9-4.35-4.49a37.09,37.09,0,0,1-3.93-4.88,38.57,38.57,0,0,1,4.32,4.54c1.14,1.3,2.16,2.49,2.87,3.37A8.41,8.41,0,0,1,408,106.53Z" style="fill:#263238"></path><path d="M386.58,117.58c-1.15-2.63-6.12-4.4-10.39-4.59s-7.92,1.54-11.66,3.48c5.57,4.51,14.35,4.23,22.08,1.12" style="fill:#455a64"></path><path d="M386.93,117.58c0,.19-3.37,0-7.51-.26-2.07-.16-3.95-.34-5.3-.49a9.88,9.88,0,0,1-2.19-.36,9.56,9.56,0,0,1,2.22,0c1.36.06,3.24.18,5.31.34s4,.33,5.31.47A12.47,12.47,0,0,1,386.93,117.58Z" style="fill:#263238"></path><path d="M369.1,139.45c-.72-2.38-5.34-4.56-9.53-5.29s-8.06.23-12.06,1.36c4.78,4.58,13.49,5.53,21.62,3.94" style="fill:#455a64"></path><path d="M369.44,139.5c0,.19-3.32-.38-7.35-1.2-2-.42-3.85-.83-5.17-1.15a9.24,9.24,0,0,1-2.1-.62,8.43,8.43,0,0,1,2.18.26c1.33.23,3.17.58,5.19,1s3.85.82,5.16,1.13A11.38,11.38,0,0,1,369.44,139.5Z" style="fill:#263238"></path><path d="M325.33,133.45c1-2.27-1.1-6.93-3.8-10.21s-6.28-5.07-10.06-6.8c.66,6.58,6.67,13,13.87,17" style="fill:#455a64"></path><path d="M325.56,133.71c-.11.16-2.28-2.44-4.81-5.69-1.27-1.63-2.39-3.13-3.18-4.23a9.15,9.15,0,0,1-1.19-1.84,9.24,9.24,0,0,1,1.48,1.62c.87,1,2,2.5,3.3,4.13s2.39,3.12,3.19,4.21A12.07,12.07,0,0,1,325.56,133.71Z" style="fill:#263238"></path><path d="M302,127.6c.2-2.48-3.32-6.18-7-8.39s-7.6-2.7-11.74-3.1c2.8,6,10.57,10,18.72,11.51" style="fill:#455a64"></path><path d="M302.26,127.77c-.05.19-3-1.55-6.42-3.79-1.73-1.12-3.29-2.16-4.4-2.94a9.26,9.26,0,0,1-1.73-1.34,9.39,9.39,0,0,1,1.94,1c1.16.69,2.74,1.68,4.47,2.81s3.29,2.15,4.41,2.92A11.66,11.66,0,0,1,302.26,127.77Z" style="fill:#263238"></path><path d="M274.29,139.85c-.94-2.3-5.76-4-10-4.32s-8,1-11.87,2.56c5.21,4.08,14,4.16,21.9,1.77" style="fill:#455a64"></path><path d="M274.64,139.87c0,.18-3.35,0-7.44-.47-2.05-.21-3.91-.43-5.25-.62a8.55,8.55,0,0,1-2.16-.42,9.89,9.89,0,0,1,2.2,0c1.35.1,3.21.26,5.26.47s3.91.44,5.25.62A10.24,10.24,0,0,1,274.64,139.87Z" style="fill:#263238"></path><path d="M425,105.92A8.57,8.57,0,0,1,419.55,99c-.07-.61,0-1.36.54-1.65s1.27.12,1.75.57a10.05,10.05,0,0,1,3.09,7.38,11.54,11.54,0,0,1,1.29-6.57c.41-.76,1.1-1.56,1.95-1.43s1.24,1.06,1.36,1.88a6.78,6.78,0,0,1-3.93,7,6.36,6.36,0,0,1,7.25.36c.78.62,1.42,1.75.85,2.56a2.07,2.07,0,0,1-1.6.71,8.13,8.13,0,0,1-6.37-2.36,7.11,7.11,0,0,1,2.45,7.43,2.48,2.48,0,0,1-1.63,1.92c-1.09.23-2-.8-2.54-1.8a9.32,9.32,0,0,1,0-8.07,5.33,5.33,0,0,1-4.15,2.68c-1.12.09-2.51-.46-2.58-1.59s1.09-1.79,2.12-2.11a13.21,13.21,0,0,1,5.79-.46" style="fill:#EF5E49"></path><path d="M421.7,100.78a26.52,26.52,0,0,1,2,2.69,27.51,27.51,0,0,1,1.44,3.06,9,9,0,0,0-3.48-5.75Z" style="fill:#263238"></path><path d="M426.64,100.9a14.24,14.24,0,0,1-.47,2.7c-.49,1.43-1.23,2.46-1.14,2.51a5.68,5.68,0,0,0,1.42-2.42A4.46,4.46,0,0,0,426.64,100.9Z" style="fill:#263238"></path><path d="M430,107.66a4.83,4.83,0,0,0-2.28-1.42,4.2,4.2,0,0,0-2.68-.17,12.07,12.07,0,0,1,2.58.45A24.65,24.65,0,0,1,430,107.66Z" style="fill:#263238"></path><path d="M425.66,107.22a1.05,1.05,0,0,0,0-1.93,3.15,3.15,0,0,1-.53.81,4.2,4.2,0,0,1,.56,1.12" style="fill:#fafafa"></path><path d="M425.82,114a3.49,3.49,0,0,0,.31-1.18,10.76,10.76,0,0,0,0-2.92,10.5,10.5,0,0,0-.76-2.83,3.44,3.44,0,0,0-.58-1,20.41,20.41,0,0,1,1.05,3.92A20.72,20.72,0,0,1,425.82,114Z" style="fill:#263238"></path><path d="M359.27,148.63a8.54,8.54,0,0,1,6.14,6.31,1.59,1.59,0,0,1-.36,1.7c-.54.36-1.27,0-1.79-.39a10,10,0,0,1-3.84-7,11.5,11.5,0,0,1-.61,6.66c-.33.8-.93,1.67-1.79,1.63s-1.34-.92-1.55-1.73a6.76,6.76,0,0,1,3.2-7.37,6.39,6.39,0,0,1-7.26.38c-.83-.54-1.59-1.6-1.11-2.47a2.1,2.1,0,0,1,1.53-.86,8.14,8.14,0,0,1,6.58,1.69A7.12,7.12,0,0,1,355.2,140a2.51,2.51,0,0,1,1.43-2.08c1.06-.34,2.11.59,2.71,1.54a9.33,9.33,0,0,1,.85,8,5.29,5.29,0,0,1,3.85-3.09c1.11-.2,2.55.2,2.73,1.31s-.9,1.89-1.9,2.32a13.31,13.31,0,0,1-5.71,1.06" style="fill:#EF5E49"></path><path d="M363.1,153.4a26,26,0,0,1-2.31-2.47,28.26,28.26,0,0,1-1.74-2.89,7.45,7.45,0,0,0,1.5,3.07A7.31,7.31,0,0,0,363.1,153.4Z" style="fill:#263238"></path><path d="M358.18,153.79a12.84,12.84,0,0,1,.18-2.73c.35-1.48,1-2.58.88-2.62a5.84,5.84,0,0,0-1.17,2.55A4.49,4.49,0,0,0,358.18,153.79Z" style="fill:#263238"></path><path d="M354.16,147.41a5,5,0,0,0,2.42,1.18,4.18,4.18,0,0,0,2.69-.11,12.56,12.56,0,0,1-2.62-.18A23.12,23.12,0,0,1,354.16,147.41Z" style="fill:#263238"></path><path d="M358.5,147.41a1,1,0,0,0-.52,1,1.08,1.08,0,0,0,.75.88,3,3,0,0,1,.44-.86,4.34,4.34,0,0,1-.67-1.05" style="fill:#fafafa"></path><path d="M357.64,140.64a3.45,3.45,0,0,0-.18,1.2,10.73,10.73,0,0,0,.27,2.91,10.84,10.84,0,0,0,1,2.73,3.57,3.57,0,0,0,.7,1,19.88,19.88,0,0,1-1.45-3.79A21.48,21.48,0,0,1,357.64,140.64Z" style="fill:#263238"></path><path d="M276.77,131.91a8.57,8.57,0,0,1,6.15,6.31c.13.6.14,1.35-.37,1.69s-1.27,0-1.79-.38a10.06,10.06,0,0,1-3.83-7,11.61,11.61,0,0,1-.61,6.67c-.33.8-.93,1.67-1.79,1.63s-1.35-.93-1.55-1.73a6.77,6.77,0,0,1,3.19-7.38,6.34,6.34,0,0,1-7.25.38c-.84-.54-1.59-1.59-1.11-2.46a2.12,2.12,0,0,1,1.52-.87,8.13,8.13,0,0,1,6.58,1.7,7.12,7.12,0,0,1-3.2-7.14,2.5,2.5,0,0,1,1.42-2.08c1.07-.34,2.12.58,2.71,1.53a9.3,9.3,0,0,1,.85,8,5.32,5.32,0,0,1,3.86-3.08c1.1-.21,2.54.2,2.73,1.31s-.91,1.89-1.9,2.32a13.15,13.15,0,0,1-5.71,1.05" style="fill:#EF5E49"></path><path d="M280.6,136.68a30.32,30.32,0,0,1-2.3-2.47,28.6,28.6,0,0,1-1.75-2.89,9.06,9.06,0,0,0,4.05,5.36Z" style="fill:#263238"></path><path d="M275.68,137.07a13.39,13.39,0,0,1,.19-2.74c.34-1.47,1-2.57.88-2.61a5.84,5.84,0,0,0-1.17,2.55A4.55,4.55,0,0,0,275.68,137.07Z" style="fill:#263238"></path><path d="M271.67,130.68a4.78,4.78,0,0,0,2.42,1.19,4.17,4.17,0,0,0,2.68-.12,11.83,11.83,0,0,1-2.62-.18A23.41,23.41,0,0,1,271.67,130.68Z" style="fill:#263238"></path><path d="M276,130.68a1.08,1.08,0,0,0-.51,1,1.05,1.05,0,0,0,.75.87,3.12,3.12,0,0,1,.44-.85,4.33,4.33,0,0,1-.68-1.06" style="fill:#fafafa"></path><path d="M275.14,123.92a3.66,3.66,0,0,0-.18,1.19,10.67,10.67,0,0,0,.27,2.91,11.06,11.06,0,0,0,1,2.74,3.69,3.69,0,0,0,.69,1,21.94,21.94,0,0,1-1.44-3.79A21,21,0,0,1,275.14,123.92Z" style="fill:#263238"></path><path d="M251.77,94a6.7,6.7,0,0,0-.67,6,51.72,51.72,0,0,0,2.55,5.69,29.6,29.6,0,0,0,2.49,5.38c2.1,3,5.79,4.3,9.24,5.45a27.69,27.69,0,0,0,1.56-5.84,9.4,9.4,0,0,0-1-5.86,33.48,33.48,0,0,0-3.15-3.7c-1.29-1.57-2.17-3.45-3.54-5a10.23,10.23,0,0,0-7.42-3.33" style="fill:#EF5E49"></path><path d="M264,115.68c-.27.09-1.85-5.57-5.25-11.89s-7.16-10.8-6.94-11a13.3,13.3,0,0,1,2.65,2.8,50.63,50.63,0,0,1,8.7,16.33A13,13,0,0,1,264,115.68Z" style="fill:#263238"></path><path d="M253.15,93.64a6.67,6.67,0,0,0,5.93,1,51.38,51.38,0,0,0,5.81-2.27,30,30,0,0,0,5.5-2.22c3.07-2,4.57-5.57,5.9-9a27.59,27.59,0,0,0-5.76-1.84,9.37,9.37,0,0,0-5.91.75,33.1,33.1,0,0,0-3.85,3c-1.63,1.21-3.55,2-5.12,3.29A10.32,10.32,0,0,0,252,93.56" style="fill:#EF5E49"></path><path d="M275.46,82.49c.07.28-5.65,1.58-12.13,4.66S252.18,93.77,252,93.54A13.22,13.22,0,0,1,254.93,91a51.06,51.06,0,0,1,16.74-7.89A12.43,12.43,0,0,1,275.46,82.49Z" style="fill:#263238"></path><path d="M250.74,92.76a6.66,6.66,0,0,0-2.91-5.25,54.42,54.42,0,0,0-5.38-3.15,29,29,0,0,0-5.15-2.94c-3.44-1.21-7.21-.14-10.69.92A27.56,27.56,0,0,0,228.74,88,9.3,9.3,0,0,0,233,92.17a34,34,0,0,0,4.72,1.19c2,.53,3.76,1.55,5.74,2a10.3,10.3,0,0,0,8-1.59" style="fill:#EF5E49"></path><path d="M228.17,82.17c.17-.23,4.74,3.45,11.17,6.63s12.11,4.65,12,4.93a13.11,13.11,0,0,1-3.78-.74A50.52,50.52,0,0,1,231,84.74,12.77,12.77,0,0,1,228.17,82.17Z" style="fill:#263238"></path><path d="M250.22,94.17c-2-.4-4.12.66-5.63,2.09a52.66,52.66,0,0,0-3.93,4.85,29.65,29.65,0,0,0-3.68,4.64c-1.7,3.22-1.22,7.11-.69,10.71a27.51,27.51,0,0,0,5.91-1.25,9.28,9.28,0,0,0,4.76-3.57,33.4,33.4,0,0,0,1.89-4.48c.82-1.86,2.09-3.49,2.82-5.39a10.28,10.28,0,0,0-.37-8.12" style="fill:#EF5E49"></path><path d="M236.35,114.9c-.2-.21,4.13-4.17,8.24-10.06s6.41-11.26,6.68-11.15a13,13,0,0,1-1.3,3.63,49.85,49.85,0,0,1-4.63,8.05,49.27,49.27,0,0,1-6,7.08A13.2,13.2,0,0,1,236.35,114.9Z" style="fill:#263238"></path><path d="M252.61,91.34a6.66,6.66,0,0,0,3.32-5,53.82,53.82,0,0,0,.32-6.23,29.41,29.41,0,0,0,.24-5.92c-.51-3.61-3.19-6.47-5.73-9.07a27.78,27.78,0,0,0-4,4.49A9.39,9.39,0,0,0,245,75.3,32.49,32.49,0,0,0,246.08,80c.43,2,.36,4.06.88,6A10.32,10.32,0,0,0,252,92.4" style="fill:#EF5E49"></path><path d="M251.63,66.42c.28.06-.89,5.81-.75,13s1.45,12.88,1.16,12.95a13.38,13.38,0,0,1-1.08-3.7,50.77,50.77,0,0,1-.3-18.5A13,13,0,0,1,251.63,66.42Z" style="fill:#263238"></path><path d="M254.87,93.88a2.5,2.5,0,1,1-1.65-3.13A2.5,2.5,0,0,1,254.87,93.88Z" style="fill:#fafafa"></path><path d="M205.84,400.61a38.83,38.83,0,0,0-1.9-44,39.18,39.18,0,0,0,.14,46.16" style="fill:#455a64"></path><path d="M203.53,390.62a6.07,6.07,0,0,0-.07-1.33c-.08-.85-.19-2.08-.31-3.6-.24-3.05-.45-7.26-.36-11.91s.49-8.86.86-11.89c.18-1.52.35-2.74.47-3.59a6.16,6.16,0,0,0,.12-1.32,6.57,6.57,0,0,0-.32,1.29c-.19.83-.4,2.05-.63,3.57a93.57,93.57,0,0,0-.51,23.88c.17,1.52.33,2.75.48,3.59A7.21,7.21,0,0,0,203.53,390.62Z" style="fill:#263238"></path><path d="M348.16,174.31a1.32,1.32,0,0,1,.09.29c.05.23.12.52.2.87s.19.85.28,1.42.17,1.22.28,2a44.93,44.93,0,0,1-.48,12.54,71.44,71.44,0,0,1-5.79,17.69c-3,6.37-7,13-11.11,19.91s-7.93,13.64-10.49,20.14a61.16,61.16,0,0,0-4.33,17.95,41.21,41.21,0,0,0,.92,12.41c.19.71.36,1.34.5,1.89s.33,1,.45,1.37l.27.85a1,1,0,0,1,.07.29,1.16,1.16,0,0,1-.13-.27c-.08-.22-.19-.49-.32-.83s-.33-.81-.5-1.35-.35-1.19-.56-1.9A40,40,0,0,1,316.4,267a60.44,60.44,0,0,1,4.24-18.11c2.56-6.56,6.35-13.31,10.49-20.25s8.16-13.51,11.12-19.84a72.61,72.61,0,0,0,5.88-17.53,46.74,46.74,0,0,0,.65-12.44c-.08-.73-.15-1.38-.22-2s-.17-1-.23-1.42-.1-.64-.14-.87A1.18,1.18,0,0,1,348.16,174.31Z" style="fill:#263238"></path><path d="M342.05,235c-.26-.23-.77-.12-1.19,0a21.12,21.12,0,0,0-8.83,5.7,14.82,14.82,0,0,0-4,8.43l.61-.28a17.43,17.43,0,0,0,8.08-5.2,42,42,0,0,0,5.16-7.51C342.12,235.74,342.35,235.23,342.05,235Z" style="fill:#EF5E49"></path><path d="M326.11,209.79c-.35,0-.61.49-.79.89A21,21,0,0,0,323.5,221a14.94,14.94,0,0,0,3.48,8.66l.21-.64a17.47,17.47,0,0,0,1.67-9.46,42,42,0,0,0-2-8.89C326.71,210.25,326.5,209.75,326.11,209.79Z" style="fill:#EF5E49"></path><path d="M336.27,240.22a4.57,4.57,0,0,1-.62,1.13,21.94,21.94,0,0,1-2.18,2.79c-2,2.26-5.2,4.83-8.55,7.84a25.62,25.62,0,0,0-6.82,9.11,20.41,20.41,0,0,0-1.07,4.63,4.54,4.54,0,0,1,0-1.3,12.41,12.41,0,0,1,.72-3.47c1-2.87,3.43-6.34,6.81-9.4s6.63-5.54,8.65-7.69S336.19,240.16,336.27,240.22Z" style="fill:#263238"></path><path d="M360,207.24c-.21-.27-.73-.26-1.17-.2a21.16,21.16,0,0,0-9.76,3.9,14.93,14.93,0,0,0-5.53,7.52l.65-.16a17.46,17.46,0,0,0,8.93-3.56,42.77,42.77,0,0,0,6.5-6.39C359.89,208,360.21,207.55,360,207.24Z" style="fill:#EF5E49"></path><path d="M353.3,211.28a4.79,4.79,0,0,1-.84,1,22.21,22.21,0,0,1-2.69,2.33c-2.38,1.85-6.08,3.77-10,6.11a28.45,28.45,0,0,0-8.14,8.09c-1.69,2.45-2.57,4.08-2.65,4a5.15,5.15,0,0,1,.52-1.2c.39-.74,1-1.81,1.79-3.07a26.79,26.79,0,0,1,8.17-8.35c3.93-2.37,7.61-4.21,10-5.95S353.22,211.21,353.3,211.28Z" style="fill:#263238"></path><path d="M366.05,164.09c-.3-.18-.78,0-1.17.24a21,21,0,0,0-7.67,7.19,14.85,14.85,0,0,0-2.41,9l.55-.38a17.4,17.4,0,0,0,7-6.57,41.56,41.56,0,0,0,3.73-8.32C366.25,164.83,366.38,164.29,366.05,164.09Z" style="fill:#EF5E49"></path><path d="M361.3,170.28a2.55,2.55,0,0,1-.26.9,17.74,17.74,0,0,1-1.08,2.3,45.77,45.77,0,0,1-4.86,6.82c-1,1.26-2,2.46-2.87,3.57a24,24,0,0,0-2,3.1c-1,1.85-1.49,3.09-1.58,3.06a2.88,2.88,0,0,1,.24-.91,18.63,18.63,0,0,1,1-2.34,20.93,20.93,0,0,1,2-3.23c.85-1.14,1.82-2.35,2.85-3.62a60.65,60.65,0,0,0,5-6.65C360.72,171.48,361.21,170.24,361.3,170.28Z" style="fill:#263238"></path><path d="M326.19,214.8a4.69,4.69,0,0,1,.31,1.22c.16.8.32,2,.46,3.4s.23,3.16.23,5.08a30.85,30.85,0,0,1-.58,6.22c-.25,1.11-.64,2.11-1,3.1l-1,2.83c-.6,1.81-1.09,3.44-1.46,4.83-.73,2.78-1,4.55-1.08,4.54a4.62,4.62,0,0,1,.08-1.26c.09-.8.29-2,.6-3.37s.78-3.08,1.35-4.9l.93-2.85c.31-1,.7-2,.93-3a31.85,31.85,0,0,0,.61-6.11c0-1.89,0-3.6-.1-5s-.19-2.59-.27-3.39A6.56,6.56,0,0,1,326.19,214.8Z" style="fill:#263238"></path><path d="M339.59,180.48c-.34.09-.52.58-.63,1a21.15,21.15,0,0,0-.11,10.51,15,15,0,0,0,4.85,8l.11-.66a17.54,17.54,0,0,0,.1-9.61,42.89,42.89,0,0,0-3.44-8.44C340.26,180.84,340,180.38,339.59,180.48Z" style="fill:#EF5E49"></path><path d="M340.24,185.47a12.59,12.59,0,0,1,1.33,3,49.9,49.9,0,0,1,2,7.7,25.9,25.9,0,0,1,.44,4.39,27.94,27.94,0,0,1-.32,3.58,18.19,18.19,0,0,1-.55,3.26,18.63,18.63,0,0,1,.14-3.3c.06-1,.24-2.22.2-3.53a31.75,31.75,0,0,0-.48-4.3,69.81,69.81,0,0,0-1.86-7.68C340.61,186.68,340.16,185.51,340.24,185.47Z" style="fill:#263238"></path><path d="M160.58,189.76a5,5,0,0,1,.38.78c.24.58.57,1.33,1,2.27.84,2,2.1,4.8,3.72,8.28s3.59,7.58,5.69,12.2a149.83,149.83,0,0,1,6.12,15.34,74.5,74.5,0,0,1,3.4,16.17,51.62,51.62,0,0,1-.49,13.49,38.08,38.08,0,0,1-2.59,8.72c-.39,1-.83,1.72-1.07,2.23a4.6,4.6,0,0,1-.43.74,4.72,4.72,0,0,1,.31-.8c.21-.53.61-1.26,1-2.27a41.38,41.38,0,0,0,2.37-8.7,52.51,52.51,0,0,0,.35-13.36,76,76,0,0,0-3.42-16,155.25,155.25,0,0,0-6.05-15.29c-2.09-4.6-4-8.75-5.57-12.26s-2.77-6.36-3.54-8.37c-.4-1-.67-1.78-.86-2.31A4.58,4.58,0,0,1,160.58,189.76Z" style="fill:#263238"></path><path d="M156.91,214.58c.31-.22.85,0,1.29.16a22.92,22.92,0,0,1,8.89,7.14,16.13,16.13,0,0,1,3.36,9.56l-.62-.37a18.86,18.86,0,0,1-8.14-6.53,45.5,45.5,0,0,1-4.73-8.69C156.75,215.39,156.56,214.82,156.91,214.58Z" style="fill:#EF5E49"></path><path d="M177,189.17c.37.08.6.6.75,1.06a22.88,22.88,0,0,1,.8,11.38,16.12,16.12,0,0,1-4.74,8.95l-.15-.71a19,19,0,0,1-.74-10.4,45.63,45.63,0,0,1,3.18-9.38C176.26,189.61,176.55,189.08,177,189.17Z" style="fill:#EF5E49"></path><path d="M162.56,220.89c.11-.06,1,1.76,2.95,4.28s5.15,5.62,8.47,9.28,5.58,7.71,6.29,10.92a13.27,13.27,0,0,1,.4,3.83,5,5,0,0,1-.2,1.39,21.4,21.4,0,0,0-.63-5.11c-.8-3.09-3.07-7-6.34-10.61s-6.48-6.77-8.35-9.43a25.15,25.15,0,0,1-2-3.26A6.16,6.16,0,0,1,162.56,220.89Z" style="fill:#263238"></path><path d="M140.69,182.61c.26-.27.82-.2,1.29-.08a22.9,22.9,0,0,1,10.1,5.31,16.15,16.15,0,0,1,5.12,8.74l-.68-.24a18.91,18.91,0,0,1-9.24-4.86,45.12,45.12,0,0,1-6.3-7.63C140.69,183.44,140.39,182.92,140.69,182.61Z" style="fill:#EF5E49"></path><path d="M147.44,187.73c.09-.08,1.28,1.56,3.73,3.66s6.19,4.55,10.16,7.55a29.14,29.14,0,0,1,7.89,9.94c.74,1.46,1.25,2.67,1.58,3.52a5.7,5.7,0,0,1,.43,1.35c-.1,0-.85-1.83-2.4-4.66a31.3,31.3,0,0,0-7.89-9.66c-3.92-3-7.7-5.44-10.06-7.71a24.59,24.59,0,0,1-2.65-2.82A5.26,5.26,0,0,1,147.44,187.73Z" style="fill:#263238"></path><path d="M176.31,194.58a6.39,6.39,0,0,1-.23,1.34c-.18.86-.42,2.1-.67,3.64s-.51,3.38-.69,5.43a35.18,35.18,0,0,0,0,6.66,33.87,33.87,0,0,0,.67,3.39c.23,1.1.46,2.16.68,3.18.41,2,.71,3.88.9,5.44s.26,2.84.27,3.71a5.27,5.27,0,0,1-.05,1.37c-.1,0-.18-1.93-.67-5-.23-1.54-.58-3.36-1-5.38l-.72-3.17c-.24-1.1-.54-2.22-.69-3.44a33.16,33.16,0,0,1,.08-6.79c.21-2.07.51-3.92.82-5.46s.62-2.78.87-3.62A5,5,0,0,1,176.31,194.58Z" style="fill:#263238"></path><path d="M178.62,295.44a57.72,57.72,0,0,1,2.45-12.32,21.13,21.13,0,0,1,7-10.21,42.94,42.94,0,0,1-9.51,22.62" style="fill:#455a64"></path><path d="M132.44,282.79c.08,0,.32.85,1.11,2.22a14.55,14.55,0,0,0,4.62,4.76,20.92,20.92,0,0,0,9.29,3.23,74.63,74.63,0,0,0,12.28.07,45.36,45.36,0,0,1,12.44.76,18,18,0,0,1,9,4.84,12.8,12.8,0,0,1,3.43,5.95,8.07,8.07,0,0,1,.24,1.86c0,.43,0,.65-.05.65s-.09-.9-.55-2.42a13,13,0,0,0-3.54-5.57,17.7,17.7,0,0,0-8.68-4.47,46.84,46.84,0,0,0-12.21-.66,70,70,0,0,1-12.43-.15,20.92,20.92,0,0,1-9.55-3.54,14,14,0,0,1-4.57-5.13,8.46,8.46,0,0,1-.68-1.75C132.44,283,132.4,282.8,132.44,282.79Z" style="fill:#263238"></path><path d="M131.14,277a40.36,40.36,0,0,1,.81-12.92,8.06,8.06,0,0,0,.33-2.48,2.44,2.44,0,0,0-1.26-2c-1-.45-2.23.12-3.3-.21-1.31-.41-1.83-1.93-2.43-3.17s-2-2.5-3.18-1.83c-1.42.78-.92,3.37-2.39,4-1,.48-2.22-.44-3.37-.34a2.56,2.56,0,0,0-2.11,2.25,6.22,6.22,0,0,0,.61,3.24c2.59,6.22,7.79,10.89,12.83,15.35l4.91,4.62Z" style="fill:#EF5E49"></path><path d="M132.8,284.13c-4.31-3-11.78-8.66-17-9.05a4.4,4.4,0,0,0-2.54.38,1.89,1.89,0,0,0-1,2.19c.46,1.16,2.33,1.49,2.42,2.74.09,1.42-2.31,2.24-1.93,3.61.2.7,1,1,1.76,1.08a3,3,0,0,1,2,.73c.72.9,0,2.27.39,3.35a2.32,2.32,0,0,0,2.68,1.26,6.08,6.08,0,0,0,2.74-1.65,27,27,0,0,1,4.18-3.46c1.56-.93,4.54-1.78,6.25-1.18" style="fill:#EF5E49"></path><path d="M132.87,283.83l-.25-.46c.48-5,1.71-13.69,4.4-17.35a4,4,0,0,1,1.81-1.56,1.75,1.75,0,0,1,2.12.66c.54,1-.36,2.55.48,3.37s3-.28,3.71.82a1.8,1.8,0,0,1-.3,1.9,2.75,2.75,0,0,0-.69,1.86c.19,1.05,1.59,1.38,2.13,2.3a2.18,2.18,0,0,1-.73,2.67,5.64,5.64,0,0,1-2.84.93,26.08,26.08,0,0,0-5,.86c-1.6.54-4.25,2.42-4.86,4" style="fill:#EF5E49"></path><path d="M143.68,274.82c0,.07-.82.18-2.07.59a14.11,14.11,0,0,0-4.48,2.47,15.43,15.43,0,0,0-3.32,3.9c-.68,1.13-1,1.91-1,1.89a1.56,1.56,0,0,1,.15-.57,9.36,9.36,0,0,1,.65-1.45,13.8,13.8,0,0,1,3.31-4.06,12.78,12.78,0,0,1,4.64-2.43,10.26,10.26,0,0,1,1.56-.32A1.93,1.93,0,0,1,143.68,274.82Z" style="fill:#263238"></path><path d="M139.2,270a21.54,21.54,0,0,1-1.29,1.82,31,31,0,0,0-2.69,4.6,31.45,31.45,0,0,0-1.85,5c-.36,1.32-.51,2.15-.57,2.15a1.6,1.6,0,0,1,0-.61,15.87,15.87,0,0,1,.29-1.61,24.84,24.84,0,0,1,4.58-9.7,14.59,14.59,0,0,1,1.06-1.25A2,2,0,0,1,139.2,270Z" style="fill:#263238"></path><path d="M132.52,284.1a19.49,19.49,0,0,1-2.26-.6,23.74,23.74,0,0,0-5.51-.9,12.86,12.86,0,0,0-5.43,1,21.67,21.67,0,0,0-2,1.13s.13-.19.45-.44a7.94,7.94,0,0,1,1.46-.93,12,12,0,0,1,5.55-1.16,19.89,19.89,0,0,1,5.58,1c.69.22,1.24.43,1.61.58A2.06,2.06,0,0,1,132.52,284.1Z" style="fill:#263238"></path><path d="M128.21,282.16a40.51,40.51,0,0,0-5.67-1.79,40.8,40.8,0,0,0-5.92-.55,6.53,6.53,0,0,1,1.76-.19,19.28,19.28,0,0,1,4.24.37,19.93,19.93,0,0,1,4,1.3A6.52,6.52,0,0,1,128.21,282.16Z" style="fill:#263238"></path><path d="M126.07,261.7a5.82,5.82,0,0,1,.09.91c0,.58.1,1.42.21,2.45a45.51,45.51,0,0,0,4.49,15.51c.46.93.85,1.67,1.13,2.18a3.39,3.39,0,0,1,.4.82,5,5,0,0,1-.52-.74c-.32-.49-.75-1.22-1.25-2.14a39.83,39.83,0,0,1-3.06-7.57,40.6,40.6,0,0,1-1.45-8,24.19,24.19,0,0,1-.09-2.48A3.49,3.49,0,0,1,126.07,261.7Z" style="fill:#263238"></path><path d="M130.79,281.18a3.22,3.22,0,0,1-.48-.57c-.3-.38-.7-.94-1.19-1.65-1-1.42-2.23-3.42-3.49-5.72s-2.26-4.45-2.93-6c-.33-.79-.59-1.44-.75-1.89a3.42,3.42,0,0,1-.22-.71,24.07,24.07,0,0,1,1.21,2.49c.73,1.55,1.77,3.67,3,6s2.48,4.31,3.39,5.75A24.26,24.26,0,0,1,130.79,281.18Z" style="fill:#263238"></path><path d="M148.6,293.5a23.14,23.14,0,0,0-9.55,6.32,39.2,39.2,0,0,0-6.39,9.6,68.51,68.51,0,0,0,9.15-6.59,22.57,22.57,0,0,0,6.42-9.13" style="fill:#455a64"></path><path d="M155.9,293.24a23.22,23.22,0,0,0-3.07-18.77c-.79,6.86-.1,12.63,3.07,18.77" style="fill:#455a64"></path><path d="M314.37,297.57a57.22,57.22,0,0,0-2.44-12.32,21.24,21.24,0,0,0-7-10.2,42.94,42.94,0,0,0,9.51,22.62" style="fill:#455a64"></path><path d="M365.11,282.79c-.09,0-.32.85-1.12,2.22a14.55,14.55,0,0,1-4.62,4.76,20.92,20.92,0,0,1-9.28,3.23,74.74,74.74,0,0,1-12.29.07,45.38,45.38,0,0,0-12.44.76,17.94,17.94,0,0,0-8.95,4.84,12.62,12.62,0,0,0-3.43,5.95,7.55,7.55,0,0,0-.24,1.86c0,.43,0,.65,0,.65s.1-.9.55-2.42a13.15,13.15,0,0,1,3.54-5.57,17.73,17.73,0,0,1,8.69-4.47,46.77,46.77,0,0,1,12.2-.66,70.11,70.11,0,0,0,12.44-.15,20.92,20.92,0,0,0,9.55-3.54,14.2,14.2,0,0,0,4.57-5.13,8.92,8.92,0,0,0,.67-1.75C365.1,283,365.14,282.8,365.11,282.79Z" style="fill:#263238"></path><path d="M366.4,277a40.08,40.08,0,0,0-.81-12.92,8.05,8.05,0,0,1-.32-2.48,2.43,2.43,0,0,1,1.25-2c1-.45,2.24.12,3.3-.21,1.32-.41,1.84-1.93,2.44-3.17s2-2.5,3.18-1.83c1.42.78.91,3.37,2.38,4,1.05.48,2.23-.44,3.37-.34a2.57,2.57,0,0,1,2.12,2.25,6.13,6.13,0,0,1-.62,3.24c-2.58,6.22-7.79,10.89-12.83,15.35L365,283.5Z" style="fill:#EF5E49"></path><path d="M364.75,284.13c4.3-3,11.77-8.66,17-9.05a4.37,4.37,0,0,1,2.53.38,1.88,1.88,0,0,1,1,2.19c-.46,1.16-2.32,1.49-2.41,2.74-.1,1.42,2.3,2.24,1.92,3.61-.2.7-1,1-1.75,1.08a3,3,0,0,0-2,.73c-.72.9,0,2.27-.38,3.35a2.34,2.34,0,0,1-2.69,1.26,6.08,6.08,0,0,1-2.74-1.65,26.5,26.5,0,0,0-4.18-3.46c-1.56-.93-4.53-1.78-6.24-1.18" style="fill:#EF5E49"></path><path d="M364.67,283.83l.25-.46c-.48-5-1.71-13.69-4.39-17.35a4.13,4.13,0,0,0-1.81-1.56,1.75,1.75,0,0,0-2.12.66c-.55,1,.35,2.55-.48,3.37s-3-.28-3.72.82a1.82,1.82,0,0,0,.3,1.9,2.76,2.76,0,0,1,.7,1.86c-.2,1.05-1.6,1.38-2.14,2.3A2.19,2.19,0,0,0,352,278a5.57,5.57,0,0,0,2.83.93,26,26,0,0,1,5,.86c1.6.54,4.24,2.42,4.85,4" style="fill:#EF5E49"></path><path d="M353.87,274.82c0,.07.81.18,2.06.59a14,14,0,0,1,4.48,2.47,15.49,15.49,0,0,1,3.33,3.9c.68,1.13,1,1.91,1,1.89a1.66,1.66,0,0,0-.14-.57,9.36,9.36,0,0,0-.65-1.45,13.86,13.86,0,0,0-3.32-4.06,12.63,12.63,0,0,0-4.64-2.43,10,10,0,0,0-1.56-.32A1.84,1.84,0,0,0,353.87,274.82Z" style="fill:#263238"></path><path d="M358.34,270s.51.7,1.29,1.82a30.19,30.19,0,0,1,2.69,4.6,31.45,31.45,0,0,1,1.85,5c.36,1.32.52,2.15.58,2.15a1.9,1.9,0,0,0,0-.61c-.05-.38-.14-.93-.29-1.61a25.22,25.22,0,0,0-4.58-9.7c-.43-.55-.79-1-1.06-1.25A2.11,2.11,0,0,0,358.34,270Z" style="fill:#263238"></path><path d="M365,284.1a19.71,19.71,0,0,0,2.25-.6,23.83,23.83,0,0,1,5.52-.9,12.78,12.78,0,0,1,5.42,1,21.19,21.19,0,0,1,2,1.13,1.76,1.76,0,0,0-.45-.44,8.31,8.31,0,0,0-1.46-.93,12,12,0,0,0-5.55-1.16,19.75,19.75,0,0,0-5.58,1c-.69.22-1.24.43-1.62.58A2.08,2.08,0,0,0,365,284.1Z" style="fill:#263238"></path><path d="M369.33,282.16a40.51,40.51,0,0,1,5.67-1.79,41,41,0,0,1,5.92-.55,6.41,6.41,0,0,0-1.75-.19,19.24,19.24,0,0,0-4.24.37,19.84,19.84,0,0,0-4.06,1.3A6.52,6.52,0,0,0,369.33,282.16Z" style="fill:#263238"></path><path d="M371.48,261.7a4.07,4.07,0,0,0-.1.91c0,.58-.1,1.42-.21,2.45a45.51,45.51,0,0,1-4.49,15.51c-.46.93-.85,1.67-1.13,2.18a4,4,0,0,0-.4.82,4.52,4.52,0,0,0,.53-.74c.32-.49.75-1.22,1.24-2.14a40,40,0,0,0,4.52-15.6c.07-1,.1-1.89.09-2.48A4.15,4.15,0,0,0,371.48,261.7Z" style="fill:#263238"></path><path d="M366.75,281.18a2.61,2.61,0,0,0,.49-.57c.29-.38.7-.94,1.18-1.65,1-1.42,2.24-3.42,3.5-5.72s2.26-4.45,2.92-6c.34-.79.59-1.44.76-1.89a2.46,2.46,0,0,0,.21-.71,26.93,26.93,0,0,0-1.21,2.49c-.73,1.55-1.76,3.67-3,6s-2.48,4.31-3.39,5.75S366.71,281.15,366.75,281.18Z" style="fill:#263238"></path><path d="M349,293.5a23.1,23.1,0,0,1,9.54,6.32,39.52,39.52,0,0,1,6.4,9.6,68.51,68.51,0,0,1-9.15-6.59,22.69,22.69,0,0,1-6.43-9.13" style="fill:#455a64"></path><path d="M341.65,293.24a23.25,23.25,0,0,1,3.06-18.77c.79,6.86.11,12.63-3.06,18.77" style="fill:#455a64"></path><path d="M165.88,368.2a15.14,15.14,0,0,1,4.05-4.62,18.41,18.41,0,0,1-13.15,2.32c-1.48-.3-3.16-1.1-3.28-2.62a4.09,4.09,0,0,1,1.39-2.85,48.41,48.41,0,0,1,9.85-8.33c-2-.41-4.13-.86-5.71-2.16s-2.45-3.73-1.36-5.54a6.41,6.41,0,0,1,2.66-2.16,45.38,45.38,0,0,1,21.16-5.31c3.88,0,7.91.57,11,2.82s6.31,5.85,4.77,9.48l.27-1.07a36.45,36.45,0,0,1-24.82,26.25c-2.12.61-4.65.92-6.23-.55S165,370.06,165.88,368.2Z" style="fill:#EF5E49"></path><path d="M169.49,364a7.62,7.62,0,0,0,1.07-.77l2.83-2.18c2.4-1.83,5.78-4.26,9.64-6.75s7.45-4.61,10-6.15l3.06-1.83a5.3,5.3,0,0,0,1.09-.74,7.33,7.33,0,0,0-1.18.55c-.75.39-1.83,1-3.15,1.69-2.64,1.46-6.26,3.53-10.14,6a112.74,112.74,0,0,0-9.59,6.9c-1.17,1-2.11,1.75-2.73,2.32A5.6,5.6,0,0,0,169.49,364Z" style="fill:#263238"></path><path d="M164,352a5.94,5.94,0,0,0,1.33.12c.85.05,2.09.06,3.62,0a72,72,0,0,0,23.57-4.47c1.45-.54,2.62-1,3.41-1.37a7.41,7.41,0,0,0,1.21-.59,5.86,5.86,0,0,0-1.28.4c-.81.3-2,.71-3.45,1.21a90.53,90.53,0,0,1-11.6,3.06A89.49,89.49,0,0,1,169,351.73c-1.53.07-2.76.11-3.62.13A5.94,5.94,0,0,0,164,352Z" style="fill:#263238"></path><g style="opacity:0.30000000000000004"><path d="M194.81,346.78c-7.93,5.41-18.29,8.4-27.24,5.29C177.7,351.52,187.29,350.32,194.81,346.78Z"></path></g><path d="M175.43,324.47c-.9-1.3-1.69-3-1.06-4.4a3.56,3.56,0,0,1,3.67-1.82,10.46,10.46,0,0,1,4,1.63,13.27,13.27,0,0,1-4.58-8.44c-.13-1.09,0-2.44,1-2.9a2.84,2.84,0,0,1,2.23.25,33.48,33.48,0,0,1,7.87,4.68,9.55,9.55,0,0,1,.14-4.45,3.27,3.27,0,0,1,3.42-2.3,4.43,4.43,0,0,1,2.06,1.29,32.48,32.48,0,0,1,8.43,13.18c.89,2.65,1.43,5.56.62,8.24s-2.49,5.78-5.28,5.62l.78-.08A25.15,25.15,0,0,1,175.43,324.47Z" style="fill:#EF5E49"></path><path d="M200.22,334.36a1.73,1.73,0,0,0-.17-.19l-.5-.51c-.22-.22-.48-.49-.78-.82s-.65-.68-1-1.1c-.74-.83-1.57-1.86-2.44-3a42.86,42.86,0,0,1-2.57-4,39.48,39.48,0,0,1-2.05-4.31,37.74,37.74,0,0,1-1.26-3.68c-.17-.53-.27-1-.38-1.45s-.2-.8-.26-1.1l-.15-.7a2.46,2.46,0,0,0-.07-.24.6.6,0,0,0,0,.25c0,.19.06.42.11.71s.11.68.21,1.11.19.93.35,1.47a32.89,32.89,0,0,0,1.21,3.72,36.46,36.46,0,0,0,4.65,8.37c.89,1.18,1.74,2.2,2.5,3,.37.41.73.76,1,1.08s.58.58.82.79l.53.48C200.14,334.32,200.21,334.37,200.22,334.36Z" style="fill:#263238"></path><path d="M193.26,325.64s-.14-.13-.42-.31-.68-.45-1.19-.76c-1-.62-2.46-1.45-4.08-2.29s-3.13-1.53-4.23-2l-1.31-.54a2.23,2.23,0,0,0-.5-.16,1.92,1.92,0,0,0,.46.25l1.28.61c1.08.52,2.56,1.23,4.18,2.07s3.06,1.63,4.11,2.21l1.23.69A3.32,3.32,0,0,0,193.26,325.64Z" style="fill:#263238"></path><path d="M188.61,313.47s-.93,7.49,4.24,11.66C192.85,325.13,189.27,319,188.61,313.47Z" style="opacity:0.30000000000000004"></path><path d="M209.7,432.1a3.54,3.54,0,0,0,.73,3.09,30.11,30.11,0,0,0,2.29,2.37,15.47,15.47,0,0,0,2.2,2.23c1.58,1.1,3.65,1.1,5.57,1a14.7,14.7,0,0,0-.27-3.18,5,5,0,0,0-1.57-2.73,17.38,17.38,0,0,0-2.23-1.27c-.92-.55-1.69-1.33-2.64-1.83a5.45,5.45,0,0,0-4.28-.33" style="fill:#EF5E49"></path><path d="M219.67,440.71c-.12.09-1.92-2.44-4.74-5s-5.49-4.09-5.41-4.22a7,7,0,0,1,1.82.91,27,27,0,0,1,7.24,6.56A6.64,6.64,0,0,1,219.67,440.71Z" style="fill:#263238"></path><path d="M210.33,431.7a3.53,3.53,0,0,0,3.12-.58,25.51,25.51,0,0,0,2.48-2.17,15.06,15.06,0,0,0,2.34-2.09c1.17-1.52,1.27-3.58,1.32-5.51a15.47,15.47,0,0,0-3.19.12,4.94,4.94,0,0,0-2.8,1.43,18,18,0,0,0-1.38,2.16c-.6.9-1.41,1.63-2,2.55a5.43,5.43,0,0,0-.53,4.26" style="fill:#EF5E49"></path><path d="M219.42,422.16c.08.13-2.53,1.8-5.19,4.49s-4.36,5.29-4.49,5.2a7.07,7.07,0,0,1,1-1.77,26.77,26.77,0,0,1,6.9-6.91A6.88,6.88,0,0,1,219.42,422.16Z" style="fill:#263238"></path><path d="M209,431.69a3.56,3.56,0,0,0-2.39-2.09,29.34,29.34,0,0,0-3.24-.6,15.63,15.63,0,0,0-3.09-.54c-1.92,0-3.6,1.22-5.14,2.37a14.68,14.68,0,0,0,2.07,2.44,4.94,4.94,0,0,0,2.85,1.31,18.49,18.49,0,0,0,2.56-.25c1.07-.09,2.15.09,3.21-.05a5.4,5.4,0,0,0,3.68-2.22" style="fill:#EF5E49"></path><path d="M195.86,430.47c0-.15,3,.87,6.74,1.3s6.85.14,6.86.29a6.73,6.73,0,0,1-2,.31,27,27,0,0,1-4.9-.12,26.31,26.31,0,0,1-4.81-1A6.94,6.94,0,0,1,195.86,430.47Z" style="fill:#263238"></path><path d="M209,432.49a3.54,3.54,0,0,0-2.43,2,28,28,0,0,0-1.08,3.12,15.87,15.87,0,0,0-1,3c-.27,1.91.67,3.75,1.57,5.45a15.43,15.43,0,0,0,2.72-1.68,5,5,0,0,0,1.73-2.63,18.22,18.22,0,0,0,.13-2.56c.07-1.07.42-2.11.44-3.18a5.42,5.42,0,0,0-1.64-4" style="fill:#EF5E49"></path><path d="M205.79,445.27c-.14-.07,1.3-2.81,2.29-6.47s1.17-6.75,1.32-6.74a7,7,0,0,1,0,2,26.93,26.93,0,0,1-2.58,9.42A7.08,7.08,0,0,1,205.79,445.27Z" style="fill:#263238"></path><path d="M209.65,430.66a3.51,3.51,0,0,0,.75-3.09,27.73,27.73,0,0,0-1-3.15,15.5,15.5,0,0,0-.94-3c-.9-1.7-2.74-2.64-4.48-3.47a14.5,14.5,0,0,0-1.2,3,4.89,4.89,0,0,0,.15,3.14,15.84,15.84,0,0,0,1.4,2.15c.57.91.9,2,1.52,2.83a5.41,5.41,0,0,0,3.66,2.25" style="fill:#EF5E49"></path><path d="M204.7,418.45c.15,0,.6,3,2,6.58s3,6.14,2.9,6.22a6.67,6.67,0,0,1-1.2-1.64,26.79,26.79,0,0,1-3.46-9.14A6.65,6.65,0,0,1,204.7,418.45Z" style="fill:#263238"></path><path d="M211.23,431.51a1.32,1.32,0,1,1-2.64.12,1.32,1.32,0,0,1,2.64-.12Z" style="fill:#fafafa"></path><path d="M290.62,433.26a3.57,3.57,0,0,0-1.35,2.87,27.8,27.8,0,0,0,.32,3.28,15.44,15.44,0,0,0,.33,3.12c.55,1.84,2.17,3.13,3.7,4.29a15.19,15.19,0,0,0,1.77-2.66,5,5,0,0,0,.47-3.11,18,18,0,0,0-.95-2.39c-.38-1-.5-2.09-.93-3.07a5.37,5.37,0,0,0-3.15-2.92" style="fill:#EF5E49"></path><path d="M293.06,446.21c-.15,0,0-3.1-.61-6.84s-1.75-6.62-1.61-6.68a6.67,6.67,0,0,1,.85,1.85,25.9,25.9,0,0,1,1.24,4.75,26.24,26.24,0,0,1,.35,4.89A6.3,6.3,0,0,1,293.06,446.21Z" style="fill:#263238"></path><path d="M291.36,433.34a3.53,3.53,0,0,0,2.81,1.49,28,28,0,0,0,3.29-.15,15.44,15.44,0,0,0,3.12-.18c1.87-.46,3.24-2,4.47-3.49a14.79,14.79,0,0,0-2.57-1.89,4.92,4.92,0,0,0-3.08-.63,18.33,18.33,0,0,0-2.43.83c-1,.33-2.11.4-3.11.78a5.44,5.44,0,0,0-3.08,3" style="fill:#EF5E49"></path><path d="M304.41,431.54c0,.15-3.09-.17-6.86.28s-6.69,1.42-6.74,1.28a6.74,6.74,0,0,1,1.88-.77,27.38,27.38,0,0,1,4.81-1,26,26,0,0,1,4.9-.11A6.81,6.81,0,0,1,304.41,431.54Z" style="fill:#263238"></path><path d="M290.31,432.49a3.53,3.53,0,0,0-.57-3.12,28.33,28.33,0,0,0-2.16-2.49,15,15,0,0,0-2.08-2.34c-1.51-1.18-3.58-1.29-5.5-1.35a14.77,14.77,0,0,0,.1,3.19,5,5,0,0,0,1.42,2.81,18.05,18.05,0,0,0,2.16,1.39c.89.6,1.62,1.41,2.54,2a5.39,5.39,0,0,0,4.26.56" style="fill:#EF5E49"></path><path d="M280.81,423.37c.12-.09,1.78,2.53,4.47,5.21s5.26,4.37,5.18,4.5a6.88,6.88,0,0,1-1.77-1,26.47,26.47,0,0,1-3.76-3.15,26.85,26.85,0,0,1-3.13-3.78A6.91,6.91,0,0,1,280.81,423.37Z" style="fill:#263238"></path><path d="M289.81,433.11a3.51,3.51,0,0,0-3.17.09,27.19,27.19,0,0,0-2.79,1.76,15.36,15.36,0,0,0-2.63,1.7c-1.4,1.32-1.81,3.35-2.16,5.24a14.84,14.84,0,0,0,3.17.38,5,5,0,0,0,3-1,17.38,17.38,0,0,0,1.7-1.93c.72-.79,1.64-1.39,2.33-2.21a5.42,5.42,0,0,0,1.18-4.13" style="fill:#EF5E49"></path><path d="M279.36,441.13c-.07-.14,2.77-1.39,5.82-3.64s5.12-4.55,5.23-4.44a6.51,6.51,0,0,1-1.26,1.59,26.7,26.7,0,0,1-7.89,5.77A7.48,7.48,0,0,1,279.36,441.13Z" style="fill:#263238"></path><path d="M291.48,432.1a3.52,3.52,0,0,0,2.51-1.94,29.27,29.27,0,0,0,1.22-3.07,15.43,15.43,0,0,0,1.12-2.92c.35-1.89-.5-3.77-1.34-5.51a15.18,15.18,0,0,0-2.78,1.57,4.94,4.94,0,0,0-1.84,2.55,16.68,16.68,0,0,0-.24,2.55c-.12,1.07-.51,2.09-.58,3.16a5.44,5.44,0,0,0,1.47,4" style="fill:#EF5E49"></path><path d="M295.21,419.46c.13.08-1.43,2.76-2.57,6.37s-1.46,6.69-1.61,6.67a6.77,6.77,0,0,1,.08-2,26.29,26.29,0,0,1,1.07-4.79,25.81,25.81,0,0,1,1.92-4.52A6.93,6.93,0,0,1,295.21,419.46Z" style="fill:#263238"></path><path d="M292.18,433.75A1.32,1.32,0,0,1,290,432.2a1.32,1.32,0,1,1,2.14,1.55Z" style="fill:#fafafa"></path><path d="M323.37,371.36a15.14,15.14,0,0,0-4.05-4.62,18.41,18.41,0,0,0,13.15,2.32c1.48-.3,3.16-1.1,3.28-2.62a4.07,4.07,0,0,0-1.4-2.85,48.09,48.09,0,0,0-9.84-8.33,12.8,12.8,0,0,0,5.71-2.16c1.58-1.3,2.45-3.73,1.36-5.54a6.47,6.47,0,0,0-2.66-2.16,45.42,45.42,0,0,0-21.17-5.31c-3.87,0-7.9.57-11,2.82s-6.31,5.85-4.78,9.48l-.26-1.07a36.45,36.45,0,0,0,24.82,26.25c2.12.61,4.64.92,6.23-.55S324.25,373.22,323.37,371.36Z" style="fill:#EF5E49"></path><path d="M319.76,367.13a7.62,7.62,0,0,1-1.07-.77l-2.83-2.18c-2.4-1.83-5.78-4.26-9.64-6.75s-7.45-4.61-10-6.15l-3.06-1.83a6.79,6.79,0,0,1-1.1-.74,6.73,6.73,0,0,1,1.19.55c.75.39,1.83,1,3.15,1.69,2.64,1.46,6.26,3.53,10.13,6a111.51,111.51,0,0,1,9.6,6.9c1.17,1,2.11,1.75,2.73,2.32A5.6,5.6,0,0,1,319.76,367.13Z" style="fill:#263238"></path><path d="M325.21,355.11a5.94,5.94,0,0,1-1.33.12c-.85,0-2.09.06-3.62,0a72,72,0,0,1-23.57-4.47c-1.46-.54-2.62-1-3.41-1.37a7.41,7.41,0,0,1-1.21-.59,6,6,0,0,1,1.28.4c.81.3,2,.71,3.45,1.21a90.53,90.53,0,0,0,11.6,3.06,89.31,89.31,0,0,0,11.86,1.38c1.52.07,2.76.11,3.61.13A6.09,6.09,0,0,1,325.21,355.11Z" style="fill:#263238"></path><g style="opacity:0.30000000000000004"><path d="M294.44,349.94c7.93,5.41,18.29,8.4,27.24,5.29C311.55,354.68,302,353.48,294.44,349.94Z"></path></g><path d="M320.16,325.37c.89-1.3,1.68-2.95,1.06-4.4a3.56,3.56,0,0,0-3.67-1.81,10.33,10.33,0,0,0-4,1.62,13.13,13.13,0,0,0,4.58-8.44c.13-1.08,0-2.43-1-2.89a2.8,2.8,0,0,0-2.23.25,33.48,33.48,0,0,0-7.87,4.68,9.54,9.54,0,0,0-.14-4.45,3.28,3.28,0,0,0-3.42-2.31,4.46,4.46,0,0,0-2.06,1.29,32.45,32.45,0,0,0-8.43,13.19c-.89,2.65-1.43,5.55-.62,8.23s2.48,5.78,5.28,5.63l-.78-.09A25.12,25.12,0,0,0,320.16,325.37Z" style="fill:#EF5E49"></path><path d="M295.37,335.27s.05-.08.16-.19l.5-.52c.22-.22.49-.49.79-.81s.65-.68,1-1.11c.74-.83,1.57-1.85,2.44-3a38.49,38.49,0,0,0,4.62-8.32,37.84,37.84,0,0,0,1.26-3.69c.16-.52.27-1,.38-1.44s.19-.8.25-1.1.12-.52.16-.7.06-.25.07-.24a.87.87,0,0,1,0,.24c0,.2-.07.43-.11.71s-.11.69-.21,1.12-.2.93-.35,1.46a35.42,35.42,0,0,1-1.22,3.73,37.77,37.77,0,0,1-2,4.33,39.06,39.06,0,0,1-2.61,4,37.29,37.29,0,0,1-2.49,3c-.37.42-.73.77-1,1.09s-.59.57-.82.78l-.53.48Z" style="fill:#263238"></path><path d="M302.32,326.54a2.53,2.53,0,0,1,.42-.31c.28-.19.69-.44,1.2-.76,1-.62,2.46-1.44,4.08-2.28s3.13-1.53,4.23-2c.55-.24,1-.42,1.31-.54a1.83,1.83,0,0,1,.49-.16,2.38,2.38,0,0,1-.45.25l-1.28.61c-1.08.51-2.57,1.23-4.19,2.06s-3.06,1.63-4.1,2.22l-1.24.69A1.58,1.58,0,0,1,302.32,326.54Z" style="fill:#263238"></path><path d="M307,314.38s.93,7.48-4.25,11.65C302.73,326,306.32,319.91,307,314.38Z" style="opacity:0.30000000000000004"></path><path d="M294.73,413.59a38.83,38.83,0,0,1,1.9-44,39.18,39.18,0,0,1-.14,46.16" style="fill:#455a64"></path><path d="M297,403.6a6.07,6.07,0,0,1,.07-1.33c.08-.85.19-2.08.31-3.6.24-3.05.45-7.26.36-11.91s-.49-8.86-.86-11.89c-.18-1.52-.35-2.74-.47-3.59a6.16,6.16,0,0,1-.12-1.32,6.57,6.57,0,0,1,.32,1.29c.18.84.4,2.06.63,3.57a94.84,94.84,0,0,1,1,11.93,96.6,96.6,0,0,1-.51,11.95c-.17,1.52-.34,2.75-.48,3.6A7.21,7.21,0,0,1,297,403.6Z" style="fill:#263238"></path></g></svg>