<svg xmlns="http://www.w3.org/2000/svg" viewBox="0 0 500 500"><g id="freepik--Plants--inject-799"><path d="M445.21,381.12c-3.31,1-11-.15-11-.16s2.28-4.82,2.47-5.11c2.12-3.31,8.18-8.47,12.45-7.34a5.22,5.22,0,0,1,3.34,7C451.4,378.44,448,380.29,445.21,381.12Z" style="fill:#263238"></path><path d="M373.68,377.91c-.07,0-.76-5.28-.76-5.62-.06-3.94,2.15-11.58,6.33-13a5.22,5.22,0,0,1,6.66,4c.69,3-1.09,6.43-3,8.69C380.7,374.63,373.68,377.91,373.68,377.91Z" style="fill:#263238"></path><path d="M357.28,363.7c2.31,1.29,7.77,1.85,9.13,2,.67.92,1.39,1.92,2.15,3,1.32,2,2.8,4.23,4.24,6.79.39.67.77,1.42,1.16,2.14-.9-1.07-2.17-2.53-2.3-2.66-2.55-2.34-8.85-5.38-12.22-3.48a4.59,4.59,0,0,0-1.29,6.71c1.58,2.24,4.85,3.06,7.43,3.14s7.92-2,9.06-2.46c.84,1.6,1.66,3.26,2.41,5a59.16,59.16,0,0,1,3.36,10l-.2.09c-.72-1.09-2.27-3.35-2.42-3.52-2.27-2.61-8.2-6.32-11.77-4.8a4.6,4.6,0,0,0-2,6.53c1.32,2.39,4.48,3.57,7,3.94,2.95.42,9.25-1.45,9.49-1.52A79.9,79.9,0,0,1,382,405c.21,2.58.33,5.2.41,7.84-.48-.78-2.52-3.75-2.69-3.95-2.27-2.61-8.19-6.32-11.76-4.8a4.6,4.6,0,0,0-2,6.53c1.33,2.39,4.49,3.57,7,3.94,2.88.41,8.92-1.36,9.43-1.51,0,1.2.08,2.39.11,3.59.1,3.91.18,7.84.38,11.7.07,1.34.19,2.66.3,4-.76-1.14-2.18-3.2-2.32-3.36-2.27-2.62-8.2-6.33-11.76-4.8a4.58,4.58,0,0,0-2,6.52c1.32,2.4,4.48,3.57,7,3.94s7.69-1,9.12-1.42c.2,2.2.45,4.38.8,6.51.17.91.28,1.86.5,2.72s.38,1.76.58,2.62c.45,1.77.88,3.42,1.35,5.05.23.83.46,1.61.7,2.41-.59-1.27-1.57-3.28-1.68-3.45-1.85-2.93-7.14-7.5-10.9-6.53a4.59,4.59,0,0,0-3,6.14c.95,2.57,3.89,4.22,6.37,5,2.72.82,8.76,0,9.5-.06.59,2,1.18,3.87,1.76,5.64.47,1.45.94,2.81,1.39,4.11h2.55c-.57-1.51-1.16-3.12-1.76-4.85s-1.14-3.28-1.7-5c.68-.27,5.93-2.41,8.06-4.41a52.36,52.36,0,0,0,5.11,2.87c-.59,2-1.15,3.87-1.64,5.67-.56,2-1.06,4-1.5,5.75h2.49c.37-1.63.77-3.33,1.23-5.17.41-1.63.87-3.36,1.36-5.13.74.15,6.7,1.35,9.48.71,2.52-.57,5.57-2,6.69-4.5a4.59,4.59,0,0,0-2.55-6.34c-3.68-1.23-9.28,3-11.32,5.75-.14.18-1.45,2.47-2.09,3.65.3-1.07.59-2.13.92-3.24.46-1.6,1-3.27,1.52-4.89l.91-2.52c.29-.87.67-1.65,1-2.49.52-1.22,1.11-2.46,1.71-3.69,1.59.57,6.31,2.16,8.81,2s5.81-1.14,7.3-3.44a4.59,4.59,0,0,0-1.56-6.65c-3.45-1.77-9.62,1.53-12.07,4-.08.08-.54.66-1.09,1.34.62-1.19,1.23-2.37,1.89-3.55,1.88-3.35,3.89-6.7,5.9-10.06l1.24-2.12c1.34.49,6.44,2.26,9.05,2.07s5.82-1.14,7.3-3.44a4.59,4.59,0,0,0-1.55-6.65c-3.45-1.77-9.62,1.52-12.07,4-.09.09-.64.77-1.25,1.54,1.06-1.84,2.1-3.69,3.07-5.56a80.61,80.61,0,0,0,4.41-9.9c.47.17,6.4,2.37,9.31,2.16,2.58-.19,5.81-1.15,7.3-3.45a4.57,4.57,0,0,0-1.56-6.64c-3.45-1.77-9.62,1.52-12.06,4-.18.17-2.16,2.66-2.83,3.57,0,0,0-.08,0-.12a60.48,60.48,0,0,0,2.52-10.34,83.41,83.41,0,0,0,.91-9.46c.14-2.94.09-5.64,0-8-.05-1.29-.11-2.47-.19-3.58l.07.06c.05,0,1.68-4.38,1.75-4.67.81-3.37.41-10.35-2.9-12.37a4.59,4.59,0,0,0-6.49,2.13c-1.18,2.47-.31,5.72.87,8s5.46,5.84,6.52,6.69c.05,1.15.1,2.37.11,3.73,0,2.38,0,5.07-.2,8-.05.77-.14,1.61-.21,2.42-.17-1.39-.42-3.3-.46-3.48-.83-3.36-4.41-9.37-8.27-9.65a4.6,4.6,0,0,0-4.78,4.89c.09,2.73,2.36,5.22,4.47,6.72s7.71,2.7,8.92,2.94c-.19,1.79-.42,3.63-.78,5.54a58.5,58.5,0,0,1-2.71,10.18l-.22,0c0-1.31,0-4.05-.07-4.28-.46-3.43-3.35-9.79-7.17-10.49a4.6,4.6,0,0,0-5.28,4.33c-.21,2.73,1.77,5.45,3.7,7.17,2.23,2,8.52,3.9,8.76,4a82.85,82.85,0,0,1-4.48,9.47c-1.25,2.27-2.6,4.52-4,6.77,0-.92,0-4.52-.07-4.77-.45-3.44-3.35-9.8-7.16-10.5a4.59,4.59,0,0,0-5.28,4.33c-.22,2.73,1.76,5.45,3.7,7.17,2.17,1.94,8.19,3.8,8.69,3.95-.62,1-1.24,2-1.88,3.06-2.08,3.31-4.17,6.63-6.14,10-.68,1.15-1.31,2.32-2,3.48,0-1.37,0-3.87-.08-4.09-.45-3.43-3.34-9.8-7.16-10.49a4.59,4.59,0,0,0-5.28,4.33c-.22,2.73,1.77,5.45,3.7,7.17s7,3.4,8.39,3.85c-1.05,1.94-2,3.89-2.92,5.86-.37.86-.79,1.71-1.09,2.55s-.65,1.68-1,2.5c-.6,1.73-1.15,3.34-1.67,5-.26.82-.49,1.6-.74,2.4.21-1.39.5-3.6.51-3.81.07-3.46-1.83-10.19-5.49-11.45a4.6,4.6,0,0,0-5.88,3.48,4.81,4.81,0,0,0-.13,1,17.84,17.84,0,0,0-3,8.48c0,.22.15,2.85.27,4.19-.34-1.06-.68-2.11-1-3.21-.49-1.59-1-3.28-1.43-4.92l-.63-2.6c-.24-.88-.36-1.75-.54-2.64-.24-1.3-.43-2.65-.61-4,1.65-.4,6.46-1.68,8.44-3.21S398,428,398,425.27a4.58,4.58,0,0,0-5-4.69c-3.85.43-7.18,6.58-7.87,10,0,.11-.1.84-.17,1.71-.14-1.33-.29-2.65-.39-4-.28-3.83-.44-7.73-.63-11.65,0-.81-.09-1.63-.13-2.44,1.39-.34,6.62-1.67,8.69-3.28s4.22-4.16,4.19-6.89a4.59,4.59,0,0,0-5-4.69c-3.86.43-7.19,6.58-7.88,10,0,.12-.11,1-.19,2-.13-2.13-.29-4.25-.51-6.34a81.08,81.08,0,0,0-1.78-10.69c.49-.11,6.65-1.56,9-3.34,2-1.58,4.21-4.16,4.19-6.89a4.6,4.6,0,0,0-5-4.69c-3.86.43-7.18,6.58-7.88,10,0,.24-.32,3.41-.39,4.54,0,0,0-.08,0-.12a60.52,60.52,0,0,0-3.61-10,81.77,81.77,0,0,0-4.46-8.4c-1.5-2.53-3-4.76-4.41-6.71-.75-1.06-1.45-2-2.12-2.88h.08c.07,0-1-4.57-1.11-4.86-1.18-3.25-5.37-8.85-9.24-8.72a4.6,4.6,0,0,0-4.24,5.36C352.5,360.19,355,362.43,357.28,363.7Z" style="fill:#263238"></path><path d="M337.66,420.69c-1.72.51-5.69-.08-5.7-.08s1.19-2.5,1.28-2.65c1.11-1.72,4.25-4.4,6.46-3.81a2.7,2.7,0,0,1,1.74,3.63C340.87,419.3,339.12,420.26,337.66,420.69Z" style="fill:#263238"></path><path d="M300.55,419s-.4-2.74-.4-2.92c0-2.05,1.12-6,3.29-6.74a2.7,2.7,0,0,1,3.45,2.07c.36,1.58-.56,3.34-1.55,4.51C304.19,417.32,300.55,419,300.55,419Z" style="fill:#263238"></path><path d="M292,411.65a16.21,16.21,0,0,0,4.74,1c.35.48.72,1,1.11,1.58.69,1,1.46,2.19,2.2,3.52.2.35.4.73.61,1.11-.47-.56-1.13-1.31-1.2-1.38-1.32-1.22-4.59-2.79-6.34-1.81a2.39,2.39,0,0,0-.67,3.48,5,5,0,0,0,3.86,1.63,15.66,15.66,0,0,0,4.7-1.28c.43.83.86,1.7,1.25,2.62a30.69,30.69,0,0,1,1.74,5.19l-.11,0c-.37-.56-1.17-1.73-1.25-1.82-1.18-1.36-4.25-3.29-6.1-2.49a2.37,2.37,0,0,0-1.05,3.38,5,5,0,0,0,3.66,2c1.53.22,4.79-.75,4.92-.78a42,42,0,0,1,.77,5.38c.11,1.34.17,2.7.22,4.06-.25-.4-1.31-1.94-1.4-2-1.18-1.36-4.25-3.28-6.1-2.49a2.38,2.38,0,0,0-1.05,3.38,5,5,0,0,0,3.65,2.05c1.5.21,4.63-.71,4.9-.78l.06,1.86c0,2,.09,4.06.19,6.07,0,.69.1,1.38.16,2.06-.4-.59-1.13-1.66-1.21-1.74-1.17-1.36-4.25-3.28-6.1-2.49a2.37,2.37,0,0,0-1,3.38,5,5,0,0,0,3.65,2,15.41,15.41,0,0,0,4.73-.73c.11,1.14.23,2.27.41,3.37.09.48.15,1,.26,1.42l.3,1.36c.24.91.46,1.77.7,2.62.12.43.25.83.37,1.25-.31-.66-.81-1.7-.87-1.79-1-1.52-3.71-3.89-5.66-3.39a2.38,2.38,0,0,0-1.54,3.19,5,5,0,0,0,3.3,2.57,16,16,0,0,0,4.93,0c.3,1,.61,2,.91,2.93.25.75.49,1.45.72,2.13h1.33c-.3-.78-.6-1.62-.92-2.51s-.59-1.71-.88-2.61a18.18,18.18,0,0,0,4.19-2.29,25.63,25.63,0,0,0,2.65,1.48c-.31,1-.6,2-.86,2.95s-.55,2.05-.78,3h1.3c.19-.84.4-1.73.64-2.68s.45-1.75.7-2.66a16.68,16.68,0,0,0,4.92.37,5,5,0,0,0,3.47-2.34,2.39,2.39,0,0,0-1.32-3.29c-1.91-.63-4.81,1.54-5.88,3-.07.09-.75,1.27-1.08,1.89.15-.56.31-1.11.48-1.68.24-.83.52-1.7.79-2.54.15-.43.31-.87.47-1.31s.34-.85.52-1.29c.27-.63.58-1.27.88-1.91a15.24,15.24,0,0,0,4.57,1,5,5,0,0,0,3.79-1.78,2.38,2.38,0,0,0-.81-3.45c-1.79-.92-5,.79-6.26,2.06l-.56.69c.32-.61.63-1.23,1-1.84,1-1.74,2-3.47,3.06-5.22l.64-1.1a15.83,15.83,0,0,0,4.7,1.08,5,5,0,0,0,3.79-1.79,2.39,2.39,0,0,0-.81-3.45c-1.79-.92-5,.79-6.26,2.06-.05.05-.34.4-.65.8.55-1,1.09-1.92,1.59-2.89a40.7,40.7,0,0,0,2.29-5.13c.24.09,3.32,1.23,4.83,1.12a5,5,0,0,0,3.79-1.79,2.39,2.39,0,0,0-.81-3.45c-1.79-.91-5,.79-6.26,2.06-.09.09-1.12,1.38-1.47,1.86a.14.14,0,0,0,0-.07,30.52,30.52,0,0,0,1.31-5.36,42.67,42.67,0,0,0,.47-4.91c.07-1.52.05-2.93,0-4.16,0-.67-.06-1.29-.1-1.86l0,0s.88-2.27.91-2.42c.43-1.75.22-5.37-1.5-6.42a2.38,2.38,0,0,0-3.37,1.1,5,5,0,0,0,.45,4.17,16,16,0,0,0,3.39,3.47c0,.59.05,1.23.06,1.93,0,1.24,0,2.63-.11,4.15,0,.4-.07.84-.11,1.26-.09-.72-.22-1.71-.24-1.81-.43-1.74-2.28-4.86-4.29-5a2.38,2.38,0,0,0-2.48,2.53,5,5,0,0,0,2.32,3.49,15.85,15.85,0,0,0,4.63,1.52c-.1.93-.22,1.89-.41,2.88a30.18,30.18,0,0,1-1.4,5.28l-.12,0c0-.67,0-2.1,0-2.21-.23-1.78-1.73-5.09-3.71-5.45a2.38,2.38,0,0,0-2.74,2.25,5,5,0,0,0,1.92,3.72c1.15,1,4.42,2,4.54,2.06a41.94,41.94,0,0,1-2.32,4.91c-.65,1.18-1.35,2.35-2.07,3.51,0-.47,0-2.34,0-2.47-.24-1.78-1.74-5.09-3.72-5.45a2.38,2.38,0,0,0-2.74,2.25,5,5,0,0,0,1.92,3.72c1.13,1,4.25,2,4.51,2.05-.32.53-.65,1.05-1,1.58-1.07,1.72-2.16,3.44-3.18,5.17-.36.6-.68,1.21-1,1.81,0-.71,0-2,0-2.12-.24-1.78-1.74-5.08-3.72-5.44a2.38,2.38,0,0,0-2.74,2.24,5,5,0,0,0,1.92,3.72,15.52,15.52,0,0,0,4.35,2c-.54,1-1.05,2-1.51,3-.19.45-.41.89-.57,1.33l-.5,1.29c-.3.9-.59,1.73-.86,2.58-.14.42-.25.83-.38,1.24.11-.72.26-1.87.26-2,0-1.8-.95-5.29-2.85-5.95a2.38,2.38,0,0,0-3.05,1.81,3,3,0,0,0-.07.52,9.24,9.24,0,0,0-1.56,4.39c0,.12.08,1.48.14,2.18-.17-.55-.35-1.09-.53-1.67-.25-.82-.5-1.7-.74-2.55q-.17-.66-.33-1.35c-.12-.45-.18-.9-.28-1.36-.12-.68-.22-1.38-.31-2.09a15.32,15.32,0,0,0,4.38-1.66,5,5,0,0,0,2.17-3.58,2.38,2.38,0,0,0-2.58-2.43c-2,.22-3.72,3.41-4.08,5.17,0,.06-.05.44-.09.89-.07-.69-.15-1.37-.2-2.07-.15-2-.23-4-.33-6l-.06-1.27a15.54,15.54,0,0,0,4.5-1.69,5,5,0,0,0,2.18-3.58,2.38,2.38,0,0,0-2.58-2.43c-2,.22-3.73,3.41-4.08,5.17,0,.06-.06.52-.1,1-.07-1.1-.15-2.2-.27-3.29a41,41,0,0,0-.92-5.54c.25-.06,3.45-.81,4.64-1.73a5,5,0,0,0,2.18-3.58,2.38,2.38,0,0,0-2.58-2.43c-2,.22-3.73,3.41-4.08,5.17,0,.13-.17,1.77-.21,2.36a.17.17,0,0,0,0-.07A31.42,31.42,0,0,0,302.6,422a41,41,0,0,0-2.32-4.36c-.78-1.31-1.57-2.46-2.28-3.48-.39-.55-.76-1-1.1-1.49h0s-.53-2.38-.58-2.52c-.61-1.69-2.78-4.6-4.79-4.53a2.39,2.39,0,0,0-2.2,2.78A5,5,0,0,0,292,411.65Z" style="fill:#263238"></path></g><g id="freepik--Calendar--inject-799"><g style="opacity:0.30000000000000004"><path d="M210.61,323.51a.51.51,0,0,1-.49-.4.49.49,0,0,1,.39-.59l236.62-47.85-27.8-137.45a.5.5,0,0,1,.39-.59.49.49,0,0,1,.59.39L448.21,275a.5.5,0,0,1-.39.59L210.71,323.5Z"></path><path d="M418.26,129.91a.51.51,0,0,1-.49-.41L397.09,27.22,247.36,57.5a.5.5,0,0,1-.59-.39.51.51,0,0,1,.4-.59L397.38,26.14a.5.5,0,0,1,.59.39l20.78,102.78a.5.5,0,0,1-.39.59Z"></path><path d="M103.67,345.13a.5.5,0,0,1-.49-.4L52.94,96.31a.5.5,0,0,1,.39-.59L240,58a.5.5,0,0,1,.59.39.51.51,0,0,1-.39.59L54,96.6l50,247.44,100.79-20.38a.5.5,0,1,1,.2,1L103.77,345.12Z"></path><path d="M85.42,178.09a.53.53,0,0,1-.27-.08.55.55,0,0,1-.22-.32l-8.2-40.59a.49.49,0,0,1,.39-.59l40.59-8.21a.53.53,0,0,1,.37.07.55.55,0,0,1,.22.32l1.32,6.52a.51.51,0,0,1-.4.59.5.5,0,0,1-.59-.39l-1.21-6-39.62,8,8,39.61,39.62-8-5.65-27.93a.48.48,0,0,1,.39-.58.49.49,0,0,1,.59.39l5.74,28.41a.49.49,0,0,1-.39.59l-40.59,8.21Z"></path><path d="M132.58,168.55a.5.5,0,0,1-.49-.4l-8.21-40.59a.51.51,0,0,1,.39-.59l40.59-8.21a.5.5,0,0,1,.59.4l8.21,40.59a.5.5,0,0,1-.39.59l-40.59,8.2ZM125,127.85l8,39.61,39.61-8-8-39.61Z"></path><path d="M179.74,159a.51.51,0,0,1-.49-.4L171,118a.5.5,0,0,1,.39-.59L212,109.23a.49.49,0,0,1,.59.39l8.21,40.59a.49.49,0,0,1-.39.59L179.84,159Zm-7.62-40.7,8,39.61,39.61-8-8-39.61Z"></path><path d="M226.9,149.48a.54.54,0,0,1-.28-.08.47.47,0,0,1-.21-.32l-8.21-40.59a.49.49,0,0,1,.39-.59l40.59-8.21a.51.51,0,0,1,.59.39L268,140.67a.5.5,0,0,1-.39.59L227,149.47Zm-7.62-40.7,8,39.61,39.61-8-8-39.61Z"></path><path d="M274.05,140a.46.46,0,0,1-.27-.09.52.52,0,0,1-.22-.32L265.36,99a.5.5,0,0,1,.39-.59l40.59-8.2a.5.5,0,0,1,.59.39l8.21,40.59a.49.49,0,0,1-.08.37.5.5,0,0,1-.32.22l-40.59,8.21Zm-7.62-40.7,8,39.61,39.62-8-8-39.62Z"></path><path d="M321.21,130.41a.5.5,0,0,1-.49-.4l-8.21-40.59a.51.51,0,0,1,.08-.38.45.45,0,0,1,.31-.21l40.6-8.21a.54.54,0,0,1,.37.07.49.49,0,0,1,.21.32l8.21,40.59a.49.49,0,0,1-.39.59l-40.59,8.21Zm-7.62-40.7,8,39.61,39.61-8-8-39.61Z"></path><path d="M368.37,120.87a.54.54,0,0,1-.28-.08.51.51,0,0,1-.21-.32l-8.21-40.59a.51.51,0,0,1,.39-.59l40.59-8.21a.5.5,0,0,1,.59.39l8.21,40.6a.48.48,0,0,1-.07.37.49.49,0,0,1-.32.21l-40.59,8.21Zm-7.62-40.7,8,39.61,39.61-8-8-39.61Z"></path><path d="M95.56,228.23a.5.5,0,0,1-.49-.4l-8.21-40.59a.51.51,0,0,1,.4-.59l40.59-8.21a.51.51,0,0,1,.59.39l8.21,40.6a.5.5,0,0,1-.4.58l-40.59,8.21Zm-7.62-40.7,8,39.61,39.62-8-8-39.61Z"></path><path d="M142.72,218.7a.51.51,0,0,1-.49-.4L134,177.7a.51.51,0,0,1,.39-.59l40.59-8.2a.5.5,0,0,1,.38.07.47.47,0,0,1,.21.32l3.66,18.07a.5.5,0,0,1-.39.59.49.49,0,0,1-.59-.39L174.71,170l-39.61,8,8,39.61,39.61-8L180,196.31a.5.5,0,0,1,.39-.59.51.51,0,0,1,.59.39l2.78,13.78a.5.5,0,0,1-.39.59l-40.59,8.21Z"></path><path d="M189.88,209.16a.5.5,0,0,1-.49-.4l-8.21-40.59a.51.51,0,0,1,.07-.38.49.49,0,0,1,.32-.21l40.59-8.21a.56.56,0,0,1,.38.07.49.49,0,0,1,.21.32L231,200.35a.5.5,0,0,1-.39.59L190,209.15Zm-7.62-40.7,8,39.61,39.61-8-8-39.61Z"></path><path d="M237,199.62a.49.49,0,0,1-.49-.4l-8.21-40.59a.5.5,0,0,1,.39-.59l40.59-8.21a.51.51,0,0,1,.59.4l8.21,40.59a.49.49,0,0,1-.08.37.5.5,0,0,1-.31.22l-40.59,8.2Zm-7.62-40.7,8,39.61,39.61-8-8-39.61Z"></path><path d="M284.19,190.09a.46.46,0,0,1-.27-.09.5.5,0,0,1-.22-.31l-8.2-40.59a.49.49,0,0,1,.39-.59l27.81-5.63a.51.51,0,0,1,.59.39.5.5,0,0,1-.4.59l-27.32,5.53,8,39.61,39.62-8-8-39.61-5.61,1.13a.49.49,0,0,1-.59-.39.51.51,0,0,1,.39-.59l6.1-1.23a.48.48,0,0,1,.37.07.52.52,0,0,1,.22.32l8.21,40.59a.51.51,0,0,1-.4.59l-40.59,8.21Z"></path><path d="M331.35,180.55a.5.5,0,0,1-.49-.4l-8.21-40.59a.51.51,0,0,1,.08-.38A.49.49,0,0,1,323,139l40.6-8.21a.54.54,0,0,1,.37.07.49.49,0,0,1,.21.32l8.21,40.59a.49.49,0,0,1-.39.59l-40.59,8.21Zm-7.62-40.7,8,39.61,39.61-8-8-39.61Z"></path><path d="M378.51,171a.51.51,0,0,1-.49-.41L369.81,130a.51.51,0,0,1,.39-.59l40.59-8.2a.49.49,0,0,1,.59.39l8.21,40.59a.48.48,0,0,1-.07.37.55.55,0,0,1-.32.22L378.61,171Zm-7.62-40.71,8,39.62,39.61-8-8-39.62Z"></path><path d="M105.7,278.38a.51.51,0,0,1-.49-.41L97,237.38a.51.51,0,0,1,.4-.59L138,228.58a.54.54,0,0,1,.37.08.52.52,0,0,1,.22.32l8.2,40.59a.48.48,0,0,1-.07.37.52.52,0,0,1-.32.22l-40.59,8.21Zm-7.62-40.71,8,39.62,39.62-8-8-39.62Z"></path><path d="M152.86,268.84a.51.51,0,0,1-.49-.4l-8.21-40.59a.5.5,0,0,1,.39-.59l40.59-8.21a.51.51,0,0,1,.38.07.49.49,0,0,1,.21.32L193.94,260a.49.49,0,0,1-.39.59L153,268.83Zm-7.62-40.7,8,39.61,39.61-8-8-39.61Z"></path><path d="M200,259.3a.54.54,0,0,1-.28-.08.47.47,0,0,1-.21-.32l-8.21-40.59a.51.51,0,0,1,.39-.59l40.59-8.21a.5.5,0,0,1,.59.39l8.21,40.6a.49.49,0,0,1-.39.58l-40.59,8.21Zm-7.62-40.7,8,39.61,39.61-8-8-39.61Z"></path><path d="M247.18,249.77a.49.49,0,0,1-.49-.4l-8.21-40.6a.5.5,0,0,1,.39-.59l40.59-8.2a.5.5,0,0,1,.59.39L288.26,241a.49.49,0,0,1-.08.37.5.5,0,0,1-.31.22l-40.6,8.21Zm-7.62-40.7,8,39.61,39.61-8-8-39.61Z"></path><path d="M294.33,240.23a.5.5,0,0,1-.49-.4l-8.21-40.59a.51.51,0,0,1,.08-.38.47.47,0,0,1,.32-.21l40.59-8.21a.53.53,0,0,1,.37.07.55.55,0,0,1,.22.32l.79,3.92a.5.5,0,0,1-1,.2l-.69-3.43-39.62,8,8,39.61,39.62-8L328,199.58a.5.5,0,0,1,.39-.59.51.51,0,0,1,.59.39l6.48,32a.51.51,0,0,1-.08.38.47.47,0,0,1-.32.21l-40.59,8.21Z"></path><path d="M341.49,230.69a.48.48,0,0,1-.28-.08.51.51,0,0,1-.21-.32l-8.21-40.59a.51.51,0,0,1,.39-.59l40.6-8.21a.5.5,0,0,1,.58.39l8.21,40.6a.48.48,0,0,1-.07.37.52.52,0,0,1-.32.22l-40.59,8.2ZM333.87,190l8,39.61,39.61-8-8-39.61Z"></path><path d="M388.65,221.16a.47.47,0,0,1-.28-.09.45.45,0,0,1-.21-.31L380,180.17a.5.5,0,0,1,.39-.59l23.47-4.75a.5.5,0,0,1,.2,1l-23,4.65,8,39.61,39.61-8-8-39.61-8.4,1.7a.5.5,0,0,1-.59-.39.49.49,0,0,1,.39-.59l8.89-1.8a.49.49,0,0,1,.59.39l8.21,40.59a.5.5,0,0,1-.39.59l-40.59,8.21Z"></path><path d="M115.84,328.52a.46.46,0,0,1-.27-.09.5.5,0,0,1-.22-.31l-8.21-40.6a.49.49,0,0,1,.08-.37.47.47,0,0,1,.32-.21l40.59-8.21a.5.5,0,0,1,.59.39l8.2,40.59a.5.5,0,0,1-.39.59l-40.59,8.21Zm-7.62-40.7,8,39.61,39.61-8-8-39.61Z"></path><path d="M163,319a.57.57,0,0,1-.28-.08.51.51,0,0,1-.21-.32L154.3,278a.51.51,0,0,1,.08-.38.49.49,0,0,1,.31-.21L178,272.7a.5.5,0,0,1,.59.39.51.51,0,0,1-.39.59l-22.78,4.6,8,39.61,39.61-8-8-39.61-10.15,2.05a.5.5,0,0,1-.59-.39.51.51,0,0,1,.39-.59l10.64-2.15a.56.56,0,0,1,.38.07.49.49,0,0,1,.21.32l8.21,40.59a.49.49,0,0,1-.39.59L163.1,319Z"></path><path d="M210.16,309.44a.49.49,0,0,1-.49-.4l-8.21-40.59a.48.48,0,0,1,.07-.37.55.55,0,0,1,.32-.22l40.59-8.2a.49.49,0,0,1,.59.39l8.21,40.59a.48.48,0,0,1-.07.37.55.55,0,0,1-.32.22l-40.59,8.2Zm-7.62-40.7,8,39.62,39.61-8-8-39.62Z"></path><path d="M257.31,299.91a.49.49,0,0,1-.48-.4l-8.21-40.59a.49.49,0,0,1,.39-.59l40.59-8.21a.5.5,0,0,1,.59.39l8.21,40.59a.51.51,0,0,1-.08.38.49.49,0,0,1-.31.21l-40.6,8.21Zm-7.61-40.7,8,39.61,39.61-8-8-39.61Z"></path><path d="M304.47,290.37a.5.5,0,0,1-.49-.4l-8.21-40.59a.51.51,0,0,1,.4-.59l40.59-8.21a.51.51,0,0,1,.59.39l3.75,18.57a.5.5,0,0,1-.39.59.51.51,0,0,1-.59-.39l-3.65-18.08-39.62,8,8,39.61,39.62-8-3-14.85a.51.51,0,0,1,.39-.59.5.5,0,0,1,.59.39l3.1,15.35a.48.48,0,0,1-.07.37.47.47,0,0,1-.32.21l-40.59,8.21Z"></path><path d="M351.63,280.84a.51.51,0,0,1-.49-.41l-8.21-40.59a.51.51,0,0,1,.39-.59l40.6-8.2a.49.49,0,0,1,.58.39L392.71,272a.48.48,0,0,1-.07.37.52.52,0,0,1-.32.22l-40.59,8.21ZM344,240.14l8,39.61,39.61-8-8-39.61Z"></path><path d="M398.79,271.3a.5.5,0,0,1-.49-.4l-8.21-40.59a.51.51,0,0,1,.07-.38.49.49,0,0,1,.32-.21l40.59-8.21a.56.56,0,0,1,.38.07.49.49,0,0,1,.21.32l8.21,40.59a.5.5,0,0,1-.39.59l-40.59,8.21Zm-7.62-40.7,8,39.61,39.61-8-8-39.61Z"></path><path d="M81.3,86.05l2.55,12.63a1.73,1.73,0,1,1-3.39.69L77.9,86.74a1.73,1.73,0,0,1,1.36-2,1.69,1.69,0,0,1,1.3.25A1.73,1.73,0,0,1,81.3,86.05Z" style="fill:#fff"></path><path d="M82.16,101.26A2.23,2.23,0,0,1,80,99.47L77.41,86.84a2.22,2.22,0,0,1,.33-1.68,2.16,2.16,0,0,1,1.42-1,2.22,2.22,0,0,1,1.68.33,2.19,2.19,0,0,1,1,1.41h0l2.55,12.64a2.21,2.21,0,0,1-2.18,2.67ZM79.6,85.16a1,1,0,0,0-.24,0,1.23,1.23,0,0,0-.79.52,1.28,1.28,0,0,0-.18.93L81,99.27a1.23,1.23,0,1,0,2.41-.49L80.81,86.15a1.22,1.22,0,0,0-.53-.78A1.19,1.19,0,0,0,79.6,85.16Z"></path><path d="M86,97.71a4.2,4.2,0,1,1-6.45-2.65l.87,4.31a1.73,1.73,0,1,0,3.39-.69L83,94.49A4.17,4.17,0,0,1,86,97.71Z" style="fill:#fff"></path><path d="M81.92,103.23a4.69,4.69,0,0,1-2.61-8.59.49.49,0,0,1,.47,0,.52.52,0,0,1,.3.36L81,99.27a1.23,1.23,0,1,0,2.41-.49l-.85-4.2a.52.52,0,0,1,.15-.46.51.51,0,0,1,.47-.12,4.66,4.66,0,0,1,3.4,3.61h0a4.71,4.71,0,0,1-3.68,5.53A4.88,4.88,0,0,1,81.92,103.23ZM79.26,96a3.7,3.7,0,1,0,6.29,1.83,3.64,3.64,0,0,0-1.87-2.53l.66,3.31a2.23,2.23,0,1,1-4.37.88Z"></path><path d="M117.58,78.71l2.55,12.64a1.73,1.73,0,0,1-3.4.69L114.18,79.4a1.73,1.73,0,0,1,3.4-.69Z" style="fill:#fff"></path><path d="M118.43,93.93a2.18,2.18,0,0,1-1.23-.38,2.22,2.22,0,0,1-1-1.41L113.69,79.5a2.23,2.23,0,0,1,1.74-2.63,2.2,2.2,0,0,1,1.68.34,2.18,2.18,0,0,1,1,1.41l2.55,12.63a2.23,2.23,0,0,1-1.75,2.63A2.12,2.12,0,0,1,118.43,93.93Zm-2.56-16.1a1,1,0,0,0-.24,0,1.23,1.23,0,0,0-1,1.45l2.55,12.64a1.23,1.23,0,0,0,2.42-.49l-2.56-12.64h0a1.16,1.16,0,0,0-.52-.77A1.2,1.2,0,0,0,115.87,77.83Z"></path><path d="M122.32,90.37a4.2,4.2,0,1,1-6.46-2.65l.87,4.32a1.73,1.73,0,0,0,3.4-.69l-.85-4.2A4.17,4.17,0,0,1,122.32,90.37Z" style="fill:#fff"></path><path d="M118.2,95.9a4.69,4.69,0,0,1-2.62-8.59.52.52,0,0,1,.47,0,.49.49,0,0,1,.3.36l.87,4.32a1.25,1.25,0,0,0,1.46,1,1.24,1.24,0,0,0,1-1.45l-.85-4.2a.49.49,0,0,1,.15-.46.48.48,0,0,1,.47-.12,4.69,4.69,0,0,1-.28,9.13A4.2,4.2,0,0,1,118.2,95.9Zm-2.66-7.26a3.65,3.65,0,0,0-1,3.3,3.7,3.7,0,0,0,7.25-1.47h0A3.73,3.73,0,0,0,120,87.94l.67,3.31a2.23,2.23,0,0,1-1.75,2.63,2.19,2.19,0,0,1-1.67-.33,2.22,2.22,0,0,1-1-1.41Z"></path><path d="M153.85,71.38,156.41,84a1.73,1.73,0,0,1-3.4.69l-2.56-12.63a1.73,1.73,0,0,1,2.66-1.79A1.69,1.69,0,0,1,153.85,71.38Z" style="fill:#fff"></path><path d="M154.7,86.59a2.22,2.22,0,0,1-2.18-1.79L150,72.17a2.23,2.23,0,0,1,3.43-2.3,2.19,2.19,0,0,1,1,1.41l2.56,12.63a2.26,2.26,0,0,1-.33,1.68,2.19,2.19,0,0,1-1.42,1A2.3,2.3,0,0,1,154.7,86.59Zm-2.55-16.1-.24,0A1.23,1.23,0,0,0,151,72L153.5,84.6a1.24,1.24,0,0,0,1.45,1,1.21,1.21,0,0,0,.78-.52,1.23,1.23,0,0,0,.19-.93l-2.56-12.63h0a1.18,1.18,0,0,0-.52-.78A1.24,1.24,0,0,0,152.15,70.49Z"></path><path d="M158.59,83a4.2,4.2,0,1,1-6.45-2.65L153,84.7a1.73,1.73,0,0,0,3.4-.69l-.85-4.2A4.2,4.2,0,0,1,158.59,83Z" style="fill:#fff"></path><path d="M154.47,88.56A4.69,4.69,0,0,1,151.86,80a.49.49,0,0,1,.47,0,.5.5,0,0,1,.3.36l.87,4.31a1.24,1.24,0,0,0,1.45,1,1.23,1.23,0,0,0,1-1.45l-.85-4.2a.49.49,0,0,1,.14-.46.51.51,0,0,1,.47-.12,4.65,4.65,0,0,1,3.4,3.61,4.7,4.7,0,0,1-3.67,5.53A5.07,5.07,0,0,1,154.47,88.56Zm-2.66-7.25a3.7,3.7,0,1,0,6.29,1.82h0a3.65,3.65,0,0,0-1.87-2.52l.67,3.3a2.26,2.26,0,0,1-.33,1.68,2.19,2.19,0,0,1-1.42,1,2.22,2.22,0,0,1-1.68-.32,2.26,2.26,0,0,1-.95-1.42Z"></path><path d="M190.13,64l2.55,12.64a1.73,1.73,0,1,1-3.39.68l-2.56-12.63a1.73,1.73,0,0,1,1.36-2,1.66,1.66,0,0,1,1.29.26A1.68,1.68,0,0,1,190.13,64Z" style="fill:#fff"></path><path d="M191,79.25a2.22,2.22,0,0,1-2.18-1.79l-2.56-12.63a2.24,2.24,0,0,1,3.43-2.3,2.19,2.19,0,0,1,1,1.41h0l2.55,12.64a2.23,2.23,0,0,1-1.74,2.63A2.28,2.28,0,0,1,191,79.25Zm-2.55-16.1a1,1,0,0,0-.24,0,1.18,1.18,0,0,0-.79.53,1.24,1.24,0,0,0-.18.92l2.56,12.64a1.23,1.23,0,1,0,2.41-.49l-2.55-12.64a1.18,1.18,0,0,0-.53-.77A1.2,1.2,0,0,0,188.43,63.15Z"></path><path d="M194.87,75.7a4.2,4.2,0,1,1-6.46-2.65l.88,4.31a1.73,1.73,0,1,0,3.39-.68l-.85-4.2A4.17,4.17,0,0,1,194.87,75.7Z" style="fill:#fff"></path><path d="M190.74,81.23a4.69,4.69,0,0,1-2.6-8.59.49.49,0,0,1,.76.31l.88,4.32a1.23,1.23,0,0,0,2.23.43,1.2,1.2,0,0,0,.18-.92l-.85-4.2a.52.52,0,0,1,.15-.47A.53.53,0,0,1,192,72a4.7,4.7,0,0,1,2.71,7.14,4.71,4.71,0,0,1-3,2A5,5,0,0,1,190.74,81.23ZM188.09,74a3.69,3.69,0,0,0,3.39,6.18,3.71,3.71,0,0,0,2.9-4.35h0a3.71,3.71,0,0,0-1.88-2.53l.67,3.31a2.23,2.23,0,1,1-4.37.88Z"></path><path d="M226.4,56.71,229,69.34a1.73,1.73,0,0,1-3.4.69L223,57.39a1.72,1.72,0,0,1,2.65-1.78A1.69,1.69,0,0,1,226.4,56.71Z" style="fill:#fff"></path><path d="M227.26,71.92a2.24,2.24,0,0,1-2.19-1.79l-2.55-12.64a2.24,2.24,0,0,1,1.74-2.63,2.21,2.21,0,0,1,1.68.34,2.17,2.17,0,0,1,.95,1.41l2.56,12.63a2.22,2.22,0,0,1-.33,1.68,2.16,2.16,0,0,1-1.42,1A2.2,2.2,0,0,1,227.26,71.92Zm-2.56-16.1-.24,0a1.24,1.24,0,0,0-1,1.46l2.55,12.63a1.23,1.23,0,0,0,2.42-.49l-2.56-12.63h0a1.18,1.18,0,0,0-.52-.78A1.24,1.24,0,0,0,224.7,55.82Z"></path><path d="M231.14,68.36a4.2,4.2,0,1,1-6.45-2.64l.87,4.31a1.73,1.73,0,0,0,3.4-.69l-.85-4.2A4.18,4.18,0,0,1,231.14,68.36Z" style="fill:#fff"></path><path d="M227,73.89a4.69,4.69,0,0,1-2.62-8.59.52.52,0,0,1,.47,0,.51.51,0,0,1,.3.37l.87,4.31a1.24,1.24,0,0,0,2.24.44,1.28,1.28,0,0,0,.18-.93l-.85-4.2a.5.5,0,0,1,.62-.58,4.64,4.64,0,0,1,3.39,3.61h0A4.68,4.68,0,0,1,228,73.79,4.27,4.27,0,0,1,227,73.89Zm-2.66-7.26a3.69,3.69,0,1,0,6.28,1.83h0a3.65,3.65,0,0,0-1.87-2.52l.67,3.3a2.23,2.23,0,0,1-1.75,2.63,2.15,2.15,0,0,1-1.67-.33,2.19,2.19,0,0,1-1-1.41Z"></path><path d="M262.68,49.37,265.23,62a1.73,1.73,0,1,1-3.39.68l-2.56-12.63a1.74,1.74,0,0,1,2.66-1.79A1.75,1.75,0,0,1,262.68,49.37Z" style="fill:#fff"></path><path d="M263.53,64.58a2.22,2.22,0,0,1-2.18-1.79l-2.56-12.63a2.24,2.24,0,0,1,3.43-2.3,2.19,2.19,0,0,1,.95,1.41h0l2.55,12.64a2.19,2.19,0,0,1-.32,1.67,2.24,2.24,0,0,1-1.42,1A2.28,2.28,0,0,1,263.53,64.58ZM261,48.48a1,1,0,0,0-.24,0,1.23,1.23,0,0,0-1,1.45l2.56,12.63a1.23,1.23,0,0,0,.52.79,1.28,1.28,0,0,0,.93.18,1.23,1.23,0,0,0,1-1.46l-2.55-12.63a1.25,1.25,0,0,0-.52-.78A1.33,1.33,0,0,0,261,48.48Z"></path><path d="M267.42,61A4.2,4.2,0,1,1,261,58.38l.87,4.31a1.73,1.73,0,1,0,3.39-.68l-.84-4.2A4.18,4.18,0,0,1,267.42,61Z" style="fill:#fff"></path><path d="M263.29,66.55a4.7,4.7,0,0,1-4.59-3.76,4.67,4.67,0,0,1,2-4.83.49.49,0,0,1,.47,0,.52.52,0,0,1,.3.36l.87,4.31a1.23,1.23,0,0,0,.52.79,1.28,1.28,0,0,0,.93.18,1.22,1.22,0,0,0,.78-.53,1.17,1.17,0,0,0,.18-.93l-.85-4.19a.54.54,0,0,1,.15-.47.51.51,0,0,1,.47-.12,4.69,4.69,0,0,1-.28,9.14A4.91,4.91,0,0,1,263.29,66.55Zm-2.65-7.25a3.69,3.69,0,1,0,6.29,1.83h0a3.64,3.64,0,0,0-1.87-2.53l.66,3.31A2.24,2.24,0,0,1,264,64.54a2.26,2.26,0,0,1-1.68-.33,2.2,2.2,0,0,1-.95-1.42Z"></path><path d="M299,42l2.55,12.63a1.73,1.73,0,0,1-3.4.69l-2.55-12.64a1.74,1.74,0,0,1,1.35-2A1.76,1.76,0,0,1,299,42Z" style="fill:#fff"></path><path d="M299.81,57.25a2.18,2.18,0,0,1-1.23-.38,2.22,2.22,0,0,1-1-1.41l-2.55-12.64a2.19,2.19,0,0,1,.33-1.67,2.21,2.21,0,0,1,3.09-.62,2.18,2.18,0,0,1,1,1.41h0L302,54.57a2.23,2.23,0,0,1-1.75,2.63A2.12,2.12,0,0,1,299.81,57.25Zm-2.56-16.1-.24,0a1.22,1.22,0,0,0-.78.53,1.2,1.2,0,0,0-.18.92l2.55,12.64a1.26,1.26,0,0,0,.53.78,1.23,1.23,0,0,0,.93.18,1.21,1.21,0,0,0,.78-.52,1.28,1.28,0,0,0,.18-.93l-2.56-12.63a1.23,1.23,0,0,0-1.21-1Z"></path><path d="M303.7,53.69A4.2,4.2,0,1,1,297.24,51l.87,4.32a1.73,1.73,0,0,0,3.4-.69l-.85-4.2A4.17,4.17,0,0,1,303.7,53.69Z" style="fill:#fff"></path><path d="M299.58,59.22A4.69,4.69,0,0,1,297,50.63a.5.5,0,0,1,.77.32l.87,4.31a1.26,1.26,0,0,0,.53.78,1.23,1.23,0,0,0,.93.18,1.21,1.21,0,0,0,.78-.52,1.28,1.28,0,0,0,.18-.93l-.85-4.2a.5.5,0,0,1,.15-.46.48.48,0,0,1,.47-.12,4.67,4.67,0,0,1,3.4,3.6h0a4.7,4.7,0,0,1-3.68,5.53A4.27,4.27,0,0,1,299.58,59.22ZM296.92,52a3.69,3.69,0,1,0,6.29,1.83h0a3.69,3.69,0,0,0-1.88-2.52l.67,3.3a2.23,2.23,0,0,1-1.75,2.63,2.19,2.19,0,0,1-1.67-.33,2.22,2.22,0,0,1-1-1.41Z"></path><path d="M335.23,34.7l2.56,12.63a1.73,1.73,0,1,1-3.4.69l-2.56-12.63a1.73,1.73,0,0,1,1.36-2,1.72,1.72,0,0,1,2,1.35Z" style="fill:#fff"></path><path d="M336.09,49.91a2.23,2.23,0,0,1-2.19-1.79l-2.56-12.63a2.23,2.23,0,0,1,3.43-2.3,2.19,2.19,0,0,1,1,1.41h0l2.56,12.64a2.22,2.22,0,0,1-2.19,2.67Zm-2.56-16.1a1,1,0,0,0-.24,0,1.22,1.22,0,0,0-1,1.45l2.55,12.63a1.23,1.23,0,0,0,1.45,1,1.25,1.25,0,0,0,1-1.46L334.74,34.8a1.21,1.21,0,0,0-.52-.78A1.24,1.24,0,0,0,333.53,33.81Z"></path><path d="M340,46.36a4.2,4.2,0,1,1-6.45-2.65l.87,4.31a1.73,1.73,0,1,0,3.4-.69l-.85-4.2A4.2,4.2,0,0,1,340,46.36Z" style="fill:#fff"></path><path d="M335.85,51.88a4.69,4.69,0,0,1-2.61-8.59.49.49,0,0,1,.47,0,.52.52,0,0,1,.3.36l.87,4.31a1.23,1.23,0,0,0,1.45,1,1.25,1.25,0,0,0,1-1.46l-.85-4.2a.49.49,0,0,1,.14-.46.51.51,0,0,1,.47-.12,4.65,4.65,0,0,1,3.4,3.61h0a4.7,4.7,0,0,1-3.67,5.53A5.07,5.07,0,0,1,335.85,51.88Zm-2.66-7.25a3.7,3.7,0,1,0,6.29,1.83h0a3.64,3.64,0,0,0-1.87-2.53l.67,3.31a2.23,2.23,0,1,1-4.38.88Z"></path><path d="M371.51,27.36,374.06,40a1.73,1.73,0,1,1-3.39.69l-2.56-12.64a1.73,1.73,0,0,1,1.36-2,1.7,1.7,0,0,1,1.29.26A1.68,1.68,0,0,1,371.51,27.36Z" style="fill:#fff"></path><path d="M372.36,42.58a2.2,2.2,0,0,1-1.23-.38,2.16,2.16,0,0,1-.95-1.42l-2.56-12.63a2.23,2.23,0,1,1,4.38-.88l2.55,12.63a2.23,2.23,0,0,1-1.74,2.63A2.3,2.3,0,0,1,372.36,42.58Zm-2.55-16.1a.93.93,0,0,0-.24,0,1.18,1.18,0,0,0-.79.53,1.24,1.24,0,0,0-.18.92l2.56,12.64a1.21,1.21,0,0,0,.52.78,1.23,1.23,0,0,0,1.89-1.27L371,27.46h0a1.26,1.26,0,0,0-1.21-1Z"></path><path d="M376.25,39a4.2,4.2,0,1,1-6.46-2.65l.88,4.32a1.73,1.73,0,1,0,3.39-.69l-.85-4.2A4.17,4.17,0,0,1,376.25,39Z" style="fill:#fff"></path><path d="M372.12,44.55a4.69,4.69,0,0,1-2.6-8.59.49.49,0,0,1,.76.31l.88,4.32a1.21,1.21,0,0,0,.52.78,1.23,1.23,0,0,0,1.89-1.27l-.85-4.2a.5.5,0,0,1,.62-.58,4.69,4.69,0,0,1-.28,9.13A4.29,4.29,0,0,1,372.12,44.55Zm-2.65-7.26a3.69,3.69,0,1,0,6.29,1.83h0a3.68,3.68,0,0,0-1.88-2.53l.67,3.31a2.23,2.23,0,0,1-3.42,2.3,2.16,2.16,0,0,1-.95-1.42Z"></path></g><path d="M276.63,133.32a1.49,1.49,0,0,1-1.21-2.37l23.25-32.29a1.5,1.5,0,0,1,2.43,1.75L277.85,132.7A1.48,1.48,0,0,1,276.63,133.32Z" style="fill:#FF725E"></path><path d="M305.7,124.93a1.54,1.54,0,0,1-.8-.23L275.19,106a1.5,1.5,0,0,1,1.6-2.54l29.71,18.73a1.5,1.5,0,0,1,.47,2.07A1.52,1.52,0,0,1,305.7,124.93Z" style="fill:#FF725E"></path><path d="M249.76,243.15a1.52,1.52,0,0,1-.88-.29,1.5,1.5,0,0,1-.34-2.09l23.25-32.29a1.5,1.5,0,0,1,2.44,1.75L251,242.52A1.52,1.52,0,0,1,249.76,243.15Z" style="fill:#FF725E"></path><path d="M278.82,234.75a1.48,1.48,0,0,1-.8-.23l-29.71-18.73a1.5,1.5,0,1,1,1.6-2.54L279.62,232a1.5,1.5,0,0,1-.8,2.77Z" style="fill:#FF725E"></path><path d="M333.93,173.93a1.48,1.48,0,0,1-.87-.28,1.49,1.49,0,0,1-.34-2.1L356,139.26A1.5,1.5,0,1,1,358.4,141l-23.25,32.29A1.51,1.51,0,0,1,333.93,173.93Z" style="fill:#FF725E"></path><path d="M363,165.54a1.43,1.43,0,0,1-.79-.24l-29.71-18.72a1.5,1.5,0,1,1,1.6-2.54l29.7,18.73a1.5,1.5,0,0,1-.8,2.77Z" style="fill:#FF725E"></path><path d="M404.27,264.18a1.49,1.49,0,0,1-1.22-2.37l23.25-32.3a1.5,1.5,0,0,1,2.44,1.76l-23.25,32.29A1.51,1.51,0,0,1,404.27,264.18Z" style="fill:#FF725E"></path><path d="M433.33,255.79a1.49,1.49,0,0,1-.8-.24l-29.71-18.72a1.5,1.5,0,0,1,1.6-2.54L434.13,253a1.5,1.5,0,0,1-.8,2.77Z" style="fill:#FF725E"></path></g><g id="freepik--Character--inject-799"><path d="M249.42,319.56s-29.13,45.62-31.54,46.83.69-52.44.69-52.44,26.84-7.61,28.84-3.61A23.82,23.82,0,0,1,249.42,319.56Z" style="fill:#263238"></path><path d="M217.8,366.91a.62.62,0,0,1-.36-.12c-2.16-1.42-.06-40.83.63-52.87a.51.51,0,0,1,.37-.45c4.54-1.29,27.34-7.51,29.42-3.35a24.2,24.2,0,0,1,2.06,9.44.53.53,0,0,1-.08.27c-3,4.68-29.28,45.77-31.73,47A.68.68,0,0,1,217.8,366.91Zm1.25-52.58c-1.06,18.55-2.25,47.84-1.13,51.4,2.8-2.77,19.79-28.77,31-46.31a23.28,23.28,0,0,0-1.94-8.85C245.66,308,229.3,311.45,219.05,314.33Z" style="fill:#263238"></path><path d="M111.72,190s-13.64-1.58-19.66,14.59,2.22,64,11.41,87.84,16.49,39,12.69,60.88-.64,21.88-13.32,55.5-14,54.22-14,54.22h150s2.85-5.39.32-26.32-18.31-51.55-18.94-67.41.64-35.52,5.3-40.09c10.34-10.15,4.12-20.29,5.71-25.05S243,292.7,241.42,275.25s-14.59-33.61-22.52-43.12-16.81-20-20.61-23.47-13.64-9.51-32.66-15.54S111.72,190,111.72,190Z" style="fill:#FF725E"></path><path d="M238.88,463.48h-150a.52.52,0,0,1-.37-.16.5.5,0,0,1-.13-.37c0-.21,1.42-21.07,14-54.37,9.26-24.52,10.07-31.24,11.29-41.4.46-3.8,1-8.11,2-14,3.41-19.64-2.24-34.05-10.07-54-.84-2.15-1.71-4.35-2.59-6.64-8.91-23-17.56-71.7-11.42-88.19,5.9-15.84,19.17-15,20.13-14.92,1.44-.11,35.46-2.69,54.06,3.2,22.37,7.08,30.8,13.76,32.85,15.64,4,3.7,13.72,15.2,20.66,23.52,6.8,8.17,21,25.16,22.62,43.4,1.18,13-4.06,20.1-7.52,24.81a18,18,0,0,0-2.65,4.25c-.44,1.33-.21,3.22,0,5.41.64,5.31,1.52,12.58-5.88,19.84-4.46,4.38-5.8,23.65-5.15,39.72.31,7.89,4.43,19.53,8.79,31.85s8.87,25.05,10.14,35.51c2.53,20.85-.25,26.39-.37,26.62A.51.51,0,0,1,238.88,463.48Zm-149.45-1H238.55c.48-1.31,2.33-7.77.15-25.76-1.26-10.35-5.75-23-10.09-35.3s-8.53-24.1-8.85-32.15c-.68-16.81.75-35.85,5.45-40.46,7-6.92,6.2-13.91,5.59-19-.28-2.31-.52-4.31,0-5.85a18.62,18.62,0,0,1,2.79-4.52c3.38-4.59,8.48-11.54,7.34-24.13-1.63-17.93-15.66-34.76-22.4-42.85-6.92-8.3-16.58-19.76-20.57-23.42-2-1.84-10.3-8.41-32.47-15.43-18.72-5.93-53.37-3.18-53.72-3.15h-.1c-.54-.06-13.32-1.33-19.13,14.26-6.07,16.3,2.56,64.6,11.41,87.49.88,2.28,1.75,4.49,2.59,6.63,7.89,20.09,13.58,34.6,10.12,54.52-1,5.86-1.54,10.16-2,13.95-1.24,10.23-2.06,17-11.35,41.63C91.91,439.14,89.73,459,89.43,462.48Z" style="fill:#263238"></path><path d="M165.25,313.68c-18.58,0-33.83-8.69-34-8.78a.51.51,0,0,1-.18-.69.5.5,0,0,1,.68-.18c.17.1,17.3,9.86,37.26,8.53a.5.5,0,0,1,.07,1C167.8,313.64,166.51,313.68,165.25,313.68Z" style="fill:#263238"></path><path d="M163.37,318.55h0c-13.41-.64-26-5.88-26.15-5.93a.5.5,0,0,1,.38-.93c.13.06,12.59,5.23,25.82,5.87a.5.5,0,0,1,0,1Z" style="fill:#263238"></path><path d="M142.86,427.48a.34.34,0,0,1-.14,0c-9.35-2.67-27.73-10.72-27.91-10.8a.5.5,0,0,1,.4-.92c.19.09,18.5,8.11,27.79,10.76a.5.5,0,0,1,.34.62A.49.49,0,0,1,142.86,427.48Z" style="fill:#263238"></path><path d="M122.2,413.56c-1.38,0-13.17-3.24-14.51-3.61a.5.5,0,1,1,.27-1c5.21,1.44,13.3,3.58,14.24,3.58a.5.5,0,0,1,.5.5A.51.51,0,0,1,122.2,413.56Z" style="fill:#263238"></path><path d="M204.93,417.28c-1.38,0-2.77,0-4.16-.13a.51.51,0,0,1-.47-.53.49.49,0,0,1,.53-.47c13.68.88,28-3.08,28.13-3.12a.5.5,0,1,1,.27,1A103,103,0,0,1,204.93,417.28Z" style="fill:#263238"></path><path d="M200.13,411.79A103.85,103.85,0,0,1,182.3,410a.51.51,0,0,1-.41-.58.51.51,0,0,1,.58-.41c12.36,2.21,19.13,1.8,19.2,1.79a.51.51,0,0,1,.53.47.5.5,0,0,1-.47.53S201.17,411.79,200.13,411.79Z" style="fill:#263238"></path><path d="M156,226.81s-7.1-.73,9.8,9.06,34.77,27.92,38.69,34.53a72.72,72.72,0,0,1,4.65,8.57s1.71-9.3.73-24.24-6.61-21.55-15.67-30.12S182,195.23,182,195.23l4.41-20.33s-17.39-6.37-22.53-10.77-14.2-14-14.2-14-2.21,32.57,2.69,43.83S160,212.12,159,217.51A38.1,38.1,0,0,1,156,226.81Z" style="fill:#fff"></path><path d="M209.18,279.47a.51.51,0,0,1-.47-.32,74.27,74.27,0,0,0-4.61-8.5c-3.73-6.28-21.63-24.56-38.51-34.34-12.17-7.06-11.69-8.56-11.48-9.2s1.1-.81,1.62-.81a39.36,39.36,0,0,0,2.76-8.88c1-5.32-1.84-12.32-6.58-23.22-4.89-11.25-2.82-42.73-2.73-44.06a.5.5,0,0,1,.33-.44.49.49,0,0,1,.53.13c.09.09,9.1,9.58,14.16,13.92s22.21,10.62,22.38,10.68a.51.51,0,0,1,.32.58l-4.39,20.23c.24,1.49,3.54,20.94,12.08,29,8.9,8.42,14.82,15.09,15.82,30.45,1,14.82-.72,24.27-.74,24.36a.5.5,0,0,1-.45.41ZM155.75,227.3a1.26,1.26,0,0,0-.7.14c0,.13.08,1.65,11,8,17.29,10,35,28.17,38.87,34.7,2.12,3.6,3.32,5.82,4,7.11a117.76,117.76,0,0,0,.48-22.49c-1-15-6.78-21.52-15.51-29.79-9.08-8.59-12.26-28.81-12.4-29.67a1.09,1.09,0,0,1,0-.18l4.32-19.9c-2.72-1-17.5-6.62-22.28-10.71-4.21-3.62-11.12-10.74-13.44-13.17-.33,5.86-1.56,32.62,2.72,42.46,4.81,11.07,7.66,18.2,6.64,23.8a38.74,38.74,0,0,1-3,9.44.51.51,0,0,1-.5.27Z" style="fill:#263238"></path><polygon points="167.16 173.55 178.88 190.55 183.29 179.36 167.16 173.55" style="fill:#263238"></polygon><path d="M178.88,191.05a.48.48,0,0,1-.41-.22l-11.72-17a.48.48,0,0,1,0-.58.5.5,0,0,1,.57-.17l16.13,5.81a.47.47,0,0,1,.28.27.48.48,0,0,1,0,.39l-4.41,11.18a.48.48,0,0,1-.41.31Zm-10.43-16.5,10.31,14.94,3.87-9.83Z" style="fill:#263238"></path><path d="M213.18,77.07s.35.39,1,1.11c3.31,3.93,14.33,17.64,19.19,31.66,5.76,16.6-9.3,14.83-10,18.38s9.74,42.51-1.55,60-17.94,29.89-17.94,29.89.67,2.22,3.54-2.43,7.53,3.76,3.77,10.18-12.62,10.19-20.82-.44-12-16.61-12-21.48,4.87-24.58,4.87-24.58,4.65,0,9.52-4.87,12.4-25.9,14.39-30.33,1.33-25.46-5.31-31.89-12.62-13.72-11.52-17.93S211.19,76.18,213.18,77.07Z" style="fill:#263238"></path><path d="M201.39,232.59c-2.93,0-7.11-1.28-11.41-6.87-8-10.37-12.06-16.59-12.06-21.78,0-4.88,4.68-23.89,4.88-24.7a.51.51,0,0,1,.49-.38s4.52-.07,9.17-4.72c3.72-3.73,9.27-17.68,12.25-25.18.89-2.25,1.59-4,2-5,2-4.46,1.09-25.23-5.21-31.32-6-5.8-12.89-13.7-11.65-18.42,1-3.79,15.3-14.29,20.91-17,1.68-.81,2.25-.77,2.58-.62a.37.37,0,0,1,.17.13s.36.39,1,1.12c3.29,3.9,14.39,17.71,19.28,31.81,4.22,12.18-2.43,14.88-6.83,16.66-1.59.65-3,1.21-3.11,2a43.84,43.84,0,0,0,.88,7.11c2,12.79,6.32,39.41-2.5,53.07-10.3,15.95-16.8,27.8-17.79,29.62a.15.15,0,0,0,.07,0c.07,0,.79,0,2.48-2.73.94-1.51,2.24-2,3.47-1.23,2.37,1.43,3.93,7.19,1.15,11.93a12.36,12.36,0,0,1-9.61,6.46C201.81,232.59,201.6,232.59,201.39,232.59Zm-17.7-52.75c-.66,2.69-4.77,19.7-4.77,24.1,0,4.87,4.16,11.2,11.85,21.17,3.45,4.48,7.31,6.7,11.18,6.47a11.4,11.4,0,0,0,8.81-6c2.56-4.38,1-9.48-.81-10.57-.74-.45-1.45-.15-2.1.9-1.43,2.3-2.53,3.31-3.47,3.19a1.26,1.26,0,0,1-1-.87.5.5,0,0,1,0-.38c.07-.13,6.78-12.62,18-29.93,8.61-13.34,4.39-39.7,2.36-52.37-.71-4.43-1-6.6-.89-7.46.25-1.31,1.78-1.93,3.72-2.71,4.3-1.74,10.18-4.13,6.27-15.41C228,96.06,217,82.37,213.76,78.51c-.41-.49-.7-.82-.85-1h0c-2.16,0-20.93,12.69-22,17C190,97.78,194,104,202.24,111.91c6.7,6.48,7.55,27.71,5.42,32.45-.44,1-1.14,2.73-2,5-3.22,8.09-8.6,21.64-12.48,25.52C189,179,185,179.73,183.69,179.84Z" style="fill:#263238"></path><path d="M193.46,91.58s4.12,9.06,10.29,14.82,13.58,17.69,13.58,17.69-.41,16.87-5.35,28-16,26.33-19.75,28.8-11.52,0-19.75-4.12S156.85,164,154.79,159.06s-7-20.16-7-20.16,1.65-17.28,8.64-21.39,13.58-7,19.75-14S190.17,87.88,193.46,91.58Z" style="fill:#fff"></path><path d="M188.29,182.36c-3.8,0-9.16-1.72-16-5.16-8.62-4.31-15.95-13.19-17.93-17.95s-7-20-7-20.2a.44.44,0,0,1,0-.2c.06-.71,1.75-17.58,8.88-21.78,1.32-.77,2.62-1.5,3.9-2.22,5.54-3.11,10.77-6,15.73-11.66,6-6.85,11.78-13,15.67-13h0a3,3,0,0,1,2.35,1,.57.57,0,0,1,.08.13c0,.09,4.15,9,10.17,14.65s13.59,17.67,13.66,17.79a.48.48,0,0,1,.08.28c0,.17-.47,17.1-5.39,28.17-5,11.31-16.26,26.57-19.93,29A7.48,7.48,0,0,1,188.29,182.36Zm-40-43.51c.43,1.33,5,15.37,6.95,20s9.06,13.24,17.45,17.44c9.52,4.76,16.18,6.19,19.25,4.14,3.59-2.39,14.61-17.41,19.57-28.59,4.6-10.34,5.25-25.94,5.3-27.63-.81-1.3-7.7-12.14-13.41-17.47-5.88-5.49-10-14-10.37-14.9a2,2,0,0,0-1.55-.66h0c-3.77,0-10.48,7.61-14.92,12.65-5.07,5.74-10.37,8.72-16,11.87-1.28.72-2.57,1.45-3.88,2.22C150.26,121.72,148.45,137.43,148.3,138.85Z" style="fill:#263238"></path><path d="M195.16,152.33a8.5,8.5,0,0,1-4.62-1.2.5.5,0,0,1,.55-.84c2.63,1.76,7.47,1,8.9-.4,1.14-1.14.47-3.86.12-4.82a.5.5,0,1,1,.93-.35c.06.17,1.49,4-.34,5.88C199.62,151.67,197.41,152.33,195.16,152.33Z" style="fill:#263238"></path><path d="M184.4,131.1a17.91,17.91,0,0,1-5-.85,32.58,32.58,0,0,1-7.88-3.61.5.5,0,0,1-.14-.69.49.49,0,0,1,.69-.14,32.31,32.31,0,0,0,7.62,3.48,13.74,13.74,0,0,0,5.84.73l.83-5.2a.49.49,0,0,1,.57-.42.51.51,0,0,1,.42.57l-.89,5.54a.49.49,0,0,1-.34.39A5.33,5.33,0,0,1,184.4,131.1Z" style="fill:#263238"></path><path d="M207.33,134.44a11.46,11.46,0,0,1-2.22-.2l-3.32-.66a.5.5,0,0,1-.39-.59.49.49,0,0,1,.59-.39l3.32.66c2.65.53,6.26-.28,7.39-.56l.2-4.95a.5.5,0,1,1,1,0l-.22,5.32a.52.52,0,0,1-.36.46A25.11,25.11,0,0,1,207.33,134.44Z" style="fill:#263238"></path><path d="M200.56,139.57a.5.5,0,0,1-.5-.46c0-.31-.66-7.65.24-11a10.66,10.66,0,0,1,4.2-5.61.5.5,0,1,1,.54.84,9.9,9.9,0,0,0-3.78,5c-.85,3.19-.21,10.6-.2,10.67a.5.5,0,0,1-.46.54Z" style="fill:#263238"></path><path d="M195,161.71l-.15,0a13.21,13.21,0,0,0-5.31-.42.52.52,0,0,1-.57-.42.51.51,0,0,1,.42-.57,13.83,13.83,0,0,1,5.77.46.5.5,0,0,1-.16,1Z" style="fill:#263238"></path><path d="M175.1,119.92a1,1,0,0,1-.18-2c.3-.05,7.5-1.35,11.36-.89,4.37.51,8.67.3,9.34-.09a1,1,0,0,1,1.37.35,1,1,0,0,1-.34,1.37c-1.68,1-8,.66-10.6.35-3.57-.42-10.7.87-10.77.88Z" style="fill:#263238"></path><path d="M214.06,124.34a.94.94,0,0,1-.63-.23,17.37,17.37,0,0,0-5.4-2.9,31.5,31.5,0,0,1-5-1.84,1,1,0,0,1-.45-1.34,1,1,0,0,1,1.34-.45,30.59,30.59,0,0,0,4.7,1.7,19.12,19.12,0,0,1,6.13,3.3,1,1,0,0,1,.12,1.4A1,1,0,0,1,214.06,124.34Z" style="fill:#263238"></path><path d="M210.52,70.87c-6-1.77-7.75-2-22.8-4.65s-25.91-.22-35.65,7.31S134.58,85.7,132.36,97.22a119.18,119.18,0,0,0-1.6,12.86c-3.66,16-6.27,44.68-5.6,54.74.83,12.35-16.87,16.87-18.1,23.87s12.34-2.47,25.1,19.33,32.09,27.16,36.62,18.52-.83-16.87-6.17-22.22-5.35-16.46-7.82-32.09-1.65-38.68.82-44.85,20.57-6.17,28.8-16.87a49.94,49.94,0,0,0,5.6-9.25l.14-.06a42.22,42.22,0,0,1,11.74-6.86c1.19-.47,2.3-.88,3.33-1.27a4.47,4.47,0,0,0,1.82-.25,11.9,11.9,0,0,0,3.76-2.45c1.94-1.43,3.18-3.39,3.71-6.88C215.62,76.18,216.5,72.64,210.52,70.87Z" style="fill:#263238"></path><path d="M161.27,231c-7.89,0-20.39-7-29.54-22.69-7.82-13.37-15.85-14.8-20.65-15.65-2.94-.52-5.07-.9-4.51-4s3.76-5.48,7.49-8.3c5.19-3.93,11.08-8.38,10.61-15.45-.69-10.23,1.91-38.68,5.6-54.88a118.11,118.11,0,0,1,1.6-12.85c2-10.43,8.51-15.36,16.75-21.6,1-.77,2.07-1.56,3.14-2.39,10-7.75,21.15-10,36-7.4l4.53.79c11,1.94,13,2.29,18.34,3.87h0c6.08,1.8,5.52,5.45,4.5,12.08L215,83.56c-.51,3.38-1.71,5.6-3.91,7.21a12.18,12.18,0,0,1-3.86,2.51,4.67,4.67,0,0,1-1.93.29l-.74.28-2.49,1a42.2,42.2,0,0,0-11.58,6.77l-.11.08a50.79,50.79,0,0,1-5.57,9.17c-4.6,6-12.28,8.7-18.45,10.89-5,1.76-9.25,3.28-10.28,5.86-2.4,6-3.24,29.14-.8,44.58.59,3.7,1,7.21,1.44,10.31C158,192.64,159,200,163,204c5.45,5.45,11,13.83,6.26,22.8-1.37,2.62-4.09,4.11-7.65,4.2ZM176.78,65.69a38.12,38.12,0,0,0-24.41,8.23c-1.07.83-2.12,1.63-3.14,2.4-8.07,6.11-14.44,10.94-16.38,21a118.06,118.06,0,0,0-1.59,12.81c-3.62,15.9-6.26,44.71-5.6,54.67.51,7.6-5.6,12.23-11,16.31-3.57,2.7-6.65,5-7.12,7.67-.36,2.06.54,2.32,3.7,2.88,5,.88,13.29,2.36,21.34,16.12,8.95,15.31,21.06,22.2,28.67,22.2h.29c3.22-.08,5.57-1.34,6.78-3.66,4.42-8.44-.86-16.42-6.08-21.64-4.2-4.2-5.18-11.7-6.52-22.08-.4-3.09-.85-6.6-1.44-10.28-2.5-15.88-1.64-38.87.86-45.12,1.2-3,5.68-4.59,10.87-6.43,6-2.14,13.58-4.81,18-10.55a49.66,49.66,0,0,0,5.53-9.16.55.55,0,0,1,.27-.25l.07,0a42.57,42.57,0,0,1,11.82-6.9l2.49-1,.84-.32a.46.46,0,0,1,.2,0,3.81,3.81,0,0,0,1.62-.22A11.39,11.39,0,0,0,210.45,90c2-1.5,3.09-3.46,3.56-6.59l.17-1.11c1-6.65,1.45-9.41-3.8-11h0c-5.29-1.57-7.26-1.92-18.22-3.84l-4.53-.8A62.57,62.57,0,0,0,176.78,65.69Z" style="fill:#263238"></path><path d="M239.2,436.66c0-.18-.06-.36-.08-.54-28.63,12.38-70.08,5.7-96.75,0a255,255,0,0,1-44.31-13.7C89.82,447.85,88.89,463,88.89,463h150S241.73,457.59,239.2,436.66Z" style="fill:#263238"></path><path d="M238.88,463.48h-150a.52.52,0,0,1-.37-.16.5.5,0,0,1-.13-.37c0-.15,1-15.48,9.19-40.71a.53.53,0,0,1,.27-.3.51.51,0,0,1,.4,0,251.37,251.37,0,0,0,44.22,13.68c43.44,9.31,75,9.33,96.45.05a.55.55,0,0,1,.45,0,.52.52,0,0,1,.24.38l.08.54c2.53,20.85-.25,26.39-.37,26.62A.51.51,0,0,1,238.88,463.48Zm-149.45-1H238.55c.48-1.31,2.32-7.75.16-25.65-21.64,9.11-53.2,9-96.45-.24a254.22,254.22,0,0,1-43.89-13.52C91.24,445.25,89.68,459.61,89.43,462.48Z" style="fill:#263238"></path><path d="M132.33,237.84s-10.15-30.13-19.66-36.15-16.81-5.4-20-.64S80,216,80.64,248.62s-2.53,114.47,2.54,121.77,48.55,48,92.32,70.87c22,11.51,39.6,18.55,42.77,18.87s14.27,1.58,16.49-1.27,4.75-5.71,4.75-5.71a9.58,9.58,0,0,0,4.44-4.44c1.9-3.49,5.39-9.19,4.12-9.83s-5.07,1.27-5.07,1.27a16.91,16.91,0,0,1-6.66.63c-4.12-.31-5-2.7-5-2.7a32.93,32.93,0,0,0,5.33-.78c2.54-.64,6.33-.84,9.5-3.06s4-6.32,1.09-6.32a66.49,66.49,0,0,0-7.42.5,54.71,54.71,0,0,1-10.15-.32c-3.49-.32-8.88-1-12.05-1s-10.09,4.33-14.53,4.65S171.65,411,159.6,393.22s-41.86-49.79-41.86-49.79l6.35-67.86S140.89,257.5,132.33,237.84Z" style="fill:#fff"></path><path d="M227,461.19c-2.65,0-5.58-.24-8.3-.52l-.45-.05c-3.48-.34-21.51-7.71-42.95-18.92-43.05-22.49-87.19-63.39-92.5-71-3.62-5.2-3.17-45.95-2.77-81.91.17-15.52.34-30.17.14-40.13-.58-30,7.36-41.13,11.18-46.49.36-.5.68-1,1-1.37,2.85-4.28,9.78-6.4,20.66.49,9.5,6,19.35,34.89,19.86,36.4,8.19,18.85-6.74,36.44-8.23,38.12l-6.31,67.48c2.33,2.51,30.27,32.74,41.76,49.68,12.25,18.05,39.23,38.67,43,38.36,2.22-.16,5.1-1.37,7.88-2.53,2.6-1.09,5.06-2.12,6.68-2.12,2.44,0,6.11.36,9.35.68,1,.1,1.92.2,2.75.27l.43,0a51.52,51.52,0,0,0,9.62.28l2-.19a48.54,48.54,0,0,1,5.51-.31,2.08,2.08,0,0,1,2.15,1.43c.54,1.71-.76,4.26-3,5.79a19,19,0,0,1-7.7,2.74c-.7.13-1.37.25-2,.4a33.17,33.17,0,0,1-4.59.74,5.8,5.8,0,0,0,4.19,1.77,16.93,16.93,0,0,0,6.45-.61c.62-.31,4-1.95,5.47-1.25a1,1,0,0,1,.48.6c.39,1.24-1.18,4.18-3.44,8.22-.34.6-.66,1.17-1,1.7a10.31,10.31,0,0,1-4.58,4.62c-.43.49-2.69,3.06-4.66,5.6C234,460.7,230.75,461.19,227,461.19ZM100.26,197.81a8.12,8.12,0,0,0-7.15,3.52c-.28.42-.61.88-1,1.39-3.76,5.27-11.57,16.24-11,45.89.2,10,0,24.64-.14,40.16-.38,34-.84,76.4,2.59,81.33,5.28,7.59,49.23,48.3,92.14,70.72,22.61,11.81,39.75,18.53,42.59,18.81l.45.05c9,.92,14.29.54,15.59-1.13,2.21-2.83,4.75-5.7,4.78-5.73a.48.48,0,0,1,.2-.14,9.3,9.3,0,0,0,4.17-4.21c.29-.53.62-1.11,1-1.71,1.22-2.19,3.76-6.73,3.35-7.46-.69-.33-3.11.55-4.6,1.3a17.2,17.2,0,0,1-6.92.68c-4.39-.34-5.4-2.91-5.44-3a.46.46,0,0,1,0-.44.49.49,0,0,1,.39-.23,31.52,31.52,0,0,0,5.24-.77c.61-.15,1.29-.28,2-.42a18,18,0,0,0,7.31-2.56c2-1.39,2.94-3.54,2.58-4.68a1.1,1.1,0,0,0-1.2-.73,47.33,47.33,0,0,0-5.42.31l-2,.19a53.41,53.41,0,0,1-9.81-.28l-.43,0-2.76-.27c-3.21-.32-6.86-.68-9.25-.68-1.42,0-3.79,1-6.29,2-2.86,1.2-5.82,2.44-8.2,2.61H203c-4.93,0-31.87-21.16-43.84-38.8s-41.51-49.41-41.81-49.73a.45.45,0,0,1-.13-.38l6.34-67.87a.48.48,0,0,1,.13-.29c.17-.18,16.48-18.07,8.15-37.19,0,0,0,0,0,0-.1-.3-10.2-30-19.46-35.89C107.88,199.25,103.7,197.81,100.26,197.81Z" style="fill:#263238"></path><path d="M124.09,276.07h0a.49.49,0,0,1-.49-.51l.31-19.66a.47.47,0,0,1,.14-.33l4.75-5.07a.5.5,0,0,1,.71,0,.5.5,0,0,1,0,.71l-4.62,4.93-.31,19.47A.51.51,0,0,1,124.09,276.07Z" style="fill:#263238"></path><path d="M237.06,448.86c-1.83,0-3.72-.11-3.84-.12a.5.5,0,0,1-.47-.53.49.49,0,0,1,.53-.47,44.94,44.94,0,0,0,6.21,0c1.49-.22,4.93-2.21,6.13-2.95a.5.5,0,1,1,.53.84c-.19.12-4.51,2.81-6.51,3.1A21.38,21.38,0,0,1,237.06,448.86Z" style="fill:#263238"></path><path d="M232.15,454.78a.5.5,0,0,1-.5-.49.51.51,0,0,1,.49-.51,36.16,36.16,0,0,0,7.25-1.11.5.5,0,0,1,.61.36.51.51,0,0,1-.36.61,36.29,36.29,0,0,1-7.48,1.14Z" style="fill:#263238"></path><path d="M245.22,300.62s-4.76.64-7.61,0a12.23,12.23,0,0,0-11.42,2.86c-4.44,3.8-12.05,5.39-10.78,7s2.86,2.54,6.34,1.91a41.76,41.76,0,0,0,8.57-3.18s-7.93,6.66-13,10.47-7.3,8.88-4.44,9.83,8.56-4.44,8.56-4.44l11.73-6.66s-13.32,9.2-15.85,13.32,0,5.39,2.53,5.07,6.34-3.17,9.83-5.39,9.2-5.39,10.15-6.34-1.27,4.12-5.71,8.24-7.61,5.71-6.66,7.93,4.44,1.59,6.34.32,9.2-4.12,10.47-6,3.49-5.7,3.49-5.7,1,5.39-.32,8.56-4.76,4.44-4.76,7,1.59,2.54,4.44.32,6-6,6.66-9.19,3.17-9.2,1.91-20S249.66,301.57,245.22,300.62Z" style="fill:#fff"></path><path d="M243.92,347.78a1.64,1.64,0,0,1-.74-.16c-.66-.32-1-1.09-1-2.29,0-1.56,1.11-2.66,2.28-3.82a10.16,10.16,0,0,0,2.52-3.34c.81-2,.66-5.09.47-6.87-.76,1.29-2,3.27-2.76,4.48-.91,1.37-4.29,3-7.28,4.44a34,34,0,0,0-3.33,1.73,6.83,6.83,0,0,1-5.23,1.06,2.81,2.81,0,0,1-1.85-1.6c-.84-2,.93-3.46,3.6-5.72,1-.79,2-1.69,3.18-2.77a27.32,27.32,0,0,0,5.2-6.63c-1.1.74-2.73,1.71-4.53,2.78-1.57.93-3.19,1.9-4.5,2.73l-2.11,1.38c-3,2-5.78,3.82-7.93,4.09-1.71.21-3.12-.25-3.76-1.25s-.46-2.64.74-4.58c1.31-2.14,5.34-5.52,9-8.37l-4.18,2.38c-.79.73-6,5.49-9,4.5a2.19,2.19,0,0,1-1.56-1.81c-.38-2.32,2.08-6.06,5.86-8.89,3.12-2.35,7.38-5.82,10.15-8.1a29.16,29.16,0,0,1-5.33,1.7c-4,.72-5.61-.58-6.82-2.08a1,1,0,0,1-.22-.91c.21-.88,1.53-1.53,4-2.7a31.13,31.13,0,0,0,7-4.06,12.72,12.72,0,0,1,11.85-3c2.73.61,7.39,0,7.43,0h.18c3.42.74,9.39,3.83,10.85,16.29a44.43,44.43,0,0,1-1.41,18.12c-.2.77-.38,1.44-.5,2-.68,3.4-4,7.3-6.84,9.5C245.93,347.21,244.79,347.78,243.92,347.78Zm3.84-18.48h.09a.51.51,0,0,1,.4.41c0,.23,1,5.57-.35,8.83a11,11,0,0,1-2.74,3.68c-1.06,1-2,2-2,3.11,0,.76.16,1.25.44,1.39s1,.21,3.2-1.46c2.76-2.15,5.87-5.9,6.47-8.9.12-.6.3-1.29.52-2.08a43.69,43.69,0,0,0,1.38-17.74c-1.38-11.74-6.81-14.7-10-15.41a27.46,27.46,0,0,1-7.7,0,11.79,11.79,0,0,0-11,2.75,31.85,31.85,0,0,1-7.26,4.21c-1.45.68-3.44,1.6-3.49,2,1.2,1.51,2.65,2.36,5.9,1.77a41.46,41.46,0,0,0,8.42-3.12.49.49,0,0,1,.64.17.51.51,0,0,1-.09.66c-.08.06-8,6.71-13,10.48-3.78,2.83-5.75,6.25-5.48,7.93a1.22,1.22,0,0,0,.89,1c2.11.71,6.54-2.88,8.06-4.32a.3.3,0,0,1,.1-.07L232.92,318a.5.5,0,0,1,.53.84c-.13.09-13.26,9.19-15.71,13.17-1,1.57-1.22,2.78-.75,3.52a2.9,2.9,0,0,0,2.8.8c1.91-.24,4.75-2.12,7.5-3.93l2.12-1.39c1.32-.84,3-1.81,4.53-2.75a54,54,0,0,0,5.54-3.52.69.69,0,0,1,.67-.25.6.6,0,0,1,.38.41c.21.87-2.41,5.4-6.07,8.8-1.18,1.1-2.26,2-3.21,2.81-2.69,2.26-3.86,3.31-3.33,4.56a1.8,1.8,0,0,0,1.22,1,5.92,5.92,0,0,0,4.39-.94,36.78,36.78,0,0,1,3.45-1.79c2.58-1.25,6.11-2.95,6.87-4.09,1.25-1.87,3.45-5.65,3.48-5.69A.5.5,0,0,1,247.76,329.3Z" style="fill:#263238"></path><path d="M233.17,318.88a.51.51,0,0,1-.4-.2.5.5,0,0,1,.1-.7l4.34-3.29a.51.51,0,0,1,.7.1.5.5,0,0,1-.1.7l-4.34,3.29A.47.47,0,0,1,233.17,318.88Z" style="fill:#263238"></path><path d="M239.83,325.54a.5.5,0,0,1-.35-.86l3.86-3.77a.5.5,0,0,1,.7.72l-3.86,3.77A.52.52,0,0,1,239.83,325.54Z" style="fill:#263238"></path><path d="M247.76,330.3a.39.39,0,0,1-.18,0,.49.49,0,0,1-.29-.64l1.49-3.89a.5.5,0,0,1,.65-.29.5.5,0,0,1,.29.64l-1.5,3.9A.5.5,0,0,1,247.76,330.3Z" style="fill:#263238"></path><path d="M230.32,309.68a.48.48,0,0,1-.26-.07.49.49,0,0,1-.17-.68,14,14,0,0,1,5.54-4.79.5.5,0,0,1,.67.23.49.49,0,0,1-.22.67,13.06,13.06,0,0,0-5.13,4.4A.5.5,0,0,1,230.32,309.68Z" style="fill:#263238"></path><path d="M251.69,439.58a.5.5,0,0,1-.5-.5.48.48,0,0,1,.19-.39s.37-.31.91-.83a.49.49,0,0,1,.7,0,.5.5,0,0,1,0,.71C251.94,439.58,251.89,439.58,251.69,439.58Zm3-3a.51.51,0,0,1-.33-.13.5.5,0,0,1,0-.71c.63-.71,1.27-1.47,1.91-2.27a.5.5,0,0,1,.7-.09.51.51,0,0,1,.08.71c-.64.81-1.3,1.6-1.95,2.32A.5.5,0,0,1,254.71,436.55Zm3.73-4.7a.46.46,0,0,1-.29-.1.49.49,0,0,1-.12-.69c.57-.81,1.13-1.64,1.66-2.48a.51.51,0,0,1,.69-.15.5.5,0,0,1,.15.69c-.54.85-1.11,1.7-1.68,2.51A.52.52,0,0,1,258.44,431.85Zm3.22-5.07a.57.57,0,0,1-.25-.06.49.49,0,0,1-.18-.68c.49-.87,1-1.75,1.42-2.62a.5.5,0,0,1,.67-.22.51.51,0,0,1,.22.68c-.46.88-.94,1.78-1.44,2.65A.52.52,0,0,1,261.66,426.78Zm2.74-5.33a.54.54,0,0,1-.21-.05.49.49,0,0,1-.24-.66c.4-.88.79-1.79,1.18-2.74a.5.5,0,1,1,.92.38c-.39,1-.79,1.88-1.19,2.78A.52.52,0,0,1,264.4,421.45Zm2.26-5.56a.51.51,0,0,1-.17,0,.5.5,0,0,1-.3-.64c.33-.91.64-1.85.94-2.82a.5.5,0,0,1,1,.29c-.31,1-.63,1.94-1,2.87A.5.5,0,0,1,266.66,415.89Zm1.78-5.73h-.13a.52.52,0,0,1-.35-.62c.25-.94.49-1.9.71-2.89a.52.52,0,0,1,.6-.38.5.5,0,0,1,.38.6c-.23,1-.47,2-.72,2.93A.5.5,0,0,1,268.44,410.16Zm1.32-5.85h-.09a.5.5,0,0,1-.4-.58q.27-1.44.48-2.94a.52.52,0,0,1,.57-.42.5.5,0,0,1,.43.57c-.15,1-.32,2-.5,3A.49.49,0,0,1,269.76,404.31Zm.87-5.93h-.05a.5.5,0,0,1-.45-.55c.11-1,.2-2,.27-3a.5.5,0,0,1,1,.07q-.12,1.53-.27,3A.51.51,0,0,1,270.63,398.38Zm.44-6h0a.5.5,0,0,1-.48-.52c0-1,.06-2,.06-3a.5.5,0,0,1,.5-.5h0a.5.5,0,0,1,.5.5c0,1,0,2-.06,3A.5.5,0,0,1,271.07,392.4Zm0-6a.5.5,0,0,1-.5-.48c0-1-.07-2-.12-3a.5.5,0,0,1,.47-.52.48.48,0,0,1,.53.47c0,1,.09,2,.12,3a.5.5,0,0,1-.49.51Zm-.32-6a.5.5,0,0,1-.5-.46c-.08-1-.18-2-.29-3a.5.5,0,0,1,.44-.55.51.51,0,0,1,.56.44c.1,1,.2,2,.29,3a.5.5,0,0,1-.46.54Zm-.67-6a.5.5,0,0,1-.49-.43c-.14-1-.3-2-.46-2.95a.5.5,0,0,1,.41-.58.5.5,0,0,1,.57.41c.17,1,.32,2,.47,3a.51.51,0,0,1-.43.57Zm-1-5.91a.51.51,0,0,1-.49-.4c-.2-1-.41-2-.64-2.92a.5.5,0,0,1,.38-.6.49.49,0,0,1,.6.37c.22,1,.44,1.94.64,2.95a.51.51,0,0,1-.39.59Zm-1.37-5.84a.5.5,0,0,1-.48-.38c-.26-1-.54-1.94-.81-2.87a.5.5,0,0,1,.95-.29c.29.94.56,1.91.83,2.91a.5.5,0,0,1-.36.61ZM266,357a.5.5,0,0,1-.48-.34c-.32-1-.66-1.91-1-2.82a.5.5,0,1,1,.93-.35c.34.92.68,1.86,1,2.85a.5.5,0,0,1-.31.63Zm-2.1-5.62a.5.5,0,0,1-.46-.31c-.4-1-.79-1.88-1.18-2.74a.5.5,0,0,1,.24-.67.52.52,0,0,1,.67.25c.39.88.79,1.8,1.19,2.77a.5.5,0,0,1-.27.66A.65.65,0,0,1,263.91,351.33Zm-2.48-5.47a.5.5,0,0,1-.45-.28q-.72-1.45-1.38-2.64a.5.5,0,1,1,.88-.48c.44.8.91,1.69,1.4,2.68a.51.51,0,0,1-.23.67A.54.54,0,0,1,261.43,345.86Zm-2.9-5.26a.48.48,0,0,1-.42-.23c-1-1.61-1.63-2.46-1.64-2.47a.5.5,0,0,1,.8-.6s.67.89,1.69,2.54a.5.5,0,0,1-.17.69A.48.48,0,0,1,258.53,340.6Z" style="fill:#263238"></path><path d="M218.57,314.45h-.1l-.6-.12a.5.5,0,1,1,.19-1l.61.12a.49.49,0,0,1,.39.59A.49.49,0,0,1,218.57,314.45Zm-30.4-.3a.49.49,0,0,1-.48-.36.51.51,0,0,1,.34-.62c.05,0,1.08-.3,3-.62a.48.48,0,0,1,.57.41.49.49,0,0,1-.41.57c-1.85.31-2.87.6-2.88.6A.34.34,0,0,1,188.17,314.15Zm26.84-.34h-.08c-1-.16-2-.3-3-.42a.5.5,0,1,1,.12-1c1,.12,2,.26,3,.42a.5.5,0,0,1-.08,1Zm-20.93-.68a.5.5,0,0,1-.05-1c1-.11,2-.19,3-.26a.5.5,0,1,1,.06,1c-1,.06-2,.15-3,.26Zm15-.07H209c-1-.09-2-.16-3-.22a.49.49,0,0,1-.47-.52.47.47,0,0,1,.52-.47c1,0,2,.12,3,.21a.51.51,0,0,1,.46.55A.51.51,0,0,1,209.06,313.06Zm-9-.32a.49.49,0,0,1-.5-.49.5.5,0,0,1,.49-.51c.95,0,2,0,3,0a.5.5,0,0,1,.49.51.5.5,0,0,1-.51.49c-1,0-2,0-3,0Z" style="fill:#263238"></path></g><g id="freepik--Table--inject-799"><path d="M465.12,463.85h-12a.5.5,0,0,1,0-1h12a.5.5,0,0,1,0,1Z" style="fill:#263238"></path><path d="M445.62,463.85H31.2a.5.5,0,1,1,0-1H445.62a.5.5,0,0,1,0,1Z" style="fill:#263238"></path></g></svg>
