<svg xmlns="http://www.w3.org/2000/svg" viewBox="0 0 750 500"><g id="freepik--plants-2--inject-312"><path d="M285.93,125.4c-5.47-3.27-10.83-6.61-16-10.27-13-5.66-27.4-6.95-40.12-13.34-.15-.07,0-.31.12-.25,11.27,4.22,24.14,5.63,35.44,10.19-2.62-2-5.16-4.18-7.6-6.49A104.55,104.55,0,0,1,236.91,77.8c-.2-.38.38-.68.6-.31A112.7,112.7,0,0,0,261.91,107c6.24,5.22,13.13,9.39,20.12,13.41-8.26-8.59-12.55-21-15.34-32.29-.08-.32.39-.4.49-.1,4.26,12.94,8.82,25,18.54,34.5,2.33,1.32,4.66,2.64,7,4,10.32,6,19.68,13.36,26.72,23.13,1.31,1.83,2.51,3.68,3.61,5.57-4.75-17.07-13.16-32.41-26.14-44.89-.22-.21.11-.61.35-.41,14.78,12,25.46,29.79,27.69,48.84a81,81,0,0,1,7.27,23.07c.06.35-.48.47-.55.12A74.66,74.66,0,0,0,318.93,153a40.05,40.05,0,0,0-10.74-4.62,96.23,96.23,0,0,0-18.72-3.72c-9.58-.93-21.11-.5-28-8.5a.24.24,0,0,1,.36-.32c9.71,9,24.28,6,36.33,8.26,6.17,1.16,13.29,2.74,18.83,6.3-.54-.7-1.09-1.4-1.65-2.07C307.23,138.53,296.73,131.85,285.93,125.4Z" style="fill:#37474f"></path><path d="M312.37,128.25s5.14-12.3-18.94-27.59C293.43,100.66,297.93,124,312.37,128.25Z" style="fill:#37474f"></path><path d="M269.8,97.2s9-9.81-8.37-32.41C261.43,64.79,257.69,88.22,269.8,97.2Z" style="fill:#37474f"></path><path d="M242.37,87s6.15-11.83-16.57-29.08C225.8,57.94,228.33,81.53,242.37,87Z" style="fill:#37474f"></path><path d="M272.62,142.27S271.28,129,242.82,127C242.82,127,257.87,145.36,272.62,142.27Z" style="fill:#37474f"></path><path d="M245.12,105.88s-1.34-13.27-29.79-15.25C215.33,90.63,230.38,109,245.12,105.88Z" style="fill:#37474f"></path><path d="M464.07,125.4c5.47-3.27,10.83-6.61,16-10.27,13-5.66,27.4-6.95,40.12-13.34.15-.07,0-.31-.12-.25-11.27,4.22-24.14,5.63-35.44,10.19,2.62-2,5.16-4.18,7.6-6.49A104.55,104.55,0,0,0,513.09,77.8c.2-.38-.38-.68-.6-.31A112.7,112.7,0,0,1,488.09,107c-6.24,5.22-13.13,9.39-20.12,13.41,8.26-8.59,12.55-21,15.34-32.29.08-.32-.39-.4-.49-.1-4.26,12.94-8.82,25-18.54,34.5-2.33,1.32-4.66,2.64-7,4-10.32,6-19.68,13.36-26.72,23.13-1.31,1.83-2.51,3.68-3.61,5.57,4.75-17.07,13.16-32.41,26.14-44.89.22-.21-.11-.61-.35-.41-14.78,12-25.46,29.79-27.69,48.84a81,81,0,0,0-7.27,23.07c-.06.35.48.47.55.12A74.66,74.66,0,0,1,431.07,153a40.05,40.05,0,0,1,10.74-4.62,96.23,96.23,0,0,1,18.72-3.72c9.58-.93,21.11-.5,28-8.5a.24.24,0,0,0-.36-.32c-9.71,9-24.28,6-36.33,8.26-6.17,1.16-13.29,2.74-18.83,6.3.54-.7,1.09-1.4,1.65-2.07C442.77,138.53,453.27,131.85,464.07,125.4Z" style="fill:#37474f"></path><path d="M437.63,128.25s-5.14-12.3,18.94-27.59C456.57,100.66,452.07,124,437.63,128.25Z" style="fill:#37474f"></path><path d="M480.2,97.2s-9-9.81,8.37-32.41C488.57,64.79,492.31,88.22,480.2,97.2Z" style="fill:#37474f"></path><path d="M507.63,87s-6.15-11.83,16.57-29.08C524.2,57.94,521.67,81.53,507.63,87Z" style="fill:#37474f"></path><path d="M477.38,142.27S478.72,129,507.18,127C507.18,127,492.13,145.36,477.38,142.27Z" style="fill:#37474f"></path><path d="M504.88,105.88s1.34-13.27,29.79-15.25C534.67,90.63,519.62,109,504.88,105.88Z" style="fill:#37474f"></path><path d="M599.14,174s.26-21.31-13.23-28.85-31.18.62-45.86-12.47c-1.41-1.25,9,26.28,29.87,24.5,0,0,1.45,11.57,18.57,11.6C588.49,168.79,587.93,174.87,599.14,174Z" style="fill:#455a64"></path><path d="M580.16,147.5c-10.36-4.51-22.34-2.45-32.6-7.4a.19.19,0,0,0-.17.34c8.68,4.79,18.61,4.13,27.92,6.8,13.76,3.95,20.31,16.15,24.37,28.92.13.43.74.21.65-.21C598,164.28,591.53,152.45,580.16,147.5Z" style="fill:#fff"></path><path d="M416.69,411.72c-.14-.29,10-9.12,21.68-8.58s17.22,6.16,29.63,7.29,18.6-3.74,19.41-3.05-9.14,19.24-30.5,12.32a9.85,9.85,0,0,1-9.5,6.34c-7.35-.08-15.38-9-15.38-9s-1.09,2.54-4.72,2C422.48,418.43,416.69,411.72,416.69,411.72Z" style="fill:#455a64"></path><path d="M448.84,410c5.36,1.43,10.61,3.44,16.16,4.05a29.4,29.4,0,0,0,15.94-2.81.06.06,0,0,0-.06-.11,31.43,31.43,0,0,1-19.25,1.59c-5.44-1.22-10.63-3.37-16.1-4.5a49.65,49.65,0,0,0-16.67-.56c-5,.69-10.94,2-15.19,4.93-.16.1,0,.39.16.34q1-.33,2-.69c4.4-.64,8.43-.34,12.35,2a.18.18,0,0,0,.2-.3,15.7,15.7,0,0,0-9.15-3c.89-.33,1.79-.64,2.72-.89s1.63-.42,2.46-.6a45.89,45.89,0,0,1,12.77,1.65,35.21,35.21,0,0,1,13.31,7.39c.11.1.28,0,.17-.15-5.29-5-12.65-9.08-20.2-9.89h0A50.59,50.59,0,0,1,448.84,410Z" style="fill:#fff"></path><path d="M277.44,364.12c.14-.29-10-9.11-21.68-8.57s-17.22,6.15-29.63,7.28-18.6-3.74-19.41-3.05,9.14,19.25,30.5,12.32a9.86,9.86,0,0,0,9.5,6.34c7.35-.07,15.38-8.95,15.38-8.95s1.09,2.55,4.73,2C271.65,370.83,277.44,364.12,277.44,364.12Z" style="fill:#455a64"></path><path d="M245.29,362.42c-5.36,1.43-10.61,3.44-16.16,4.05a29.26,29.26,0,0,1-15.93-2.81c-.08,0,0-.14.05-.11a31.44,31.44,0,0,0,19.25,1.59c5.45-1.22,10.63-3.37,16.1-4.5a49.65,49.65,0,0,1,16.67-.56c5,.69,11,2,15.2,4.93.15.11,0,.39-.16.34-.68-.21-1.35-.45-2-.69-4.4-.64-8.43-.34-12.35,2a.18.18,0,0,1-.2-.3,15.7,15.7,0,0,1,9.15-3c-.89-.33-1.79-.63-2.72-.89s-1.63-.42-2.46-.6a45.89,45.89,0,0,0-12.77,1.65,35.29,35.29,0,0,0-13.31,7.39c-.11.1-.28-.05-.17-.15,5.3-5,12.65-9.08,20.2-9.89h0A50.81,50.81,0,0,0,245.29,362.42Z" style="fill:#fff"></path><path d="M443,394.08c12.86-6,26.1-12,36.68-21.67A60.09,60.09,0,0,0,499,330.49a.37.37,0,0,1,.74,0c-.54,27.65-17.32,46.79-41,59.18-26.61,13.95-58.66,22.9-67.57,55.34-.17.61-1.2.45-1.12-.2C393.41,418.12,421.31,404.13,443,394.08Z" style="fill:#455a64"></path><path d="M421.94,397.45c15-13.41,26-29.47,29.81-49.48.07-.34.66-.24.61.11a81.1,81.1,0,0,1-22,44.36c-13.5,13.89-31.13,24.6-37.62,43.83a.26.26,0,0,1-.5-.16C396.3,419.27,409.63,408.47,421.94,397.45Z" style="fill:#455a64"></path><path d="M497,339.25c.52.9,1,1.84,1.51,2.83a39,39,0,0,1,1.7-4c2.7-5.51,8.72-15.26,18.92-18.85,5.64-2-7.57-11.29-16.49-11-2.42.08-5.14,9.21-5.14,9.21s-3.76-8.93-6.25-8.65-11.55,1.73-15.76,7.74C473,320.17,486.89,321.63,497,339.25Z" style="fill:#FF81AE"></path><path d="M436.81,335.79c-1.27,2.08,9,7.62,12.48,19.55.22.68.38,1.38.54,2.09,0,0,.32-.48.9-1.28,0,0,0,0,0,0,2.53-3.47,9.94-12.92,17.56-15.51,3.2-1.09-6.1-8.79-11-8.35-1.6.13-5.17,7.39-5.17,7.39s-.54-7.43-1.95-8.13S439.23,331.91,436.81,335.79Z" style="fill:#FF81AE"></path><path d="M417,410.12c11.2-11.34,27.52-14.6,42.75-15.92,19.38-1.67,37-4.85,50.58-20.18.27-.31.79,0,.52.36-10.66,13.15-24.76,19.48-41.36,21.36-8.9,1-17.94,1.2-26.7,3.18-9.55,2.16-17.18,6.75-25.3,12C417,411.18,416.68,410.46,417,410.12Z" style="fill:#455a64"></path><path d="M509.13,375a10,10,0,0,1-.45,1.41,13.17,13.17,0,0,1,1.5-.76,35.82,35.82,0,0,1,15.23-2.77c2,0,1.26-6.79-1.78-10-1.16-1.22-6.93,1.95-6.93,1.95s2-5.3,1.1-6.27-7.79-2.12-12.25,1.12C503.88,360.88,511,367.61,509.13,375Z" style="fill:#FF81AE"></path><path d="M509.13,375a10,10,0,0,1-.45,1.41,13.17,13.17,0,0,1,1.5-.76c2.49-2.46,5.06-4.64,8.56-5.77.1,0,.06-.17,0-.15a16.21,16.21,0,0,0-6.73,3.55,24.38,24.38,0,0,0,2.79-4.73c0-.06-.06-.11-.1-.06a61.9,61.9,0,0,1-4,5.53,21.79,21.79,0,0,0,2-8.78s-.05,0-.05,0A19,19,0,0,1,509.13,375Z" style="fill:#fff"></path><path d="M491.13,324.77A38.25,38.25,0,0,1,497,339.25c.52.9,1,1.84,1.51,2.83a39,39,0,0,1,1.7-4,34.19,34.19,0,0,1,6.63-14.05.15.15,0,0,0-.22-.21c-4.07,3.62-6.44,8.63-7.65,13.93a47.28,47.28,0,0,0-2-14.24c-.06-.25-.4-.12-.36.13a55.24,55.24,0,0,1,1.23,13.63,36.07,36.07,0,0,0-6.46-12.71A.15.15,0,1,0,491.13,324.77Z" style="fill:#fff"></path><path d="M447.85,343.54a25.73,25.73,0,0,1,1.44,11.8c.22.68.38,1.38.54,2.09,0,0,.32-.48.9-1.28,0,0,0,0,0,0,.07-.23.13-.47.2-.7,1.89-4.61,4.4-9,8.2-11.63.07-.05,0-.16-.06-.13-3,1.33-5.36,4.07-7.18,7.3a59.46,59.46,0,0,0,.79-7.86s-.06,0-.06,0a85,85,0,0,1-2.18,10.73A28.43,28.43,0,0,0,448,343.48C448,343.4,447.82,343.46,447.85,343.54Z" style="fill:#fff"></path><path d="M301.69,398.21c15.87-3,36.16-4.18,51.17,3.41-11.55-9.71-26.2-16.77-39.61-22-15.45-6-31.39-11.16-45.56-19.92s-24.49-21.19-34.56-34.33c-.1-.14.12-.28.22-.15,12.55,15.73,26.85,29.22,45.11,38,12.74,6.14,26.24,10.45,39.38,15.63-8.35-4.35-16.45-9-22.84-16.13a57.24,57.24,0,0,1-14.46-42c0-.41.72-.37.72,0-.13,16.57,6.5,33,18.82,44.25,10.37,9.47,24.31,13.8,35.55,21.92,22,11.81,42.38,31.52,39.13,58.46-.06.47-.87.44-.85,0,.76-15.24-5.15-27.51-14.39-37.42-15.57-12.21-38.25-9.84-57.78-9.07A.33.33,0,0,1,301.69,398.21Z" style="fill:#455a64"></path><path d="M279.71,326.83c.56.77,1.11,1.61,1.65,2.49,0,0,.3-.78,1-2.09a48.71,48.71,0,0,1,16.76-18.49c3-1.92-8.84-10.52-14.63-10-3.51.33-3.71,7.62-4,7.72s-2.33-6.24-4.78-6.74S262.92,306.58,260.8,315C260.6,315.72,270.46,313.87,279.71,326.83Z" style="fill:#FF81AE"></path><path d="M237.84,334.78A17.45,17.45,0,0,1,241,336.2a.46.46,0,0,1,.13.08A15.09,15.09,0,0,1,243.6,338a21.9,21.9,0,0,1-.95-2.85,30.67,30.67,0,0,1,6.8-28.53c1.2-1.39-11.77-8.58-21.65-1.86-2.12,1.44-.37,12.12-.37,12.12s-8.59-6.27-11-4.39-8,11.28-5.56,23.58C211.18,337.4,226.31,330.88,237.84,334.78Z" style="fill:#FF81AE"></path><path d="M297.19,417.57c2,.42-2.31-8.49,5.2-18.38l.28-.38a.66.66,0,0,1,.14-.15,9.46,9.46,0,0,1,.64-.78s-.65,0-1.68-.13c-3-.38-9.23-1.83-12-7.5-1.18-2.38-6.45,5.67-3.9,12.33.5,1.29,5.95,1,5.95,1s-3.07,3.57-3.2,5.45S293.69,416.83,297.19,417.57Z" style="fill:#FF81AE"></path><path d="M281.36,329.32s.3-.78,1-2.09a27.64,27.64,0,0,1,6-14.66c.06-.07-.05-.14-.1-.08A31.09,31.09,0,0,0,281,325.64a44.27,44.27,0,0,1-.26-10.26.12.12,0,0,0-.24,0,46.9,46.9,0,0,0-.53,10.36,29.74,29.74,0,0,0-3.09-4.81.09.09,0,1,0-.15.11,31.05,31.05,0,0,1,3,5.82C280.27,327.6,280.82,328.44,281.36,329.32Z" style="fill:#fff"></path><path d="M234.1,326.53a94.5,94.5,0,0,0,7.06,9.75A15.09,15.09,0,0,1,243.6,338a21.9,21.9,0,0,1-.95-2.85c-2.92-4.58-4.83-9.55-4.51-15.52,0-.12-.17-.15-.19,0a25.2,25.2,0,0,0,3.44,15.21c-2.46-2.72-4.85-5.49-7.12-8.38C234.19,326.31,234,326.43,234.1,326.53Z" style="fill:#fff"></path><path d="M227.1,329.39a34,34,0,0,1,10.74,5.39A17.45,17.45,0,0,1,241,336.2a37.67,37.67,0,0,0-13.83-7.06C227,329.09,226.92,329.35,227.1,329.39Z" style="fill:#fff"></path><path d="M294.14,402.27a29,29,0,0,1,8.67-3.61,9.46,9.46,0,0,1,.64-.78s-.65,0-1.68-.13a13.2,13.2,0,0,1-8.89-2.36c-.05-.05-.12,0-.07.09a14.34,14.34,0,0,0,8.79,2.95,19.32,19.32,0,0,0-7.52,3.76A.05.05,0,0,0,294.14,402.27Z" style="fill:#fff"></path><path d="M296.24,404.86a19.52,19.52,0,0,1,6.15-5.67l.28-.38a12.89,12.89,0,0,0-6.58,6C296.05,404.86,296.18,404.93,296.24,404.86Z" style="fill:#fff"></path><path d="M370.38,421.93s2.18-25.84-7.3-34.35S370.38,421.93,370.38,421.93Z" style="fill:#455a64"></path><path d="M335.63,386.93s-7.87-28.82-15.84-27.58C312.71,360.46,335.63,386.93,335.63,386.93Z" style="fill:#455a64"></path><path d="M190.48,142.25a73.5,73.5,0,0,1-22.1,7.54c-2.56.46-11.07,1.37-8.3-4a48.85,48.85,0,0,1,5.72-20.29c1.6-2.91,5.57-11.56,9.81-10.09,2.22.77,1.35,2.34,1.94,3.9,1.6,4.29,4.83-1,7-3,3-2.74,6.08-4.45,8.57-2.36,3,2.56,1.27,7.94-.08,10.44-.61,1.12-6.46,8,0,7.77C200.19,131.94,196.94,138.75,190.48,142.25Z" style="fill:#FF81AE"></path><path d="M161,118.3a73.19,73.19,0,0,1,.35,23.35c-.36,2.58-2.12,10.95-6.37,6.66a48.74,48.74,0,0,1-17.53-11.71c-2.27-2.42-9.28-8.87-6.57-12.45,1.42-1.87,2.65-.55,4.32-.63,4.57-.2.52-4.91-.71-7.59-1.67-3.72-2.35-7.16.4-8.87,3.38-2.11,8,1.24,9.91,3.3.88.92,5.57,8.6,7.39,2.4C154.16,105.88,159.64,111.08,161,118.3Z" style="fill:#FF81AE"></path><path d="M129.07,139a72.94,72.94,0,0,1,22.31,6.89c2.34,1.13,9.77,5.39,4.36,8.11A48.66,48.66,0,0,1,139.19,167c-3,1.41-11.3,6.09-13.86,2.4-1.35-1.93.28-2.69.72-4.3,1.23-4.4-4.5-2-7.43-1.67-4.06.43-7.53,0-8.31-3.12-1-3.87,3.64-7.18,6.19-8.4,1.16-.56,9.91-2.65,4.58-6.29C115.16,141.61,121.79,138,129.07,139Z" style="fill:#FF81AE"></path><path d="M138.87,175.7a73.62,73.62,0,0,1,13.45-19.1c1.8-1.87,8.15-7.61,9.07-1.63a48.64,48.64,0,0,1,7.29,19.77c.42,3.29,2.3,12.63-2,13.93-2.25.68-2.46-1.1-3.86-2-3.81-2.53-3.31,3.66-3.89,6.55-.84,4-2.3,7.17-5.54,6.94-4-.28-5.7-5.68-6.07-8.49-.17-1.26.55-10.24-4.57-6.29C137.08,189.74,135.7,182.32,138.87,175.7Z" style="fill:#FF81AE"></path><path d="M176.83,177.72a73.29,73.29,0,0,1-14-18.69c-1.23-2.29-4.73-10.1,1.24-9.13a48.6,48.6,0,0,1,21.06-.82c3.26.62,12.72,1.71,12.63,6.2,0,2.35-1.81,2-3.12,3.05-3.58,2.85,2.46,4.28,5,5.72,3.54,2,6.11,4.41,4.9,7.42-1.5,3.69-7.17,3.66-10,3.15-1.25-.23-9.57-3.68-7.39,2.4C189.63,183.77,182.15,182.78,176.83,177.72Z" style="fill:#FF81AE"></path><g style="opacity:0.5"><path d="M179.76,144.05A48,48,0,0,1,165.28,149c-1.68.3-7.25.9-5.44-2.63a32,32,0,0,1,3.75-13.29c1-1.9,3.65-7.58,6.43-6.61,1.45.5.88,1.53,1.27,2.56,1,2.81,3.16-.67,4.58-2,2-1.79,4-2.91,5.61-1.55,2,1.68.84,5.21,0,6.85-.4.73-4.23,5.21,0,5.09C186.12,137.29,184,141.76,179.76,144.05Z" style="fill:#fffefd;opacity:0.6000000000000001"></path><path d="M160.42,128.35a48,48,0,0,1,.22,15.31c-.23,1.68-1.38,7.17-4.17,4.36A31.83,31.83,0,0,1,145,140.34c-1.49-1.58-6.08-5.81-4.31-8.15.93-1.23,1.73-.37,2.83-.42,3-.13.34-3.22-.46-5-1.1-2.44-1.55-4.69.26-5.81,2.21-1.38,5.21.81,6.49,2.16.58.61,3.65,5.64,4.84,1.57C156,120.22,159.55,123.62,160.42,128.35Z" style="fill:#fffefd;opacity:0.6000000000000001"></path><path d="M139.52,141.9a48,48,0,0,1,14.62,4.52c1.53.74,6.4,3.53,2.86,5.31a31.85,31.85,0,0,1-10.85,8.55c-2,.93-7.4,4-9.08,1.58-.88-1.27.18-1.76.47-2.82.81-2.89-2.95-1.32-4.86-1.1-2.67.29-4.94,0-5.46-2-.62-2.54,2.39-4.7,4.07-5.51.75-.36,6.49-1.73,3-4.12C130.4,143.63,134.75,141.27,139.52,141.9Z" style="fill:#fffefd;opacity:0.6000000000000001"></path><path d="M146,166a47.82,47.82,0,0,1,8.81-12.51c1.18-1.22,5.34-5,5.94-1.07a32,32,0,0,1,4.78,13c.27,2.15,1.5,8.27-1.31,9.12-1.48.45-1.62-.72-2.53-1.32-2.5-1.66-2.18,2.4-2.55,4.29-.55,2.62-1.51,4.7-3.63,4.55-2.61-.18-3.74-3.72-4-5.56-.11-.83.36-6.71-3-4.12C144.77,175.17,143.87,170.3,146,166Z" style="fill:#fffefd;opacity:0.6000000000000001"></path><path d="M170.82,167.29A48,48,0,0,1,161.64,155c-.8-1.5-3.1-6.62.82-6a31.82,31.82,0,0,1,13.8-.54c2.13.41,8.33,1.12,8.27,4.07,0,1.54-1.19,1.31-2,2-2.35,1.87,1.61,2.81,3.29,3.75,2.32,1.34,4,2.89,3.21,4.86-1,2.42-4.69,2.41-6.52,2.07-.82-.15-6.27-2.42-4.85,1.57C179.21,171.25,174.3,170.61,170.82,167.29Z" style="fill:#fffefd;opacity:0.6000000000000001"></path></g><path d="M163,154.11a5.69,5.69,0,1,1,1.1-8A5.68,5.68,0,0,1,163,154.11Z" style="fill:#fff"></path><path d="M621.68,167.68a62.34,62.34,0,0,1-14.49,13.63c-1.82,1.25-8.09,5-7.84-.19a41.4,41.4,0,0,1-2.7-17.74c.22-2.82.25-10.93,4.05-11.28,2-.18,1.87,1.34,2.88,2.35,2.75,2.76,3.39-2.49,4.36-4.8,1.39-3.19,3.15-5.59,5.81-4.85,3.27.92,3.79,5.72,3.62,8.13-.08,1.08-2.21,8.45,2.73,6C625.58,156.27,625.46,162.7,621.68,167.68Z" style="fill:#FF81AE"></path><path d="M590.36,159.5a62.47,62.47,0,0,1,8.49,18c.63,2.12,2.21,9.23-2.6,7.4A41.59,41.59,0,0,1,578.54,182c-2.62-1.08-10.32-3.61-9.48-7.34.45-2,1.86-1.37,3.13-2,3.47-1.77-1.32-4-3.22-5.64-2.6-2.3-4.35-4.72-2.81-7,1.88-2.82,6.6-1.83,8.84-.93,1,.41,7.35,4.71,6.58-.73C580.72,152.26,586.79,154.37,590.36,159.5Z" style="fill:#FF81AE"></path><path d="M572.91,186.76a62.14,62.14,0,0,1,19.73-2.51c2.2.05,9.46.74,6.23,4.76A41.45,41.45,0,0,1,590.63,205c-1.83,2.15-6.62,8.69-9.91,6.74-1.72-1-.72-2.18-1-3.59-.6-3.85-4.2,0-6.35,1.32-3,1.76-5.83,2.67-7.55.5-2.1-2.66.3-6.84,1.85-8.69.7-.84,6.76-5.54,1.34-6.49C563,193.69,566.92,188.56,572.91,186.76Z" style="fill:#FF81AE"></path><path d="M593.43,211.78a62.65,62.65,0,0,1,3.71-19.54c.74-2.08,3.64-8.77,6.46-4.46a41.42,41.42,0,0,1,12.61,12.77c1.48,2.41,6.23,9,3.35,11.51-1.5,1.32-2.3,0-3.7-.21-3.85-.62-1.29,4-.71,6.45.75,3.39.74,6.37-1.85,7.33-3.19,1.18-6.43-2.4-7.7-4.45-.58-.92-3.18-8.13-5.76-3.27C597,223.31,593.3,218,593.43,211.78Z" style="fill:#FF81AE"></path><path d="M623.58,200a62.27,62.27,0,0,1-17.44-9.56c-1.75-1.35-7.22-6.17-2.25-7.52a41.53,41.53,0,0,1,16-8c2.75-.67,10.47-3.15,12,.37.79,1.84-.7,2.19-1.34,3.46-1.78,3.47,3.41,2.45,5.91,2.67,3.46.33,6.29,1.26,6.41,4,.14,3.39-4.27,5.37-6.61,6-1.06.26-8.72.51-4.89,4.46C635.64,200.18,629.48,202.05,623.58,200Z" style="fill:#FF81AE"></path><g style="opacity:0.5"><path d="M614,172.85a40.87,40.87,0,0,1-9.49,8.93c-1.19.82-5.31,3.25-5.14-.12A27.12,27.12,0,0,1,597.6,170c.14-1.85.16-7.16,2.65-7.39,1.31-.12,1.23.88,1.89,1.54,1.8,1.8,2.22-1.64,2.86-3.15.91-2.09,2.06-3.66,3.81-3.17,2.14.6,2.48,3.74,2.36,5.32,0,.71-1.44,5.54,1.8,3.95C616.56,165.37,616.48,169.58,614,172.85Z" style="fill:#fffefd;opacity:0.6000000000000001"></path><path d="M593.48,167.49A40.65,40.65,0,0,1,599,179.27c.41,1.39,1.45,6.06-1.7,4.85a27.13,27.13,0,0,1-11.61-1.91c-1.71-.7-6.76-2.36-6.21-4.81.29-1.28,1.22-.89,2.05-1.31,2.27-1.16-.87-2.62-2.11-3.69-1.71-1.51-2.85-3.1-1.84-4.61,1.23-1.85,4.32-1.2,5.79-.6.66.26,4.82,3.08,4.31-.49C587.16,162.74,591.14,164.12,593.48,167.49Z" style="fill:#fffefd;opacity:0.6000000000000001"></path><path d="M582,185.35A41,41,0,0,1,595,183.7c1.45,0,6.2.49,4.08,3.12a27.11,27.11,0,0,1-5.4,10.45c-1.2,1.41-4.34,5.7-6.49,4.42-1.13-.68-.47-1.44-.62-2.36-.39-2.52-2.76,0-4.16.87-2,1.15-3.83,1.75-5,.33-1.38-1.75.2-4.49,1.21-5.7.46-.55,4.43-3.63.88-4.25C575.58,189.89,578.12,186.53,582,185.35Z" style="fill:#fffefd;opacity:0.6000000000000001"></path><path d="M595.49,201.75a40.84,40.84,0,0,1,2.43-12.81c.48-1.36,2.39-5.75,4.23-2.92a27.18,27.18,0,0,1,8.27,8.37c1,1.57,4.08,5.88,2.19,7.54-1,.86-1.51,0-2.43-.14-2.52-.41-.84,2.62-.46,4.22.49,2.23.48,4.18-1.21,4.81-2.09.77-4.21-1.57-5-2.91-.38-.61-2.08-5.33-3.77-2.15C597.82,209.3,595.41,205.84,595.49,201.75Z" style="fill:#fffefd;opacity:0.6000000000000001"></path><path d="M615.24,194a40.77,40.77,0,0,1-11.42-6.27c-1.15-.88-4.73-4-1.47-4.92a27.1,27.1,0,0,1,10.51-5.28c1.8-.44,6.86-2.06,7.85.24.51,1.21-.46,1.44-.88,2.27-1.17,2.27,2.23,1.61,3.87,1.75,2.27.22,4.12.83,4.2,2.64.09,2.22-2.8,3.51-4.33,3.89-.7.18-5.72.34-3.21,2.93C623.14,194.14,619.11,195.37,615.24,194Z" style="fill:#fffefd;opacity:0.6000000000000001"></path></g><path d="M604.54,186.55a4.84,4.84,0,1,1-1.95-6.56A4.83,4.83,0,0,1,604.54,186.55Z" style="fill:#fff"></path><path d="M257.89,138.82c.92,1.66.2,3.29,2.75,4.3.71.28,1.73-.19,2.52.21a2.23,2.23,0,0,1,1.23,2.43c-.13,2.09-2.33,4.63-2.92,6.54-3.62,11.84-9,15.83-7.38,26.87.11.79-2.11.92-2.16.87h0c-6,1.08-10,5.12-14.12,9.36-2.2,2.27-7,7.57-10.8,5.65a3,3,0,0,1-1.63-2.35c-.14-1,.55-1.79.54-2.71.64-1,.24-1.46-1.18-1.49l-1,.29c-2.79.42-7.52,3-8.88-1.34a3.8,3.8,0,0,1,.68-3.37c1.14-1.72,5-3.13,5.27-4.92,0-.25-.59-.84-.69-1.13a4.32,4.32,0,0,1-.13-2.14,5,5,0,0,1,2.83-3.44c4-2.08,9.73-.85,13.87.07,1.27.28,2.53.63,3.78,1a78.61,78.61,0,0,0-8.93-3.23c-5.34-1.52-12.22-1.89-16.92-5.05-2.34-1.58-2.77-3.77-.77-5.29,2.58-1.94.44-3.62-.59-4.64a32,32,0,0,1-4.77-5c-1.44-2.16-2.42-5.21.56-6.54,2.06-.91,4.06-.27,6.13,0,3.24.44,2.44-1.37,2.85-2.55a5.68,5.68,0,0,1,.79-1.71c5.48-7.18,15.14,6.18,17.64,10,2.25,3.4,6.58,11.71,8.36,15.37-.83-2.86-3.81-10.55-4.19-13.49-.26-2.07-1.5-7.57,2-7.74,2.21-.11,3,3,5.59,1.34,1.43-.92,2-4.77,3.17-6.23C253.27,136.37,256.32,136,257.89,138.82Z" style="fill:#FF81AE"></path><g style="opacity:0.6000000000000001"><path d="M232.82,185.15a31.92,31.92,0,0,1,16.71-6.24,81.55,81.55,0,0,0-19-.39.18.18,0,0,1-.06-.36,48.47,48.47,0,0,1,23,.74l-.09-.13c-8.42-7.1-16.7-13.47-27.61-16.46-.21-.06-.14-.41.08-.37,9.39,1.55,18,6.83,25,13.33a207.43,207.43,0,0,0-21-21.12.15.15,0,0,1,.17-.25,91.3,91.3,0,0,1,21.78,21c0-.16-.1-.31-.14-.48a34,34,0,0,1-1.77-23.64c.06-.22.4-.1.34.12a34.68,34.68,0,0,0,1,20.3c-.21-4.89,1.27-10.07,3.07-14.44a.2.2,0,0,1,.37.13c-1.41,6-3.32,12.16-1.94,18,.78,1.67,2.7,5,2.71,5,.16.18-9.53-1.41-22.39,5.57C232.84,185.56,232.64,185.28,232.82,185.15Z" style="fill:#fffefd"></path><path d="M255.11,154.21c.36-.49.52-1.05.84-1.55.09-.15.3,0,.3.11a3,3,0,0,1-.8,1.67C255.29,154.65,255,154.42,255.11,154.21Z" style="fill:#fffefd"></path><path d="M226,151.41a.16.16,0,0,1,.18-.26,11.49,11.49,0,0,1,2.11,1.46.16.16,0,0,1-.18.26A11.34,11.34,0,0,1,226,151.41Z" style="fill:#fffefd"></path><path d="M226.1,179.39a2.89,2.89,0,0,1,1.5-.38s0,.07,0,.08a5,5,0,0,0-1.42.42C226.11,179.54,226,179.44,226.1,179.39Z" style="fill:#fffefd"></path><path d="M230.91,186.78a1.89,1.89,0,0,1,1-.84.13.13,0,0,1,.11.24,11.23,11.23,0,0,0-1,.7C231,186.93,230.87,186.87,230.91,186.78Z" style="fill:#fffefd"></path></g><path d="M254.57,174.39c3.12,3.07,6.08,6.44,8.95,9.75.18.22,4.93,5.09,7,7.48,8.52,9.93,13.88,22,20.09,33.41L288.41,220a63.61,63.61,0,0,1-4.74-14.52c-1.64-9.93.71-20.27,1.52-30.17,0,0,0,0,0-.07-.47-.73.58-1.68,1.2-1a119.29,119.29,0,0,1,10.31,14c2.73,4.17,5.25,8.64,6,13.63.81,5.18-.57,10.3-1.8,15.3q-2.16,8.71-4.63,17.34c0,.13.1.26.13.4s0,.12,0,.17c5.36,8.6,11.59,16.65,19.36,23.18a71.32,71.32,0,0,0,41.75,16.41c.51,0,.57.82.05.81-14-.06-26.89-3.49-38.5-11.48-10.8-7.4-19.14-17.78-25.92-28.88-2.73-4.45-5.12-9.07-7.47-13.74h0c-3.63-2.71-9.05-2.78-13.38-3.54a40.17,40.17,0,0,1-10.16-2.89c-6.62-3.1-17.07-17.73-16.17-17.52,7.81,1.9,16.37,1.42,23.71,5.08,5.37,2.68,9.63,8.08,13.2,13.24a162.26,162.26,0,0,0-10.39-18.46c-4.39-6.47-9.54-12.21-16.43-16.06-3.73-2.08-11.27-6.07-8.55-9.23C248.8,170.37,252.73,172.6,254.57,174.39Z" style="fill:#455a64"></path><path d="M527.51,196.69a111.23,111.23,0,0,0-15-3.17c-5.84-.78-12.07-1.3-17.3,1.93a.67.67,0,0,1-.65.07l-.63.25c-.82.28-1.4-1-.61-1.38.41-.19.82-.44,1.22-.67a2.12,2.12,0,0,1,.12-.2c.2-.24.38-.49.57-.74.31-6.67-3.49-12.5-7.93-17.18-2.2-2.29-4.62-4.39-6.73-6.77-1.08-1.2-2.25-2.56-2-4.31a2.81,2.81,0,0,1,1.81-2.26c1.18-.42,2.26.58,3.27.06,1.24-.63,0-1.36-.65-2.26-.34-.49-.67-1-1-1.47a26,26,0,0,1-1.89-2.88,4.93,4.93,0,0,1-.58-3.8c.95-2.9,4.21-2.37,6.44-1.48,1.63.65,2.83,2.33,4.3,2.92,3,1.18,2.07-1.57,3.36-2.56,6-4.68,7.49,15.53,7.73,18s-.52,8.45-.53,11c3.19-9.12,2.61-20,.19-28.17-.93-3.13-3.38-8-.18-10.67a3.13,3.13,0,0,1,4.14-.11c1.26.88.92,1.64,2.84,1.38s1.31,0,1.62-1.54a18.77,18.77,0,0,1,.58-2.11c1-2.74,3.63-6.66,7.1-5.27,1.93.78,2.6,2.84,3,4.7.24,1.32.17,2.69.42,4s-.13,2.61,1.2,3.54c0,0,1.91.33,1.11,0,1.63.74,2.73,1.07,3.44,3a10.13,10.13,0,0,1,0,5.75c-1.31,5.69-4.85,11.2-8,16a104.08,104.08,0,0,1-10.91,14.17l4.23-3.4c3.73-3.05,8.33-7.4,13.1-8.66,2.27-.61,4.49.16,4.18,2.8-.11.8-.7,1-.58,1.89.19,1.37.09.49,1.19.63a12.5,12.5,0,0,0,1.81-.15,37.58,37.58,0,0,1,6.79.2c2.51.3,5.92,1.13,5.41,4.41s-7.08,4.56-6.27,6.85c.47,1.28,1.58,1.71,1.57,3.37a4.81,4.81,0,0,1-1.64,3.59C534.5,198.39,530.64,197.55,527.51,196.69Z" style="fill:#FF81AE"></path><g style="opacity:0.6000000000000001"><path d="M523.4,190.64c.31,0,.34-.53,0-.54-7.18-.44-14.29-1.07-21.09.53,5.8-2.35,11.61-4.73,17.28-7.28.27-.12.22-.62-.12-.56a72.35,72.35,0,0,0-20.27,7.69,57.91,57.91,0,0,0,17.88-26.77c.06-.18-.25-.28-.32-.1a65.72,65.72,0,0,1-15.88,23.81,66.86,66.86,0,0,0,6.92-14.66c2.33-6.92,3.89-16.47,1.5-23.54-.13-.37-.68-.16-.57.21,1.21,4.26.71,8.55.12,12.87a46.49,46.49,0,0,1-2.76,11.8,85.58,85.58,0,0,1-9.47,17l-.19.15c4.21-6.27,3.83-14.81,3.05-22a.18.18,0,0,0-.36,0c-.16,6.63-.3,12.73-2.42,18.74.74-4,0-7.79-.91-12.21-1.27-5.86-3.15-11.4-6.66-16.3a.26.26,0,0,0-.42.29,53.32,53.32,0,0,1,5.62,15.12c.58,2.57,1.11,5.18,1.5,7.78.53,3.41-.15,6-1.26,9.28a.45.45,0,0,0,.25.57l-.15.12a.52.52,0,0,0,.12.91c-.08.29.21.67.55.53C504.15,190.41,514,190.17,523.4,190.64Z" style="fill:#fffefd"></path><path d="M527.51,190.85a.27.27,0,0,0,0-.5,4.59,4.59,0,0,0-1.73-.18c-.37,0-.41.62,0,.65A4.69,4.69,0,0,0,527.51,190.85Z" style="fill:#fffefd"></path><path d="M524.16,182c.21-.06.09-.37-.12-.32-1.17.28-2.32.63-3.48,1-.19.06-.08.35.11.3C521.84,182.64,523,182.36,524.16,182Z" style="fill:#fffefd"></path><path d="M528.23,181.31a.18.18,0,0,0-.08-.35c-.71.08-1.39.37-2.11.48-.28,0-.19.47.08.38C526.81,181.59,527.55,181.55,528.23,181.31Z" style="fill:#fffefd"></path><path d="M518.31,159.06a9.68,9.68,0,0,0,.19-5.49.24.24,0,0,0-.46,0c-.08.88,0,1.78,0,2.67s-.25,1.78-.29,2.67A.31.31,0,0,0,518.31,159.06Z" style="fill:#fffefd"></path><path d="M517.45,162.28c.13-.55.27-1.09.4-1.64,0-.16-.21-.2-.25,0-.14.54-.28,1.08-.41,1.63C517.14,162.39,517.41,162.44,517.45,162.28Z" style="fill:#fffefd"></path><path d="M499,165.85a19.83,19.83,0,0,0-1.62-5.37c-.12-.23-.51-.11-.4.15a26.45,26.45,0,0,1,1.82,5.24C498.79,166,499,166,499,165.85Z" style="fill:#fffefd"></path></g><path d="M428.67,268.74c-2.08-10.51-1.26-21.37,5-30.38,3.88-5.61,9.08-9.9,14.74-13.53,3-8.53,3.14-17.62,6-26.14s9.33-14.79,15.71-20.84a1,1,0,0,1,1.75.63c0,9.21-.17,18.77-3.9,27.35-2.92,6.67-8.35,11-13.67,15.52,1.74-1,3.49-1.88,5.26-2.78,10-5.06,19.58-10,28.16-17a.55.55,0,0,1,.18-.32c4.24-3.39,4.57-9,6.78-13.62,1.09-2.29,4.06-5.69,6.43-2.66,1.72,2.2.26,5.31-1.14,7.23-2.81,3.84-6.66,7.2-10.26,10.26a103.15,103.15,0,0,1-16,11c6.15-1.91,12.69-3.38,18.81-2.64,7.06.83,13.26,6.09,17.66,11.36a.79.79,0,0,1-.46,1.26.63.63,0,0,1-.5.16c-7.33-.54-14.57,1.76-21.88.83A31.82,31.82,0,0,1,470,215.94l-1.39.37c-2.37,1.28-4.79,2.52-7.22,3.77-9.12,4.64-18.53,9.85-24.87,18.14-6.74,8.81-7.79,19.6-6.6,30.31C430,269.21,428.82,269.41,428.67,268.74Z" style="fill:#455a64"></path><path d="M177.59,252.71s-14.85-9.84-26.25-3.78-13.69,22.18-29.54,26.56c-1.51.42,22.52,5.61,30.74-9.88,0,0,8.78,4.22,16.56-7.79C169.1,257.82,173.11,261,177.59,252.71Z" style="fill:#455a64"></path><path d="M150.38,254c-7.86,5.23-11.85,14.57-20,19.54a.16.16,0,0,0,.17.28c7.29-3.93,11.32-11.21,17.41-16.53,9-7.88,20.55-6.95,31.36-4,.36.1.48-.42.14-.56C170.23,249.12,159,248.28,150.38,254Z" style="fill:#fff"></path></g><g id="freepik--female-reproductive-system--inject-312"><path d="M280.93,170.28s-4.87-19.28-30.5-34.65c-17.58-10.55-91.6-23.37-109.85-8.21s-23.39,71.75-3.85,90.32,54.45,19.86,54.45,19.86l-1.92,16.33s-45.66-1.6-68.63-20.17-28.42-92.25,2-121.71S227.69,99,250.75,106.68s68.5,22.51,80.53,24S297.91,169,280.93,170.28Z" style="fill:#FF81AE"></path><path d="M280.93,170.28s-4.87-19.28-30.5-34.65c-17.58-10.55-91.6-23.37-109.85-8.21s-23.39,71.75-3.85,90.32,54.45,19.86,54.45,19.86l-1.92,16.33s-45.66-1.6-68.63-20.17-28.42-92.25,2-121.71S227.69,99,250.75,106.68s68.5,22.51,80.53,24S297.91,169,280.93,170.28Z" style="fill:#fffefd;opacity:0.6000000000000001"></path><path d="M449.37,266.12c-13.12,23.34-27.3,38.44-29.84,65.07-2.41,25.13-3.25,96.16-15.88,109.76A47.84,47.84,0,0,1,375,455.78,47.84,47.84,0,0,1,346.35,441c-12.63-13.6-13.47-84.63-15.88-109.76-2.54-26.63-16.72-41.73-29.84-65.07-7.06-12.59-37-63.22-21.93-91.91s54.45-51.06,96.3-51.06,81.25,22.37,96.3,51.06S456.43,253.53,449.37,266.12Z" style="fill:#FF81AE"></path><path d="M449.37,266.12c-13.12,23.34-27.3,38.44-29.84,65.07-2.41,25.13-3.25,96.16-15.88,109.76A47.84,47.84,0,0,1,375,455.78,47.84,47.84,0,0,1,346.35,441c-12.63-13.6-13.47-84.63-15.88-109.76-2.54-26.63-16.72-41.73-29.84-65.07-7.06-12.59-37-63.22-21.93-91.91s54.45-51.06,96.3-51.06,81.25,22.37,96.3,51.06S456.43,253.53,449.37,266.12Z" style="fill:#fffefd;opacity:0.6000000000000001"></path><path d="M386.32,265.9v77c0,13.11,20.05,25.13,20.05,34.26,0,8.29-5.35,52.3-14.52,73.05A45.94,45.94,0,0,1,375,455.78a45.94,45.94,0,0,1-16.85-5.61c-9.17-20.75-14.52-64.76-14.52-73.05,0-9.13,20.05-21.15,20.05-34.26v-77c0-16.8-46-37.59-46-52.91s28.08-38.3,57.3-38.3,57.3,23,57.3,38.3S386.32,249.1,386.32,265.9Z" style="opacity:0.1"></path><path d="M469.07,170.28s4.87-19.28,30.5-34.65c17.58-10.55,91.6-23.37,109.85-8.21s23.39,71.75,3.85,90.32-54.45,19.86-54.45,19.86l1.92,16.33s45.66-1.6,68.63-20.17,28.42-92.25-2-121.71S522.31,99,499.25,106.68s-68.5,22.51-80.53,24S452.09,169,469.07,170.28Z" style="fill:#FF81AE"></path><path d="M469.07,170.28s4.87-19.28,30.5-34.65c17.58-10.55,91.6-23.37,109.85-8.21s23.39,71.75,3.85,90.32-54.45,19.86-54.45,19.86l1.92,16.33s45.66-1.6,68.63-20.17,28.42-92.25-2-121.71S522.31,99,499.25,106.68s-68.5,22.51-80.53,24S452.09,169,469.07,170.28Z" style="fill:#fffefd;opacity:0.6000000000000001"></path></g><g id="freepik--plants-1--inject-312"><path d="M370.81,251.75c-1.26.95-6.87-28.41-25.86-43.92s-29.75-15.4-31.41-16.41,5.1-12.53,18.15-16.6,26.51,9.71,26.51,9.71,9.25-9.23,18.85-2.87C394.17,193,375,248.65,370.81,251.75Z" style="fill:#FF81AE"></path><path d="M403.4,180.44c-16,3.62-34.42,29.54-32.59,71.31.12,2.82,20.29-27.35,76.44-53.4,5-2.33-5.92-16-27.81-9.95C419.44,188.4,417.32,177.3,403.4,180.44Z" style="fill:#FF81AE"></path><path d="M447.25,198.35c-56.15,26.05-76.31,56.22-76.44,53.41-1.27.94-6.87-28.42-25.85-43.93s-29.76-15.4-31.42-16.41,5.1-12.54,18.15-16.6,26.5,9.71,26.5,9.71,9.26-9.23,18.86-2.86c4.09,2.71,6.11,8,6.75,14.4,5.86-8.76,12.93-14.13,19.6-15.63,13.92-3.14,16,8,16,8C441.33,182.31,452.26,196,447.25,198.35Z" style="opacity:0.30000000000000004"></path><path d="M405.58,221.46c5.71-4.08-6.74-22.68-28.2-22.85-19.21-.15-28.36,14.35-29,19.69S392.46,230.83,405.58,221.46Z" style="fill:#FF81AE"></path><path d="M405.58,221.46c5.71-4.08-6.74-22.68-28.2-22.85-19.21-.15-28.36,14.35-29,19.69S392.46,230.83,405.58,221.46Z" style="fill:#fffefd;opacity:0.6000000000000001"></path><path d="M414.9,234.79c-24.34,23.36-33.08,50.49-37.3,48.94-.15-.05-.29-.12-.45-.17a8.5,8.5,0,0,1-2.28-1.64c-9.76-9.51-12.53-48,8.14-68.49,18.95-18.75,43-11.54,43-11.54,18-14,33.28-1.08,33.85,1.28S439.24,211.41,414.9,234.79Z" style="fill:#FF81AE"></path><path d="M416.05,224c-20.43,14.73-32.36,35.21-38.86,58.66,0,.31,0,.63,0,.95a8.5,8.5,0,0,1-2.28-1.64c.19-.94.39-1.89.61-2.81.48-20.08,10-39.17,24.28-53.22.2-.2.47.14.28.34-11.56,12-18.27,26.54-21.21,42.24,7.2-18.25,21-34.17,37.1-44.69C416,223.71,416.17,223.86,416.05,224Z" style="opacity:0.1"></path><path d="M366.41,272.92c-3.48-.88-7.6-23.9-33.06-39.14C308.72,219,291,217.89,289.89,216.35S304.21,184.82,335,188s29.54,30.47,30.08,30.9S377.41,222,382,234.56C388,251.35,369.48,273.7,366.41,272.92Z" style="fill:#FF81AE"></path><g style="opacity:0.1"><path d="M366.7,273.34A70.92,70.92,0,0,0,355,238.66C347.58,227.58,337.18,222,325.15,217c-.21-.08-.32.23-.12.33,11.36,5.26,21.67,11.86,28.71,22.43,6.89,10.35,9.14,21.93,12.11,33.75A.43.43,0,0,0,366.7,273.34Z"></path><path d="M345.77,219c-.16-.11-.34.14-.18.25,18,12.33,21.15,34.56,21.21,54.71a.29.29,0,0,0,.57,0C369.45,253.07,364.05,231.19,345.77,219Z"></path><path d="M376.18,224.87c-.17-.14-.26.31-.14.47,10.87,13.81,6.41,27.29-1.78,40.25a.25.25,0,0,0,.41.29C383,254.66,391,237.79,376.18,224.87Z"></path></g><path d="M386.32,275.61c-2.05,5.57-5.4,10.7-7.29,11.73-.86.47-.3,122.58-.93,168a28.07,28.07,0,0,1-3.1.49,29.06,29.06,0,0,1-3.51-.57c-.66-39.83.37-150.95.56-167.65,0-1.87-2.42-3.07-5.94-7.27a18,18,0,0,1-2.43-4.4c-2.23-5.39-4.08-13.08-6.68-16.87-2.43-3.54,2.88,2.47,6.68,7.07a52.12,52.12,0,0,1,3.31,4.27c1.13,2,.69-8.51,10.65-16.79,2.93-2.43,1.42,12.3,4.7,16.15.5.59,2.2-1.58,4-3.64,1.4-1.62,8.76-8.82,9.73-8.9C397.24,257.08,390.12,265.28,386.32,275.61Z" style="fill:#455a64"></path><path d="M339.59,300.12c-.12,2.19-9.57,6.59-19.66,5.13s-19.13-9.2-19.21-10.53,12.79-6,22.24-3.73S339.66,298.76,339.59,300.12Z" style="fill:#FF81AE"></path><path d="M339.47,299.34A76.14,76.14,0,0,0,322,298l-2.31.13a99.4,99.4,0,0,1-13.14-7.22c-.23-.15-.55.14-.35.37a25.72,25.72,0,0,0,10.86,7.1c-3.38.41-6.75,1.3-9.13,3.58a.09.09,0,0,0,.09.16c10.22-4,20.68-2.54,31.28-1.41C340.21,300.75,340.29,299.5,339.47,299.34Z" style="opacity:0.1"></path><path d="M321.65,283.1c.49-1.9-5.88-8.74-14.31-10.82s-17.71,1.5-18.12,2.6,8.6,9.29,16.74,10.48S321.35,284.27,321.65,283.1Z" style="fill:#FF81AE"></path><path d="M321.34,283.72a62.5,62.5,0,0,1-14.26-4.56c-.59-.28-1.2-.57-1.81-.88a75.52,75.52,0,0,0-12.4,1.81c-.23.05-.4-.31-.18-.44a19.77,19.77,0,0,1,10.55-2.44c-2.58-1.46-5-3.33-6.33-6,0-.09,0-.17.12-.1,7.09,6.72,15.81,9,24.57,11.49A.6.6,0,0,1,321.34,283.72Z" style="opacity:0.1"></path><path d="M375.08,353.61c1.69-16.64-4.16-33.78-14.61-46.91.24,0,3.8-8.46,0-21.67-1.5-5.22-6.36-11.84-11.28-14.48a.26.26,0,0,0-.48,0c-3.94,17.89,10.93,34.88,10.92,35.09a65.92,65.92,0,0,0-9.86-9.69,83.86,83.86,0,0,0-17-9.89c-3.68-1.68-7.4-3.31-11.11-5-2.24-1-5-2.71-7.52-2.86-2.88-.15-2.76,1.69-1.18,3.57,3.19,3.83,9.32,3.25,14,3.43,1.63.83,3.25,1.66,4.89,2.46,9.15,4.4,17.62,9.58,24.5,17.17a63.15,63.15,0,0,1,4.2,5.13,62.61,62.61,0,0,0-10.16-6.42,98.17,98.17,0,0,0-11.08-5.1c-2.05-.76-5.82-2.19-7.64-.27a.69.69,0,0,0-.18.67c1.46,4.62,7.76,2.88,11.26,2.82a.25.25,0,0,0,.2-.14c2.27,1,4.5,2.12,6.71,3.26A58.49,58.49,0,0,1,363.74,315c7,11.54,10.3,24.88,10.27,38.65C374,354.31,375,354.27,375.08,353.61Z" style="fill:#455a64"></path><path d="M342.52,359.46a65.73,65.73,0,0,0,3.05,14.9c.19.52.39,1,.59,1.52a63.14,63.14,0,0,0-9-12.42c-4.24-4.31-10.27-7.45-15.7-10-.68-.31,4.14,14.28,8.67,18.76,4.8,4.75,11.11,5.05,17.17,7.2a2.83,2.83,0,0,1,.23.28.41.41,0,0,0,.48.07c3.16,5.94,7.62,11.11,11.65,16.55,1.55,2.1,3.06,4.24,4.5,6.4a41.8,41.8,0,0,0-13.66-10.85,32.13,32.13,0,0,0-9-2.71,84.1,84.1,0,0,1-10.46-3c-.81-.54,7.92,12.23,13.31,15.11,6.25,3.33,13.19,1.81,19.91,2.76h0a.34.34,0,0,0,.39.05l.16,0a.38.38,0,0,0,.22,0,54.68,54.68,0,0,1,7.79,17.9c2.16,9.95,1.44,20.22.64,30.29a.52.52,0,0,0,1,.15c1.54-9.53,2.44-19.36.83-29-1.49-8.84-5.41-16.74-10.63-24-1.09-1.5-2.26-3-3.45-4.39,3.4-4.42,6.27-11.28,6.08-16.67-.11-3-1.42-5.77-2.78-8.39-1.52-3-4.56-10.41-4.93-9.63-2.6,5.67-5.43,12.43-5.53,18.77a20,20,0,0,0,2,8c.43,1.06.85,2.23,1.3,3.39-3.84-4.51-7.57-9.07-9.86-14.62a56.74,56.74,0,0,1-3.69-15.61c3-4.36,5.08-10.23,4.76-15.52-.19-3.34-1.66-6.33-3-9.35a60.06,60.06,0,0,0-4-8.69C341.32,326.36,332.38,348.11,342.52,359.46Z" style="fill:#455a64"></path><path d="M432.88,282.49c-.3,4.33-3.38,12.32-6.54,16.52-3.34,4.43-7.69,7.67-12.25,10.92l-.75.7a100,100,0,0,1-8.92,6.81,30.71,30.71,0,0,1,12.45-2.89,34.18,34.18,0,0,1,7.95.6c2.9.56,6.13,2.29,9,2.56.38-.09.23.2-.1.49-8.25,7.15-23.08,7.92-32,1.52a.23.23,0,0,1-.23-.16l0,0c-1.9,1.38-3.77,2.79-5.54,4.34C385,333.45,376.87,347,378.09,362c.05.62-.87.66-1,.06-2.07-14,4.9-27.21,14.85-36.57l.53-.48c-3.8-4.52-3.89-11.77-2.4-17.18a26.57,26.57,0,0,1,3.82-8.26c5.21-7.42,6-10.9,6.2-10.6,3.65,5.55,3.47,13.34,2.08,19.55-.74,3.26-1.45,6.56-3.22,9.43a38.35,38.35,0,0,1-3.21,4.32c4.48-3.55,9.34-6.52,14-10,.63-.47,1.24-1,1.84-1.46C412.51,288.88,432.93,281.88,432.88,282.49Z" style="fill:#455a64"></path><path d="M424.53,298c.28.55,7.27-8.78,16.57-11s13.06-.31,13.82-.38.35-5.26-3.53-8.92-10.94-1.13-10.94-1.13-1.67-4.82-6.12-4.23C426.39,273.41,423.61,296.19,424.53,298Z" style="fill:#FF81AE"></path><path d="M424.53,298c.28.55,7.27-8.78,16.57-11s13.06-.31,13.82-.38.35-5.26-3.53-8.92-10.94-1.13-10.94-1.13-1.67-4.82-6.12-4.23C426.39,273.41,423.61,296.19,424.53,298Z" style="opacity:0.30000000000000004"></path><path d="M422.88,272.89c6,3.53,10.17,16.47,4.15,33.29-.4,1.14-5-12-24.4-29.83-1.73-1.59,4.71-7.56,12.77-2.27C415.4,274.08,417.66,269.82,422.88,272.89Z" style="fill:#FF81AE"></path><path d="M422.88,272.89c6,3.53,10.17,16.47,4.15,33.29-.4,1.14-5-12-24.4-29.83-1.73-1.59,4.71-7.56,12.77-2.27C415.4,274.08,417.66,269.82,422.88,272.89Z" style="opacity:0.30000000000000004"></path><path d="M416.86,288.38c-2.17-1.66,2.92-8.74,11.29-8.52,7.49.19,10.86,6,11,8.05S421.85,292.21,416.86,288.38Z" style="fill:#FF81AE"></path><path d="M416.86,288.38c-2.17-1.66,2.92-8.74,11.29-8.52,7.49.19,10.86,6,11,8.05S421.85,292.21,416.86,288.38Z" style="fill:#fffefd;opacity:0.6000000000000001"></path><path d="M411.39,290.91c8.87,9.11,11.82,19.45,13.43,18.92l.17-.06a3,3,0,0,0,.88-.59c3.8-3.45,5.34-17.93-2.19-25.91a17.23,17.23,0,0,0-16-4.89c-6.61-5.5-12.52-.84-12.77,0S402.52,281.79,411.39,290.91Z" style="fill:#FF81AE"></path><path d="M411.1,286.81c7.51,5.81,11.74,13.69,13.89,22.6v.36a3,3,0,0,0,.88-.59c-.06-.35-.12-.71-.19-1.06a29.71,29.71,0,0,0-8.47-20.37c-.07-.08-.17.05-.11.13a30.52,30.52,0,0,1,7.45,16.19,36.88,36.88,0,0,0-13.4-17.32S411.06,286.78,411.1,286.81Z" style="opacity:0.1"></path><path d="M425.8,308.74c1.4.08,5.6-8,16.84-10.76,10.88-2.64,17.62-1,18.19-1.47s-1.69-13.39-13.5-15.76-14.52,7.93-14.77,8a10.25,10.25,0,0,0-8.12,3.88C420.25,298.21,424.57,308.68,425.8,308.74Z" style="fill:#FF81AE"></path><path d="M425.65,308.87A27.63,27.63,0,0,1,434,297.3c4.05-3.27,8.58-4.15,13.63-4.62a.07.07,0,1,1,0,.13c-4.84.65-9.44,1.92-13.28,5S428.42,305,426,309A.17.17,0,0,1,425.65,308.87Z" style="opacity:0.1"></path><path d="M439.72,291.05c.07,0,.11.09,0,.11-8.12,2.51-11.87,10.43-14.22,17.92a.11.11,0,0,1-.22-.05C427,301,431.5,293.48,439.72,291.05Z" style="opacity:0.1"></path><path d="M427.72,289.72c.08,0,.06.15,0,.19-5.65,3.89-5.54,9.42-4,15.19,0,.13-.15.19-.19.07C421.75,300,420.72,292.82,427.72,289.72Z" style="opacity:0.1"></path><path d="M426.16,336.11c1.61,1.13,10.25-2.43,15.17-9.58s4.83-17.11,3.94-17.88-11.72,4.77-15.7,12S425.17,335.41,426.16,336.11Z" style="fill:#FF81AE"></path><path d="M425.69,335.6A62.49,62.49,0,0,1,435,323.86l1.45-1.39a74.83,74.83,0,0,0,2.68-12.24c0-.23.43-.27.47,0A19.78,19.78,0,0,1,438.16,321c2.27-1.9,4.88-3.54,7.88-3.8.09,0,.13.11,0,.15-8.79,4.27-13.95,11.64-19.4,18.95A.6.6,0,0,1,425.69,335.6Z" style="opacity:0.1"></path><path d="M430.23,334.81c-1.75,2.11-4.56,3-7,4-13.9,5.33-28.57,11.23-37.42,23.19a99.93,99.93,0,0,0-8.86,25.62c9.09-17.57,29-18.94,28.4-18.79l-.06,0c-7.65,9.95-16.07,19.52-28.82,21.8l-.08.14a87.48,87.48,0,0,0,.84,33,.35.35,0,0,1-.68.19c-16.87-53.07,27.92-91.55,37-99.87,1.67-1.53,3.34-3.1,4.91-4.76,1.05-2.93,2.15-5.87,3.25-8.79.65-1.78,1.24-5.18,2.87-6.48s2.89-.06,2.92,1.78c.08,3.83-3.09,8.49-5.28,11.38a95,95,0,0,1-10.09,10.57,136.22,136.22,0,0,0-21.55,25.8c-.41.67-.8,1.35-1.2,2a57.06,57.06,0,0,1,13.82-10.1,108.9,108.9,0,0,1,15.17-6.57c2.86-2.49,5.77-5,8.79-7.22,1-.77,2.71-2.38,4-1.11S431,333.89,430.23,334.81Z" style="fill:#455a64"></path><path d="M186.51,245.55a3.66,3.66,0,0,1,.32-1c.76-4.28,1.55-8.7,3.63-12.58s5.6-7,8.93-10A105.27,105.27,0,0,1,212,211.8c2.35-1.52,5-2.89,7.89-2.25,1.79.37,3.26,1.66,5.08,1.91,1.59.25,3.23-.23,4.82-.29,2-.1,4.11.16,5.5,1.77a5.5,5.5,0,0,1,.87,5.57A6.28,6.28,0,0,1,233.9,221a18.39,18.39,0,0,0-5.94,6.69c-3.57,6.49-10,8.9-17,10.55-4.07.95-8.25,1.32-12.29,2.29a27.23,27.23,0,0,0-7.17,2.7l-.05,0A114.86,114.86,0,0,1,220,245.55c4.07.86,8.9,1.92,12.21,4.62a7.66,7.66,0,0,1,2.53,3.68c.31.92.24,2,.57,2.89,1.19,3.37,1.69,2.52,3.36,3.71,2,1.45,4.48,3.11,3.11,5.6-2.49,4.52-24.14.84-28.09-.43-8-2.59-16.81-5.83-23.06-11.67C188.49,252,186,248.73,186.51,245.55Z" style="fill:#FF81AE"></path><path d="M186.51,245.55a3.66,3.66,0,0,1,.32-1c.76-4.28,1.55-8.7,3.63-12.58s5.6-7,8.93-10A105.27,105.27,0,0,1,212,211.8c2.35-1.52,5-2.89,7.89-2.25,1.79.37,3.26,1.66,5.08,1.91,1.59.25,3.23-.23,4.82-.29,2-.1,4.11.16,5.5,1.77a5.5,5.5,0,0,1,.87,5.57A6.28,6.28,0,0,1,233.9,221a18.39,18.39,0,0,0-5.94,6.69c-3.57,6.49-10,8.9-17,10.55-4.07.95-8.25,1.32-12.29,2.29a27.23,27.23,0,0,0-7.17,2.7l-.05,0A114.86,114.86,0,0,1,220,245.55c4.07.86,8.9,1.92,12.21,4.62a7.66,7.66,0,0,1,2.53,3.68c.31.92.24,2,.57,2.89,1.19,3.37,1.69,2.52,3.36,3.71,2,1.45,4.48,3.11,3.11,5.6-2.49,4.52-24.14.84-28.09-.43-8-2.59-16.81-5.83-23.06-11.67C188.49,252,186,248.73,186.51,245.55Z" style="opacity:0.30000000000000004"></path><path d="M237.73,240c-14.25,1.19-28.55,1.5-42.78,2.93-.35,0-.43-.56-.08-.62,12.6-2,25.37-2.21,38.08-3.08a75.74,75.74,0,0,0,18.7-3.12c4.08-1.34,7.53-3.13,11.8-2.3a1,1,0,0,1,.69,1.67c-2.65,3.6-10.1,2.46-14.73,2.25A57.63,57.63,0,0,1,237.73,240Z" style="fill:#263238"></path><path d="M226.25,217.53c-12.45,2.15-23.95,7.88-35.36,13a.23.23,0,0,1-.22-.4c14.22-8.44,32-14.53,48.67-14.43,1.47,0,10.79.33,9.63,3.43-.62,1.66-3.8.75-4.89.49-3.59-.81-6.79-2.53-10.49-3l-.09-.06C231,216.79,228.48,217.15,226.25,217.53Z" style="fill:#263238"></path><path d="M246.71,259.31c-5.25,2.1-11.31,2.56-16.9,2.49-12.18-.21-24-3.89-35.12-8.63-.26-.11-.07-.56.18-.46,11.28,4.12,22.8,8,34.94,8.18a55.14,55.14,0,0,0,9.43-.61l.74-.1a.17.17,0,0,1,.11-.14,46.75,46.75,0,0,0,9-5.22c1.31-.94,2.4-1.75,4-1.67a.33.33,0,0,1,.28.21C254.27,256.26,248.64,258.54,246.71,259.31Z" style="fill:#263238"></path><path d="M159.21,242.36a6.13,6.13,0,0,1-1.12-3.05,4,4,0,0,1,.46-2.1,1.83,1.83,0,0,1,.18-.3h0c1.9-2.85,7.36-3,10.08-3.91a45,45,0,0,0,12.75-6.65c7.77-5.82,12.42-14.5,19.65-20.84,2.74-2.39,10.77-7.81,12.78-1.37.66,2.12-.71,3.93-1.72,5.64-1.68,2.85-.77,3.57-.28,6.52a5.57,5.57,0,0,1,0,2.6c-.77,3-4.34,5.33-6.66,7.05-.87.66-1.75,1.28-2.65,1.87,2.52-.75,5.06-1.41,7.63-1.94,3.3-.67,7-1.06,10.1.49,3.32,1.63,4.88,4.39,8.79,5.18,1.91.38,3.84.46,5.65,1.28,2.31,1.05,4.37,3.15,3.89,5.89-.66,3.49-4.3,4.39-7.1,5.62-4.66,2-4.18,7.43-9,8.95-6,1.9-12.84,2-19.38,1.16a47.26,47.26,0,0,1,7.27,3.38c3.81,2.2,3.59,4.24,4.83,7.94.91,2.74,5.66,3.53,4.5,7-.87,2.62-3.93,2.71-6.19,2.54a64.07,64.07,0,0,1-24-6.74c-7.88-4.08-13.59-10.74-19.8-16.89a71.6,71.6,0,0,0-6.78-6A16.9,16.9,0,0,1,159.21,242.36Z" style="fill:#FF81AE"></path><g style="opacity:0.6000000000000001"><path d="M158.09,239.31a4,4,0,0,1,.46-2.1,1.83,1.83,0,0,1,.18-.3h0c4.77-2.54,11.38-2.24,16.34-4a39.76,39.76,0,0,0,18.6-13.43.27.27,0,1,1,.44.32,38.06,38.06,0,0,1-14.47,12.82,39.5,39.5,0,0,1-8.95,3.33c-2.27.55-4.62.75-6.92,1.17,6,.14,12,.27,17.74-1.89,6.74-2.51,15.94-7,19.33-13.53.11-.2.45-.09.35.12-3,6.92-11.2,11.25-17.81,14.05-7.25,3.07-14.94,2.49-22.62,2l-.42.14a74.83,74.83,0,0,0,20.93.26c7-.86,13.91-2.42,21-2a.18.18,0,0,1,0,.36c-7.86,1.26-15.78,2.65-23.68,3.51a51.24,51.24,0,0,1-15-.16,64.51,64.51,0,0,0,24,7.78c11.43,1.43,22-1.4,33-3.76.42-.09.5.54.1.66-11.29,3-22.84,6-34.62,4.6A58.11,58.11,0,0,1,160,239c-.22-.07-.42-.13-.65-.22,5.57,4.8,12.9,7.06,18.43,11.95,3.17,2.79,6,5.92,9.36,8.46a59.06,59.06,0,0,0,11.39,6.28.27.27,0,0,1-.19.51c-8.53-2.77-14.66-8.48-21.42-14C171,247.08,163.29,245.07,158.09,239.31Z" style="fill:#fffefd"></path><path d="M202.5,267.2c.44.06.51-.64.07-.69a6,6,0,0,1-1.65-.57c-.24-.1-.5.23-.31.43A3,3,0,0,0,202.5,267.2Z" style="fill:#fffefd"></path><path d="M206.61,236.09c2.31.09,4.61.07,6.91.26a.28.28,0,0,0,.06-.56,40.83,40.83,0,0,0-7-.32C206.24,235.49,206.25,236.07,206.61,236.09Z" style="fill:#fffefd"></path><path d="M197.4,216.3c.78-.66,1.44-1.45,2.21-2.13s1.65-1.2,2.42-1.87a.18.18,0,0,0-.18-.3,11.15,11.15,0,0,0-4.88,3.89C196.79,216.16,197.13,216.53,197.4,216.3Z" style="fill:#fffefd"></path></g><path d="M152.22,236.8c7.48-.31,18.16-8.35,21.56-6.38,2.66,1.54.65,4.89-1.88,6.91,3.33.56,10.88,1.06,11.59,5.13.75,4.3-6.82,3.79-11,3.33,3.71,2.64,6.06,8.63.35,8C165.56,252.91,153.1,237.94,152.22,236.8Z" style="fill:#FF81AE"></path><path d="M152.22,236.8c7.48-.31,18.16-8.35,21.56-6.38,2.66,1.54.65,4.89-1.88,6.91,3.33.56,10.88,1.06,11.59,5.13.75,4.3-6.82,3.79-11,3.33,3.71,2.64,6.06,8.63.35,8C165.56,252.91,153.1,237.94,152.22,236.8Z" style="fill:#fffefd;opacity:0.6000000000000001"></path><path d="M563.49,245.55a3.66,3.66,0,0,0-.32-1c-.76-4.28-1.55-8.7-3.63-12.58s-5.6-7-8.93-10A105.27,105.27,0,0,0,538,211.8c-2.35-1.52-5-2.89-7.89-2.25-1.79.37-3.26,1.66-5.08,1.91-1.59.25-3.23-.23-4.82-.29-2-.1-4.11.16-5.5,1.77a5.5,5.5,0,0,0-.87,5.57A6.28,6.28,0,0,0,516.1,221a18.39,18.39,0,0,1,5.94,6.69c3.57,6.49,10,8.9,17,10.55,4.07.95,8.25,1.32,12.29,2.29a27.23,27.23,0,0,1,7.17,2.7l0,0A114.86,114.86,0,0,0,530,245.55c-4.07.86-8.9,1.92-12.21,4.62a7.66,7.66,0,0,0-2.53,3.68c-.31.92-.24,2-.57,2.89-1.19,3.37-1.69,2.52-3.36,3.71-2,1.45-4.48,3.11-3.11,5.6,2.49,4.52,24.14.84,28.09-.43,8-2.59,16.81-5.83,23.06-11.67C561.51,252,564,248.73,563.49,245.55Z" style="fill:#FF81AE"></path><path d="M563.49,245.55a3.66,3.66,0,0,0-.32-1c-.76-4.28-1.55-8.7-3.63-12.58s-5.6-7-8.93-10A105.27,105.27,0,0,0,538,211.8c-2.35-1.52-5-2.89-7.89-2.25-1.79.37-3.26,1.66-5.08,1.91-1.59.25-3.23-.23-4.82-.29-2-.1-4.11.16-5.5,1.77a5.5,5.5,0,0,0-.87,5.57A6.28,6.28,0,0,0,516.1,221a18.39,18.39,0,0,1,5.94,6.69c3.57,6.49,10,8.9,17,10.55,4.07.95,8.25,1.32,12.29,2.29a27.23,27.23,0,0,1,7.17,2.7l0,0A114.86,114.86,0,0,0,530,245.55c-4.07.86-8.9,1.92-12.21,4.62a7.66,7.66,0,0,0-2.53,3.68c-.31.92-.24,2-.57,2.89-1.19,3.37-1.69,2.52-3.36,3.71-2,1.45-4.48,3.11-3.11,5.6,2.49,4.52,24.14.84,28.09-.43,8-2.59,16.81-5.83,23.06-11.67C561.51,252,564,248.73,563.49,245.55Z" style="opacity:0.30000000000000004"></path><path d="M512.27,240c14.25,1.19,28.55,1.5,42.78,2.93.35,0,.43-.56.08-.62-12.6-2-25.37-2.21-38.08-3.08a75.74,75.74,0,0,1-18.7-3.12c-4.08-1.34-7.53-3.13-11.8-2.3a1,1,0,0,0-.69,1.67c2.65,3.6,10.1,2.46,14.73,2.25A57.63,57.63,0,0,0,512.27,240Z" style="fill:#263238"></path><path d="M523.75,217.53c12.45,2.15,24,7.88,35.36,13a.23.23,0,0,0,.22-.4c-14.22-8.44-32-14.53-48.67-14.43-1.47,0-10.79.33-9.63,3.43.62,1.66,3.8.75,4.89.49,3.59-.81,6.79-2.53,10.49-3l.09-.06C519,216.79,521.52,217.15,523.75,217.53Z" style="fill:#263238"></path><path d="M503.29,259.31c5.25,2.1,11.31,2.56,16.9,2.49,12.18-.21,24-3.89,35.12-8.63.26-.11.07-.56-.18-.46-11.28,4.12-22.8,8-34.94,8.18a55.14,55.14,0,0,1-9.43-.61l-.74-.1a.17.17,0,0,0-.11-.14,46.75,46.75,0,0,1-9-5.22c-1.31-.94-2.4-1.75-4-1.67a.33.33,0,0,0-.28.21C495.73,256.26,501.36,258.54,503.29,259.31Z" style="fill:#263238"></path><path d="M590.79,242.36a6.13,6.13,0,0,0,1.12-3.05,4,4,0,0,0-.46-2.1,1.83,1.83,0,0,0-.18-.3h0c-1.9-2.85-7.36-3-10.08-3.91a45,45,0,0,1-12.75-6.65c-7.77-5.82-12.42-14.5-19.65-20.84C546,203.11,538,197.69,536,204.13c-.66,2.12.71,3.93,1.72,5.64,1.68,2.85.77,3.57.28,6.52a5.57,5.57,0,0,0,0,2.6c.77,3,4.34,5.33,6.66,7.05.87.66,1.75,1.28,2.65,1.87-2.52-.75-5.06-1.41-7.63-1.94-3.3-.67-7-1.06-10.1.49-3.32,1.63-4.88,4.39-8.79,5.18-1.91.38-3.84.46-5.65,1.28-2.31,1.05-4.37,3.15-3.89,5.89.66,3.49,4.3,4.39,7.1,5.62,4.66,2,4.17,7.43,9,8.95,6,1.9,12.84,2,19.38,1.16a47.26,47.26,0,0,0-7.27,3.38c-3.81,2.2-3.59,4.24-4.83,7.94-.91,2.74-5.66,3.53-4.5,7,.87,2.62,3.93,2.71,6.19,2.54a64.07,64.07,0,0,0,24-6.74c7.88-4.08,13.59-10.74,19.8-16.89a71.6,71.6,0,0,1,6.78-6A16.9,16.9,0,0,0,590.79,242.36Z" style="fill:#FF81AE"></path><g style="opacity:0.6000000000000001"><path d="M591.91,239.31a4,4,0,0,0-.46-2.1,1.83,1.83,0,0,0-.18-.3h0c-4.77-2.54-11.38-2.24-16.34-4a39.76,39.76,0,0,1-18.6-13.43.27.27,0,1,0-.44.32,38.06,38.06,0,0,0,14.47,12.82,39.5,39.5,0,0,0,8.95,3.33c2.27.55,4.62.75,6.92,1.17-6,.14-12,.27-17.74-1.89-6.74-2.51-15.94-7-19.33-13.53-.11-.2-.45-.09-.35.12,3,6.92,11.2,11.25,17.81,14.05,7.25,3.07,14.94,2.49,22.62,2l.42.14a74.83,74.83,0,0,1-20.93.26c-7-.86-13.91-2.42-21-2a.18.18,0,0,0,0,.36c7.86,1.26,15.78,2.65,23.68,3.51a51.24,51.24,0,0,0,15-.16,64.51,64.51,0,0,1-24,7.78c-11.43,1.43-22-1.4-33-3.76-.42-.09-.5.54-.1.66,11.29,3,22.84,6,34.62,4.6A58.11,58.11,0,0,0,590,239c.22-.07.42-.13.65-.22-5.57,4.8-12.9,7.06-18.43,11.95-3.17,2.79-6,5.92-9.36,8.46a59.06,59.06,0,0,1-11.39,6.28.27.27,0,0,0,.19.51c8.53-2.77,14.66-8.48,21.42-14C579,247.08,586.71,245.07,591.91,239.31Z" style="fill:#fffefd"></path><path d="M547.5,267.2c-.44.06-.51-.64-.07-.69a6,6,0,0,0,1.65-.57c.24-.1.5.23.31.43A3,3,0,0,1,547.5,267.2Z" style="fill:#fffefd"></path><path d="M543.39,236.09c-2.31.09-4.61.07-6.91.26a.28.28,0,0,1-.06-.56,40.83,40.83,0,0,1,7-.32C543.76,235.49,543.75,236.07,543.39,236.09Z" style="fill:#fffefd"></path><path d="M552.6,216.3c-.78-.66-1.44-1.45-2.21-2.13s-1.65-1.2-2.42-1.87a.18.18,0,0,1,.18-.3,11.15,11.15,0,0,1,4.88,3.89C553.21,216.16,552.87,216.53,552.6,216.3Z" style="fill:#fffefd"></path></g><path d="M597.78,236.8c-7.48-.31-18.16-8.35-21.56-6.38-2.66,1.54-.65,4.89,1.88,6.91-3.33.56-10.88,1.06-11.59,5.13-.75,4.3,6.82,3.79,11,3.33-3.71,2.64-6.06,8.63-.35,8C584.44,252.91,596.9,237.94,597.78,236.8Z" style="fill:#FF81AE"></path><path d="M597.78,236.8c-7.48-.31-18.16-8.35-21.56-6.38-2.66,1.54-.65,4.89,1.88,6.91-3.33.56-10.88,1.06-11.59,5.13-.75,4.3,6.82,3.79,11,3.33-3.71,2.64-6.06,8.63-.35,8C584.44,252.91,596.9,237.94,597.78,236.8Z" style="fill:#fffefd;opacity:0.6000000000000001"></path><path d="M366.87,327.77c1.34-.44,2.94-1.46,4.11-.59,1.41,1,1.09,4.52.86,6-.83,5.56-5.81,9.59-10.21,12.53a58.38,58.38,0,0,1-5.95,3.42,22.17,22.17,0,0,1,11.49,2.48A24.75,24.75,0,0,1,377.62,363c1.53,3.33,1,4.26-1.45,4.36,2.09,1.66,4.81,4.26,3.9,6.6-1,2.71-6.62,2.29-9.55,2.17.46.91,1.19,1.52.87,2.73a3.15,3.15,0,0,1-2.64,2.06c-3.9.78-9.12-2.08-12.22-4.16a34.3,34.3,0,0,1-7.2-6.62,33.68,33.68,0,0,1,1.27,4.73c.77,3.94,1.71,10.32-.6,13.91-1.89,2.95-4.57,1.92-6.54,0-1.15,3.14-3.63,9.09-6.8,8.66-3.37-.43-3.66-6-3.86-9.28-1.4,1.5-3.34,3-4.9,1.06-1.39-1.69-.68-4.64-1-6.61-.44-2.54-1.62-4.92-1.9-7.49a14.89,14.89,0,0,1,1.11-7.11,14.57,14.57,0,0,1-4.24,2.74c-4.17,1.65-11.86,2.29-15.42-1.12a.62.62,0,0,1-.19-.7,6.35,6.35,0,0,1,1.83-2.72c-4.09-.4-11.14-2.25-5.17-5.86,1.1-.66,3.55-.94,4.33-1.88,1.54-1.84-1.45-2.43-2.17-3.7s0-2.13,1.35-2.48c2.31-.58,4.43-.33,6.74-1.38,2-.86,3.57-2.28,5.44-3.28a11.77,11.77,0,0,1,8.42-.95A23.48,23.48,0,0,1,318.77,335c-.62-2.16-1.64-6.49.37-8.32a2,2,0,0,1,2.35-.39c-.5-2.49-1-5-1.38-7.5-.18-1.29-.51-2.85.65-3.75,2.21-1.74,6.76,1.71,9.23,3.77,0-1.86-.05-4.23,1.35-5.15s3,.08,4.09.9c3.75,2.91,7.15,9,8.29,13.55a19,19,0,0,1,.45,4.18,16.46,16.46,0,0,1,7.1-7.78c1.77-1.11,3-2.6,4.59-3.8.63-.47,1.18-1,2-.81,1.65.34,1.57,2.15,1.34,3.7a25.78,25.78,0,0,1,5.81-3.89c.84-.31,1.6-.86,2.48-.19C369.58,321.08,367.92,325.38,366.87,327.77Z" style="fill:#FF81AE"></path><path d="M366.87,327.77c1.34-.44,2.94-1.46,4.11-.59,1.41,1,1.09,4.52.86,6-.83,5.56-5.81,9.59-10.21,12.53a58.38,58.38,0,0,1-5.95,3.42,22.17,22.17,0,0,1,11.49,2.48A24.75,24.75,0,0,1,377.62,363c1.53,3.33,1,4.26-1.45,4.36,2.09,1.66,4.81,4.26,3.9,6.6-1,2.71-6.62,2.29-9.55,2.17.46.91,1.19,1.52.87,2.73a3.15,3.15,0,0,1-2.64,2.06c-3.9.78-9.12-2.08-12.22-4.16a34.3,34.3,0,0,1-7.2-6.62,33.68,33.68,0,0,1,1.27,4.73c.77,3.94,1.71,10.32-.6,13.91-1.89,2.95-4.57,1.92-6.54,0-1.15,3.14-3.63,9.09-6.8,8.66-3.37-.43-3.66-6-3.86-9.28-1.4,1.5-3.34,3-4.9,1.06-1.39-1.69-.68-4.64-1-6.61-.44-2.54-1.62-4.92-1.9-7.49a14.89,14.89,0,0,1,1.11-7.11,14.57,14.57,0,0,1-4.24,2.74c-4.17,1.65-11.86,2.29-15.42-1.12a.62.62,0,0,1-.19-.7,6.35,6.35,0,0,1,1.83-2.72c-4.09-.4-11.14-2.25-5.17-5.86,1.1-.66,3.55-.94,4.33-1.88,1.54-1.84-1.45-2.43-2.17-3.7s0-2.13,1.35-2.48c2.31-.58,4.43-.33,6.74-1.38,2-.86,3.57-2.28,5.44-3.28a11.77,11.77,0,0,1,8.42-.95A23.48,23.48,0,0,1,318.77,335c-.62-2.16-1.64-6.49.37-8.32a2,2,0,0,1,2.35-.39c-.5-2.49-1-5-1.38-7.5-.18-1.29-.51-2.85.65-3.75,2.21-1.74,6.76,1.71,9.23,3.77,0-1.86-.05-4.23,1.35-5.15s3,.08,4.09.9c3.75,2.91,7.15,9,8.29,13.55a19,19,0,0,1,.45,4.18,16.46,16.46,0,0,1,7.1-7.78c1.77-1.11,3-2.6,4.59-3.8.63-.47,1.18-1,2-.81,1.65.34,1.57,2.15,1.34,3.7a25.78,25.78,0,0,1,5.81-3.89c.84-.31,1.6-.86,2.48-.19C369.58,321.08,367.92,325.38,366.87,327.77Z" style="opacity:0.1"></path><g style="opacity:0.1"><path d="M328.09,328.48c0-.18-.34-.19-.34,0-.27,8.7,4.32,16.72,11.06,21.94-7.58-2.1-14.17,4.14-20.52,7.34a.26.26,0,0,0,.2.48c3.4-1.32,6.21-3.71,9.54-5.18,4.17-1.83,8-2,12.44-1.4a.31.31,0,0,0,.15-.6l-.17-.07s0,0,0-.05C333.2,345.34,329.46,337.37,328.09,328.48Z"></path><path d="M363,334c-5,6.49-11.88,15.5-20.83,16.25l0-.05a24.56,24.56,0,0,1,11.44-15.08c.22-.12.08-.48-.15-.36-6.19,3.14-10.43,8.21-11.74,15.12a25.57,25.57,0,0,1-4-11.74c-.2-3,.17-5.72-1.45-8.39-.17-.28-.62,0-.49.29,1.59,3.78.62,7.9,1.53,11.86a21.5,21.5,0,0,0,4.11,8.42.33.33,0,0,0,0,.65c9.39.23,17.82-9.13,22-16.66A.27.27,0,0,0,363,334Z"></path><path d="M334.09,326.93a4.62,4.62,0,0,0,.55.9,9.63,9.63,0,0,1,.65,1.23c.09.19.41.12.36-.1a3.68,3.68,0,0,0-1.31-2.23A.17.17,0,0,0,334.09,326.93Z"></path><path d="M316,358.91c-.65.08-1.3.21-1.94.32-.25,0-.18.38.06.38a6.33,6.33,0,0,0,2-.34C316.3,359.2,316.2,358.89,316,358.91Z"></path><path d="M353.18,352.87c-3.65-1.24-7.48-1.26-11.3-1.22h-.05s-.09,0-.14,0-.31.11-.47.15-.06,0-.08,0l-.3.13c-8.4,2.78-14.35,11.79-23.81,11.15a.24.24,0,0,0,0,.47c8.58,1.29,14.36-5.91,21.34-9.73a19.22,19.22,0,0,0-3.55,7.61,19.5,19.5,0,0,0,1.06,13.06c.11.22.51.14.44-.12-1.86-7-1.62-16.09,4.11-21.3-.36,3.41.91,6.74,1.63,10.05,1,4.48,2.19,9.65,1.3,14.21-.05.25.37.35.44.1,1-3.74.51-7.66-.13-11.44-.72-4.35-2.92-9.06-2.28-13.48,0,0,0,0,0-.05l.07,0a.2.2,0,0,0,0,.25,40.55,40.55,0,0,0,17.2,15.74c.23.12.45-.27.22-.4a55.44,55.44,0,0,1-16.94-15.62.24.24,0,0,0-.14-.09h0l.07,0c3.84.28,7.84.52,11.49,1.87,3.39,1.25,6.52,3.32,9.7,5,.21.12.39-.23.2-.37C360.09,356.56,356.87,354.14,353.18,352.87Z"></path><path d="M336.44,378.16a20.41,20.41,0,0,0,.43,2.46c.05.15.29.1.3-.05a8.35,8.35,0,0,0-.36-2.47C336.76,377.87,336.39,377.92,336.44,378.16Z"></path><path d="M360.16,368.74c-.21-.08-.31.22-.12.32a10,10,0,0,0,3.68,1.52.2.2,0,0,0,.14-.35A13.93,13.93,0,0,0,360.16,368.74Z"></path><path d="M365.78,361.67a9.82,9.82,0,0,0,3,3c.29.14.48-.24.34-.46a7.38,7.38,0,0,0-1.25-1.31c-.55-.51-1.08-1-1.58-1.59C366,361,365.54,361.37,365.78,361.67Z"></path><path d="M358.69,330.15c-.81,1-1.55,1.89-2.45,2.78a.19.19,0,1,0,.23.29,8.34,8.34,0,0,0,2.7-2.81C359.33,330.13,358.88,329.93,358.69,330.15Z"></path></g><path d="M342.94,348.24a4.07,4.07,0,1,1-5.69.86A4.07,4.07,0,0,1,342.94,348.24Z" style="fill:#fff"></path><path d="M473.56,147.78c.8,1.07,2.18,2.18,1.76,3.49-.5,1.56-3.69,2.33-5.11,2.58-5.2,1-10.28-2.27-14.22-5.29a53.26,53.26,0,0,1-4.85-4.27,20.89,20.89,0,0,1,1.26,11A23.18,23.18,0,0,1,445.46,168c-2.5,2.37-3.5,2.16-4.32,0-.85,2.36-2.33,5.56-4.69,5.47-2.72-.11-4-5.2-4.81-7.85-.68.69-1,1.52-2.17,1.6a3,3,0,0,1-2.63-1.72c-1.87-3.24-.91-8.75,0-12.13a32.08,32.08,0,0,1,3.71-8.41,31.5,31.5,0,0,1-3.82,2.57c-3.27,1.87-8.66,4.63-12.56,3.66-3.19-.79-3.08-3.48-2-5.81-3.15-.08-9.18-.48-9.76-3.44-.64-3.12,4.21-5.05,7.09-6.23-1.76-.8-3.64-2.08-2.43-4,1.08-1.75,3.92-2,5.58-2.9,2.12-1.16,3.88-2.93,6.09-3.95a13.86,13.86,0,0,1,6.66-1.17,13.54,13.54,0,0,1-3.72-2.94c-2.73-3.21-5.63-9.86-3.67-14a.6.6,0,0,1,.56-.39,5.91,5.91,0,0,1,3,.82c-.88-3.77-1.36-10.6,3.65-6.38.92.78,1.91,2.87,3,3.29,2.1.8,1.72-2,2.64-3.06s1.88-.67,2.61.46c1.22,1.88,1.64,3.84,3.26,5.57,1.37,1.48,3.11,2.49,4.57,3.85a11.11,11.11,0,0,1,3.39,7.21,22,22,0,0,1,7.92-10.87c1.73-1.21,5.28-3.42,7.51-2.18a1.86,1.86,0,0,1,1.06,2c2.07-1.19,4.14-2.39,6.25-3.48,1.1-.56,2.39-1.32,3.54-.56,2.22,1.44.52,6.53-.57,9.35,1.64-.6,3.75-1.33,5-.35s.85,2.71.44,3.9c-1.46,4.21-5.82,9.07-9.55,11.47a18.43,18.43,0,0,1-3.58,1.67,15.46,15.46,0,0,1,9.06,4c1.53,1.24,3.22,1.88,4.77,2.94.61.41,1.24.75,1.34,1.56.19,1.57-1.44,2.05-2.89,2.31a24.36,24.36,0,0,1,5.22,4c.53.65,1.24,1.17.91,2.14C480.33,148.18,476,148,473.56,147.78Z" style="fill:#FF81AE"></path><path d="M473.56,147.78c.8,1.07,2.18,2.18,1.76,3.49-.5,1.56-3.69,2.33-5.11,2.58-5.2,1-10.28-2.27-14.22-5.29a53.26,53.26,0,0,1-4.85-4.27,20.89,20.89,0,0,1,1.26,11A23.18,23.18,0,0,1,445.46,168c-2.5,2.37-3.5,2.16-4.32,0-.85,2.36-2.33,5.56-4.69,5.47-2.72-.11-4-5.2-4.81-7.85-.68.69-1,1.52-2.17,1.6a3,3,0,0,1-2.63-1.72c-1.87-3.24-.91-8.75,0-12.13a32.08,32.08,0,0,1,3.71-8.41,31.5,31.5,0,0,1-3.82,2.57c-3.27,1.87-8.66,4.63-12.56,3.66-3.19-.79-3.08-3.48-2-5.81-3.15-.08-9.18-.48-9.76-3.44-.64-3.12,4.21-5.05,7.09-6.23-1.76-.8-3.64-2.08-2.43-4,1.08-1.75,3.92-2,5.58-2.9,2.12-1.16,3.88-2.93,6.09-3.95a13.86,13.86,0,0,1,6.66-1.17,13.54,13.54,0,0,1-3.72-2.94c-2.73-3.21-5.63-9.86-3.67-14a.6.6,0,0,1,.56-.39,5.91,5.91,0,0,1,3,.82c-.88-3.77-1.36-10.6,3.65-6.38.92.78,1.91,2.87,3,3.29,2.1.8,1.72-2,2.64-3.06s1.88-.67,2.61.46c1.22,1.88,1.64,3.84,3.26,5.57,1.37,1.48,3.11,2.49,4.57,3.85a11.11,11.11,0,0,1,3.39,7.21,22,22,0,0,1,7.92-10.87c1.73-1.21,5.28-3.42,7.51-2.18a1.86,1.86,0,0,1,1.06,2c2.07-1.19,4.14-2.39,6.25-3.48,1.1-.56,2.39-1.32,3.54-.56,2.22,1.44.52,6.53-.57,9.35,1.64-.6,3.75-1.33,5-.35s.85,2.71.44,3.9c-1.46,4.21-5.82,9.07-9.55,11.47a18.43,18.43,0,0,1-3.58,1.67,15.46,15.46,0,0,1,9.06,4c1.53,1.24,3.22,1.88,4.77,2.94.61.41,1.24.75,1.34,1.56.19,1.57-1.44,2.05-2.89,2.31a24.36,24.36,0,0,1,5.22,4c.53.65,1.24,1.17.91,2.14C480.33,148.18,476,148,473.56,147.78Z" style="opacity:0.1"></path><g style="opacity:0.1"><path d="M461.21,113.51c.16-.08.07-.36-.11-.31-7.82,2.39-13.56,8.9-16.17,16.47-.43-7.37-8-11.35-12.74-16a.24.24,0,0,0-.36.33c2.2,2.62,5.18,4.4,7.49,6.92a20.58,20.58,0,0,1,5,10.64.29.29,0,0,0,.58-.05c0-.06,0-.11,0-.17s0,0,0,0C447.75,123.14,453.72,117.4,461.21,113.51Z"></path><path d="M466.85,146.25c-7.3-2.51-17.38-5.89-20.75-13.63,0,0,0,0,0,0A23.09,23.09,0,0,1,463,138.27c.17.15.44-.08.27-.25-4.66-4.55-10.46-6.79-17-5.87a24.15,24.15,0,0,1,9.23-7.12c2.61-1.08,5.14-1.58,7-3.82.2-.24-.19-.55-.41-.35-2.88,2.56-6.84,2.94-10.09,5a20.28,20.28,0,0,0-6.25,6.19c-.12-.31-.67-.12-.57.21,2.63,8.42,13.5,13.1,21.45,14.51C467,146.78,467.16,146.35,466.85,146.25Z"></path><path d="M464.4,118.37a4.24,4.24,0,0,0-.63.77,8.08,8.08,0,0,1-.91.94c-.14.14,0,.41.21.29a3.47,3.47,0,0,0,1.59-1.83A.16.16,0,0,0,464.4,118.37Z"></path><path d="M430.49,111.93c-.27-.55-.58-1.09-.87-1.63a.18.18,0,0,0-.32.17,6.4,6.4,0,0,0,.89,1.67C430.32,112.3,430.57,112.11,430.49,111.93Z"></path><path d="M447.09,143.19c0-3.62-1.14-7-2.32-10.42l0,0a.2.2,0,0,0,0-.13l-.28-.38s0-.05,0-.07a2.09,2.09,0,0,0-.2-.22c-5-6.64-14.82-9.21-17.11-17.81a.22.22,0,0,0-.43.09c1.44,8,9.59,11,15.1,16a17.93,17.93,0,0,0-7.84-.86,18.25,18.25,0,0,0-11.3,4.89c-.17.16,0,.49.24.35,5.65-3.77,13.82-6.31,20.19-2.78-3.15.71-5.72,2.84-8.45,4.48-3.69,2.22-7.92,4.87-12.24,5.46-.24,0-.21.43,0,.42,3.64-.22,7-1.87,10.14-3.57,3.65-2,7.18-5.33,11.31-6.1l0,0a.1.1,0,0,0,0,.05.22.22,0,0,0-.23,0,38.15,38.15,0,0,0-8.81,20.06c0,.24.38.32.43.07A51.69,51.69,0,0,1,444.11,133a.29.29,0,0,0,0-.16v0s0,0,0,.07c.92,3.51,1.9,7.13,1.81,10.79-.09,3.4-1,6.8-1.53,10.14,0,.23.32.28.39.07C445.9,150.45,447.08,146.86,447.09,143.19Z"></path><path d="M419.54,135.94a22.75,22.75,0,0,0-2.06,1.12c-.12.09,0,.29.13.26a8.16,8.16,0,0,0,2.1-1.07C419.9,136.14,419.74,135.82,419.54,135.94Z"></path><path d="M435.08,154.19c0-.21-.28-.21-.31,0a9.3,9.3,0,0,0-.25,3.74.19.19,0,0,0,.36,0A13,13,0,0,0,435.08,154.19Z"></path><path d="M443.07,157.05a9.47,9.47,0,0,0-1.78,3.54c0,.3.37.35.52.16a6.55,6.55,0,0,0,.78-1.51c.29-.64.6-1.27.94-1.89C443.7,157.05,443.27,156.75,443.07,157.05Z"></path><path d="M469,141.23c-1.1-.44-2.16-.81-3.21-1.35a.18.18,0,0,0-.2.3,7.8,7.8,0,0,0,3.32,1.55C469.18,141.79,469.22,141.33,469,141.23Z"></path></g><path d="M448.12,132.69a3.83,3.83,0,1,1-2.48-4.81A3.82,3.82,0,0,1,448.12,132.69Z" style="fill:#fff"></path></g></svg>